<svg width="411" height="434" viewBox="0 0 411 434" fill="none" xmlns="http://www.w3.org/2000/svg">
<path opacity="0.2" d="M54 385C54 363.316 346.64 349.872 381 346C438.42 339.529 332.5 375.5 362.5 396.5C383.9 411.48 392 433.5 343.5 433.5C316.537 433.5 263.312 415.943 211.5 407C150.3 396.437 54 406.683 54 385Z" fill="#285077"/>
<path d="M81.5001 235C112.3 228.2 143 253.5 154.5 267C170.167 249.667 219.1 212.3 289.5 201.5C377.5 188 404.5 228 410.5 287.5C416.5 347 352.5 372 328 371.5C303.5 371 229 385.5 164.5 393.5C100 401.5 27.5001 395 17.5001 345.5C7.50013 296 43.0001 243.5 81.5001 235Z" fill="#4099F1"/>
<path d="M81.5001 228C112.3 221.2 143 246.5 154.5 260C170.167 242.667 219.1 205.3 289.5 194.5C377.5 181 404.5 221 410.5 280.5C416.5 340 352.5 365 328 364.5C303.5 364 229 378.5 164.5 386.5C100 394.5 27.5001 388 17.5001 338.5C7.50013 289 43.0001 236.5 81.5001 228Z" fill="#76B9F7"/>
<path d="M159.5 275L134.5 263.5C162.1 305.5 119.167 363.833 102.5 378.5C140.9 358.1 162 294.833 159.5 275Z" fill="#4099F1"/>
<path d="M320.574 205.403C322.442 211.13 323.181 216.701 322.416 221.047C322.112 222.992 321.359 224.84 320.217 226.444C319.743 227.113 319.14 227.68 318.445 228.113C317.75 228.546 316.975 228.837 316.166 228.968C315.358 229.099 314.531 229.068 313.734 228.876C312.937 228.685 312.187 228.337 311.526 227.852C310.755 227.346 310.057 226.738 309.449 226.045C308.768 225.236 308.168 224.363 307.658 223.437C305.494 219.552 304.486 214.103 304.503 208.053C304.556 202.824 305.106 197.612 306.146 192.487C306.346 191.496 306.554 190.592 306.772 189.802C306.959 189.082 307.188 188.374 307.458 187.681C307.936 186.49 308.44 185.943 309.092 185.734C309.744 185.525 310.466 186.134 311.317 187.064C312.398 188.34 313.35 189.72 314.159 191.183C316.789 195.686 318.939 200.452 320.574 205.403Z" fill="#1F4060"/>
<path d="M316.306 206.602C317.299 210.298 317.661 214.136 317.375 217.953C317.01 220.968 315.871 222.994 314.272 223.28C312.673 223.567 310.952 221.864 309.727 219.091C308.329 215.53 307.556 211.755 307.441 207.931C307.214 204.145 307.325 200.347 307.771 196.58C308.154 193.625 308.692 191.774 309.509 191.678C310.326 191.583 311.422 193.139 312.656 195.85C314.204 199.313 315.426 202.912 316.306 206.602Z" fill="#121A26"/>
<path d="M346.022 212.251C346.022 211.747 345.961 211.234 345.892 210.704C345.822 210.174 345.718 209.635 345.596 209.088C345.474 208.54 345.327 207.984 345.153 207.419C344.88 206.533 344.561 205.663 344.197 204.811C343.82 203.931 343.394 203.044 342.919 202.152C342.754 201.856 342.598 201.552 342.424 201.283C341.92 200.379 341.363 199.475 340.755 198.571C340.346 197.963 339.886 197.354 339.486 196.754L338.817 195.885C335.637 191.723 331.999 187.933 327.97 184.587C326.676 183.502 325.278 182.547 323.798 181.736C322.625 181.145 321.738 181.04 321.095 181.379C320.848 181.553 320.643 181.778 320.492 182.039C320.342 182.3 320.251 182.591 320.226 182.892C321.558 183.53 322.781 184.375 323.85 185.395C324.12 185.638 324.406 185.899 324.719 186.16C325.51 186.89 326.353 187.724 327.24 188.654C327.813 189.254 328.396 189.888 328.978 190.566C331.191 193.07 333.224 195.728 335.062 198.519C336.922 201.302 338.453 204.292 339.625 207.428C339.929 208.297 340.19 209.166 340.399 209.948C340.714 211.153 340.926 212.383 341.033 213.624C341.033 214.059 341.085 214.494 341.085 214.893C341.122 216.718 340.669 218.519 339.773 220.108C340.869 220.171 341.962 219.927 342.928 219.404C344.019 218.761 344.866 217.773 345.335 216.597C345.892 215.22 346.127 213.733 346.022 212.251Z" fill="#121A26"/>
<path d="M365.586 193.469C365.406 192.986 365.201 192.513 364.969 192.052C364.726 191.574 364.456 191.096 364.152 190.609C363.848 190.123 363.526 189.653 363.178 189.167C362.635 188.425 362.055 187.712 361.44 187.029C360.788 186.325 360.093 185.621 359.346 184.934L358.572 184.256C357.79 183.569 356.964 182.909 356.086 182.257C355.513 181.822 354.913 181.388 354.296 180.971L353.357 180.345C348.99 177.504 344.327 175.147 339.451 173.314C337.879 172.7 336.248 172.249 334.584 171.966C334.051 171.879 333.508 171.879 332.976 171.966C332.574 172.009 332.201 172.194 331.924 172.488C331.748 172.737 331.626 173.021 331.568 173.321C331.51 173.62 331.515 173.929 331.585 174.226C333.045 174.381 334.472 174.768 335.809 175.373L336.887 175.834C337.895 176.277 338.973 176.79 340.094 177.372C340.824 177.746 341.589 178.163 342.371 178.598C345.283 180.23 348.074 182.069 350.724 184.099C353.402 186.128 355.834 188.461 357.972 191.053C358.546 191.765 359.067 192.478 359.546 193.191C360.239 194.219 360.836 195.311 361.327 196.45C361.501 196.841 361.649 197.232 361.779 197.615C362.422 199.331 362.594 201.189 362.275 202.995C363.326 202.686 364.267 202.083 364.986 201.256C366.594 199.388 366.707 196.467 365.586 193.469Z" fill="#121A26"/>
<path d="M377.649 167.986C377.301 167.602 376.933 167.236 376.546 166.891C376.135 166.521 375.706 166.173 375.259 165.848C374.79 165.509 374.303 165.187 373.79 164.875C372.993 164.393 372.169 163.958 371.322 163.571C370.423 163.154 369.504 162.783 368.567 162.458L367.594 162.137C366.603 161.824 365.577 161.537 364.517 161.268C363.813 161.103 363.091 160.946 362.353 160.807L361.249 160.607C356.105 159.798 350.897 159.46 345.691 159.599C341.528 159.729 338.99 160.086 338.521 161.268C338.474 161.542 338.483 161.822 338.548 162.092C338.612 162.363 338.73 162.617 338.895 162.841C340.304 162.559 341.745 162.463 343.179 162.554L344.335 162.606C345.413 162.658 346.612 162.754 347.89 162.893C348.716 162.98 349.559 163.076 350.454 163.197C353.758 163.623 357.03 164.264 360.249 165.118C363.5 165.956 366.637 167.185 369.593 168.777C370.384 169.22 371.148 169.698 371.852 170.185C372.871 170.896 373.82 171.702 374.686 172.593C374.981 172.897 375.268 173.218 375.555 173.54C376.794 174.945 377.611 176.671 377.91 178.52C378.833 177.822 379.524 176.862 379.892 175.765C380.33 174.501 380.351 173.131 379.953 171.854C379.478 170.411 378.691 169.091 377.649 167.986Z" fill="#121A26"/>
<path d="M377.615 138.366C377.127 138.173 376.628 138.011 376.12 137.879C375.588 137.737 375.048 137.624 374.504 137.54C373.947 137.453 373.374 137.383 372.765 137.349C371.833 137.301 370.899 137.301 369.967 137.349C369.002 137.401 368.011 137.505 367.003 137.662L365.986 137.827C364.96 138.009 363.917 138.244 362.866 138.513C362.162 138.705 361.458 138.904 360.736 139.122L359.667 139.469C354.742 141.159 349.975 143.279 345.422 145.805C343.963 146.574 342.56 147.445 341.224 148.413C340.294 149.152 339.669 149.777 339.79 150.325C339.836 150.539 339.952 150.732 340.12 150.872C340.315 151.081 340.544 151.255 340.798 151.385C341.971 150.6 343.216 149.93 344.518 149.386L345.57 148.934C346.569 148.517 347.673 148.065 348.873 147.622L351.315 146.753C354.439 145.621 357.633 144.689 360.876 143.963C364.151 143.203 367.509 142.853 370.871 142.92C371.744 142.948 372.614 143.026 373.478 143.154C374.715 143.324 375.932 143.615 377.111 144.024C377.52 144.171 377.919 144.337 378.302 144.51C380.074 145.246 381.586 146.493 382.647 148.091C382.891 147.534 383.069 146.951 383.178 146.353C383.26 145.759 383.26 145.156 383.178 144.562C382.973 143.192 382.369 141.913 381.439 140.886C380.365 139.776 379.059 138.915 377.615 138.366Z" fill="#121A26"/>
<path d="M364.673 112.77C364.163 112.814 363.655 112.887 363.152 112.987C362.639 113.091 362.109 113.222 361.553 113.378C360.984 113.529 360.424 113.712 359.875 113.926C359 114.25 358.147 114.631 357.32 115.064C356.451 115.507 355.582 116.003 354.756 116.559L353.887 117.133C353.018 117.724 352.149 118.367 351.341 119.053C350.776 119.514 350.219 119.992 349.663 120.488L348.794 121.244C345.028 124.837 341.568 128.738 338.451 132.908C337.436 134.264 336.563 135.72 335.844 137.253C335.348 138.427 335.27 139.296 335.592 139.861C335.775 140.08 336.005 140.254 336.266 140.37C336.527 140.486 336.81 140.541 337.095 140.53C337.696 139.215 338.48 137.992 339.425 136.897L340.155 136.028C340.876 135.159 341.615 134.29 342.484 133.351C343.04 132.742 343.631 132.117 344.222 131.482C346.554 129.095 349.052 126.876 351.697 124.842C354.335 122.777 357.206 121.027 360.249 119.627C361.119 119.262 361.909 118.941 362.726 118.671C363.905 118.259 365.122 117.968 366.359 117.802C366.785 117.75 367.229 117.715 367.62 117.698C369.474 117.567 371.33 117.939 372.991 118.775C372.952 117.636 372.607 116.528 371.991 115.568C371.637 115.03 371.2 114.552 370.696 114.152C370.161 113.781 369.576 113.488 368.958 113.282C367.583 112.808 366.122 112.633 364.673 112.77Z" fill="#121A26"/>
<path d="M341.129 94.8568C340.685 95.1244 340.256 95.4145 339.842 95.726C339.425 96.0649 338.973 96.43 338.599 96.8211C338.226 97.2122 337.791 97.638 337.4 98.09C336.795 98.7863 336.232 99.5177 335.714 100.28C335.166 101.08 334.653 101.932 334.158 102.818L333.671 103.687C333.193 104.609 332.741 105.582 332.315 106.581C332.037 107.251 331.759 107.937 331.498 108.633L331.116 109.693C329.439 114.634 328.226 119.72 327.492 124.886C327.234 126.522 327.092 128.175 327.066 129.831C327.057 130.336 327.121 130.839 327.257 131.326C327.282 131.49 327.342 131.646 327.432 131.785C327.522 131.925 327.64 132.044 327.779 132.134C327.979 132.239 328.21 132.27 328.43 132.221C328.714 132.185 328.99 132.103 329.247 131.978C329.316 130.561 329.525 129.155 329.873 127.78C329.96 127.423 330.056 127.05 330.143 126.667C330.412 125.607 330.716 124.46 331.064 123.243C331.29 122.452 331.533 121.626 331.811 120.774C332.798 117.587 333.988 114.466 335.375 111.431C336.755 108.372 338.507 105.494 340.59 102.862C341.172 102.158 341.763 101.497 342.371 100.889C343.25 99.9929 344.22 99.1918 345.265 98.4985C345.631 98.2638 345.996 98.0465 346.369 97.8466C348.02 96.8715 349.922 96.4087 351.836 96.5169C351.543 95.987 351.184 95.4963 350.767 95.0567C350.35 94.6384 349.876 94.2814 349.359 93.9964C348.161 93.3132 346.774 93.0358 345.405 93.2054C343.868 93.4083 342.403 93.9744 341.129 94.8568Z" fill="#121A26"/>
<path d="M313.325 89.2676C313.038 89.704 312.777 90.1568 312.542 90.6235C312.299 91.1015 312.073 91.6056 311.865 92.1271C311.656 92.6486 311.465 93.1961 311.282 93.7611C311.012 94.6439 310.789 95.5404 310.613 96.4467C310.422 97.3853 310.283 98.3588 310.178 99.367C310.178 99.7059 310.109 100.054 310.083 100.401C310.005 101.436 309.961 102.505 309.961 103.591C309.961 104.321 309.961 105.06 309.961 105.807L310.013 106.929C310.339 112.14 311.213 117.302 312.621 122.33C313.785 126.267 314.924 128.761 316.271 128.866C316.559 128.858 316.842 128.789 317.1 128.661C317.358 128.533 317.586 128.351 317.766 128.127C317.106 126.834 316.627 125.456 316.341 124.033C316.254 123.677 316.176 123.303 316.089 122.912C315.863 121.852 315.645 120.67 315.454 119.435C315.333 118.566 315.211 117.758 315.106 116.828C314.703 113.515 314.532 110.178 314.594 106.842C314.628 103.492 315.057 100.157 315.871 96.9073C316.106 96.0382 316.375 95.169 316.671 94.3781C317.1 93.2133 317.636 92.0903 318.27 91.0232C318.496 90.6582 318.722 90.3019 318.966 89.9629C319.988 88.4192 321.429 87.1983 323.12 86.4429C322.229 85.7425 321.154 85.314 320.026 85.2088C318.731 85.1183 317.441 85.4408 316.341 86.13C315.122 86.9472 314.093 88.0173 313.325 89.2676Z" fill="#121A26"/>
<path d="M285.625 94.7175C285.52 95.2316 285.441 95.7509 285.391 96.2733C285.338 96.8122 285.312 97.3684 285.312 97.9334C285.312 98.4983 285.312 99.0806 285.391 99.6716C285.473 100.597 285.606 101.516 285.79 102.427C285.99 103.374 286.234 104.339 286.538 105.312L286.851 106.286C287.19 107.277 287.572 108.267 288.007 109.267C288.293 109.936 288.598 110.605 288.928 111.283L289.423 112.291C291.839 116.911 294.657 121.309 297.845 125.433C298.83 126.766 299.927 128.013 301.122 129.161C301.991 129.978 302.817 130.396 303.434 130.196C303.689 130.077 303.917 129.906 304.101 129.693C304.285 129.481 304.422 129.231 304.503 128.962C303.427 128 302.485 126.898 301.704 125.685L301.052 124.729C300.461 123.86 299.827 122.808 299.175 121.704C298.758 120.992 298.306 120.244 297.906 119.462C296.29 116.543 294.867 113.52 293.647 110.414C292.387 107.305 291.512 104.053 291.04 100.732C290.929 99.8668 290.862 98.9965 290.84 98.1246C290.803 96.8797 290.885 95.6341 291.083 94.4046C291.153 93.9787 291.24 93.5355 291.344 93.1618C291.744 91.3388 292.648 89.6646 293.952 88.3293C292.851 88.0033 291.68 88.0033 290.579 88.3293C288.085 89.0681 286.268 91.4756 285.625 94.7175Z" fill="#121A26"/>
<path d="M382.647 140.808C382.413 139.704 382.109 138.426 381.778 137.062C381.604 136.384 381.448 135.671 381.24 134.967C381.031 134.263 380.788 133.559 380.553 132.855C380.318 132.151 380.083 131.439 379.849 130.752C379.727 130.404 379.606 130.057 379.493 129.718C379.38 129.379 379.223 129.066 379.093 128.753C378.545 127.484 378.032 126.311 377.598 125.276C377.163 124.242 376.729 123.477 376.442 122.912C376.155 122.347 375.972 122.043 375.972 122.043L375.486 121.174C374.949 120.145 374.112 119.302 373.087 118.758C371.426 117.921 369.57 117.549 367.716 117.68C367.307 117.68 366.847 117.732 366.455 117.784C365.218 117.95 364.001 118.242 362.823 118.653C362.006 118.923 361.18 119.244 360.345 119.61C357.302 121.009 354.431 122.759 351.793 124.824C349.148 126.859 346.65 129.078 344.318 131.465C343.693 132.099 343.102 132.725 342.58 133.333C341.711 134.281 340.972 135.158 340.251 136.01L339.521 136.879C338.576 137.974 337.792 139.197 337.192 140.512C337.066 140.759 336.991 141.028 336.97 141.304C336.949 141.58 336.983 141.857 337.07 142.12L337.252 142.468L337.443 142.807C337.615 143.083 337.76 143.374 337.878 143.676C338.034 144.05 338.217 144.476 338.426 144.928L338.582 145.275L338.686 145.64L338.921 146.362L339.182 147.083C339.251 147.326 339.286 147.57 339.347 147.796C339.443 148.248 339.564 148.665 339.66 149.039C339.738 149.777 339.825 150.264 339.825 150.264C339.703 149.717 340.329 149.091 341.259 148.352C342.595 147.384 343.998 146.513 345.457 145.745C350.01 143.218 354.777 141.098 359.702 139.409L360.771 139.061C361.493 138.844 362.197 138.644 362.901 138.453C363.952 138.183 364.995 137.948 366.021 137.766L367.038 137.601C368.046 137.444 369.037 137.34 370.002 137.288C370.934 137.24 371.868 137.24 372.8 137.288C373.409 137.288 373.982 137.392 374.538 137.479C375.083 137.564 375.622 137.677 376.155 137.818C376.663 137.95 377.162 138.113 377.65 138.305C379.104 138.839 380.424 139.684 381.518 140.782C382.446 141.813 383.05 143.095 383.256 144.467C383.256 144.467 382.986 143.042 382.647 140.808Z" fill="#2C5777"/>
<path d="M331.82 120.861C331.551 121.73 331.299 122.547 331.073 123.338C330.725 124.546 330.421 125.702 330.151 126.754C330.065 127.145 329.969 127.519 329.882 127.875C329.534 129.247 329.324 130.65 329.256 132.064C329.228 132.316 329.256 132.571 329.337 132.812C329.418 133.052 329.551 133.271 329.726 133.455L330.004 133.664C331.027 134.424 331.979 135.276 332.846 136.21C333.002 136.393 333.167 136.566 333.324 136.74L333.558 137.01C333.654 137.123 333.741 137.244 333.828 137.366L334.793 138.626C335.033 138.896 335.248 139.187 335.436 139.495L335.653 139.834C335.332 139.27 335.41 138.4 335.905 137.227C336.624 135.693 337.498 134.237 338.513 132.881C341.629 128.712 345.089 124.811 348.855 121.217L349.724 120.461C350.281 119.966 350.837 119.488 351.402 119.027C352.271 118.341 353.14 117.697 353.949 117.106L354.818 116.533C355.687 115.977 356.556 115.481 357.382 115.038C358.208 114.604 359.062 114.224 359.937 113.899C360.485 113.686 361.045 113.503 361.614 113.352C362.17 113.195 362.701 113.065 363.214 112.961C363.716 112.86 364.224 112.788 364.735 112.743C366.198 112.576 367.681 112.727 369.08 113.187C369.698 113.392 370.283 113.685 370.818 114.056C371.322 114.457 371.759 114.935 372.113 115.472L371.575 114.664C371.123 113.954 370.633 113.269 370.106 112.613L367.959 109.814L367.351 109.032L366.629 108.163C366.134 107.607 365.63 107.033 365.117 106.425C363.219 104.368 361.187 102.44 359.033 100.654L357.842 99.6542L356.886 98.9327L356.017 98.3157L355.148 97.6725C354.16 96.9635 352.99 96.5505 351.776 96.4818C349.866 96.3826 347.968 96.8449 346.317 97.8116C345.944 98.0115 345.579 98.2288 345.214 98.4722C344.168 99.1618 343.198 99.9601 342.319 100.854C341.711 101.462 341.12 102.123 340.538 102.827C338.455 105.459 336.703 108.337 335.323 111.396C333.952 114.472 332.782 117.634 331.82 120.861Z" fill="#2C5777"/>
<path d="M315.185 116.837C315.289 117.706 315.411 118.575 315.532 119.444C315.724 120.713 315.941 121.895 316.167 122.921C316.254 123.312 316.332 123.686 316.419 124.042C316.705 125.465 317.185 126.843 317.844 128.136C317.967 128.398 318.143 128.633 318.359 128.826C318.576 129.019 318.829 129.165 319.105 129.257L319.496 129.318L319.895 129.387L320.921 129.622C321.356 129.7 321.79 129.857 322.346 129.996C322.903 130.135 323.381 130.326 323.911 130.5C325.242 130.966 326.531 131.548 327.761 132.238C327.622 132.147 327.504 132.029 327.414 131.889C327.325 131.75 327.265 131.593 327.24 131.43C327.104 130.943 327.039 130.44 327.048 129.935C327.074 128.278 327.217 126.626 327.474 124.989C328.208 119.824 329.422 114.738 331.099 109.797L331.481 108.736C331.742 108.041 332.02 107.355 332.298 106.685C332.724 105.686 333.167 104.712 333.654 103.791L334.141 102.922C334.636 102.053 335.149 101.184 335.697 100.384C336.215 99.6215 336.778 98.8901 337.383 98.1938C337.774 97.7419 338.173 97.3247 338.582 96.9249C338.99 96.5251 339.408 96.1688 339.825 95.8298C340.239 95.5183 340.668 95.2282 341.111 94.9607C342.386 94.1129 343.841 93.5769 345.361 93.3962C346.73 93.2265 348.117 93.504 349.316 94.1871L348.447 93.683C347.873 93.3615 347.056 92.9095 346.048 92.4401C343.63 91.243 341.143 90.1924 338.599 89.2939C337.226 88.8158 335.853 88.3378 334.558 87.9901C333.263 87.6425 332.046 87.2775 331.003 87.0602L328.483 86.4953L327.527 86.3214L326.605 86.165C325.468 85.9615 324.297 86.1038 323.242 86.5734C321.551 87.3289 320.11 88.5498 319.087 90.0935C318.844 90.4325 318.618 90.7888 318.392 91.1538C317.757 92.2209 317.222 93.3439 316.793 94.5087C316.497 95.2996 316.228 96.1514 315.993 97.0379C315.178 100.288 314.75 103.622 314.715 106.972C314.645 110.267 314.802 113.563 315.185 116.837Z" fill="#2C5777"/>
<path d="M297.906 119.462C298.332 120.244 298.776 120.992 299.175 121.704C299.827 122.808 300.462 123.825 301.053 124.729L301.704 125.685C302.486 126.898 303.427 128.001 304.503 128.962V128.91C304.715 129.118 304.968 129.278 305.247 129.38C305.526 129.482 305.824 129.523 306.12 129.501L306.467 129.414C306.602 129.378 306.738 129.352 306.876 129.336L307.98 129.153C308.849 129.005 310.126 128.875 311.378 128.797C311.995 128.797 312.621 128.797 313.203 128.736H314.794L316.323 128.84C314.976 128.736 313.838 126.233 312.673 122.304C311.265 117.276 310.391 112.114 310.065 106.903L310.013 105.782C310.013 105.034 309.97 104.296 310.013 103.566C310.013 102.479 310.013 101.41 310.135 100.376C310.135 100.028 310.196 99.6805 310.231 99.3415C310.335 98.3333 310.474 97.3599 310.665 96.4212C310.841 95.5149 311.065 94.6184 311.335 93.7355C311.517 93.1706 311.708 92.623 311.917 92.1015C312.125 91.5801 312.351 91.076 312.595 90.5979C312.829 90.1313 313.09 89.6786 313.377 89.2421C314.169 87.9869 315.225 86.9191 316.471 86.1132C317.571 85.424 318.861 85.1015 320.156 85.1919C320.156 85.1919 318.757 85.0702 316.68 84.9659C315.628 84.9659 314.411 84.9051 313.099 84.8965C311.787 84.8878 310.404 84.9398 309.014 85.0267C306.233 85.1832 303.46 85.5048 301.391 85.8264L298.888 86.2523C298.28 86.3479 297.941 86.4347 297.941 86.4347L297.124 86.6086C295.98 86.8598 294.935 87.4398 294.117 88.2773H294.03C292.726 89.6126 291.823 91.2868 291.422 93.1098C291.318 93.5096 291.231 93.9268 291.162 94.3527C290.963 95.5822 290.882 96.8276 290.919 98.0725C290.941 98.9445 291.007 99.8148 291.118 100.68C291.59 104.001 292.466 107.253 293.726 110.362C294.918 113.484 296.314 116.524 297.906 119.462Z" fill="#2C5777"/>
<path d="M341.024 213.581C340.918 212.34 340.705 211.11 340.39 209.904C340.181 209.035 339.92 208.244 339.616 207.384C338.444 204.248 336.913 201.259 335.053 198.475C333.215 195.684 331.182 193.027 328.969 190.523C328.369 189.845 327.787 189.21 327.231 188.611C326.362 187.681 325.493 186.872 324.71 186.116C324.406 185.855 324.119 185.595 323.841 185.351C322.772 184.332 321.549 183.487 320.217 182.848C319.678 182.577 319.053 182.53 318.479 182.718L317.123 183.257C316.983 183.366 316.831 183.459 316.671 183.535L315.228 184.108C314.707 184.308 314.133 184.456 313.577 184.656C313.037 184.849 312.486 185.006 311.925 185.125C311.404 185.247 310.917 185.412 310.5 185.482L309.109 185.725C309.761 185.586 310.483 186.125 311.334 187.055C312.415 188.331 313.367 189.711 314.177 191.174C316.812 195.679 318.968 200.448 320.608 205.402C322.477 211.13 323.215 216.701 322.451 221.047C322.146 222.992 321.394 224.84 320.252 226.444C319.279 227.77 317.836 228.675 316.219 228.973L319.556 228.365C320.556 228.174 321.686 227.852 322.911 227.557C324.137 227.261 325.432 226.905 326.683 226.479C330.339 225.308 333.913 223.897 337.382 222.255C338.385 221.788 339.22 221.023 339.773 220.065C340.669 218.475 341.122 216.674 341.085 214.85C341.024 214.441 341.024 214.016 341.024 213.581Z" fill="#2C5777"/>
<path d="M342.293 178.598C341.511 178.163 340.755 177.729 340.016 177.373C338.895 176.79 337.817 176.278 336.809 175.834L335.731 175.374C334.395 174.771 332.973 174.384 331.516 174.226C331.21 174.169 330.895 174.18 330.595 174.26C330.294 174.339 330.015 174.485 329.778 174.687L329.447 175.017C329.351 175.132 329.246 175.239 329.135 175.339L328.265 176.13C327.561 176.825 326.527 177.616 325.484 178.459C324.441 179.302 323.346 180.006 322.494 180.484L321.495 181.119L321.104 181.336C321.747 180.997 322.633 181.101 323.807 181.692C325.287 182.504 326.685 183.458 327.979 184.543C332.007 187.89 335.646 191.68 338.825 195.842L339.495 196.711C339.938 197.311 340.364 197.919 340.764 198.527C341.343 199.431 341.899 200.335 342.432 201.239C342.606 201.535 342.763 201.839 342.928 202.108C343.409 203.001 343.835 203.887 344.205 204.768C344.57 205.62 344.889 206.49 345.161 207.375C345.335 207.955 345.483 208.511 345.605 209.044C345.726 209.592 345.822 210.13 345.9 210.661C345.979 211.191 346.013 211.704 346.031 212.208C346.116 213.672 345.869 215.137 345.309 216.493C344.84 217.669 343.993 218.657 342.902 219.3L343.71 218.839L345.779 217.553C347.517 216.519 349.69 214.945 351.863 213.39C354.035 211.834 356.069 210.07 357.538 208.688L359.337 207.054C359.763 206.654 359.998 206.411 359.998 206.411L360.676 205.733C361.435 204.946 361.964 203.966 362.205 202.899C362.52 201.099 362.349 199.248 361.71 197.537C361.571 197.154 361.423 196.763 361.258 196.372C360.765 195.233 360.169 194.142 359.476 193.113C358.998 192.4 358.477 191.687 357.903 190.975C355.762 188.386 353.33 186.052 350.654 184.021C347.998 182.02 345.204 180.208 342.293 178.598Z" fill="#2C5777"/>
<path d="M350.455 163.223C349.585 163.101 348.716 163.006 347.89 162.919C346.613 162.78 345.414 162.684 344.336 162.632L343.18 162.58C341.745 162.488 340.305 162.585 338.895 162.867C338.165 163.058 337.696 163.344 337.522 163.788C337.474 163.91 337.419 164.029 337.357 164.144L336.67 165.483C336.443 165.953 336.188 166.408 335.905 166.847C335.611 167.382 335.289 167.902 334.94 168.403L333.897 169.933L332.88 171.228C332.652 171.532 332.406 171.822 332.142 172.097L331.846 172.436C332.123 172.142 332.496 171.957 332.898 171.914C333.43 171.827 333.973 171.827 334.506 171.914C336.17 172.197 337.801 172.648 339.373 173.261C344.25 175.094 348.912 177.452 353.279 180.293L354.218 180.919C354.835 181.336 355.435 181.788 356.008 182.205C356.877 182.857 357.747 183.517 358.494 184.204L359.268 184.882C360.015 185.568 360.71 186.272 361.362 186.976C361.977 187.66 362.557 188.373 363.1 189.114C363.448 189.601 363.778 190.079 364.074 190.557C364.369 191.035 364.648 191.522 364.891 192C365.122 192.461 365.328 192.934 365.508 193.417C366.629 196.415 366.516 199.336 364.839 201.169L365.456 200.465C365.847 200.022 366.403 199.388 367.02 198.571L369.158 195.798C369.915 194.764 370.679 193.608 371.453 192.469C372.226 191.331 372.93 190.131 373.6 188.993C374.269 187.854 374.886 186.829 375.338 185.873C376.294 183.987 376.92 182.735 376.92 182.735C376.92 182.735 377.033 182.535 377.128 182.318C377.224 182.101 377.311 181.883 377.311 181.883C377.766 180.815 377.922 179.644 377.763 178.494C377.463 176.645 376.647 174.918 375.408 173.513C375.147 173.192 374.86 172.87 374.538 172.566C373.673 171.675 372.724 170.869 371.705 170.159C371.001 169.672 370.236 169.194 369.445 168.751C366.49 167.159 363.352 165.93 360.102 165.091C356.93 164.262 353.707 163.638 350.455 163.223Z" fill="#2C5777"/>
<path d="M351.315 146.701L348.873 147.57C347.673 148.022 346.569 148.439 345.57 148.882L344.518 149.334C343.216 149.878 341.971 150.548 340.798 151.333H340.851C340.26 151.768 339.981 152.202 339.981 152.585C339.99 152.683 339.99 152.782 339.981 152.88C339.981 152.88 339.981 153.384 339.981 154.149C339.966 154.589 339.925 155.027 339.86 155.461C339.86 155.705 339.86 155.957 339.799 156.209C339.738 156.461 339.695 156.722 339.651 156.991C339.577 157.512 339.475 158.028 339.347 158.538C339.208 159.034 339.086 159.503 338.991 159.903C338.895 160.303 338.73 160.642 338.66 160.876L338.539 161.241C339.008 160.059 341.546 159.703 345.709 159.573C350.915 159.434 356.122 159.771 361.267 160.581L362.371 160.781C363.109 160.92 363.831 161.076 364.535 161.241C365.595 161.485 366.621 161.771 367.611 162.11L368.585 162.432C369.521 162.756 370.441 163.127 371.34 163.545C372.187 163.932 373.011 164.367 373.808 164.848C374.321 165.161 374.808 165.483 375.277 165.822C375.724 166.147 376.153 166.495 376.563 166.865C376.951 167.21 377.319 167.575 377.667 167.96C378.703 169.075 379.481 170.404 379.944 171.853C380.343 173.13 380.321 174.501 379.884 175.765C379.884 175.765 379.997 175.426 380.205 174.826C380.414 174.226 380.718 173.383 381.014 172.323L381.97 168.698C382.335 167.377 382.543 165.891 382.839 164.44C382.96 163.71 383.108 162.988 383.204 162.258C383.299 161.528 383.36 160.807 383.438 160.103C383.56 158.703 383.751 157.417 383.751 156.279C383.751 154.01 383.83 152.506 383.83 152.506V152.054C383.83 151.837 383.83 151.611 383.83 151.611C383.758 150.372 383.362 149.173 382.682 148.135V148.039C381.621 146.441 380.108 145.194 378.336 144.458C377.954 144.284 377.554 144.119 377.146 143.971C375.966 143.563 374.749 143.272 373.513 143.102C372.649 142.974 371.778 142.896 370.905 142.868C367.543 142.801 364.186 143.151 360.91 143.911C357.656 144.635 354.451 145.567 351.315 146.701Z" fill="#2C5777"/>
<path d="M301.122 129.161C299.927 128.013 298.83 126.766 297.845 125.433C294.657 121.308 291.839 116.911 289.423 112.291L288.928 111.283C288.598 110.605 288.293 109.936 288.007 109.267C287.572 108.267 287.19 107.276 286.851 106.286L286.538 105.312C286.234 104.339 285.99 103.374 285.79 102.427C285.606 101.516 285.473 100.597 285.391 99.6715C285.338 99.0805 285.312 98.4982 285.312 97.9332C285.312 97.3683 285.312 96.812 285.391 96.2731C285.441 95.7508 285.52 95.2314 285.625 94.7174C286.294 91.4755 288.085 89.0679 290.588 88.3031L289.649 88.6073C289.058 88.8072 288.207 89.0418 287.19 89.4764C284.648 90.3894 282.163 91.4546 279.75 92.6662C277.204 93.9422 274.75 95.3943 272.406 97.0119C271.415 97.6464 270.589 98.333 270.024 98.7502L269.155 99.4368L268.686 99.8105L268.225 100.202C266.954 101.278 266.044 102.719 265.618 104.33C265.386 105.18 265.264 106.056 265.253 106.938C265.247 107.87 265.349 108.801 265.557 109.71C265.652 110.145 265.774 110.579 265.913 111.005C266.328 112.228 266.892 113.395 267.591 114.482C268.07 115.242 268.602 115.968 269.181 116.654C271.401 119.166 273.985 121.331 276.847 123.077C279.871 125.007 282.931 126.554 285.538 128.032L287.798 129.266L290.823 131.004L291.796 131.569L293.534 132.629L294.908 133.42C295.62 133.829 296.168 134.002 296.368 133.803L296.542 133.655C296.542 133.655 296.802 133.446 297.289 133.116C297.964 132.644 298.676 132.229 299.418 131.873C300.283 131.435 301.174 131.052 302.087 130.726C302.46 130.561 302.826 130.491 303.06 130.404L303.434 130.283C302.782 130.396 302.035 129.978 301.122 129.161Z" fill="#2C5777"/>
<path d="M318.696 101.401C317.531 101.019 316.384 100.671 315.22 100.341C314.894 102.404 314.703 104.485 314.646 106.573C315.515 106.712 316.332 106.859 317.166 107.025C317.72 107.14 318.295 107.09 318.82 106.882C319.345 106.673 319.798 106.315 320.121 105.851L320.174 105.79C320.423 105.419 320.584 104.995 320.643 104.551C320.702 104.107 320.659 103.656 320.516 103.232C320.373 102.808 320.135 102.422 319.819 102.104C319.504 101.787 319.119 101.546 318.696 101.401Z" fill="#346F93"/>
<path d="M292.109 105.738C297.403 105.325 302.721 105.325 308.015 105.738C308.684 105.791 309.344 105.851 310.005 105.921C310.005 105.869 310.005 105.817 310.005 105.773C310.005 105.026 309.961 104.287 310.005 103.557C310.005 102.47 310.005 101.401 310.127 100.367C310.127 100.019 310.187 99.6718 310.222 99.3328C310.222 99.2025 310.222 99.0807 310.222 98.9504C303.881 97.4822 297.368 96.8973 290.866 97.2121C290.866 97.4902 290.866 97.7596 290.866 98.0812C290.889 98.9532 290.955 99.8235 291.066 100.689C291.288 102.396 291.636 104.084 292.109 105.738Z" fill="#346F93"/>
<path d="M286.85 106.286L286.538 105.312C286.234 104.339 285.99 103.374 285.79 102.427C285.606 101.516 285.473 100.597 285.39 99.6715C285.338 99.0805 285.312 98.4982 285.312 97.9332C285.312 97.8376 285.312 97.7506 285.312 97.655L283.409 97.8897C282.773 97.9731 282.163 98.1963 281.623 98.5434C281.083 98.8904 280.627 99.3526 280.287 99.8968C279.948 100.441 279.732 101.054 279.657 101.691C279.582 102.328 279.65 102.974 279.854 103.583V103.704C280.185 104.684 280.854 105.513 281.741 106.043C282.628 106.574 283.676 106.771 284.695 106.599C285.39 106.486 286.095 106.381 286.799 106.294L286.85 106.286Z" fill="#346F93"/>
<path d="M338.651 145.675L338.886 146.397L339.147 147.118C339.216 147.361 339.251 147.605 339.312 147.831C339.407 148.282 339.529 148.7 339.625 149.073C339.703 149.812 339.79 150.299 339.79 150.299C339.668 149.751 340.294 149.126 341.224 148.387C341.94 147.856 342.686 147.365 343.458 146.918C343.86 145.402 344.174 143.864 344.396 142.312C344.533 139.073 344.091 135.835 343.093 132.751L342.545 133.333C341.676 134.281 340.937 135.158 340.216 136.01L339.486 136.879C338.541 137.974 337.757 139.197 337.156 140.512C337.031 140.759 336.956 141.028 336.935 141.304C336.914 141.58 336.948 141.858 337.035 142.12L337.217 142.468L337.409 142.807C337.58 143.083 337.725 143.374 337.843 143.676C338 144.05 338.182 144.476 338.391 144.928L338.547 145.275L338.651 145.675Z" fill="#1F4060"/>
<path d="M337.713 123.512C336.143 121.793 334.395 120.246 332.498 118.897C332.272 119.566 332.046 120.227 331.846 120.861C331.577 121.73 331.325 122.547 331.099 123.338C330.751 124.546 330.447 125.702 330.177 126.754C330.09 127.145 329.995 127.519 329.908 127.875C329.559 129.247 329.35 130.651 329.282 132.064C329.254 132.316 329.282 132.572 329.363 132.812C329.444 133.052 329.577 133.272 329.751 133.455L330.03 133.664C331.053 134.424 332.004 135.276 332.872 136.21C333.028 136.393 333.193 136.567 333.35 136.74L333.584 137.01C333.68 137.123 333.767 137.245 333.854 137.366L334.819 138.627C335.059 138.896 335.274 139.187 335.462 139.496L335.679 139.835C335.357 139.27 335.435 138.401 335.931 137.227C336.65 135.694 337.523 134.237 338.538 132.882C339.407 131.726 340.442 130.422 341.589 129.031C340.55 127.026 339.246 125.17 337.713 123.512Z" fill="#1F4060"/>
<path d="M327.257 131.413C327.121 130.926 327.056 130.423 327.065 129.918C327.091 128.261 327.234 126.609 327.491 124.972C327.848 122.6 328.361 119.758 329.099 116.689L328.821 116.524C326.175 115.566 323.446 114.853 320.669 114.395C318.757 114.095 316.83 113.904 314.897 113.821C314.976 114.856 315.071 115.873 315.184 116.837C315.297 117.802 315.41 118.576 315.532 119.445C315.723 120.714 315.94 121.896 316.166 122.921C316.253 123.312 316.332 123.686 316.418 124.042C316.705 125.466 317.184 126.843 317.844 128.136C317.967 128.399 318.142 128.633 318.359 128.826C318.575 129.019 318.829 129.166 319.104 129.257L319.495 129.318L319.895 129.388L320.921 129.622C321.355 129.701 321.79 129.857 322.346 129.996C322.902 130.135 323.38 130.326 323.911 130.5C325.242 130.966 326.53 131.548 327.761 132.238C327.623 132.144 327.507 132.022 327.42 131.879C327.334 131.737 327.278 131.578 327.257 131.413Z" fill="#1F4060"/>
<path d="M299.175 121.704C299.827 122.808 300.462 123.825 301.053 124.729L301.705 125.685C302.486 126.898 303.427 128 304.503 128.962V128.909C304.715 129.118 304.968 129.278 305.247 129.38C305.526 129.482 305.824 129.523 306.12 129.5L306.467 129.414C306.602 129.378 306.738 129.352 306.876 129.335L307.98 129.153C308.849 129.005 310.126 128.875 311.378 128.797C311.995 128.797 312.621 128.796 313.203 128.736H314.794L316.323 128.84C314.976 128.736 313.838 126.232 312.673 122.304C311.879 119.496 311.253 116.643 310.796 113.76C305.803 113.93 300.84 114.591 295.977 115.733C296.611 117.037 297.246 118.28 297.88 119.436C298.332 120.244 298.758 120.992 299.175 121.704Z" fill="#1F4060"/>
<path d="M340.364 209.905C340.155 209.036 339.894 208.245 339.59 207.384C338.419 204.248 336.887 201.259 335.027 198.476C333.542 196.206 331.92 194.029 330.169 191.957C325.296 191.556 320.403 192.437 315.976 194.512C317.799 198.013 319.337 201.654 320.573 205.403C322.442 211.13 323.181 216.701 322.416 221.047C322.112 222.992 321.359 224.84 320.217 226.445C319.244 227.77 317.801 228.675 316.184 228.974L319.522 228.365C320.521 228.174 321.651 227.852 322.877 227.557C324.102 227.261 325.397 226.905 326.649 226.479C330.304 225.308 333.878 223.897 337.348 222.255C338.351 221.788 339.185 221.023 339.738 220.065C340.634 218.475 341.087 216.674 341.05 214.85C341.05 214.442 341.05 213.981 340.998 213.581C340.892 212.34 340.679 211.11 340.364 209.905Z" fill="#1F4060"/>
<path d="M361.249 196.415C360.756 195.277 360.16 194.186 359.467 193.156C359.293 192.895 359.111 192.643 358.928 192.383C351.593 194.416 344.257 193.93 336.791 192.722L336.209 192.635C337.078 193.652 337.947 194.712 338.816 195.833L339.486 196.702C339.929 197.302 340.355 197.91 340.755 198.519C341.334 199.423 341.89 200.327 342.423 201.23C342.597 201.526 342.754 201.83 342.919 202.1C343.4 202.992 343.825 203.878 344.196 204.759C344.561 205.611 344.88 206.481 345.152 207.367C345.326 207.946 345.474 208.502 345.596 209.035C345.717 209.583 345.813 210.122 345.891 210.652C345.97 211.182 346.004 211.695 346.022 212.199C346.107 213.663 345.86 215.128 345.3 216.484C344.831 217.66 343.984 218.648 342.893 219.291L343.701 218.831L345.77 217.544C347.508 216.51 349.681 214.937 351.853 213.381C354.026 211.825 356.06 210.061 357.529 208.679L359.328 207.045C359.754 206.645 359.989 206.402 359.989 206.402L360.667 205.724C361.426 204.937 361.955 203.957 362.196 202.891C362.511 201.091 362.34 199.24 361.701 197.528C361.562 197.189 361.414 196.806 361.249 196.415Z" fill="#1F4060"/>
<path d="M364.1 190.531L364.152 190.61C364.456 191.096 364.726 191.574 364.969 192.052C365.201 192.513 365.407 192.986 365.586 193.469C366.707 196.468 366.594 199.388 364.917 201.222L365.534 200.518C365.925 200.075 366.481 199.44 367.098 198.623L369.236 195.851C369.993 194.808 370.758 193.66 371.531 192.522C372.305 191.383 373.009 190.184 373.678 189.045C374.347 187.907 374.964 186.881 375.416 185.925C376.372 184.039 376.998 182.787 376.998 182.787C376.998 182.787 377.111 182.587 377.206 182.37C377.302 182.153 377.389 181.936 377.389 181.936C377.591 181.463 377.731 180.967 377.806 180.458C374.011 184.759 369.337 188.194 364.1 190.531Z" fill="#1F4060"/>
<path d="M340.798 151.36H340.851C340.26 151.794 339.982 152.229 339.982 152.611C339.99 152.709 339.99 152.808 339.982 152.907C339.982 152.907 339.982 153.411 339.982 154.176C339.966 154.615 339.925 155.053 339.86 155.488C339.86 155.723 339.86 155.966 339.799 156.209C340.785 154.332 341.641 152.389 342.363 150.395C341.822 150.683 341.299 151.006 340.798 151.36Z" fill="#1F4060"/>
<path d="M291.796 131.482L293.535 132.542L294.908 133.333C295.621 133.742 296.168 133.916 296.368 133.716L296.542 133.568C296.542 133.568 296.803 133.359 297.289 133.029C297.964 132.558 298.676 132.142 299.419 131.786C300.283 131.349 301.174 130.966 302.087 130.639C302.461 130.474 302.826 130.404 303.06 130.318L303.434 130.196C302.817 130.396 302.035 129.978 301.122 129.161C299.927 128.013 298.831 126.766 297.846 125.433C295.716 122.647 293.743 119.746 291.935 116.741L290.727 117.072C289.98 117.428 289.241 117.793 288.511 118.193C285.843 119.636 281.28 121.67 279.394 124.52C281.541 125.772 283.644 126.884 285.538 127.919L287.798 129.153L290.823 130.891L291.796 131.482Z" fill="#1F4060"/>
<path d="M369.262 118.784C369.141 118.41 368.993 118.037 368.854 117.672C368.48 117.672 368.106 117.672 367.715 117.672C367.324 117.672 366.846 117.724 366.455 117.776C365.218 117.942 364.001 118.233 362.822 118.645C362.005 118.914 361.179 119.236 360.345 119.601C358.612 120.389 356.941 121.307 355.347 122.348C357.74 127.882 358.783 133.905 358.389 139.922C358.815 139.774 359.259 139.617 359.667 139.478L360.736 139.131C361.457 138.913 362.161 138.713 362.865 138.522C363.917 138.253 364.96 138.018 365.986 137.836L367.002 137.671C368.011 137.514 369.002 137.41 369.966 137.358C370.899 137.31 371.833 137.31 372.765 137.358H373.13C372.599 131.033 371.3 124.796 369.262 118.784Z" fill="#346F93"/>
<path d="M359.554 101.219L359.041 100.784L357.851 99.7846L356.894 99.0631L356.025 98.446L355.156 97.8029C354.168 97.0939 352.998 96.6809 351.784 96.6122C349.874 96.513 347.976 96.9753 346.326 97.942C345.952 98.1419 345.587 98.3591 345.222 98.6024C344.176 99.2921 343.206 100.09 342.328 100.984C342.067 101.245 341.806 101.523 341.554 101.801C346.603 106.115 350.551 111.57 353.07 117.715C353.34 117.515 353.6 117.315 353.87 117.133L354.739 116.559C355.608 116.003 356.477 115.507 357.303 115.064C358.13 114.63 358.983 114.25 359.858 113.925C360.407 113.712 360.967 113.529 361.536 113.378C362.092 113.221 362.622 113.091 363.135 112.987C363.637 112.886 364.145 112.814 364.656 112.769C365.353 112.709 366.054 112.709 366.751 112.769C364.742 108.69 362.331 104.82 359.554 101.219Z" fill="#346F93"/>
<path d="M335.74 97.5593L337.148 98.4285C337.235 98.3242 337.313 98.2112 337.4 98.1156C337.791 97.6636 338.191 97.2465 338.599 96.8467C339.008 96.4469 339.425 96.0905 339.842 95.7516C340.256 95.4401 340.685 95.15 341.128 94.8824C342.403 94.0346 343.859 93.4986 345.378 93.3179C346.747 93.1483 348.135 93.4257 349.333 94.1089L348.464 93.6047C347.89 93.2831 347.073 92.8312 346.065 92.3619C343.648 91.1648 341.16 90.1141 338.616 89.2156C337.243 88.7376 335.87 88.2596 334.575 87.9119C333.28 87.5642 332.063 87.1991 331.02 86.9819L328.5 86.417L327.544 86.2431L326.622 86.0867C325.485 85.8833 324.314 86.0256 323.259 86.4952C321.568 87.2507 320.127 88.4715 319.104 90.0151C318.861 90.3541 318.635 90.7105 318.409 91.0756C318.348 91.1712 318.296 91.2841 318.244 91.3798C324.302 92.6139 330.307 94.3174 335.74 97.5593Z" fill="#346F93"/>
<path d="M312.725 90.285C312.916 89.9373 313.116 89.5896 313.325 89.268C314.117 88.0128 315.173 86.9451 316.419 86.1391C317.519 85.45 318.809 85.1275 320.104 85.2179C320.104 85.2179 318.705 85.0962 316.627 84.9919C315.576 84.9919 314.359 84.931 313.047 84.9223C311.734 84.9136 310.352 84.9658 308.962 85.0527C306.181 85.2092 303.408 85.5308 301.339 85.8524L298.836 86.2782C298.228 86.3738 297.889 86.4607 297.889 86.4607L297.072 86.6346C296.105 86.8579 295.209 87.3178 294.464 87.973C297.524 88.2077 300.548 88.6944 303.504 89.1811C306.599 89.3389 309.68 89.7078 312.725 90.285Z" fill="#346F93"/>
<path d="M356.338 177.051C356.868 177.091 357.399 177.091 357.929 177.051C361.136 174.444 363.578 170.767 365.577 166.96C363.838 166.26 362.059 165.662 360.249 165.17C358.01 164.569 355.741 164.082 353.453 163.71C352.001 167.543 349.776 171.532 350.984 175.495C352.611 176.453 354.452 176.988 356.338 177.051Z" fill="#346F93"/>
<path d="M367.594 162.137L367.837 162.215C368.063 161.719 368.281 161.233 368.489 160.746C369.654 158.051 370.688 155.288 371.627 152.498C371.992 150.368 372.313 148.23 372.557 146.066C372.67 145.049 372.757 144.032 372.844 143.024C372.209 142.946 371.566 142.885 370.888 142.868C367.526 142.801 364.169 143.151 360.893 143.911C359.946 144.119 359.015 144.345 358.112 144.58C358.106 146.984 357.874 149.382 357.416 151.742C356.841 154.523 356.02 157.248 354.965 159.885C356.973 160.042 359.076 160.276 361.249 160.633L362.353 160.833C363.092 160.972 363.813 161.128 364.517 161.293C365.578 161.554 366.603 161.824 367.594 162.137Z" fill="#346F93"/>
<path d="M287.929 90.0068C288.645 89.2021 289.563 88.6022 290.588 88.2686L289.649 88.5727C289.058 88.7726 288.207 89.0073 287.19 89.4419C286.408 89.72 285.521 90.059 284.583 90.4414C285.695 90.285 286.807 90.1111 287.929 90.0068Z" fill="#346F93"/>
<path d="M232.247 256.371C284.799 241.984 321.161 207.525 313.462 179.404C305.764 151.282 256.921 140.148 204.368 154.535C151.816 168.921 115.454 203.381 123.153 231.502C130.851 259.623 179.694 270.757 232.247 256.371Z" fill="#1F4060"/>
<path d="M233.498 260.92C286.05 246.533 322.412 212.074 314.713 183.953C304.459 138.139 254.788 138.672 202.236 153.058C149.683 167.445 111.616 200.578 124.404 236.051C132.102 264.173 180.945 275.307 233.498 260.92Z" fill="#121A26"/>
<path d="M206.629 162.476C154.081 176.868 117.725 211.33 125.425 239.455L144.381 308.691C140.209 293.446 148.988 276.341 166.275 261.575C180.868 249.103 201.527 238.308 225.594 231.72C249.66 225.132 272.927 223.898 291.839 227.192C314.237 231.085 330.507 241.332 334.679 256.577L315.723 187.342C307.997 159.216 259.177 148.091 206.629 162.476Z" fill="#2C5777"/>
<path d="M292.353 180.676C290.97 174.45 287.669 168.815 282.915 164.565C278.161 160.314 272.193 157.662 265.852 156.983C248.348 155.062 227.793 156.722 206.638 162.511C184.614 168.542 165.441 178.094 151.161 189.237C146.978 192.499 143.854 196.926 142.183 201.96C140.511 206.994 140.366 212.411 141.765 217.527C144.981 229.269 149.405 245.34 152.595 257.508C152.956 258.883 153.663 260.143 154.647 261.169C155.632 262.196 156.861 262.954 158.221 263.372C159.58 263.791 161.023 263.856 162.414 263.561C163.805 263.266 165.098 262.622 166.171 261.688L166.284 261.592C180.877 249.12 201.536 238.326 225.603 231.738C249.669 225.149 272.936 223.915 291.848 227.209H291.97C293.183 227.436 294.433 227.36 295.609 226.987C296.785 226.614 297.851 225.956 298.711 225.072C299.571 224.187 300.199 223.104 300.54 221.918C300.88 220.732 300.922 219.481 300.662 218.275C298.324 207.749 294.96 192.591 292.353 180.676Z" fill="#346F93"/>
<path d="M232.747 157.339C223.926 158.408 215.197 160.125 206.629 162.476C205.76 162.71 206.846 162.945 206.021 163.188C211.114 186.585 217.919 209.539 224.403 232.589C225.42 232.293 224.559 231.998 225.594 231.72C234.568 229.247 243.722 227.48 252.971 226.435C245.28 203.716 239.9 180.249 232.747 157.339Z" fill="#468CAF"/>
<path d="M182.467 170.958C175.479 173.968 168.722 177.489 162.251 181.492C165.25 195.094 174.419 236.57 179.712 252.91C186.465 248.425 192.149 244.296 200.371 240.663C193.748 217.605 187.343 194.416 182.467 170.958Z" fill="#468CAF"/>
<path d="M264.236 209.844L264.079 209.435C260.247 199.295 252.653 191.023 242.876 186.341C233.098 181.659 221.892 180.928 211.59 184.3C201.287 187.671 192.682 194.887 187.565 204.443C182.448 214 181.213 225.161 184.118 235.605V235.718C185.006 238.903 184.862 242.288 183.707 245.386C182.551 248.484 180.444 251.136 177.687 252.962C153.012 269.363 139.323 290.335 144.338 308.691C152.039 336.817 200.884 347.95 253.432 333.557C305.98 319.164 342.336 284.703 334.636 256.586C330.038 239.794 310.778 229.061 284.826 226.166C280.218 225.621 275.853 223.806 272.217 220.924C268.581 218.042 265.818 214.206 264.236 209.844Z" fill="#1F4060"/>
<path d="M295.907 232.824C284.73 229.999 267.86 232.059 260.15 211.182C256.725 202.076 249.923 194.64 241.158 190.419C232.393 186.198 222.338 185.517 213.084 188.517C203.829 191.517 196.087 197.967 191.464 206.527C186.842 215.088 185.696 225.1 188.264 234.484C189.011 237.213 192.418 247.999 178.886 257.872C174.248 261.116 169.821 264.652 165.632 268.458C151.621 281.747 145.685 295.584 148.927 307.43L154.246 326.847L154.594 325.665C161.981 302.198 193.479 278.123 235.171 266.703C276.864 255.282 316.227 259.932 334.549 276.385L335.418 277.254L332.098 265.086L330.099 257.803C326.892 245.982 314.628 237.526 295.907 232.824Z" fill="#121A26"/>
<path d="M225.498 253.509C240.024 253.509 251.799 241.734 251.799 227.209C251.799 212.684 240.024 200.909 225.498 200.909C210.973 200.909 199.198 212.684 199.198 227.209C199.198 241.734 210.973 253.509 225.498 253.509Z" fill="#1F4060"/>
<path d="M224.751 250.78C239.276 250.78 251.051 239.005 251.051 224.48C251.051 209.955 239.276 198.18 224.751 198.18C210.226 198.18 198.451 209.955 198.451 224.48C198.451 239.005 210.226 250.78 224.751 250.78Z" fill="#2C5777"/>
<path d="M224.751 239.525C233.06 239.525 239.796 232.789 239.796 224.48C239.796 216.171 233.06 209.435 224.751 209.435C216.442 209.435 209.706 216.171 209.706 224.48C209.706 232.789 216.442 239.525 224.751 239.525Z" fill="#121A26"/>
<path d="M224.751 236.97C231.649 236.97 237.241 231.378 237.241 224.48C237.241 217.582 231.649 211.99 224.751 211.99C217.853 211.99 212.262 217.582 212.262 224.48C212.262 231.378 217.853 236.97 224.751 236.97Z" fill="#43E0BB"/>
<path d="M220.11 228.86C220.216 228.543 220.248 228.206 220.203 227.874C220.158 227.542 220.037 227.225 219.849 226.948C219.427 226.151 219.185 225.271 219.138 224.371C219.092 223.47 219.242 222.57 219.58 221.734C219.878 220.987 220.348 220.322 220.952 219.792C221.556 219.261 222.277 218.882 223.056 218.683C223.373 218.625 223.667 218.481 223.906 218.266C224.145 218.052 224.321 217.774 224.412 217.466C224.514 217.149 224.529 216.811 224.454 216.486C224.38 216.162 224.22 215.863 223.991 215.622C223.761 215.381 223.471 215.206 223.15 215.116C222.83 215.026 222.491 215.024 222.17 215.111C219.875 215.739 217.891 217.186 216.59 219.178C215.29 221.17 214.764 223.57 215.112 225.923C215.293 227.12 215.69 228.275 216.285 229.33C216.494 229.674 216.796 229.951 217.156 230.13C217.516 230.309 217.92 230.382 218.32 230.34C218.72 230.298 219.1 230.143 219.415 229.893C219.73 229.644 219.968 229.31 220.101 228.93L220.11 228.86Z" fill="#BCF8EA"/>
<path d="M231 224.185C230.542 224.485 230.211 224.943 230.07 225.471C229.786 226.497 229.227 227.426 228.453 228.157C228.184 228.423 227.988 228.754 227.883 229.117C227.778 229.481 227.768 229.865 227.854 230.234V230.286C227.945 230.678 228.139 231.038 228.416 231.329C228.694 231.621 229.044 231.832 229.431 231.942C229.818 232.052 230.227 232.057 230.616 231.955C231.005 231.853 231.36 231.649 231.643 231.364C233.002 230.006 233.935 228.281 234.329 226.401C234.407 225.982 234.361 225.549 234.195 225.156C234.03 224.764 233.752 224.428 233.397 224.192C233.042 223.956 232.626 223.829 232.2 223.828C231.774 223.827 231.356 223.951 231 224.185Z" fill="#BCF8EA"/>
<path d="M134.082 231.268C143.356 242.706 142.687 272.987 135.421 275.959L121.697 223.68C125.764 222.394 125.964 221.247 134.082 231.268Z" fill="#121A26"/>
<path d="M235.172 266.72C193.454 278.141 161.982 302.19 154.594 325.682C152.642 331.497 152.424 337.755 153.969 343.691L160.774 368.54C168.475 396.665 217.32 407.79 269.868 393.406C322.416 379.022 358.773 344.551 351.072 316.426L344.267 291.577C342.57 285.683 339.194 280.409 334.55 276.402C316.228 259.95 276.865 255.3 235.172 266.72Z" fill="#2C5777"/>
<path d="M209.298 309.109C221.987 304.45 243.307 298.914 256.666 296.862C280.906 293.125 306.102 292.36 330.308 296.993C328.483 287.745 326.562 278.515 324.163 269.415C303.521 258.881 270.172 257.134 235.172 266.721C211.636 273.161 191.368 283.634 176.836 295.759C174.608 297.61 172.953 300.056 172.062 302.812C171.171 305.568 171.081 308.52 171.803 311.325C172.261 313.098 172.701 314.877 173.124 316.661C173.4 317.822 173.952 318.898 174.733 319.8C175.514 320.701 176.501 321.4 177.611 321.838C178.72 322.276 179.919 322.439 181.105 322.314C182.291 322.189 183.429 321.779 184.423 321.12C192.037 315.992 200.659 312.281 209.298 309.109Z" fill="#346F93"/>
<path d="M213.869 273.986C205.644 277.364 197.721 281.435 190.185 286.154C193.236 295.158 196.026 304.258 198.79 313.358C202.266 311.82 205.743 310.429 209.298 309.134C213.878 307.457 219.588 305.658 225.638 303.919C221.831 293.898 218.146 283.816 213.869 273.986Z" fill="#468CAF"/>
<path d="M269.827 393.647C322.379 379.26 358.741 344.801 351.042 316.68C343.344 288.558 294.501 277.424 241.948 291.811C189.396 306.198 153.034 340.657 160.733 368.778C168.431 396.899 217.274 408.034 269.827 393.647Z" fill="#1F4060"/>
<path d="M325.38 348.68C311.143 362.169 290.118 373.207 266.174 379.769C242.229 386.331 218.475 387.53 199.354 383.184C183.823 379.647 173.098 372.633 169.404 363.742C169.509 364.524 169.663 365.299 169.864 366.062C172.585 376.005 183.771 383.906 200.597 387.73C219.718 392.076 243.428 390.876 267.373 384.323C291.318 377.77 312.351 366.723 326.579 353.234C339.086 341.37 344.701 328.898 341.98 318.929C341.765 318.169 341.504 317.423 341.198 316.695C342.545 326.221 336.896 337.72 325.38 348.68Z" fill="#346F93"/>
<path d="M199.355 383.185C218.476 387.53 242.186 386.331 266.131 379.778C290.075 373.224 311.1 362.178 325.336 348.689C336.896 337.729 342.545 326.23 341.198 316.696C337.504 307.813 326.779 300.79 311.248 297.253C292.127 292.907 268.416 294.107 244.472 300.669C220.527 307.231 199.494 318.26 185.266 331.758C173.706 342.709 168.048 354.216 169.404 363.742C173.098 372.625 183.823 379.639 199.355 383.185Z" fill="#1F4060"/>
<path d="M183.867 373.572C205.525 379.317 226.237 373.798 242.247 363.412C248.591 359.301 254.736 354.72 262.124 352.66C270.494 350.296 279.402 351.391 287.989 351.244C299.653 351.035 310.092 347.341 320.591 343.421C325.371 340.91 330.195 338.467 335.097 336.208C335.398 336.065 335.709 335.943 336.027 335.843C340.207 329.098 342.024 322.527 341.198 316.722C337.504 307.839 326.779 300.816 311.248 297.279C292.127 292.933 268.416 294.133 244.472 300.695C220.527 307.257 199.502 318.286 185.266 331.784C173.706 342.735 168.048 354.242 169.404 363.768C171.038 369.183 177.687 371.938 183.867 373.572Z" fill="#192F44"/>
<path d="M245.654 340.597C249.191 353.539 234.607 363.351 218.798 367.688C202.988 372.025 187.813 366.906 184.901 356.276C181.989 345.647 192.445 333.522 208.255 329.194C224.064 324.866 242.751 329.924 245.654 340.597Z" fill="#121A26"/>
<path d="M301.38 345.265C317.191 340.937 327.649 328.811 324.739 318.181C321.829 307.551 306.653 302.442 290.842 306.77C275.031 311.099 264.573 323.225 267.483 333.855C270.393 344.485 285.569 349.593 301.38 345.265Z" fill="#121A26"/>
<path d="M179.017 100.619L196.634 95.7953L182.841 69.0171C182.531 68.4108 182.022 67.9297 181.399 67.6547C180.776 67.3797 180.077 67.3276 179.42 67.5071C178.764 67.6866 178.189 68.0867 177.792 68.6403C177.396 69.1939 177.202 69.8671 177.244 70.5468L179.017 100.619Z" fill="#346F93"/>
<path d="M176.342 121.039C193.166 116.482 204.828 105.489 202.389 96.485C199.951 87.4808 184.335 83.8752 167.511 88.4317C150.686 92.9883 139.025 103.982 141.463 112.986C143.902 121.99 159.517 125.596 176.342 121.039Z" fill="#346F93"/>
<path d="M209.654 95.3517C208.471 92.9392 207.153 90.5947 205.708 88.3291C203.456 85.0321 200.876 81.9716 198.007 79.1945C193.069 79.2046 188.154 79.8829 183.397 81.2109C179.337 82.3103 175.413 83.8613 171.699 85.8347C171.632 90.6188 171.861 95.4024 172.385 100.158C172.828 104.808 172.333 110.736 173.463 115.751C179.817 116.336 186.225 115.747 192.367 114.012C200.702 111.726 207.759 107.876 212.487 103.478C211.636 100.775 210.714 98.0374 209.654 95.3517Z" fill="#468CAF"/>
<path d="M181.014 70.9131C180.829 70.2371 180.132 69.8387 179.459 70.0231C178.785 70.2075 178.389 70.905 178.574 71.5809L180.564 78.849C180.749 79.5249 181.445 79.9233 182.119 79.7389C182.792 79.5545 183.188 78.8571 183.003 78.1811L181.014 70.9131Z" fill="#468CAF"/>
<path d="M204.387 154.297C256.935 139.904 305.781 151.038 313.481 179.155L306.589 154.01C299.678 128.776 283.027 107.32 260.298 94.3621C237.568 81.4042 210.622 78.0055 185.387 84.9137C160.152 91.8263 138.697 108.479 125.739 131.21C112.781 153.941 109.382 180.888 116.291 206.124L123.183 231.268C115.483 203.151 151.839 168.69 204.387 154.297Z" fill="#2C5777"/>
<path d="M122.157 227.513L123.183 231.268C122.867 230.105 122.623 228.923 122.453 227.73L122.157 227.513Z" fill="#346F93"/>
<path d="M266.565 98.2463C254.795 90.3026 241.447 84.9982 227.435 82.6969C213.423 80.3956 199.079 81.1517 185.387 84.9136C161.785 91.3437 141.431 106.351 128.311 126.997C125 133.95 122.514 146.927 122.931 160.729C123.027 164.371 124.106 167.92 126.054 170.999C128.001 174.079 130.745 176.575 133.995 178.223C137.244 179.871 140.879 180.611 144.514 180.363C148.149 180.116 151.65 178.89 154.646 176.816C168.161 167.491 185.187 159.555 204.387 154.297C225.177 148.604 245.384 146.909 262.689 148.674C265.934 149.001 269.208 148.482 272.193 147.167C275.177 145.852 277.77 143.785 279.718 141.17C281.666 138.554 282.903 135.477 283.307 132.241C283.712 129.005 283.271 125.719 282.027 122.704C279.037 115.377 274.205 107.094 266.565 98.2463Z" fill="#346F93"/>
<path d="M178.244 91.5106C176.158 92.3798 174.08 93.2054 172.073 94.0397C166.33 96.424 161.451 100.502 158.086 105.731C154.721 110.959 153.03 117.089 153.238 123.304C153.607 134.563 154.728 145.786 156.593 156.896C157.532 162.45 158.627 167.951 159.818 173.41C166.929 169.003 174.381 165.173 182.102 161.954C178.165 144.467 174.411 126.945 171.412 109.284C176.201 106.208 190.29 100.923 192.202 100.454C195.287 118.61 199.425 136.558 203.57 154.515L204.387 154.28C213.318 151.823 222.424 150.059 231.626 149.004C227.654 135.611 223.691 122.2 218.754 109.215C217.293 105.365 215.078 101.846 212.239 98.8631C209.4 95.8805 205.994 93.4947 202.221 91.8457C198.448 90.1967 194.383 89.3176 190.266 89.2601C186.149 89.2026 182.061 89.9677 178.244 91.5106Z" fill="#468CAF"/>
<path d="M188.342 98.107C160.895 105.616 140.392 123.503 134.917 145.04C133.778 149.551 134.699 155.601 138.549 159.199C141.635 162.076 146.937 159.147 151.117 156.374C161.434 149.551 177.122 141.373 199.189 135.332C215.673 130.82 232.745 128.828 249.825 129.422C254.936 129.613 260.646 129.048 261.993 124.946C263.61 120.001 260.968 114.516 257.787 111.361C242.394 95.9254 215.868 90.5368 188.342 98.107Z" fill="#1F4060"/>
<path d="M189.586 102.618C162.138 110.127 141.635 128.014 136.16 149.551C133.787 158.921 144.304 166.221 152.36 160.85C162.677 154.027 178.365 145.849 200.433 139.808C216.917 135.296 233.988 133.304 251.069 133.898C260.681 134.255 265.844 122.599 259.021 115.837C243.681 100.471 217.077 95.0823 189.586 102.618Z" fill="#121A26"/>
<path d="M157.792 138.957C160.243 137.558 162.911 136.184 165.736 134.881C168.222 133.733 170.655 132.725 173.01 131.847C173.01 131.847 173.01 131.847 173.01 131.787C171.368 128.214 166.614 126.893 162.398 128.831C158.183 130.77 156.097 135.254 157.748 138.827C157.74 138.896 157.774 138.957 157.792 138.957Z" fill="#43E0BB"/>
<path d="M232.434 118.549C229.61 118.549 226.62 118.758 223.517 119.08C220.805 119.358 218.189 119.731 215.695 120.175C215.695 120.175 215.695 120.131 215.695 120.114C215.295 116.194 218.711 112.639 223.334 112.161C227.958 111.683 232.026 114.482 232.426 118.393L232.434 118.549Z" fill="#43E0BB"/>
<path d="M382.248 420.697C382.248 427.867 363.874 433.673 341.216 433.673C318.557 433.673 300.175 427.867 300.175 420.697V409.598C300.175 409.598 325.154 407.721 341.216 407.721C357.668 407.721 382.248 409.598 382.248 409.598V420.697Z" fill="#1F4060"/>
<path d="M317.557 408.503C312.977 408.746 308.866 409.007 305.737 409.215C305.737 413.509 305.867 425.964 305.876 427.293C309.291 429 312.905 430.273 316.636 431.083C316.801 427.511 317.253 412.475 317.557 408.503Z" fill="#346F93"/>
<path d="M376.972 409.259C374.86 409.12 372.244 408.955 369.306 408.781C369.393 413.605 369.228 418.446 369.236 423.261C369.236 425.564 369.297 427.867 369.367 430.162C372.125 429.387 374.785 428.296 377.293 426.911C377.024 421.001 377.067 415.065 376.972 409.259Z" fill="#346F93"/>
<path d="M339.703 407.73C336.609 407.73 333.263 407.834 329.847 407.947C329.76 416.369 329.847 424.765 329.986 433.152C332.889 433.413 335.931 433.569 339.06 433.621C338.773 425.017 339.408 416.213 339.703 407.73Z" fill="#346F93"/>
<path d="M341.216 422.574C363.877 422.574 382.248 416.765 382.248 409.598C382.248 402.431 363.877 396.622 341.216 396.622C318.554 396.622 300.184 402.431 300.184 409.598C300.184 416.765 318.554 422.574 341.216 422.574Z" fill="#468CAF"/>
<path d="M341.902 416.116C358.803 416.116 372.505 412.139 372.505 407.234C372.505 402.328 358.803 398.351 341.902 398.351C325.001 398.351 311.3 402.328 311.3 407.234C311.3 412.139 325.001 416.116 341.902 416.116Z" fill="#121A26"/>
<path d="M368.837 386.166C369.253 385.778 369.583 385.307 369.804 384.782C370.026 384.258 370.134 383.693 370.123 383.124C370.045 378.283 369.897 373.025 369.619 367.601C369.523 366.958 369.619 364.586 369.523 363.925C369.358 362.526 368.706 362.7 367.533 361.796C368.005 361.366 368.376 360.839 368.621 360.25C368.866 359.661 368.978 359.026 368.95 358.389C368.307 350.245 367.342 340.041 365.847 332.671C365.769 332.549 361.84 332.566 361.866 332.566C365.343 330.116 364.404 328.516 363.726 326.213C363.301 324.753 362.857 323.345 362.353 322.015C360.908 318.042 359.164 314.184 357.138 310.473C356.495 309.421 354.748 307.866 349.229 308.022C350.375 307.642 351.589 307.514 352.789 307.646C353.989 307.778 355.146 308.167 356.182 308.787C346.196 291.752 330.273 280.566 307.51 280.566C285.782 280.566 268.312 297.679 268.312 326.908C268.312 331.141 272.371 343.474 289.284 343.474C301.852 343.474 306.415 339.893 306.415 339.893C306.415 339.893 306.554 340.18 306.789 340.762C307.079 341.413 307.525 341.983 308.087 342.421C308.65 342.859 309.311 343.152 310.014 343.274L312.021 343.605C312.942 343.77 309.483 346.464 309.553 346.812C311.028 351.395 312.204 356.069 313.073 360.805C313.209 361.534 313.517 362.221 313.97 362.809C314.423 363.397 315.009 363.869 315.68 364.186H315.732C315.232 364.388 314.796 364.722 314.47 365.152C314.144 365.582 313.941 366.092 313.881 366.628C313.994 367.949 314.098 369.74 314.098 371.043V382.594C314.1 383.541 314.374 384.468 314.889 385.262L314.072 388.209V405.757C314.072 410.354 328.665 412.988 343.901 412.988C359.476 412.988 370.071 408.712 370.071 405.757C370.071 402.55 370.071 396.196 370.071 388.478C369.763 387.657 369.348 386.88 368.837 386.166Z" fill="#2C5777"/>
<path d="M344.119 363.004C344.214 366.776 344.214 370.548 344.179 374.302C344.169 375.428 344.39 376.544 344.829 377.581C345.267 378.618 345.914 379.554 346.728 380.332C347.543 381.109 348.509 381.711 349.565 382.1C350.622 382.489 351.747 382.657 352.871 382.594H353.132C355.29 382.473 357.313 381.506 358.764 379.904C360.215 378.302 360.977 376.193 360.884 374.033C360.658 369.131 360.372 364.229 360.085 359.327C359.798 354.425 359.546 350.827 359.103 346.012C358.608 341.38 357.736 336.796 356.495 332.306C355.531 328.647 354.409 324.483 352.341 322.441C350.272 320.398 347.813 319.069 344.353 319.833C341.746 320.398 340.425 322.441 340.068 325.709C339.764 328.551 340.121 330.924 340.625 334.974C341.659 343.561 343.867 353.634 344.119 363.004Z" fill="#346F93"/>
<path d="M350.394 300.4C340.425 288.153 326.293 280.522 307.476 280.522C285.747 280.522 268.278 297.636 268.278 326.865C268.278 330.411 271.146 339.667 282.062 342.509C282.531 340.45 284.191 332.949 289.511 329.525C296.142 325.24 301.392 328.482 304.13 333.357C304.633 334.246 305.052 335.18 305.381 336.147C305.642 336.773 306.676 340.493 306.754 340.641C307.045 341.292 307.49 341.861 308.053 342.299C308.615 342.737 309.277 343.03 309.979 343.153L311.987 343.483C312.908 343.648 309.449 346.342 309.518 346.69C310.993 351.273 312.169 355.947 313.038 360.683C313.175 361.413 313.482 362.1 313.935 362.687C314.388 363.275 314.975 363.747 315.646 364.064H315.698C315.198 364.266 314.761 364.6 314.435 365.03C314.109 365.46 313.906 365.97 313.846 366.506C313.959 367.828 314.064 369.618 314.064 370.922V382.473C314.065 383.42 314.34 384.346 314.855 385.141L314.038 388.087V405.635C314.038 409.112 322.216 411.415 332.707 412.38C332.794 406.061 333.011 399.734 332.707 393.467C332.003 378.44 331.186 362.587 327.588 347.942C324.285 334.496 320.487 319.825 329.865 307.813C335.679 300.53 343.084 298.766 350.394 300.4Z" fill="#1F4060"/>
<path d="M296.333 315.236C303.929 314.167 305.894 304.233 312.977 298.974C322.894 291.604 330.899 289.622 342.085 292.117C333.019 284.825 321.573 280.522 307.475 280.522C304.503 280.52 301.54 280.858 298.645 281.531C293.83 286.577 290.736 293.018 289.806 299.93C288.337 310.308 293.769 315.592 296.333 315.236Z" fill="#192F44"/>
<path d="M368.837 386.166C359.624 393.815 323.337 393.224 314.95 385.21C314.615 386.056 314.35 386.928 314.159 387.818C313.977 389.208 314.759 390.086 315.976 390.782C322.425 394.475 333.359 395.996 343.519 395.996C352.793 395.996 361.301 394.397 367.351 391.651C369.541 390.651 370.679 389.174 369.845 387.435C369.582 386.959 369.242 386.53 368.837 386.166Z" fill="#121A26"/>
<path d="M369.428 363.439C369.21 362.491 367.776 361.579 367.498 361.796C363.544 364.829 354.809 367.011 343.293 367.706C331.777 368.401 322.138 367.854 315.724 364.134C315.724 364.134 314.107 364.36 313.829 365.733C313.551 367.106 315.515 368.28 316.888 368.888C321.99 371.156 330.621 371.86 336.757 371.86C339.668 371.86 342.085 371.756 343.579 371.669C351.749 371.174 359.85 369.731 366.177 367.08C367.507 366.524 369.654 365.177 369.497 363.734C369.48 363.634 369.457 363.536 369.428 363.439Z" fill="#121A26"/>
<path d="M363.935 330.541C359.233 335.843 349.855 338.694 340.077 341.067C328.839 343.804 318.549 344.169 311.987 343.526C311.184 343.811 310.468 344.299 309.909 344.943C309.084 345.96 309.336 347.09 310.396 347.272C312.205 347.576 314.038 347.71 315.872 347.672C325.554 347.672 334.176 346.733 341.198 344.865C351.524 342.127 361.675 338.868 365.169 334.583C367.047 332.271 364.335 330.089 363.935 330.541Z" fill="#121A26"/>
<path d="M306.085 338.181C306.085 338.181 304.399 333.34 305.972 329.889C309.535 322.067 317.94 314.384 325.536 310.499C334.714 305.805 341.641 304.267 349.655 305.171C354.487 305.718 356.173 308.743 356.173 308.743C356.354 309.032 356.464 309.359 356.495 309.699C355.377 308.98 354.086 308.578 352.758 308.534C334.68 306.64 307.354 324.222 306.085 338.181Z" fill="#121A26"/>
<path d="M305.911 336.608C302.834 336.121 289.397 318.443 300.166 297.644C303.391 291.43 310.361 286.346 316.68 284.807C320.139 283.974 323.734 283.871 327.236 284.504C330.737 285.137 334.069 286.492 337.017 288.484C336.957 288.484 333.854 285.876 325.719 286.224C314.88 286.693 306.971 294.046 303.564 300.53C294.873 317.131 302.947 333.514 305.929 335L305.911 336.608Z" fill="#121A26"/>
<path d="M294.847 335.313C284.713 332.783 278.159 324.014 276.343 316.635C270.05 291.073 290.953 284.355 290.953 284.355C287.316 286.223 284.322 289.139 282.357 292.725C277.473 301.268 278.707 314.679 283.505 322.441C285.821 326.2 289.014 329.341 292.81 331.595C296.607 333.849 300.893 335.148 305.302 335.382L305.911 336.651C305.824 336.616 301.757 337.042 294.847 335.313Z" fill="#121A26"/>
<path d="M377.215 223.594C384.377 223.811 389.626 242.35 388.94 265C388.253 287.649 381.891 305.849 374.729 305.623L363.63 305.293C363.63 305.293 362.518 280.262 363.005 264.217C363.5 247.764 366.125 223.255 366.125 223.255L377.215 223.594Z" fill="#1F4060"/>
<path d="M363.066 287.892C363.17 292.473 363.3 296.627 363.413 299.721L381.483 300.138C383.296 296.776 384.68 293.199 385.602 289.492C382.065 289.213 367.029 288.31 363.066 287.892Z" fill="#346F93"/>
<path d="M365.586 228.522C365.386 230.617 365.134 233.233 364.874 236.162C369.697 236.231 374.538 236.535 379.345 236.675C381.648 236.735 383.951 236.753 386.254 236.753C385.562 233.971 384.55 231.279 383.239 228.731C377.354 228.817 371.444 228.6 365.586 228.522Z" fill="#346F93"/>
<path d="M362.961 265.729C362.892 268.815 362.866 272.161 362.883 275.585C371.287 275.924 379.692 276.081 388.088 276.211C388.436 273.308 388.688 270.275 388.835 267.146C380.214 267.181 371.444 266.277 362.961 265.729Z" fill="#346F93"/>
<path d="M377.929 264.709C378.617 242.058 373.368 223.52 366.205 223.302C359.042 223.084 352.677 241.27 351.989 263.921C351.301 286.572 356.55 305.111 363.713 305.328C370.877 305.546 377.241 287.36 377.929 264.709Z" fill="#468CAF"/>
<path d="M371.498 263.813C372.011 246.92 368.452 233.104 363.549 232.955C358.646 232.806 354.254 246.38 353.741 263.274C353.228 280.167 356.787 293.983 361.691 294.132C366.594 294.28 370.985 280.706 371.498 263.813Z" fill="#121A26"/>
<path d="M360.389 235.527C353.436 235.527 344.649 234.988 335.783 234.492C335.455 234.492 335.135 234.591 334.863 234.775C334.592 234.96 334.383 235.222 334.262 235.527C333.631 235.042 332.915 234.679 332.15 234.458C323.85 233.675 305.815 233.18 300.653 235.327C299.659 235.421 298.657 235.288 297.724 234.936C288.276 236.17 270.554 240.151 264.036 244.557C262.515 245.583 260.916 244.696 259.534 245.079C249.869 249.972 238.674 256.751 230.617 263.626C229.417 264.613 228.384 265.787 227.558 267.102C226.159 268.493 223.551 269.38 223.212 269.71C216.337 276.482 210.147 283.918 204.734 291.908C204.021 292.974 203.552 294.185 203.361 295.454C203.363 295.477 203.363 295.5 203.361 295.523C202.231 297.514 201.484 296.853 200.163 298.722C196.036 305.958 192.546 313.539 189.733 321.38C189.286 322.676 189.086 324.044 189.142 325.413C189.142 325.526 189.142 325.639 189.142 325.761C189.142 325.882 187.352 328.551 186.778 329.768C185.984 333.46 185.404 337.194 185.04 340.953C184.701 343.561 183.354 352.504 187.699 358.136C196.452 369.435 218.902 366.975 232.26 359.075C234.823 357.578 237.164 355.729 239.213 353.582C241.348 351.354 242.71 348.499 243.098 345.438C243.159 344.882 243.237 344.326 243.324 343.778C243.324 343.526 243.324 343.274 243.324 343.039C243.406 342.302 243.332 341.556 243.107 340.849C243.095 340.836 243.088 340.819 243.088 340.801C243.088 340.783 243.095 340.766 243.107 340.753C243.552 340.266 243.932 339.722 244.237 339.137C245.015 336.084 246.068 333.108 247.383 330.245L247.435 330.089C247.696 329.072 247.879 328.029 248.096 327.004H248.148C248.765 326.352 249.443 325.822 250.034 325.152C252.523 320.935 255.464 317.001 258.804 313.419C259.054 312.636 259.528 311.944 260.168 311.429C260.716 311.098 261.237 310.742 261.759 310.368C266.251 306.043 271.186 302.204 276.482 298.913C277.421 297.983 277.846 296.784 279.289 296.54C280.164 296.383 281.019 296.126 281.836 295.775C284.316 294.437 286.816 293.226 289.337 292.142C292.834 290.619 296.446 289.375 300.14 288.422H299.471C299.461 288.418 299.453 288.412 299.448 288.403C299.442 288.395 299.439 288.385 299.439 288.375C299.439 288.365 299.442 288.355 299.448 288.346C299.453 288.338 299.461 288.331 299.471 288.327C300.893 288.246 302.23 287.624 303.208 286.589C303.301 286.497 303.425 286.446 303.556 286.446C303.686 286.446 303.811 286.497 303.903 286.589C304.198 286.844 304.546 287.032 304.921 287.138C305.297 287.245 305.691 287.268 306.076 287.206C313.551 286.015 321.625 286.006 332.15 286.71C332.885 286.56 333.61 286.368 334.323 286.137C334.55 286.023 334.797 285.958 335.05 285.945C335.302 285.931 335.555 285.97 335.792 286.058C335.891 286.096 335.984 286.145 336.07 286.206C336.889 286.757 337.828 287.105 338.808 287.223C342.05 287.501 351.471 288.344 357.79 288.744C359.391 288.845 360.976 288.377 362.266 287.423C363.556 286.469 364.467 285.09 364.839 283.529C368.75 267.207 368.48 235.527 360.389 235.527Z" fill="#2C5777"/>
<path d="M367.299 257.689C365.96 262.322 361.762 263.904 357.929 264.643C345.083 266.998 316.002 260.601 289.024 269.127C270.772 274.881 238.388 288.248 222.769 327.273C218.815 337.146 213.392 349.584 201.371 351.365C193.462 352.539 186.491 347.619 184.692 344.047C184.388 347.932 184.458 353.955 187.7 358.162C196.452 369.461 218.902 367.001 232.261 359.101C235.101 357.445 237.662 355.351 239.848 352.895C241.66 350.807 242.789 348.213 243.081 345.464C243.142 344.908 243.22 344.351 243.307 343.804C243.307 343.552 243.307 343.3 243.307 343.065C243.389 342.328 243.315 341.582 243.09 340.875C243.078 340.862 243.071 340.845 243.071 340.827C243.071 340.809 243.078 340.792 243.09 340.779C243.535 340.291 243.915 339.748 244.22 339.163C244.998 336.11 246.051 333.134 247.366 330.271L247.418 330.115C247.679 329.098 247.862 328.055 248.079 327.029H248.131C248.748 326.378 249.426 325.847 250.017 325.178C252.506 320.961 255.447 317.026 258.786 313.445C259.037 312.662 259.511 311.97 260.151 311.454C260.699 311.124 261.22 310.768 261.742 310.394C266.234 306.069 271.168 302.23 276.465 298.939C277.404 298.009 277.829 296.809 279.272 296.566C280.147 296.409 281.002 296.152 281.819 295.801C284.299 294.463 286.799 293.252 289.319 292.168C292.817 290.645 296.429 289.401 300.123 288.448H299.454C299.444 288.444 299.436 288.438 299.431 288.429C299.425 288.421 299.422 288.411 299.422 288.4C299.422 288.39 299.425 288.38 299.431 288.372C299.436 288.363 299.444 288.357 299.454 288.353C300.876 288.271 302.213 287.65 303.191 286.614C303.284 286.523 303.409 286.472 303.539 286.472C303.669 286.472 303.794 286.523 303.886 286.614C304.181 286.87 304.529 287.058 304.904 287.164C305.28 287.271 305.674 287.294 306.059 287.231C313.534 286.041 321.608 286.032 332.133 286.736C332.868 286.586 333.593 286.394 334.306 286.162C334.532 286.049 334.78 285.984 335.032 285.97C335.285 285.957 335.538 285.996 335.775 286.084C335.918 286.141 336.052 286.217 336.175 286.31C336.903 286.833 337.759 287.151 338.652 287.231C342.007 287.527 352.097 288.422 358.546 288.796C360.039 288.884 361.516 288.454 362.728 287.578C363.939 286.702 364.811 285.435 365.195 283.99C367.386 275.941 367.603 264.443 367.299 257.689Z" fill="#1F4060"/>
<path d="M240.943 274.308C239.205 271.805 235.433 273.1 230.061 276.915C225.394 280.461 227.15 278.879 222.491 284.059C218.377 288.511 214.693 293.342 211.488 298.487C207.724 304.38 204.143 310.012 202.423 316.887C201.284 321.45 201.623 324.587 203.683 326.647C205.743 328.707 208.706 326.647 210.193 324.831C212.8 321.719 215.712 314.731 218.58 310.055C222.926 303.041 227.871 295.28 233.399 289.196C235.467 286.902 234.746 287.275 237.744 283.981C239.448 282.191 242.942 277.245 240.943 274.308Z" fill="#346F93"/>
<path d="M281.714 255.717C289.536 255.378 295.438 254.239 304.537 253.561C312.989 252.933 321.473 252.86 329.934 253.344C335.679 253.674 342.206 254.413 345.257 253.553C346.1 253.306 346.857 252.828 347.444 252.174C348.031 251.52 348.423 250.715 348.577 249.85C348.924 247.973 348.672 245.713 347.308 244.357C342.354 239.394 313.142 239.455 297.011 241.88C291.118 242.749 284.399 243.236 279.35 246.53C275.465 249.059 277.351 255.908 281.714 255.717Z" fill="#346F93"/>
<path d="M243.316 340.493C236.484 345.455 224.838 347.446 218.293 347.402C205.187 347.289 189.811 340.945 189.107 325.752C188.132 326.449 187.419 327.453 187.082 328.603C187.021 328.75 186.969 328.916 186.917 329.081C186.469 330.642 186.38 332.284 186.657 333.884C186.934 335.484 187.57 337 188.516 338.32C194.54 347.011 206.212 351.166 217.441 351.166C235.815 351.166 242.403 344.134 243.333 343.169C244.698 341.64 243.455 340.345 243.316 340.493Z" fill="#121A26"/>
<path d="M248.478 326.639C240.83 329.889 230.487 327.934 223.412 324.822C211.366 319.52 202.553 308.839 203.309 295.515C203.309 295.289 201.623 295.949 200.701 297.775C200.206 298.765 199.945 301.599 200.336 304.728C201.814 316.226 211.148 324.388 222.421 328.577C236.206 333.705 245.662 330.585 245.784 330.558C247.661 330.159 248.687 329.333 248.53 327.421C248.478 326.639 248.443 326.691 248.478 326.639Z" fill="#121A26"/>
<path d="M259.968 311.533C258.158 311.442 256.359 311.201 254.588 310.812C248.788 309.591 243.307 307.176 238.492 303.719C226.02 294.785 221.77 276.472 227.558 267.129C226.364 267.491 225.226 268.018 224.177 268.693C224.116 268.693 224.056 268.797 223.986 268.858C222.371 270.363 221.413 272.442 221.318 274.647C219.979 287.336 224.907 299.165 236.328 307.292C241.308 310.846 250.356 314.166 257.865 314.166C258.908 314.184 259.968 313.767 259.968 311.533Z" fill="#121A26"/>
<path d="M279.003 296.575C271.867 293.551 264.097 285.407 261.237 279.905C254.701 267.303 252.659 251.884 264.036 244.583C262.294 244.276 260.5 244.583 258.96 245.453C256.353 247.191 254.154 248.547 252.963 251.441C248.748 261.688 252.859 274.247 258.578 283.199C262.246 288.936 268.738 295.75 275.961 298.574C277.577 299.009 279.003 298.07 279.003 296.575Z" fill="#121A26"/>
<path d="M302.687 287.892C303.018 287.837 303.321 287.671 303.546 287.421C303.772 287.172 303.907 286.854 303.93 286.519C299.888 282.478 295.907 275.742 294.021 266.199C292.187 256.899 294.021 239.334 300.653 235.353C300.008 235.119 299.331 234.987 298.645 234.962H298.575C297.432 234.959 296.309 235.272 295.331 235.865C294.353 236.459 293.557 237.31 293.03 238.325C288.511 247.165 288.441 256.847 290.084 266.199C291.292 273.108 294.786 280.913 298.932 285.502C301.305 288.136 302.669 287.901 302.687 287.892Z" fill="#121A26"/>
<path d="M336.166 286.206C330.542 271.926 330.143 256.316 334.262 235.526C334.262 235.526 333.602 235.048 333.237 234.814C331.69 233.858 330.534 235.231 330.143 236.439C325.684 250.223 327.205 272.074 331.09 281.877C331.959 284.094 333.167 287.145 335.54 286.953C335.888 286.901 336.14 286.188 336.166 286.206Z" fill="#121A26"/>
<path d="M116.725 82.6508L115.317 74.4635C114.657 70.6269 112.796 67.0991 110.001 64.3889C107.207 61.6786 103.623 59.9261 99.7684 59.3839C99.2792 59.3196 98.8299 59.0795 98.5046 58.7085C98.1792 58.3376 98 57.861 98 57.3675C98 56.8741 98.1792 56.3975 98.5046 56.0265C98.8299 55.6555 99.2792 55.4155 99.7684 55.3511C103.624 54.8072 107.208 53.0529 110.002 50.3412C112.797 47.6295 114.658 44.1005 115.317 40.2629L116.725 32.0755C116.775 31.775 116.93 31.502 117.162 31.3051C117.395 31.1081 117.69 31 117.994 31C118.299 31 118.594 31.1081 118.826 31.3051C119.058 31.502 119.213 31.775 119.263 32.0755L120.671 40.0542C121.336 43.8121 123.154 47.2699 125.874 49.9472C128.593 52.6246 132.079 54.3888 135.846 54.9947C136.409 55.0853 136.922 55.3734 137.291 55.8074C137.661 56.2414 137.864 56.793 137.864 57.3632C137.864 57.9334 137.661 58.4849 137.291 58.9189C136.922 59.3529 136.409 59.641 135.846 59.7316C132.077 60.3381 128.591 62.1035 125.871 64.7826C123.152 67.4616 121.334 70.9213 120.671 74.6808L119.263 82.6595C119.212 82.9599 119.056 83.2323 118.823 83.4285C118.59 83.6247 118.295 83.7318 117.991 83.7308C117.686 83.7297 117.392 83.6205 117.16 83.4228C116.928 83.225 116.774 82.9515 116.725 82.6508Z" fill="#FFAA00"/>
<path d="M197.338 47.2886L196.043 39.7879C195.439 36.2724 193.734 33.0396 191.174 30.5558C188.613 28.0721 185.33 26.4658 181.798 25.9686C181.357 25.9007 180.954 25.6772 180.664 25.3384C180.373 24.9996 180.213 24.568 180.213 24.1216C180.213 23.6753 180.373 23.2436 180.664 22.9049C180.954 22.5661 181.357 22.3426 181.798 22.2747C185.328 21.7776 188.609 20.1722 191.167 17.69C193.726 15.2079 195.43 11.9773 196.034 8.46408L197.329 0.972105C197.377 0.699903 197.519 0.45315 197.73 0.275319C197.942 0.0974885 198.209 0 198.485 0C198.762 0 199.029 0.0974885 199.241 0.275319C199.452 0.45315 199.594 0.699903 199.641 0.972105L200.936 8.2816C201.547 11.7234 203.214 14.8897 205.706 17.3411C208.198 19.7925 211.391 21.4075 214.843 21.9618C215.361 22.0424 215.834 22.3057 216.175 22.7041C216.516 23.1026 216.704 23.61 216.704 24.1347C216.704 24.6594 216.516 25.1668 216.175 25.5652C215.834 25.9637 215.361 26.227 214.843 26.3075C211.39 26.8624 208.196 28.4787 205.704 30.9318C203.212 33.3849 201.546 36.5531 200.936 39.9965L199.641 47.2972C199.588 47.5642 199.444 47.8043 199.233 47.9766C199.022 48.1489 198.758 48.2425 198.486 48.2415C198.214 48.2405 197.951 48.1448 197.741 47.971C197.532 47.7971 197.389 47.5559 197.338 47.2886Z" fill="#FFAA00"/>
<path d="M275.117 62.9853L274.144 57.3445C273.697 54.6918 272.416 52.2506 270.488 50.3751C268.559 48.4997 266.083 47.2876 263.419 46.9149C263.088 46.8624 262.786 46.6935 262.569 46.4386C262.351 46.1837 262.231 45.8595 262.231 45.5243C262.231 45.1891 262.351 44.8648 262.569 44.6099C262.786 44.355 263.088 44.1862 263.419 44.1337C266.082 43.7583 268.557 42.5454 270.485 40.6704C272.413 38.7954 273.695 36.3556 274.144 33.704L275.117 28.0632C275.117 27.8327 275.209 27.6117 275.372 27.4487C275.535 27.2857 275.756 27.1941 275.987 27.1941C276.217 27.1941 276.438 27.2857 276.601 27.4487C276.764 27.6117 276.856 27.8327 276.856 28.0632L277.821 33.5649C278.278 36.1506 279.527 38.5305 281.395 40.3756C283.264 42.2206 285.659 43.4397 288.25 43.8642C288.637 43.9276 288.988 44.1262 289.242 44.4247C289.495 44.7232 289.635 45.1022 289.635 45.4939C289.635 45.8855 289.495 46.2645 289.242 46.563C288.988 46.8615 288.637 47.0602 288.25 47.1235C285.658 47.5498 283.263 48.7705 281.394 50.617C279.526 52.4635 278.277 54.8447 277.821 57.4315L276.856 62.9331C276.863 63.1637 276.778 63.3875 276.62 63.5553C276.462 63.7232 276.243 63.8214 276.013 63.8283C275.782 63.8352 275.558 63.7503 275.391 63.5922C275.223 63.4341 275.124 63.2158 275.117 62.9853Z" fill="#FFAA00"/>
<path d="M137.585 249.172C136.438 236.604 132.057 226.931 124.252 219.621C122.566 218.552 121.48 220.994 120.272 218.257C119.924 217.457 118.916 215.197 116.943 214.154C114.474 212.659 107.521 210.374 100.916 208.826C99.8817 208.826 98.5693 209.643 97.4394 209.696C96.4577 208.789 95.2995 208.095 94.0373 207.657C92.7751 207.219 91.436 207.046 90.1039 207.149C89.539 207.149 88.9653 207.149 88.3656 207.149C85.0455 207.219 78.1619 207.54 75.1373 207.957C74.6173 208.186 74.1547 208.528 73.7833 208.958C73.412 209.388 73.1413 209.895 72.9906 210.443C70.6874 209.67 69.5835 209.774 68.81 209.956C62.5075 211.847 56.3966 214.327 50.5581 217.361C49.0979 218.743 48.4112 221.351 48.2808 221.368C48.1504 221.385 45.4126 221.446 44.135 222.342C39.3445 226.018 34.9282 230.158 30.9502 234.701C30.3245 235.865 31.1414 235.935 30.8632 237.178C30.6981 237.943 31.0546 238.69 30.3506 238.994C29.6318 239.301 28.9519 239.692 28.3254 240.159C28.132 240.302 27.9464 240.456 27.7693 240.62C23.241 249.954 29.8117 254.526 40.7367 262.409C51.9226 270.527 60.7703 270.709 66.0634 266.572C66.437 265.218 66.5551 263.806 66.4112 262.409C66.3503 261.757 67.1063 261.54 67.5844 261.74C68.6882 262.226 68.523 261.922 69.5486 261.974C70.2787 261.531 72.269 260.054 73.6857 259.054C74.4756 258.495 75.0398 257.672 75.2763 256.733C75.4562 256.02 75.5753 255.294 75.6326 254.561C75.6326 254.161 76.0846 254.291 76.2845 254.613C76.9015 255.603 77.0233 256.142 77.2754 256.134C80.2565 254.795 84.6456 253.083 85.4626 251.849C85.6364 251.588 86.071 252.318 86.2796 252.544L86.3405 252.605C86.9141 253.196 86.0363 253.665 86.8185 253.996C87.114 254.117 92.7374 254.265 93.3893 254.265C94.143 254.222 94.8639 253.942 95.449 253.465C96.1271 252.926 96.7555 252.327 97.3265 251.675C97.3265 251.675 97.509 251.571 97.5351 251.545C97.5611 251.519 97.2656 253.283 98.4042 253.9C99.3168 254.004 105.496 255.438 106.009 255.56C106.959 255.809 107.959 255.8 108.904 255.534C109.85 255.268 110.708 254.755 111.389 254.048C111.598 253.813 111.824 253.552 112.067 253.248C112.128 253.135 110.824 255.916 111.354 256.255C113.779 257.368 119.403 261.01 121.41 262.339C122.514 263.043 123.965 263.487 125.252 262.496C125.252 262.496 125.321 262.496 125.365 262.574V262.644C125.452 262.683 125.524 262.751 125.568 262.836C125.612 262.921 125.626 263.019 125.608 263.113C125.608 263.113 125.608 263.113 125.608 263.165C125.608 263.217 125.608 263.165 125.608 263.208C126.025 264.225 125.304 264.078 125.4 264.191C125.921 264.947 133.622 272.23 134.612 273.065C134.612 273.021 139.236 267.293 137.585 249.172Z" fill="#346F93"/>
<path d="M96.6573 217.457C96.6573 217.371 96.6138 217.292 96.5877 217.214C96.103 215.469 95.0174 213.951 93.5226 212.929C92.0278 211.906 90.2199 211.445 88.4179 211.626C86.8708 211.765 85.3845 211.93 84.02 212.06C74.894 212.929 64.6469 214.737 56.6943 219.526C53.9463 221.153 51.3895 223.083 49.0719 225.28C48.1823 226.129 47.6543 227.288 47.5976 228.517C47.541 229.746 47.96 230.949 48.7676 231.877C49.4064 232.567 50.1888 233.11 51.0597 233.465C51.9307 233.821 52.869 233.982 53.8087 233.936C57.9023 233.936 61.8047 230.555 65.0553 228.504C70.6786 224.949 77.0234 223.707 83.568 223.289C84.4371 223.229 85.2453 223.194 86.0797 223.159C88.057 222.972 90.0475 222.972 92.0247 223.159C92.7382 223.191 93.4492 223.055 94.1008 222.763C94.7524 222.47 95.3263 222.029 95.7767 221.475C96.2271 220.92 96.5413 220.268 96.6942 219.571C96.8471 218.873 96.8345 218.149 96.6573 217.457Z" fill="#468CAF"/>
<path d="M137.585 249.172C136.716 239.307 133.787 231.233 128.807 224.688C129.557 226.862 129.618 229.215 128.98 231.424C128.98 231.424 131.049 225.558 128.98 231.424C126.912 237.291 117.404 238.908 108.165 238.195C101.673 237.587 95.1462 237.451 88.635 237.786C85.6713 237.951 79.0222 238.951 76.1367 239.525C73.4969 240.808 71.0651 242.481 68.9228 244.487C61.6047 251.328 56.642 259.776 51.2708 268.076C57.5199 270.162 62.5696 269.345 66.0461 266.616C66.4198 265.262 66.5376 263.85 66.3937 262.453C66.3328 261.801 67.0891 261.583 67.5671 261.783C68.6709 262.27 68.5056 261.966 69.5312 262.018C70.2612 261.575 72.2516 260.097 73.6683 259.098C74.4581 258.538 75.0223 257.716 75.2589 256.777C75.4387 256.064 75.5578 255.337 75.6151 254.604C75.6151 254.204 76.0671 254.335 76.267 254.656C76.8841 255.647 77.0059 256.186 77.2579 256.177C80.2391 254.839 84.6282 253.127 85.4452 251.892C85.619 251.632 86.0535 252.362 86.2621 252.588L86.323 252.649C86.8966 253.24 86.0188 253.709 86.8011 254.039C87.0966 254.161 92.7199 254.309 93.3718 254.309C94.1255 254.266 94.8464 253.986 95.4316 253.509C96.1096 252.97 96.7381 252.37 97.309 251.719C97.309 251.719 97.4915 251.614 97.5176 251.588C97.5437 251.562 97.2482 253.327 98.3868 253.944C99.2994 254.048 105.479 255.482 105.992 255.604C106.942 255.852 107.941 255.843 108.887 255.578C109.832 255.312 110.69 254.799 111.372 254.091C111.58 253.857 111.806 253.596 112.05 253.292C112.11 253.179 110.807 255.96 111.337 256.299C113.762 257.412 119.385 261.053 121.393 262.383C122.497 263.087 123.948 263.53 125.234 262.539C125.234 262.539 125.304 262.54 125.347 262.618V262.687C125.435 262.727 125.507 262.794 125.551 262.88C125.595 262.965 125.609 263.062 125.591 263.157C125.591 263.157 125.591 263.157 125.591 263.209C125.591 263.261 125.591 263.209 125.591 263.252C126.008 264.269 125.286 264.121 125.382 264.234C125.904 264.99 133.604 272.274 134.595 273.108C134.612 273.021 139.236 267.294 137.585 249.172Z" fill="#2C5777"/>
<path d="M137.958 248.269C137.73 246.094 137.376 243.935 136.898 241.802C136.246 249.876 130.492 258.62 125.251 262.453C125.048 262.894 125.005 263.392 125.13 263.861C125.825 265.304 128.902 262.922 130.032 261.792C134.134 257.69 136.872 254.326 138.08 250.433C137.941 249.042 138.071 249.659 137.958 248.269Z" fill="#121A26"/>
<path d="M123.183 218.917C122.298 218.47 121.315 218.252 120.324 218.283C121.144 220.222 121.672 222.272 121.888 224.367C122.923 233.762 119.907 244.018 111.372 254.057C111.424 254.057 110.503 255.343 111.372 256.229C112.241 257.116 114.761 254.874 116.196 253.283C124.409 244.157 126.312 235.127 125.504 224.315C125.295 221.803 124.922 219.786 123.183 218.917Z" fill="#121A26"/>
<path d="M104.202 211.591C102.463 209.044 100.612 208.114 98.3437 209.096C98.0132 209.237 97.7168 209.448 97.4745 209.713C102.194 214.059 104.871 221.603 105.218 230.573C105.531 238.508 102.411 246.747 97.3962 251.684C97.544 253.318 98.0134 254.439 99.2476 253.674C105.193 249.989 109.391 238.16 109.278 229.834C109.112 222.568 107.391 216.249 104.202 211.591Z" fill="#121A26"/>
<path d="M92.3374 232.224C92.094 221.951 87.5744 214.381 80.517 209.514C78.9882 208.356 77.0811 207.813 75.1719 207.993C74.5833 208.098 74.0487 208.403 73.6579 208.855C73.267 209.308 73.0435 209.881 73.0249 210.478C84.6974 215.015 87.6874 226.123 88.4001 232.737C89.2693 240.768 87.583 247.982 85.4623 251.858C86.1055 254.109 86.8357 254.466 87.5223 253.596C91.5812 248.625 92.5286 240.09 92.3374 232.224Z" fill="#121A26"/>
<path d="M72.0171 227.47C67.56 221.78 61.0887 218.019 53.9389 216.962C53.0208 216.815 52.0814 216.88 51.1925 217.153C49.1761 217.796 47.7768 219.352 48.1331 221.421C58.1282 220.795 64.5947 225.819 68.3667 230.442C73.8075 237.109 76.5713 246.826 75.6326 254.596C76.606 257.003 77.6491 256.673 78.1532 254.378C79.4135 245.218 78.4226 235.309 72.0171 227.47Z" fill="#121A26"/>
<path d="M67.5842 261.775C67.9385 261.933 68.3128 262.041 68.6967 262.097C70.0352 262.305 70.5392 261.228 70.1829 259.22C68.8966 252.006 63.4559 244.236 53.1914 238.135C46.4382 234.119 39.7632 232.511 33.8443 233.267C33.1914 233.328 32.5605 233.535 31.9991 233.874C31.4377 234.212 30.9603 234.674 30.6025 235.223C30.2743 235.792 30.0823 236.43 30.0416 237.086C30.0009 237.742 30.1125 238.398 30.3678 239.004C38.529 235.658 47.7505 240.368 50.7838 242.185C59.3709 247.287 65.5591 255.378 66.5151 262.027C66.6371 261.869 66.8101 261.757 67.0049 261.711C67.1996 261.665 67.4042 261.688 67.5842 261.775Z" fill="#121A26"/>
<path d="M3.72887 261.244L18.904 243.488C20.2426 241.934 22.0178 240.819 23.9987 240.287C25.9797 239.755 28.0748 239.832 30.0116 240.507L60.6749 251.18C61.714 251.539 62.6627 252.12 63.455 252.883C64.2474 253.645 64.8647 254.57 65.264 255.595L68.8882 264.825C69.3325 265.965 69.4858 267.198 69.334 268.412C69.1823 269.626 68.7303 270.783 68.0191 271.778L51.2968 295.48C50.6552 296.386 49.7315 297.054 48.6701 297.379C47.6087 297.705 46.4694 297.669 45.4302 297.279L10.5256 284.19C9.02312 283.625 7.67579 282.712 6.5941 281.526C5.51241 280.34 4.72724 278.915 4.30264 277.367L2.44256 266.624C2.20033 265.691 2.19091 264.712 2.41519 263.774C2.63946 262.836 3.09056 261.967 3.72887 261.244Z" fill="#346F93"/>
<path d="M37.347 283.634C36.3562 285.094 34.1051 285.728 32.7318 284.19C31.1848 282.452 30.1853 280.34 28.6295 278.61C27.564 277.526 26.4002 276.542 25.153 275.673C25.439 276.376 25.6827 277.096 25.8829 277.828C26.8563 281.426 21.6763 283.66 19.8598 280.366C18.1215 277.254 16.7743 273.734 13.3152 272.135C11.1336 271.127 8.17868 270.397 6.91843 272.926C6.85832 273.049 6.7855 273.166 6.70114 273.274C6.80863 273.854 6.7157 274.454 6.43781 274.975C6.15992 275.496 5.71352 275.908 5.17145 276.142C4.85882 276.266 4.52563 276.331 4.18921 276.333L4.37169 277.367C4.7963 278.915 5.58169 280.341 6.66337 281.527C7.74506 282.712 9.09239 283.625 10.5949 284.19L45.4994 297.279C46.4502 297.638 47.4887 297.692 48.4718 297.436C46.4902 290.856 43.8395 284.32 37.347 283.634Z" fill="#1F4060"/>
<path d="M62.5173 255.422C57.8326 260.897 48.8891 272.04 45.3257 276.498C44.8605 277.077 44.5561 277.768 44.4432 278.502C44.3303 279.236 44.4128 279.987 44.6825 280.679L49.8191 293.881C49.9117 294.115 50.0658 294.32 50.2653 294.474C50.4648 294.628 50.7022 294.725 50.9524 294.756C51.2025 294.786 51.4561 294.748 51.6866 294.646C51.917 294.544 52.1155 294.382 52.2614 294.176L68.1406 271.674C68.8171 270.712 69.2449 269.598 69.3859 268.43C69.527 267.262 69.3768 266.078 68.9488 264.982L65.3855 255.908C65.2701 255.644 65.0905 255.412 64.8631 255.234C64.6357 255.056 64.3675 254.938 64.0828 254.89C63.7982 254.841 63.5061 254.865 63.2328 254.957C62.9594 255.05 62.7135 255.21 62.5173 255.422Z" fill="#2C5777"/>
<path d="M56.1376 270.058C55.1044 271.254 54.2282 272.577 53.5302 273.995C51.618 277.645 51.3573 280.079 53.73 283.556C54.7568 285.053 55.6608 286.632 56.4332 288.275L62.2389 280.062C59.9663 276.879 57.9272 273.535 56.1376 270.058Z" fill="#1F4060"/>
<path d="M44.6477 271.979L60.4225 254.118C60.6484 253.863 60.8081 253.556 60.8875 253.225C60.9668 252.893 60.9634 252.547 60.8775 252.217C60.7916 251.888 60.6258 251.584 60.395 251.334C60.1641 251.083 59.875 250.893 59.5534 250.78L30.2112 240.568C28.2193 239.877 26.0657 239.799 24.0295 240.346C21.9932 240.894 20.1682 242.04 18.7909 243.636L5.04971 259.593C4.78622 259.898 4.60183 260.263 4.51287 260.656C4.42391 261.048 4.43327 261.457 4.53981 261.845C4.64636 262.234 4.84683 262.59 5.12377 262.882C5.4007 263.175 5.74541 263.394 6.12744 263.522L37.1731 273.952C38.4743 274.399 39.8792 274.451 41.2098 274.1C42.5404 273.748 43.7369 273.01 44.6477 271.979Z" fill="#468CAF"/>
<path d="M13.117 281.795C15.5309 281.007 16.5529 277.505 15.3999 273.973C14.2468 270.442 11.3554 268.217 8.94156 269.005C6.52768 269.793 5.50551 273.295 6.65853 276.827C7.81155 280.359 10.7031 282.583 13.117 281.795Z" fill="#121A26"/>
<path d="M29.3334 278.358C30.4981 281.913 29.8637 285.798 27.0477 286.719C24.2317 287.641 20.7986 284.747 19.6339 281.192C18.4693 277.637 19.3211 274.491 22.1372 273.578C24.9532 272.665 28.1775 274.795 29.3334 278.358Z" fill="#121A26"/>
<path d="M43.6572 285.293C44.4655 288.979 43.8656 291.76 40.8932 292.412C37.9207 293.064 34.4703 289.804 33.1318 286.18C31.7934 282.556 32.6278 278.836 35.6003 278.184C38.5727 277.532 42.8402 281.617 43.6572 285.293Z" fill="#121A26"/>
<path d="M62.5514 275.55C65.0259 271.245 64.9666 266.567 62.4192 265.103C59.8718 263.639 55.8008 265.943 53.3264 270.248C50.8519 274.554 50.911 279.231 53.4585 280.695C56.0059 282.159 60.0769 279.856 62.5514 275.55Z" fill="#121A26"/>
<path d="M12.1592 270.197C11.4777 269.525 10.5805 269.115 9.62627 269.04C8.67207 268.966 7.72224 269.231 6.94438 269.788C4.91928 271.249 1.59033 274.508 0.495219 280.748C-1.97314 294.846 5.77099 293.42 6.89218 292.299C8.52616 290.665 8.92597 287.866 11.6811 285.111C14.4363 282.356 15.1577 281.183 15.1577 277.428C14.9763 274.754 13.923 272.214 12.1592 270.197Z" fill="#2C5777"/>
<path d="M22.1373 273.578C18.4695 273.578 14.793 276.993 12.7332 282.408C9.50866 290.865 14.1584 301.912 19.1299 301.912C24.1014 301.912 23.4758 296.419 24.51 292.49C25.6573 288.205 28.7775 285.737 28.8557 283.477C29.1078 279.349 27.1175 273.578 22.1373 273.578Z" fill="#2C5777"/>
<path d="M34.2183 278.819C31.4023 279.601 24.3187 290.074 28.508 300.382C32.6972 310.69 37.043 308.274 38.9898 305.51C40.9367 302.746 38.1902 294.811 41.3452 292.256C43.4311 290.517 43.6223 286.598 41.3452 282.826C39.7373 280.131 36.6953 278.141 34.2183 278.819Z" fill="#2C5777"/>
<path d="M3.66795 284.972C5.27586 278.097 8.06574 277.506 9.90831 274.308C12.1507 270.414 7.8659 269.041 6.92723 269.71C4.90213 271.17 1.57318 274.429 0.478069 280.67C0.204166 282.174 0.0443257 283.696 0 285.224C0.365038 287.423 3.216 286.945 3.66795 284.972Z" fill="#346F93"/>
<path d="M14.9842 294.576C17.948 294.576 18.4606 290.508 19.1298 288.162C21.1549 280.679 23.8059 280.835 24.284 278.132C24.875 274.734 22.4414 273.578 22.1372 273.578C18.4694 273.578 14.7929 276.993 12.7331 282.408C11.6157 285.531 11.3634 288.897 12.0029 292.151C12.5592 293.872 13.3589 294.593 14.9842 294.576Z" fill="#346F93"/>
<path d="M30.9762 299.852C32.3668 299.391 33.0012 294.637 33.5836 292.898C34.896 289.161 38.2161 286.571 38.2161 282.625C38.2161 278.949 35.7129 278.375 34.2006 278.792C31.6367 279.505 25.5526 288.231 27.6212 297.557C28.2557 299.026 29.0032 300.503 30.9762 299.852Z" fill="#346F93"/>
<path d="M4.74596 273.022C3.12936 272.787 1.26933 276.142 0.539253 280.401C0.434956 285.468 9.21334 273.673 4.74596 273.022Z" fill="#468CAF"/>
<path d="M20.8246 276.09C20.1467 275.22 18.2171 275.22 16.783 276.854C14.8872 279.256 13.7011 282.14 13.3586 285.181C13.0284 288.501 15.1578 290.013 16.1833 287.354C17.2305 284.428 18.7514 281.694 20.6854 279.262C20.9748 278.788 21.1394 278.248 21.1637 277.694C21.188 277.139 21.0714 276.587 20.8246 276.09Z" fill="#468CAF"/>
<path d="M29.5766 293.411C31.4017 293.959 32.4101 289.596 32.7403 288.927C34.7046 284.981 36.1126 283.234 35.087 281.921C34.0614 280.609 32.2622 281.235 31.0801 283.095C30.342 284.325 29.8052 285.666 29.4898 287.067C28.6119 289.987 28.4814 293.081 29.5766 293.411Z" fill="#468CAF"/>
<path d="M62.2566 265.26C59.7448 265.443 55.9728 267.807 53.8521 272.457C51.7314 277.106 53.4436 280.062 55.1471 281C56.8506 281.939 58.2411 282.408 62.1783 286.884C66.2458 291.525 68.3492 295.445 71.5563 293.924C75.6673 291.969 76.0498 285.398 74.0074 278.115C72.1908 271.613 66.6023 264.982 62.2566 265.26Z" fill="#2C5777"/>
<path d="M61.4742 266.72C56.7635 270.709 62.152 279.184 64.3161 281.356C66.4803 283.529 69.7223 287.067 72.7295 285.207C75.5021 283.468 73.9377 277.906 72.7817 274.873C70.8175 270.666 68.1926 267.146 65.3244 266.094C64.6736 265.934 63.997 265.907 63.3354 266.015C62.6738 266.122 62.0409 266.362 61.4742 266.72Z" fill="#346F93"/>
<path d="M65.3682 269.154C61.7786 270.527 63.9776 278.01 69.4966 280.374C73.2426 281.973 71.5391 274.403 70.3657 272.378C69.7139 271.214 67.8365 268.206 65.3682 269.154Z" fill="#468CAF"/>
</svg>
