<svg width="32" height="32" viewBox="0 0 32 32" fill="none" xmlns="http://www.w3.org/2000/svg">
    <path fill-rule="evenodd" clip-rule="evenodd" d="M0.390625 16.0872C0.390625 23.8476 6.02691 30.3008 13.3984 31.6094L13.3984 20.3355L9.49609 20.3355L9.49609 16L13.3984 16L13.3984 12.5308C13.3984 8.62847 15.9128 6.46137 19.4692 6.46137C20.5957 6.46137 21.8106 6.63438 22.9371 6.80738L22.9371 10.7969L20.943 10.7969C19.0347 10.7969 18.6016 11.7503 18.6016 12.9653L18.6016 16L22.7641 16L22.0707 20.3355L18.6016 20.3355L18.6016 31.6094C25.9731 30.3008 31.6094 23.8489 31.6094 16.0872C31.6094 7.45387 24.5852 0.390625 16 0.390625C7.41484 0.390625 0.390625 7.45387 0.390625 16.0872Z" fill="white"/>
</svg>
