<svg width="32" height="32" viewBox="0 0 32 32" fill="none" xmlns="http://www.w3.org/2000/svg">
    <path fill-rule="evenodd" clip-rule="evenodd"
          d="M9.6392 0.664105C11.2844 0.588364 11.809 0.571533 16 0.571533C20.1909 0.571533 20.7155 0.589767 22.3594 0.664105C24.0032 0.738442 25.1253 1.00073 26.1071 1.38083C27.1352 1.76935 28.0679 2.37668 28.8393 3.16213C29.6248 3.93216 30.2307 4.86348 30.6178 5.89299C30.9994 6.87481 31.2602 7.99688 31.336 9.63792C31.4117 11.286 31.4285 11.8105 31.4285 16.0001C31.4285 20.1911 31.4103 20.7156 31.336 22.3609C31.2616 24.0019 30.9994 25.124 30.6178 26.1058C30.2307 27.1355 29.6238 28.0683 28.8393 28.8395C28.0679 29.6249 27.1352 30.2309 26.1071 30.618C25.1253 30.9995 24.0032 31.2604 22.3622 31.3361C20.7155 31.4118 20.1909 31.4287 16 31.4287C11.809 31.4287 11.2844 31.4104 9.6392 31.3361C7.99816 31.2618 6.87608 30.9995 5.89427 30.618C4.86465 30.2308 3.93178 29.6239 3.1606 28.8395C2.37568 28.069 1.76827 27.1366 1.38071 26.1072C1.00061 25.1254 0.739723 24.0033 0.663983 22.3623C0.588242 20.7142 0.571411 20.1897 0.571411 16.0001C0.571411 11.8091 0.589645 11.2846 0.663983 9.64073C0.73832 7.99688 1.00061 6.87481 1.38071 5.89299C1.76884 4.8636 2.37672 3.93119 3.16201 3.16073C3.93209 2.37598 4.86402 1.76857 5.89286 1.38083C6.87468 1.00073 7.99676 0.739845 9.6378 0.664105H9.6392ZM22.2345 3.44125C20.6075 3.36691 20.1194 3.35148 16 3.35148C11.8806 3.35148 11.3924 3.36691 9.76543 3.44125C8.26045 3.50997 7.44414 3.76104 6.89993 3.97283C6.1804 4.25335 5.66564 4.58577 5.12564 5.12577C4.61376 5.62376 4.21982 6.23001 3.97271 6.90005C3.76092 7.44426 3.50985 8.26057 3.44112 9.76556C3.36679 11.3926 3.35136 11.8807 3.35136 16.0001C3.35136 20.1195 3.36679 20.6076 3.44112 22.2346C3.50985 23.7396 3.76092 24.556 3.97271 25.1002C4.21957 25.7692 4.6137 26.3765 5.12564 26.8744C5.62357 27.3864 6.23089 27.7805 6.89993 28.0274C7.44414 28.2392 8.26045 28.4902 9.76543 28.559C11.3924 28.6333 11.8791 28.6487 16 28.6487C20.1208 28.6487 20.6075 28.6333 22.2345 28.559C23.7395 28.4902 24.5558 28.2392 25.1 28.0274C25.8196 27.7469 26.3343 27.4144 26.8743 26.8744C27.3863 26.3765 27.7804 25.7692 28.0272 25.1002C28.239 24.556 28.4901 23.7396 28.5588 22.2346C28.6332 20.6076 28.6486 20.1195 28.6486 16.0001C28.6486 11.8807 28.6332 11.3926 28.5588 9.76556C28.4901 8.26057 28.239 7.44426 28.0272 6.90005C27.7467 6.18052 27.4143 5.66577 26.8743 5.12577C26.3763 4.61392 25.7701 4.21998 25.1 3.97283C24.5558 3.76104 23.7395 3.50997 22.2345 3.44125ZM14.0293 20.7563C15.1299 21.2144 16.3554 21.2763 17.4964 20.9312C18.6375 20.5862 19.6234 19.8557 20.2858 18.8645C20.9481 17.8734 21.2458 16.683 21.1279 15.4967C21.0101 14.3105 20.4841 13.2019 19.6397 12.3604C19.1015 11.8224 18.4506 11.4105 17.7341 11.1543C17.0175 10.8981 16.253 10.804 15.4957 10.8787C14.7384 10.9534 14.0071 11.1951 13.3544 11.5863C12.7017 11.9776 12.1439 12.5087 11.7211 13.1414C11.2983 13.7741 11.021 14.4927 10.9093 15.2455C10.7975 15.9982 10.8541 16.7663 11.0748 17.4946C11.2956 18.2229 11.675 18.8931 12.1859 19.4571C12.6968 20.0211 13.3264 20.4648 14.0293 20.7563ZM10.3924 10.3925C11.1288 9.65612 12.003 9.07198 12.9652 8.67344C13.9273 8.27491 14.9586 8.06978 16 8.06978C17.0414 8.06978 18.0726 8.27491 19.0348 8.67344C19.9969 9.07198 20.8712 9.65612 21.6076 10.3925C22.344 11.1289 22.9281 12.0032 23.3266 12.9653C23.7252 13.9275 23.9303 14.9587 23.9303 16.0001C23.9303 17.0415 23.7252 18.0728 23.3266 19.0349C22.9281 19.9971 22.344 20.8713 21.6076 21.6077C20.1203 23.0949 18.1032 23.9304 16 23.9304C13.8967 23.9304 11.8796 23.0949 10.3924 21.6077C8.90517 20.1205 8.06966 18.1034 8.06966 16.0001C8.06966 13.8969 8.90517 11.8797 10.3924 10.3925ZM25.6891 9.25081C25.8716 9.07866 26.0177 8.87166 26.1187 8.64204C26.2198 8.41243 26.2737 8.16487 26.2774 7.91403C26.281 7.66319 26.2343 7.41417 26.14 7.18171C26.0457 6.94925 25.9057 6.73807 25.7283 6.56068C25.5509 6.38329 25.3398 6.2433 25.1073 6.14899C24.8748 6.05468 24.6258 6.00797 24.375 6.01162C24.1241 6.01528 23.8766 6.06923 23.647 6.17028C23.4174 6.27132 23.2104 6.41741 23.0382 6.5999C22.7034 6.9548 22.5201 7.4262 22.5272 7.91403C22.5344 8.40187 22.7313 8.86773 23.0763 9.21272C23.4213 9.5577 23.8871 9.75466 24.375 9.76177C24.8628 9.76888 25.3342 9.58559 25.6891 9.25081Z"
          fill="white"/>
</svg>
