<svg width="38" height="32" viewBox="0 0 38 32" fill="none" xmlns="http://www.w3.org/2000/svg">
    <path d="M37.2857 4.23175C35.9146 4.85028 34.4416 5.26821 32.8931 5.45711C34.4908 4.48383 35.6862 2.95201 36.2561 1.14746C34.755 2.05518 33.112 2.69411 31.3988 3.03649C30.2466 1.78416 28.7206 0.954093 27.0576 0.675166C25.3945 0.396239 23.6876 0.684055 22.2017 1.49393C20.7158 2.3038 19.5342 3.59042 18.8402 5.15404C18.1462 6.71765 17.9787 8.47077 18.3637 10.1412C15.322 9.98574 12.3464 9.18091 9.63002 7.77894C6.91364 6.37698 4.51718 4.40922 2.59617 2.00338C1.93933 3.15685 1.56165 4.49421 1.56165 5.9185C1.56091 7.20069 1.87107 8.46323 2.46461 9.59412C3.05814 10.725 3.91669 11.6893 4.96409 12.4014C3.74939 12.362 2.56148 12.0279 1.49924 11.4268L1.49924 11.5271C1.49912 13.3254 2.11016 15.0683 3.22869 16.4602C4.34721 17.8521 5.90432 18.8072 7.6358 19.1634C6.50896 19.4738 5.32755 19.5196 4.18081 19.2971C4.66933 20.8445 5.62093 22.1976 6.90238 23.167C8.18384 24.1364 9.731 24.6736 11.3273 24.7034C8.61751 26.8689 5.27098 28.0436 1.82602 28.0384C1.21579 28.0386 0.606063 28.0023 0 27.9298C3.49683 30.2186 7.56739 31.4334 11.7247 31.4286C25.7975 31.4286 33.4908 19.5629 33.4908 9.27193C33.4908 8.93759 33.4826 8.59991 33.4678 8.26557C34.9642 7.16387 36.256 5.79963 37.2824 4.23677L37.2857 4.23175Z"
          fill="white"/>
</svg>
