<svg width="33" height="18" viewBox="0 0 33 18" fill="none" xmlns="http://www.w3.org/2000/svg">
    <path d="M31.6959 1.22062C31.9167 0.5175 31.6959 0 30.6338 0L27.1193 0C26.2242 0 25.8125 0.444375 25.5917 0.939375C25.5917 0.939375 23.8016 5.05125 21.2716 7.7175C20.4541 8.48812 20.0782 8.73563 19.6307 8.73563C19.4099 8.73563 19.0698 8.48812 19.0698 7.785L19.0698 1.22062C19.0698 0.376875 18.8192 0 18.0792 0L12.5538 0C11.9929 0 11.6587 0.39375 11.6587 0.759375C11.6587 1.55812 12.9238 1.74375 13.055 3.99375L13.055 8.87625C13.055 9.945 12.8521 10.1419 12.4046 10.1419C11.2112 10.1419 8.31126 6.01312 6.59277 1.28813C6.24668 0.37125 5.90656 0 5.00554 0L1.49098 0C0.488523 0 0.285645 0.444375 0.285645 0.939375C0.285645 1.81687 1.47904 6.17625 5.84092 11.9363C8.74685 15.8681 12.8402 18 16.5636 18C18.8013 18 19.0757 17.5275 19.0757 16.7119C19.0757 12.9544 18.8729 12.6 19.9947 12.6C20.5138 12.6 21.4088 12.8475 23.4973 14.7431C25.8841 16.9931 26.2779 18 27.6145 18L31.1291 18C32.1315 18 32.6387 17.5275 32.3463 16.5938C31.678 14.6306 27.161 10.5919 26.9581 10.3219C26.439 9.69187 26.5882 9.41062 26.9581 8.84812C26.9641 8.8425 31.2544 3.15 31.6959 1.22062Z"
          fill="white"/>
</svg>
