<svg width="20" height="20" fill="none" xmlns="http://www.w3.org/2000/svg"><path d="M11 18a1 1 0 110 2 1 1 0 010-2zm-3.5-1a1 1 0 110 2 1 1 0 010-2zm7 0a1 1 0 110 2 1 1 0 010-2zM11.002 4.009c3.168 0 4.966 2.097 5.227 4.63h.08a3.687 3.687 0 013.692 3.683 3.686 3.686 0 01-3.692 3.682H5.694a3.688 3.688 0 01-3.692-3.682 3.687 3.687 0 013.692-3.683h.08c.263-2.55 2.06-4.63 5.228-4.63zm0 1.497c-2.072 0-3.877 1.634-3.877 3.89 0 .357-.319.638-.684.638h-.69c-1.262 0-2.284 1-2.284 2.236 0 1.235 1.022 2.236 2.283 2.236h10.503c1.261 0 2.283-1 2.283-2.236 0-1.235-1.022-2.236-2.283-2.236h-.69c-.366 0-.685-.28-.685-.638 0-2.285-1.805-3.89-3.876-3.89zM2.367 8.164a.75.75 0 01-.314.935l-.092.045-.926.384a.75.75 0 01-.665-1.34l.091-.046.926-.384a.75.75 0 01.98.406zm6.487-4.833l-.171.058a5.822 5.822 0 00-1.46.758A2.442 2.442 0 004.43 7.814c-.488.137-.95.353-1.367.64a3.942 3.942 0 015.791-5.122v-.001zm-7.913.031l.105.035.926.384a.75.75 0 01-.468 1.42l-.106-.034-.926-.384a.75.75 0 01.469-1.42v-.001zM4.756.376l.045.091.384.926a.75.75 0 01-1.34.666l-.046-.092-.384-.926a.75.75 0 011.34-.665h.001zM9.109.057a.75.75 0 01.44.875l-.034.105-.384.926a.75.75 0 01-1.42-.468l.035-.106.383-.926a.75.75 0 01.98-.406z" fill="#4099F1"/></svg>