<svg width="472" height="288" fill="none" xmlns="http://www.w3.org/2000/svg"><g clip-path="url(#clip0)"><rect width="472" height="288" rx="16" fill="#FFE3CA"/><path fill-rule="evenodd" clip-rule="evenodd" d="M674.734 140.615C607.66 120.7 535.087 154.467 507.977 220.59c-27.109 66.124.873 141.117 62.623 174.018a139.544 139.544 0 01-13.223-4.662c-70.497-28.903-104.216-109.483-75.313-179.98 28.903-70.497 109.482-104.215 179.979-75.313a139.66 139.66 0 0112.691 5.962z" fill="#FF9A3E"/><path fill-rule="evenodd" clip-rule="evenodd" d="M479.383 402.729c-79.548-42.384-115.596-138.993-80.673-224.175C433.633 93.372 527.123 49.873 613.53 75.527a179.898 179.898 0 00-16.348-7.68c-90.816-37.233-194.621 6.204-231.854 97.021-37.234 90.816 6.204 194.621 97.02 231.854a179.86 179.86 0 0017.035 6.007z" fill="#FF9A3E"/><path fill-rule="evenodd" clip-rule="evenodd" d="M332.437 413.481C229.322 358.54 182.593 233.309 227.863 122.89 273.134 12.471 394.322-43.916 506.328-10.661a232.994 232.994 0 00-21.191-9.955c-117.722-48.265-252.281 8.042-300.546 125.765-48.265 117.722 8.042 252.282 125.765 300.546a232.737 232.737 0 0022.081 7.786z" fill="#FF9A3E"/><path fill-rule="evenodd" clip-rule="evenodd" d="M174.279 424.29C47.475 356.727-9.989 202.726 45.681 66.94c55.67-135.784 204.698-205.126 342.435-164.232a286.49 286.49 0 00-26.058-12.241C217.291-168.885 51.819-99.643-7.533 45.124c-59.352 144.767 9.89 310.238 154.657 369.59a286.772 286.772 0 0027.155 9.576z" fill="#FF9A3E"/><path d="M386.99 121.651c34.531 35.112 43.454 101.035 12.723 146.589-39.154-12.762-67.34-23.161-92.456-27.084 12.724-9.434-2.213-146.09-2.213-146.09l81.946 26.585z" fill="#FFBD80"/><path d="M321.949 124.332c-.687 1.371-1.442 2.699-2.189 4.036l-.076-.311c-.577-2.431-1.06-4.871-1.535-7.329l.28.069c1.628.431 3.24.94 4.835 1.492-.51.631-.951 1.316-1.315 2.043z" fill="#CCE5E1"/><path d="M392.749 134.119a16.758 16.758 0 00-4.629-5.901 16.406 16.406 0 00-6.703-3.247c-10.815-2.484-20.137-6.192-31.706-8.701-14.513-3.156-28.89-1.595-43.132-5.812-.908-9.485-1.552-15.366-1.552-15.366l81.963 26.559c34.531 35.112 43.454 101.034 12.723 146.589-39.154-12.762-67.34-23.161-92.456-27.084 5.31-3.932 5.802-29.956 4.581-58.981a74.005 74.005 0 008.245 8.864c12.324 11.21 28.449 19.919 44.913 22.42 11.026 1.724 23.351.776 31.731-7.675 7.354-7.415 9.831-17.901 8.907-28.145-1.425-15.564-6.464-29.714-12.885-43.52z" fill="#fff"/><path d="M407.356 275.794a4.276 4.276 0 002.861-1.065 4.404 4.404 0 001.457-2.72 4.451 4.451 0 00-.672-3.02 4.322 4.322 0 00-2.467-1.818L323.45 242.32a4.257 4.257 0 00-3.285.387 4.385 4.385 0 00-2.054 2.635 4.46 4.46 0 00.38 3.34 4.335 4.335 0 002.593 2.088l85.059 24.877c.395.11.804.159 1.213.147z" fill="#912C0C"/><path d="M342.866 248.201l65.669 18.97a4.283 4.283 0 011.501.78c.445.358.817.801 1.093 1.305a4.435 4.435 0 01.383 3.339c0 .112-.085.207-.119.31.076-.215-43.098-12.77-70.045-20.539a5.017 5.017 0 001.238-1.902 5.079 5.079 0 00.28-2.263z" fill="#BA4D0E"/><path d="M312.83 97.248a4.38 4.38 0 012.053-2.632 4.257 4.257 0 013.283-.386l3.52 1.725 18.813-77.512a3.11 3.11 0 01.468-1.106c.226-.334.514-.62.849-.84a3.003 3.003 0 012.284-.43 3.036 3.036 0 011.914 1.339 3.124 3.124 0 01.423 2.322l-14.361 78.469 62.811 18.228a4.322 4.322 0 012.467 1.818c.577.89.816 1.964.672 3.021a4.414 4.414 0 01-1.457 2.72 4.275 4.275 0 01-2.861 1.064c-.401 0-.801-.055-1.188-.164l-65.736-19.048a3.034 3.034 0 01-.976.164 2.621 2.621 0 01-.636-.069 2.983 2.983 0 01-1.696-1.052l-7.685-2.224a4.332 4.332 0 01-2.577-2.083 4.452 4.452 0 01-.384-3.324z" fill="#912C0C"/><path d="M338.659 62.1a40.382 40.382 0 00-2.918-1.302c-.407-.164-.848-.302-1.222-.44 3.224-14.71 6.523-29.438 10.281-43.977a3.05 3.05 0 011.371 1.407c.291.61.376 1.3.24 1.965L338.659 62.1zm-11.502 32.596c2.477-7.761 3.469-16.177 5.157-24.144a29.722 29.722 0 014.411 2.198l-4.674 25.541 62.836 18.134a4.322 4.322 0 012.581 2.061 4.446 4.446 0 01.405 3.311s-64.609-18.841-74.711-22.057a7.972 7.972 0 002.516-2.097 8.129 8.129 0 001.479-2.947z" fill="#BA4D0E"/><path d="M328.378 68.379l10.756-44.314a16.87 16.87 0 016.251 1.268l-8.329 45.572a22.43 22.43 0 00-8.678-2.526z" fill="#18222D"/><path d="M336.283 53.952c2.214-9.623 4.386-19.263 6.421-28.93l.153-.49c.871.187 1.722.455 2.545.8l-8.33 45.573a25.695 25.695 0 00-4.597-1.802c1.272-5.045 2.638-10.072 3.808-15.15z" fill="#334058"/><path fill-rule="evenodd" clip-rule="evenodd" d="M345.215 25.462s24.853 2.018 41.41 7.243c12.062 3.812 20.637 7.468 20.637 7.468l-9.508 28.076-10.026-2.138s2.002 3.621 9.084 7.467c0-.224-2.731 12.883-2.731 12.883s-16.387-7.933-28.61-10.4c-12.223-2.466-28.534-4.94-28.509-4.94l8.253-45.659z" fill="#18222D"/><path fill-rule="evenodd" clip-rule="evenodd" d="M361.874 44.364c.611-4.562 1.204-9.132 1.552-13.72l.229-2.931c4.165.638 8.652 1.431 13.021 2.397.67 3.785.602 7.968 1.017 11.675.603 5.485 1.273 10.969 2.104 16.384 1.187 7.855 2.545 15.668 3.478 23.54a110.65 110.65 0 00-17.813-5.682 401.911 401.911 0 00-8.16-1.552c1.501-10.02 3.223-20.04 4.572-30.111zm35.676 15.435c-1.696-7.132-3.079-14.306-4.521-21.48-.246-1.216-.475-2.466-.712-3.742 8.974 3.052 14.945 5.596 14.945 5.596l-8.414 24.851c-.45-1.742-.89-3.484-1.298-5.225z" fill="#334058"/><path fill-rule="evenodd" clip-rule="evenodd" d="M363.706 56.574a5.369 5.369 0 01-1.767-2.543 5.453 5.453 0 01-.079-3.113 5.377 5.377 0 011.635-2.633 5.203 5.203 0 015.817-.738 5.319 5.319 0 012.221 2.143 5.434 5.434 0 01-.422 5.944 5.29 5.29 0 01-1.557 1.37 5.212 5.212 0 01-4.007.508 5.25 5.25 0 01-1.841-.938zm4.242-7.942a1.556 1.556 0 00-1.751-.137c-.272.156-.493.39-.634.674a1.619 1.619 0 00.215 1.772 1.556 1.556 0 002.441-.067 1.623 1.623 0 00-.288-2.242h.017z" fill="#97AEC6"/><path fill-rule="evenodd" clip-rule="evenodd" d="M354.554 42.501a15.983 15.983 0 014.681-4.204 15.73 15.73 0 015.913-2.047 15.65 15.65 0 016.233.428 15.798 15.798 0 015.589 2.836 16.078 16.078 0 014.082 4.806 16.35 16.35 0 011.946 6.034 16.431 16.431 0 01-.492 6.33 16.259 16.259 0 01-2.853 5.65l-.06.06a3.065 3.065 0 01-.901.794 3.016 3.016 0 01-3.386-.246 3.135 3.135 0 01-1.073-3.275 3.14 3.14 0 01.534-1.084l.043-.052a10.164 10.164 0 002.016-5.462 10.197 10.197 0 00-1.304-5.682 9.969 9.969 0 00-4.186-3.991 9.757 9.757 0 00-5.661-.96 9.823 9.823 0 00-5.233 2.396 10.085 10.085 0 00-3.046 4.945 10.223 10.223 0 00.165 5.832 10.059 10.059 0 003.321 4.759c.212.164.432.319.653.465a2.989 2.989 0 011.125 2.03 3.018 3.018 0 01-.659 2.232 2.895 2.895 0 01-3.198.911 2.919 2.919 0 01-1.009-.602l-.152-.155-.238-.173c-3.308-2.62-5.464-6.462-5.998-10.69a16.36 16.36 0 013.148-11.885z" fill="#97AEC6"/><path fill-rule="evenodd" clip-rule="evenodd" d="M366.964 62.506a1.95 1.95 0 011.45-1.051 1.947 1.947 0 011.688.577l3.232 3.061c.344.267.608.625.763 1.036a2.408 2.408 0 01-.454 2.447 2.324 2.324 0 01-1.081.682 37.1 37.1 0 01-6.404.862 2.241 2.241 0 01-1.119-.393 2.294 2.294 0 01-.77-.914 2.33 2.33 0 01.193-2.314 378.66 378.66 0 012.502-3.993z" fill="#97AEC6"/><path fill-rule="evenodd" clip-rule="evenodd" d="M370.187 48.097a5.365 5.365 0 011.766 2.542 5.456 5.456 0 01.08 3.111 5.382 5.382 0 01-1.633 2.633 5.234 5.234 0 01-2.796 1.268 5.2 5.2 0 01-3.017-.524 5.315 5.315 0 01-2.224-2.14 5.435 5.435 0 01.411-5.941 5.222 5.222 0 017.413-.949zm-4.19 3.061a1.56 1.56 0 002.382-.547 1.623 1.623 0 00-.221-1.77 1.578 1.578 0 00-.778-.495 1.554 1.554 0 00-.917.028 1.61 1.61 0 00-.466 2.784zm-1.544 15.298c1.103-1.725 1.696-2.69 2.545-3.95.142-.279.348-.52.6-.702a1.93 1.93 0 011.762-.266c.293.1.559.27.776.494l3.232 3.061c.344.266.608.624.764 1.034a2.405 2.405 0 01-.449 2.446 2.32 2.32 0 01-1.079.685 37.289 37.289 0 01-6.412.862 2.237 2.237 0 01-1.155-.374 2.287 2.287 0 01-.799-.926 2.333 2.333 0 01.215-2.364z" fill="#FDFEFF"/><path fill-rule="evenodd" clip-rule="evenodd" d="M376.888 39.681c.246.199.466.406.695.613 0 .517.085 1.026.145 1.517.602 5.484 1.272 10.969 2.103 16.384.161 1.06.331 2.121.492 3.19-.203.31-.407.63-.636.931l-.059.06a3.09 3.09 0 01-.901.795 3.027 3.027 0 01-2.321.296 3.036 3.036 0 01-1.066-.543 3.135 3.135 0 01-1.072-3.275c.106-.393.287-.761.533-1.083l.043-.052a10.172 10.172 0 002.028-6.46 10.152 10.152 0 00-2.464-6.302 9.857 9.857 0 00-5.838-3.281 9.762 9.762 0 00-6.56 1.229c.305-2.285.602-4.57.848-6.899a15.585 15.585 0 017.353-.263 15.72 15.72 0 016.677 3.143zm-17.211 19.592c.365.4.759.773 1.18 1.112.212.164.432.32.653.466.312.25.572.56.765.912a3.096 3.096 0 01-.282 3.4 2.926 2.926 0 01-1.567.967 2.89 2.89 0 01-1.826-.166c.373-2.216.721-4.458 1.077-6.691z" fill="#FDFEFF"/><path d="M146.732 273.604c.077-.259.162-.517.255-.768l-.407 1.476c.042-.233.093-.475.152-.708zm85.178-2.829c24.438 6.752 45.321 16.272 58.273 25.723-15.862 1.405-38.441-1.147-62.684-7.847-24.437-6.752-45.328-16.272-58.28-25.731 15.861-1.414 38.449 1.138 62.691 7.855z" fill="#121A26"/><path d="M231.223 273.457c23.004 6.364 42.657 15.323 54.846 24.222-14.929 1.319-36.176-1.086-58.993-7.39-23.004-6.355-42.674-15.323-54.863-24.222 14.929-1.327 36.193 1.078 59.01 7.39z" fill="#121A26"/><path d="M261.53 158.79c-42.521-11.762-79.978-10.779-84.898 2.026l6.616-24.144a83.219 83.219 0 0114.365-28.795 81.739 81.739 0 0124.116-21.008A80.425 80.425 0 01251.92 76.85a80.067 80.067 0 0131.664 2.497 80.868 80.868 0 0128.313 14.59 82.358 82.358 0 0120.666 24.495 83.662 83.662 0 019.87 30.671 84.013 84.013 0 01-2.426 32.175l-6.124 22.247c.874-13.564-30.544-33.189-72.353-44.735z" fill="#2C5777"/><path d="M326.054 189.608a6.535 6.535 0 004.08.267c-.984 2.639.848 4.717 3.147 5.321.055.76.166 1.515.331 2.259a3.931 3.931 0 001.306 2.173l-1.069 3.889c.28-4.191-2.536-8.968-7.795-13.909zm-133.688-43.977c-2.739-5.372-1.738-11.71.425-17.246a73.284 73.284 0 018.27-15.159c1.789-2.587 10.085-12.227 21.205-15.668 9.967-3.078 24.598-2.474 37.576-.284 14.42 2.423 33.734 6.536 49.078 21.505 4.767 5.743 7.184 10.348 8.889 17.85 1.748 7.709.645 16.28-1.518 24.618-1.841 7.114-7.795 14.659-17.049 9.839-.238-.121-1.357 1.293-1.519 1.466-12.138-6.485-18.999-9.037-36.15-13.797-23.751-6.57-45.931-9.157-61.734-7.933-2.909-1.112-5.827-1.957-7.473-5.191z" fill="#346F93"/><path d="M333.849 203.586l-.848 3.035a.3.3 0 000 .06l.848-3.164a.2.2 0 000 .069zm-157.616-41.251l.408-1.476-.441 1.588a.194.194 0 00.033-.112z" fill="#121A26"/><path d="M260.682 161.903c-40.265-11.133-75.966-10.831-83.829.094a8.763 8.763 0 01.068-2.224l.441-1.595c4.919-12.797 42.411-13.797 84.898-2.027 41.766 11.546 73.192 31.172 72.285 44.736l-.848 3.156a9.328 9.328 0 01-.738 1.19c-1.205-13.478-31.893-32.172-72.277-43.33z" fill="#1F4060"/><path d="M259.987 164.541c-40.265-11.132-75.967-10.839-83.83.095a8.927 8.927 0 01.068-2.233l.441-1.587c4.92-12.805 42.411-13.797 84.898-2.026 41.775 11.546 73.193 31.171 72.285 44.727l-.848 3.164c-.212.415-.459.81-.738 1.182-1.238-13.478-31.927-32.172-72.276-43.322zm40.281-18.211a10.184 10.184 0 01-1.57 4.123 9.987 9.987 0 01-3.154 3.045 9.806 9.806 0 01-4.133 1.381 9.773 9.773 0 01-4.316-.547 254.754 254.754 0 00-40.511-11.21c-15.743-2.846-26.973-3.708-34.598-3.786a8.846 8.846 0 01-4.161-1.086 9.009 9.009 0 01-3.186-2.929 9.244 9.244 0 01-.915-8.428l2.375-6.13a26.418 26.418 0 018.195-11.189 25.794 25.794 0 0112.654-5.393 97.994 97.994 0 0126.829 0 126.969 126.969 0 0133.878 10.063 23.816 23.816 0 0110.985 10.434 24.404 24.404 0 012.587 15.055l-.959 6.597z" fill="#121A26"/><path d="M289.386 119.495a127.21 127.21 0 00-33.878-10.063 111.32 111.32 0 00-28.398-.414c-9.399 1.233-14.946 8.063-18.424 17.031l-2.366 6.13a8.58 8.58 0 00-.619 4.458 9.109 9.109 0 01-2.414-4.563 9.218 9.218 0 01.437-5.163l2.375-6.131a26.417 26.417 0 018.195-11.188 25.787 25.787 0 0112.654-5.394 98.002 98.002 0 0126.83 0 126.95 126.95 0 0133.877 10.063 23.59 23.59 0 018.227 6.311 24.077 24.077 0 014.785 9.279 27.717 27.717 0 00-11.281-10.356z" fill="#153149"/><path d="M206.099 120.78a26.533 26.533 0 017.21-10.348c.331.431.772.761 1.274.956a2.913 2.913 0 001.576.148l1.442-.276c.526.233 1.043.423 1.552.595-4.131 2.587-7.159 6.743-9.415 11.719h-.076a19.733 19.733 0 00-4.012-1.596l.449-1.198z" fill="#153149"/><path d="M332.781 207.069l-.849 3.036v.069l.849-3.191v.086zm-157.582-41.25l.407-1.476v-.052l-.45 1.614s.034-.06.043-.086z" fill="#121A26"/><path d="M175.182 165.904l.449-1.613c4.945-12.796 42.411-13.796 84.898-2.017 41.75 11.537 73.168 31.154 72.277 44.709l-.848 3.191-19.009 73.657c.297-13.538-30.909-32.897-72.276-44.339-42.572-11.762-80.064-10.77-84.924 2.078l-.28 1.017 19.713-76.683z" fill="#2C5777"/><path d="M266.857 232.153a19.236 19.236 0 01-1.815-10.347 2.003 2.003 0 01.848-1.38l-.076-.422a.995.995 0 01.093-.628.976.976 0 01.45-.439.96.96 0 011.153.265c0-.069 0-.147.043-.216a.611.611 0 01.217-.315.593.593 0 01.719 0c.104.079.18.189.217.315.187.621 1.476 3.398 1.476 4.312 0 3.535 2.078 7.148 4.589 9.347 4.538 3.966 11.519 5.519 16.964 2.319a17.506 17.506 0 008.024-9.373c.501-1.448 4.326-14.59 6.786-18.427 2.112-3.294 5.242-6.26 9.254-6.631a12.407 12.407 0 014.988.492 29.307 29.307 0 014.461 12.546c-.076 3.147-.135 6.295-.042 9.433a4.828 4.828 0 00-.416 1.725c-.39 8.252-2.239 15.573-6.675 22.558-1.697 2.586-3.783 5.803-2.85 9.088a5.66 5.66 0 001.371 2.403 5.535 5.535 0 002.335 1.443l-6.073 23.541c.187-8.468-11.96-19.204-31.189-28.861-.382.057-.768.08-1.153.069-3.054-.121-4.53-1.665-4.979-3.726a6.552 6.552 0 01-2.494-3.371c-.051 0-.119-.086-.17-.138a5.72 5.72 0 01-1.255-1.802c-1.519-.587-2.621-2.587-3.147-4.674a15.543 15.543 0 01-2.46-7.338 1.947 1.947 0 01.165-.996c.142-.311.363-.577.641-.772zm-103.72-19.565c5.471.655 10.577 2.733 15.87 4.467a3.37 3.37 0 002.197.862.976.976 0 01.263.284 22.519 22.519 0 001.603 2.587 81.377 81.377 0 013.758 7.813c.381.862.746 1.724 1.102 2.638-17.388-.138-29.602 3.337-32.232 10.296l-.28 1.018 7.719-29.965z" fill="#1F4060"/><path d="M272.557 169.206c-12.723-4.527-25.862-8.269-39.272-10.063-45.965-6.122-57.255 4.812-57.577 4.976 5.216-12.624 42.504-13.547 84.821-1.846 41.75 11.538 73.168 31.155 72.277 44.71l-.365 1.32c-2.46-4.596-5.717-19.868-59.884-39.097z" fill="#346F93"/><path d="M162.959 257.772c-5.59-5.269-8.406-10.347-7.634-14.728l.407-1.474c1.111-2.932 3.936-5.243 8.109-6.899a33.756 33.756 0 017.583-2.13l1.264-.207a13.008 13.008 0 006.814-3.334 13.36 13.36 0 003.865-6.608c.195-.862.364-1.492.458-1.871a759.816 759.816 0 012.85-10.813c2.745-10.285 9.306-19.087 18.304-24.555s19.731-7.175 29.942-4.763c21.935 5.027 38.068 25.006 34.871 48.771-.051.397-.128.862-.221 1.492a22.744 22.744 0 002.155 13.951 22.233 22.233 0 009.932 9.874c1.697.862 3.393 1.725 4.86 2.587 15.735 8.976 26.592 18.807 26.414 26.843l-.848 3.001a5.635 5.635 0 01-.942 1.94c-1.959 2.587-5.488 4.518-10.263 5.872-3.495 13.047-4.436 15.754-4.759 16.185-2.544 3.338-104.729-26.627-137.173-39.665 1.077-3.251 1.755-6.605 2.697-9.899.314-1.052.865-2.294 1.315-3.57z" fill="#1F4060"/><path d="M159.515 245.976c1.502-3.984 6.506-7.131 13.368-8.476h.187a16.222 16.222 0 008.82-4.089 16.655 16.655 0 004.989-8.449c.22-.949.415-1.725.542-2.242a639.316 639.316 0 012.197-8.278c2.745-10.285 9.307-19.087 18.305-24.555s19.731-7.175 29.942-4.763c21.935 5.027 34.378 23.816 31.181 47.564a193.886 193.886 0 01-.934 6.088c0 .077 0 .155-.051.25a18.383 18.383 0 001.689 11.498 17.948 17.948 0 008.219 8.084c.797.38 1.425.69 1.815.863 17.142 8.864 27.864 18.599 27.703 26.326l-.781 2.819c-5.937 22.471-7.218 26.447-7.634 26.981-3.028 3.984-147.903-39.432-146.953-44.899l7.396-24.722z" fill="#121A26"/><path d="M143.628 278.338l.407-1.475c4.86-12.839 42.352-13.797 84.924-2.069 41.834 11.563 73.294 31.24 72.276 44.796l-.848 3.044-10.781 39.165-156.691-44.589 10.713-38.872z" fill="#2C5777"/><path d="M142.627 280.864l.407-1.483c4.861-12.839 42.352-13.797 84.924-2.069 41.834 11.563 73.303 31.24 72.285 44.839l-.848 3.044-10.781 39.165-156.691-44.589 10.704-38.907zm84.453-25.758c-14.655-.713-25.922-14.325-25.165-30.403.757-16.078 13.251-28.534 27.906-27.821 14.655.713 25.922 14.325 25.165 30.403-.757 16.078-13.251 28.534-27.906 27.821z" fill="#1F4060"/><path d="M224.445 254.384c-14.655-.713-25.922-14.325-25.165-30.403.757-16.079 13.251-28.535 27.906-27.822 14.656.713 25.922 14.325 25.166 30.404-.757 16.078-13.251 28.534-27.907 27.821z" fill="#2C5777"/><path d="M247.594 228.023c.441 0 .865-.174 1.182-.487.316-.312.501-.737.514-1.186.662-14.167-9.33-26.205-22.333-26.834a1.708 1.708 0 00-1.243.452 1.768 1.768 0 00-.465 1.888c.076.217.193.416.345.587a1.71 1.71 0 001.193.574c11.078.543 19.628 10.934 19.051 23.169a1.74 1.74 0 00.986 1.681c.207.096.431.15.66.156h.11z" fill="#346F93"/><path d="M222.436 242.882c-8.867-.431-15.684-8.667-15.226-18.394.458-9.728 8.018-17.265 16.885-16.833 8.867.431 15.684 8.667 15.226 18.395-.458 9.728-8.017 17.264-16.885 16.832z" fill="#121A26"/><path d="M222.571 240.023c-7.43-.362-13.143-7.26-12.76-15.409.384-8.148 6.719-14.461 14.149-14.099 7.431.361 13.144 7.26 12.76 15.408-.384 8.149-6.718 14.461-14.149 14.1z" fill="#43E0BB"/><path d="M219.815 234.62c.45.076.911-.032 1.283-.301a1.772 1.772 0 00.402-2.439 1.72 1.72 0 00-1.117-.71 6.788 6.788 0 01-2.773-2.002 6.953 6.953 0 01-1.468-3.119 1.767 1.767 0 00-.758-1.11 1.717 1.717 0 00-2.399.53 1.798 1.798 0 00-.236 1.33 10.527 10.527 0 002.275 4.701 10.276 10.276 0 004.231 2.99c.178.077.367.121.56.13zm10.713-8.123c.441 0 .865-.175 1.182-.487.317-.312.501-.738.514-1.186.28-5.898-3.927-10.908-9.372-11.21a9.47 9.47 0 00-6.786 2.458 1.74 1.74 0 00-.41.544 1.79 1.79 0 00-.085 1.342 1.758 1.758 0 00.873 1.009 1.708 1.708 0 001.904-.257 5.917 5.917 0 012.005-1.236 5.844 5.844 0 012.32-.35c3.546.172 6.269 3.535 6.082 7.502a1.737 1.737 0 00.986 1.68c.207.097.432.15.66.156l.127.035z" fill="#BCF8EA"/><path d="M229.19 133.589c-3.264-.955-4.82-5.577-3.476-10.322 1.344-4.746 5.079-7.819 8.343-6.864 3.264.955 4.82 5.577 3.476 10.323-1.344 4.745-5.079 7.818-8.343 6.863z" fill="#4FC997"/><path d="M275.109 142.639c-3.264-.955-4.82-5.577-3.477-10.322 1.344-4.746 5.08-7.819 8.343-6.864 3.264.955 4.821 5.577 3.477 10.323-1.344 4.745-5.08 7.818-8.343 6.863z" fill="#43E0BB"/><path d="M311.564 247.237c-6.355-1.068-9.768-12.632-7.623-25.831 2.144-13.198 9.035-23.032 15.39-21.965 6.355 1.067 9.768 12.632 7.624 25.83-2.145 13.198-9.035 23.033-15.391 21.966z" fill="#121A26"/><path d="M278.58 261.644a59.64 59.64 0 009.33-13.029 18.953 18.953 0 001.824-4.941c.254-1.389.127-2.466-.493-3.139-1.246-1.311-4.147-.94-8.041.69a57.936 57.936 0 00-13.503 8.433c-4.75 3.915-8.482 8.183-10.45 12.072-1.968 3.889-2.35 7.407-.526 9.356.497.5 1.088.892 1.738 1.153a5.1 5.1 0 002.045.365 13.777 13.777 0 005.462-1.294c3.953-1.707 8.423-5.13 12.614-9.666z" fill="#468CAF"/><path d="M275.475 258.548a53.601 53.601 0 007.329-8.993c1.611-2.587 2.281-4.562 1.569-5.347-.357-.396-1.035-.457-1.968-.25a14.489 14.489 0 00-3.393 1.345 51.716 51.716 0 00-9.458 6.606 40.79 40.79 0 00-7.795 8.623 12.135 12.135 0 00-1.594 3.518 2.564 2.564 0 00.373 2.311c.941 1.034 3.121.715 5.819-.699a40.057 40.057 0 009.118-7.114zm25.2-.707a22.62 22.62 0 01-.305 1.294c-.119.439-.254.862-.407 1.388-.153.526-.314.974-.492 1.474a55.027 55.027 0 01-2.01 4.881c-.127.284-.263.578-.407.862a38.106 38.106 0 01-1.349 2.587c-.322.595-.653 1.19-1.009 1.785l-.535.862c-2.935 4.795-6.311 8.623-9.593 10.865a12.133 12.133 0 01-4.708 2.061 4.748 4.748 0 01-3.698-.759 4.238 4.238 0 01-1.493-2.19 9.252 9.252 0 004.555-1.095c.331-.164.662-.345 1.001-.535a22.167 22.167 0 002.765-1.923 30.326 30.326 0 001.815-1.603 44.648 44.648 0 005.938-7.123 61.224 61.224 0 004.606-8.054c.356-.759.687-1.492.984-2.207a41.22 41.22 0 001.17-3.13c.119-.354.221-.707.314-1.044a11.43 11.43 0 00.551-4.147 2.065 2.065 0 011.929.432 2.16 2.16 0 01.718 1.87 11.747 11.747 0 01-.34 3.449z" fill="#121A26"/><path d="M309.743 258.6c.253.151.474.353.649.594.174.24.3.513.369.804a2.166 2.166 0 00-1.018-1.398zm-49.282 14.021a13.764 13.764 0 005.463-1.294c3.995-1.724 8.482-5.173 12.655-9.683a59.61 59.61 0 009.331-13.029 18.921 18.921 0 001.823-4.942c.255-1.379.127-2.466-.492-3.138a86.418 86.418 0 008.796 8.502l.424.353a2.696 2.696 0 01.849 1.88 13.059 13.059 0 01-.611 4.571c-.11.37-.221.758-.356 1.155a43.14 43.14 0 01-1.281 3.449 54.948 54.948 0 01-1.094 2.449 67.796 67.796 0 01-5.09 8.882 49.949 49.949 0 01-6.531 7.864c-.67.629-1.332 1.224-2.002 1.724a24.154 24.154 0 01-3.053 2.122c-.374.215-.738.413-1.103.586a10.136 10.136 0 01-5.03 1.216 4.786 4.786 0 01-2.697-1.035l-.653-.552a130.538 130.538 0 01-13.088-12.624c.489.5 1.073.894 1.715 1.159a5.102 5.102 0 002.025.385z" fill="#2C5777"/><path d="M298.3 256.979a46.462 46.462 0 01-1.289 3.449 54.318 54.318 0 01-1.094 2.449c-.263.552-.551 1.112-.848 1.724a129.869 129.869 0 00-10.866-9.907 51.028 51.028 0 003.656-6.036 18.928 18.928 0 001.823-4.941c.255-1.38.128-2.466-.491-3.139a86.304 86.304 0 008.795 8.502l.425.354a2.692 2.692 0 01.848 1.88 13.056 13.056 0 01-.611 4.57c-.11.327-.22.715-.348 1.095zm-23.198 28.197a7.372 7.372 0 01-1.96.138 4.786 4.786 0 01-2.697-1.035l-.653-.552a130.538 130.538 0 01-13.088-12.624 5.047 5.047 0 003.393 1.483c4.902 4.295 9.864 8.606 15.005 12.59zm9.33-5.648c-4.02-4.027-8.109-8.063-12.308-11.96a47.763 47.763 0 004.284-3.682c.942.862 1.883 1.673 2.808 2.587 3.053 2.906 6.056 5.863 9.101 8.769a44.84 44.84 0 01-3.885 4.286z" fill="#346F93"/><path d="M260.462 272.621a13.636 13.636 0 005.437-1.285 172.059 172.059 0 0013.63 11.995c-.093.06-.186.129-.28.181-.373.215-.737.413-1.102.586a10.136 10.136 0 01-5.03 1.216 4.783 4.783 0 01-2.697-1.035l-.654-.552a130.635 130.635 0 01-13.087-12.624c.496.5 1.088.893 1.738 1.153.65.261 1.346.385 2.045.365z" fill="#1F4060"/><path d="M314.018 264.869v1.302c0 .44-.042.94-.076 1.44-.034.5-.077 1.009-.136 1.543a66.729 66.729 0 01-.314 2.518c-.127.88-.28 1.725-.458 2.699-.059.311-.119.621-.187.94a50.115 50.115 0 01-.661 2.897 44.39 44.39 0 01-.535 1.984c-.093.336-.195.672-.296 1.009-1.638 5.38-3.953 9.976-6.676 12.934-2.723 2.958-5.708 4.208-8.117 3.216a4.7 4.7 0 01-2.019-1.854 9.011 9.011 0 004.292-2.052c.288-.233.577-.491.848-.759a20.55 20.55 0 002.29-2.526c.484-.621.959-1.285 1.408-1.992a43.04 43.04 0 004.089-8.338 65.375 65.375 0 002.595-8.942 43.49 43.49 0 00.458-2.38c.204-1.173.348-2.277.441-3.277 0-.371.06-.733.085-1.078a12.6 12.6 0 00-.271-4.156 2.049 2.049 0 011.696-.104c1.086.423 1.518 2.26 1.544 4.976z" fill="#121A26"/><path d="M311.049 264.153c0 .345-.051.707-.085 1.078-.093 1-.237 2.104-.441 3.277-.13.77-.283 1.563-.458 2.38a65.237 65.237 0 01-2.596 8.942 42.978 42.978 0 01-4.088 8.338 25.367 25.367 0 01-1.408 1.992 20.55 20.55 0 01-2.29 2.526c-.288.268-.577.526-.848.759a9.011 9.011 0 01-4.292 2.052 9.148 9.148 0 004.283-2.052c.289-.23.571-.48.848-.75a21.34 21.34 0 002.299-2.535c.475-.621.95-1.285 1.408-1.983a43.834 43.834 0 004.08-8.347 63.906 63.906 0 002.604-8.942c.17-.82.322-1.613.458-2.372.195-1.181.348-2.276.441-3.285 0-.371.059-.724.085-1.069a12.607 12.607 0 000-.009z" fill="#121A26"/><path d="M322.254 262.954c.261.069.502.197.706.375.205.178.366.401.473.652a1.823 1.823 0 00-1.179-1.027zm10.526-.043h.043c.288-.086.653.13 1.094.57v.052c-.483-.518-.848-.717-1.137-.622z" fill="#2C5777"/><path d="M327.878 298.67c-.231-.071-.44-.2-.609-.374a1.47 1.47 0 01-.358-.626 3.607 3.607 0 01.212-1.802c.488-1.766.873-3.56 1.153-5.372.611-4.311.95-8.709 1.171-13.081v-.069l-.077-.526c-.147-.931-.299-1.828-.458-2.69a62.79 62.79 0 00-.491-2.458l-.34-1.5c-.119-.483-.237-.94-.348-1.389-.11-.448-.246-.862-.356-1.258a14.924 14.924 0 00-1.187-3.01c-.416-.716-.849-1.164-1.358-1.198a24.41 24.41 0 007.702-.337l.221-.069c.297-.095.662.13 1.128.604v-.052l.212.242c.645-.052 1.569.181 3.071 1.405a20.5 20.5 0 011.357 1.233l-.085-.086-.848-.957-1.128-1.294a18.18 18.18 0 00-.933-.974 3.728 3.728 0 00-.688-.552.672.672 0 00-.254-.086.398.398 0 00-.246 0 2.46 2.46 0 00.568-.25c.162-.095.382-.147.526-.242a7.63 7.63 0 00.798-.526c.217-.141.422-.303.61-.482.111-.061.136-.182.221-.242.085-.06.178-.138.203-.241l.357.284-.357-.284a.518.518 0 01.06-.087c0-.051.135-.051.297 0l.509.13h.11a3.051 3.051 0 012.485.103c5.378.578 10.628 1.544 15.964 2.587 5.988 1.207 14.648 6.183 13.664 13.392a.2.2 0 010 .077 9.227 9.227 0 01.594 4.527 7.707 7.707 0 01-.458 1.906 8.629 8.629 0 01-.967 1.724l-.712.949a29.97 29.97 0 01-2.104 2.518c-.746.793-1.467 1.638-2.265 2.354-.797.716-1.586 1.448-2.4 2.147-.814.698-1.697 1.302-2.545 1.94a48.378 48.378 0 01-5.242 3.303c-.848.5-1.781.862-2.68 1.328-.899.465-1.815.862-2.714 1.172a6.054 6.054 0 002.069-1.328 8.076 8.076 0 001.527-2.043 11.182 11.182 0 001.12-5.622c-.141-2.3-.69-4.556-1.62-6.657a37.257 37.257 0 00-3.97-6.899l-.611-.862c-.407-.552-.848-1.095-1.23-1.63-.619-.793-1.247-1.56-1.849-2.293l-.61-.725-1.697-2.06-.984-1.139a42.243 42.243 0 012.952 4.665c2.646 4.743 7.948 16.315 4.054 21.558 0 .189-.05.379-.093.56a9.764 9.764 0 01-2.4 4.769h-.094a6.468 6.468 0 01-2.943 1.724l-.848.216a63.514 63.514 0 01-20.849 1.207c2.731.31 5.403-1.802 7.091-5.252zm-48.018-12.666a12.148 12.148 0 004.708-2.061c3.282-2.216 6.658-6.036 9.593-10.865l.535-.862c.356-.595.687-1.191 1.009-1.785.483-.863.933-1.725 1.349-2.587.144-.285.28-.578.407-.863.399-.862.772-1.724 1.102-2.509a43.33 43.33 0 00.908-2.371c.178-.5.339-1 .492-1.475.153-.474.288-.948.407-1.388.119-.44.221-.862.305-1.293.27-1.102.379-2.238.323-3.372a2.605 2.605 0 00-.848-1.975 60.339 60.339 0 009.177 5.847l.416.232a2.19 2.19 0 011.026 1.397 12.58 12.58 0 01.272 4.157c0 .345-.051.698-.085 1.069a46.756 46.756 0 01-.441 3.285 92.434 92.434 0 01-.458 2.371 63.867 63.867 0 01-2.604 8.942 43.836 43.836 0 01-4.08 8.347 33.438 33.438 0 01-1.408 1.984 21.426 21.426 0 01-2.299 2.535c-.288.264-.571.514-.848.75a9.147 9.147 0 01-4.284 2.052 4.545 4.545 0 01-2.705-.379l-.705-.379a100.238 100.238 0 01-14.945-9.486 4.744 4.744 0 003.681.682z" fill="#2C5777"/><path d="M304.662 294.135c2.723-2.958 5.038-7.554 6.676-12.935.101-.336.203-.672.297-1.008.195-.664.373-1.328.534-1.984.254-.983.475-1.948.661-2.897a62.062 62.062 0 00.645-3.639c.127-.871.229-1.724.314-2.518a37.84 37.84 0 00.136-1.543c.034-.492.059-.983.076-1.44.017-.457 0-.863 0-1.302 0-2.708-.458-4.553-1.544-4.976a45.201 45.201 0 009.407 3.001c.122.032.247.052.373.06a1.806 1.806 0 011.196 1.044c.6 1.206 1.02 2.496 1.247 3.828.068.337.136.69.212 1.052.187.992.356 2.096.509 3.277.093.776.187 1.578.263 2.406.306 3.085.408 6.188.305 9.287a40.456 40.456 0 01-1.289 9.252 27.19 27.19 0 01-.746 2.337 19.645 19.645 0 01-1.476 3.095 14.35 14.35 0 01-.636.984 9.158 9.158 0 01-3.716 3.242 5.233 5.233 0 01-2.926.396c-.271 0-.534-.086-.789-.146a84.453 84.453 0 01-17.812-5.631c2.375.992 5.369-.233 8.083-3.242zm66.526-26.171c-3.029-2.983-7.762-4.915-13.199-5.967l-1.018-.189-2.001-.337a92.192 92.192 0 00-2.901-.388l-.933-.103-2.672-.276-2.451-.233-1.485-.138-1.366-.138-1.255-.146c-1.281-.156-2.29-.293-2.969-.345-.678-.052-1.136-.138-1.179 0a4.14 4.14 0 00.272-.69c0-.147.127-.233.136-.414.022-.167.059-.331.11-.491.065-.243.108-.491.127-.742.055-.285.092-.573.11-.862 0-.242.068-.526.06-.742-.009-.216 0-.44 0-.647v-.198c0-.207.279-.44.754-.647a1.732 1.732 0 01.611-1.336c.403-.36.841-.678 1.306-.949a8.229 8.229 0 011.154-1.371c-2.612 1.871-3.944 3.13-3.927 3.294a2.757 2.757 0 00-.288-.862 4.536 4.536 0 00-.781-1.009l-.127-.112c-.11-.155-.144-.518 0-1.113.345-1.235.759-2.45 1.238-3.638l.373-.992c.348-.923.755-1.94 1.213-3.035l.95-2.216a75.434 75.434 0 014.174-8.278 39.071 39.071 0 015.547-7.451c.57-.578 1.17-1.125 1.798-1.638a17.396 17.396 0 012.876-1.923c.356-.19.712-.353 1.077-.509a8.851 8.851 0 015.208-.551 6.502 6.502 0 013.147 1.724l.729.716a45.52 45.52 0 017.829 10.537c2.124 4 3.623 8.311 4.445 12.779a8.067 8.067 0 00-2.757-4.673 10.433 10.433 0 00-5.428-2.277c-3.648-.5-10.009 1.466-14.785 3.786a12.418 12.418 0 014.241-.492c.263.016.51.129.696.319 2.221-.74 4.55-1.09 6.887-1.035 2.019.052 12.775 2.484 10.646 6.614.022.405.022.811 0 1.216.076.104.152.207.22.319a7.163 7.163 0 011.06 3.518v1.104c0 1 0 1.983-.068 2.975-.067.991-.135 1.906-.212 2.863-.076.957-.212 1.854-.347 2.759-.136.905-.238 1.725-.484 2.82-.246 1.095-.449 2.026-.695 3.035-.246 1.009-.611 2.026-.933 3.035a45.809 45.809 0 01-2.469 5.976 8.358 8.358 0 00.747-2.587 6.94 6.94 0 00-.178-2.699 10.741 10.741 0 00-2.833-4.95zm-42.437-56.799c-2.264 3.269-4.13 8.071-5.267 13.582l-.204 1.034a43.836 43.836 0 00-.347 2.027c-.162 1-.28 1.983-.382 2.949 0 .319-.059.638-.093.948-.077.94-.136 1.854-.17 2.742-.034.888 0 1.725 0 2.535 0 .535 0 1.061.059 1.561.06.5.068.983.119 1.449.051.465.11.862.17 1.319.432 2.725 1.23 4.475 2.451 4.838a98.706 98.706 0 00-11.62-2.536l-.552-.086c-1.484-.25-2.655-2.095-3.393-5.044a29.395 29.395 0 01-.263-1.069 33.022 33.022 0 01-.526-3.312 41.783 41.783 0 01-.195-2.423 55.924 55.924 0 01.297-9.312 48.139 48.139 0 011.892-9.123c.254-.802.526-1.561.848-2.294a24.1 24.1 0 011.442-3.053c.195-.336.39-.664.585-.965 1.697-2.587 3.673-4.036 5.598-3.725l.705.12a138.42 138.42 0 0116.243 3.57c-2.468-.69-5.14 1.009-7.397 4.268z" fill="#2C5777"/><path d="M350.279 219.038c-3.257 2.406-6.243 6.622-8.652 11.701-.144.319-.297.638-.441.949-.288.638-.56 1.259-.848 1.888-.39.932-.747 1.854-1.077 2.751-.111.302-.212.604-.323.862a45.09 45.09 0 00-.848 2.587c-.254.862-.517 1.647-.738 2.415a70.292 70.292 0 01-.407 1.491c-.136.475-.229.94-.339 1.38-.11.44-.195.862-.28 1.259a18.091 18.091 0 00-.5 3.165c-.085.802.05 1.31.313 1.517a30.654 30.654 0 00-7.634-3.759l-.373-.13a2.453 2.453 0 01-1.289-1.345h-.051a12.491 12.491 0 01-.899-4.087c-.034-.345-.06-.707-.076-1.087a39.63 39.63 0 010-3.345c0-.768.076-1.578.144-2.415a58.766 58.766 0 011.501-9.183 46.405 46.405 0 013.062-8.796c.365-.758.738-1.483 1.137-2.164a22.361 22.361 0 011.908-2.794c.246-.302.501-.595.747-.862a8.84 8.84 0 013.893-2.647l.051.06a4.237 4.237 0 012.773 0l.645.216a69.306 69.306 0 0117.948 9.218c-2.57-1.846-6.124-1.32-9.347 1.155z" fill="#2C5777"/><path d="M352.518 297.067a9.205 9.205 0 00.925-2.923 49.146 49.146 0 0013.665-7.313c.61-.465 1.204-.94 1.798-1.422.085-.069.186-.121.28-.19l-.348.457a29.958 29.958 0 01-2.103 2.518c-.747.793-1.468 1.638-2.265 2.354-.797.716-1.586 1.449-2.401 2.147-.814.698-1.696 1.302-2.544 1.94a48.475 48.475 0 01-5.242 3.303c-.848.5-1.782.862-2.681 1.328-.899.465-1.815.862-2.714 1.172a6.049 6.049 0 002.07-1.328 8.07 8.07 0 001.56-2.043zm-72.658-11.064a12.131 12.131 0 004.708-2.06 23.318 23.318 0 003.138-2.587c1.654 1.483 3.334 2.931 5.09 4.311a45.24 45.24 0 008.643 5.174 20.443 20.443 0 01-1.79 1.931c-.288.265-.571.515-.848.751a9.161 9.161 0 01-4.284 2.052 4.537 4.537 0 01-2.705-.38l-.704-.379a100.271 100.271 0 01-14.946-9.485 4.743 4.743 0 003.698.672zm57.441-35.147c.346-1.235.759-2.45 1.239-3.638l.373-.992c.246-.647.526-1.354.848-2.087a13.517 13.517 0 012.163 5.76v.13c-.11.491-.204.862-.288 1.233-2.062 1.535-3.113 2.587-3.096 2.69a2.759 2.759 0 00-.289-.862 4.532 4.532 0 00-.78-1.009l-.127-.112c-.111-.155-.145-.518 0-1.113h-.043zm1.298 4.303v-.198c0-.207.28-.44.755-.647a1.743 1.743 0 01.611-1.336c.403-.36.84-.678 1.306-.949.063-.092.131-.182.204-.267-.374 1.414-.645 1.725-1.832 3.449a12.33 12.33 0 01-1.103 1.181c.028-.205.045-.413.051-.62a3.725 3.725 0 01.008-.613zm-16.294-20.997v2.82c0 .535 0 1.061.059 1.561.06.5.068.983.119 1.449.051.465.11.862.17 1.319.432 2.725 1.23 4.475 2.451 4.837a98.675 98.675 0 00-11.621-2.535l-.551-.086c-1.484-.25-2.655-2.095-3.393-5.044a28.954 28.954 0 01-.263-1.07 33.003 33.003 0 01-.526-3.311 45.968 45.968 0 01-.271-5.795c.789 4.605 9.322 4.924 13.826 5.855zm3.69.906c1.253.368 2.487.799 3.698 1.293a24.286 24.286 0 017.905 5.174c-.068.233-.144.475-.212.699a70.292 70.292 0 01-.407 1.491c-.136.475-.229.94-.339 1.38-.11.44-.195.862-.28 1.259a18.202 18.202 0 00-.501 3.165c-.084.802.051 1.31.314 1.517a30.723 30.723 0 00-7.634-3.759l-.373-.13a2.47 2.47 0 01-1.323-1.388h-.051a12.491 12.491 0 01-.899-4.087 20.394 20.394 0 01-.076-1.087 39.63 39.63 0 010-3.345c.051-.664.093-1.415.178-2.182z" fill="#1F4060"/><path d="M344.045 267.007a17.661 17.661 0 005.242-5.251c2.476.414 4.962.871 7.455 1.371a21.878 21.878 0 0110.815 5.726 36.394 36.394 0 01-10.84 11.02 41.168 41.168 0 01-5.624 2.975 40.86 40.86 0 00-3.045-4.941l-.61-.863c-.408-.551-.849-1.095-1.23-1.629-.62-.794-1.247-1.561-1.85-2.294l-.61-.724-1.697-2.061-.984-1.138a42.136 42.136 0 012.952 4.664 53.12 53.12 0 014.318 10.055 49.822 49.822 0 01-8.601 2.121 68.753 68.753 0 01-10.934.414c.323-3.009.535-6.036.687-9.054v-.069l-.076-.526c-.147-.931-.3-1.828-.458-2.69a62.706 62.706 0 00-.492-2.458c-.051-.224-.093-.431-.144-.647 7.735.018 12.604-2.009 15.726-4.001zm-33.988 3.872a64.002 64.002 0 01-2.604 8.942c-.179.474-.365.922-.552 1.379a75.416 75.416 0 01-13.207-7.407l.467-.715.534-.863c.357-.595.688-1.19 1.01-1.785a47.02 47.02 0 001.348-2.586c.145-.285.28-.578.408-.863.398-.862.771-1.724 1.102-2.509a44.16 44.16 0 00.908-2.371c0-.087.051-.164.085-.25a81.01 81.01 0 0011.12 5.682c-.051.345-.102.681-.161 1.052-.136.681-.289 1.475-.458 2.294zm15.794 15.418c-.619 0-1.179-.104-1.654-.173a65.139 65.139 0 01-13.377-3.38c.178-.517.356-1.026.518-1.561.101-.336.203-.672.297-1.009a46.11 46.11 0 00.534-1.983c.254-.983.475-1.949.661-2.897a62.062 62.062 0 00.645-3.639c.127-.871.229-1.725.314-2.518v-.509a41.986 41.986 0 0011.443 2.363c.05.379.11.75.161 1.138.093.776.186 1.578.263 2.406.306 3.085.408 6.188.305 9.287.034.862-.042 1.681-.11 2.475zm21.222-56.411a34.044 34.044 0 013.723-4.64 22.844 22.844 0 011.799-1.638 17.43 17.43 0 012.875-1.923c.356-.19.713-.353 1.077-.509a8.852 8.852 0 015.208-.551 6.497 6.497 0 013.147 1.724l.73.716a45.816 45.816 0 013.291 3.682 66.766 66.766 0 011.696 4.596 62.812 62.812 0 012.155 8.907 11.067 11.067 0 00-3.037-.819c-3.647-.5-10.009 1.466-14.784 3.786a12.415 12.415 0 014.241-.492c.262.016.51.129.695.319a20.283 20.283 0 016.888-1.035 24.7 24.7 0 016.404 1.587c.278 2.762.335 5.542.17 8.313a45.101 45.101 0 01-1.044 7.269 48.387 48.387 0 01-3.231 7.088 29.463 29.463 0 00-11.121-4.312l-1.017-.189-2.002-.337a88.6 88.6 0 00-2.901-.388l-.933-.103-1.298-.138a23.653 23.653 0 001.646-3.449c4.292-9.098 2.332-19.721-4.377-27.464zm-25.65-26.283c4.932.828 9.817 1.927 14.632 3.294-2.375-.69-5.09 1.009-7.304 4.268a32.096 32.096 0 00-3.935 8.502c-3.631-.638-7.287-1.207-10.968-1.534a2.457 2.457 0 01-.998-.358 2.502 2.502 0 01-.761-.748 2.547 2.547 0 01-.386-1.002 2.545 2.545 0 01.059-1.074c1.391-5.45 4.148-10.986 9.661-11.348zm21.731 24.17a26.546 26.546 0 00-2.222-1.63 28.894 28.894 0 00-11.875-5.639c.458-1.268.95-2.483 1.484-3.604a30.04 30.04 0 011.137-2.165 22.361 22.361 0 011.908-2.794c.246-.301.501-.595.747-.862a8.84 8.84 0 013.893-2.647l.051.06a4.237 4.237 0 012.773 0l.645.216a69.306 69.306 0 0117.948 9.218c-2.595-1.889-6.149-1.363-9.33 1.077-2.638 1.923-5.055 5.019-7.159 8.77z" fill="#346F93"/><path d="M371.188 267.964a10.729 10.729 0 012.909 4.976 6.92 6.92 0 01.178 2.699 8.383 8.383 0 01-.746 2.587 7.657 7.657 0 01-2.545 2.871 9.246 9.246 0 00-1.077-5.57 12.716 12.716 0 00-.628-1.078c-6.463-13.469-30.29-13.797-31.002-14.004-.399-.414-.543-.612-.509-.75.034-.138 21.884-4.294 33.42 8.269zm-20.977-24.325c4.827-2.742 13.139-5.07 19.509-4.199a10.435 10.435 0 015.429 2.276 8.066 8.066 0 012.757 4.674 7.167 7.167 0 01-.28 3.768c-.458-.776-1.442-3.949-8.033-5.665-17.321-3.837-29.908 9.649-30.264 9.813a.728.728 0 01-.485-.027.742.742 0 01-.364-.327c-.033-.31 3.631-5.993 11.731-10.313zm-13.877 2.682c.085-.397.179-.862.28-1.259.102-.397.221-.862.34-1.38.118-.517.271-.974.407-1.491.22-.768.466-1.578.738-2.415.271-.836.551-1.724.848-2.587.11-.293.212-.595.322-.862.331-.862.687-1.819 1.077-2.751.263-.629.535-1.25.849-1.888.144-.31.297-.63.441-.949 2.409-5.078 5.394-9.295 8.652-11.701 3.257-2.406 6.785-2.966 9.33-1.078a6.542 6.542 0 012.104 2.699 8.859 8.859 0 00-5.208.552c-.365.155-.721.319-1.078.509a17.43 17.43 0 00-2.875 1.923 22.654 22.654 0 00-1.798 1.638 39.07 39.07 0 00-5.548 7.45 75.516 75.516 0 00-4.173 8.278l-.95 2.216c-.458 1.096-.848 2.113-1.213 3.036l-.373.991a34.559 34.559 0 00-1.238 3.639c-.501.25-.951.328-1.154.147-.204-.181-.399-.716-.314-1.518.082-1.081.261-2.151.534-3.199zm-13.732-5.01c-.06-.423-.119-.862-.17-1.319a34.421 34.421 0 01-.178-3.01v-2.535c0-.879.093-1.802.17-2.742 0-.31.059-.63.093-.949.102-.965.221-1.948.382-2.949.102-.672.212-1.345.347-2.026l.204-1.035c1.137-5.51 3.003-10.347 5.267-13.581 2.265-3.233 4.929-4.958 7.304-4.268a4.346 4.346 0 012.179 1.535 8.845 8.845 0 00-3.893 2.647c-.246.267-.5.56-.746.862a22.477 22.477 0 00-1.909 2.794 30.222 30.222 0 00-1.136 2.164 46.266 46.266 0 00-3.062 8.796 58.65 58.65 0 00-1.502 9.183 53.747 53.747 0 00-.144 2.415 40.055 40.055 0 000 3.345c0 .38.026.742.077 1.087.068 1.404.372 2.787.898 4.087a2.249 2.249 0 01-1.755.336c-1.188-.379-1.985-2.104-2.426-4.837zm7.515 42.502c0 5.795-.416 21.066-9.279 20.109a4.716 4.716 0 01-2.698-1.173 9.165 9.165 0 003.716-3.242c.22-.31.432-.638.636-.983a19.787 19.787 0 001.476-3.096c.271-.733.525-1.517.746-2.336a40.473 40.473 0 001.289-9.253 70.41 70.41 0 00-.305-9.287c-.077-.862-.17-1.629-.263-2.405a58.182 58.182 0 00-.509-3.277c-.076-.362-.144-.716-.212-1.052a13.815 13.815 0 00-1.247-3.829 2.029 2.029 0 011.383-.672c.492 0 .941.483 1.357 1.198 1.594 2.053 3.673 9.77 3.91 19.298zm23.521 7.657a11.173 11.173 0 01-1.12 5.623 8.073 8.073 0 01-1.526 2.043 6.049 6.049 0 01-2.07 1.328 6.841 6.841 0 01-3.393.345 9.754 9.754 0 002.401-4.768c.088-.396.153-.796.195-1.199 1.696-18.056-13.657-30.775-14.225-31.353.085-.612.221-.983.483-1.069a.398.398 0 01.246 0c.09.011.177.041.255.086.195.078 17.957 11.158 18.754 28.964z" fill="#121A26"/><path d="M311.575 104.353c-22.054-2.587-106.875 12.072-130.625 36.217" stroke="#141B22" stroke-width="7" stroke-linecap="round" stroke-linejoin="round"/><path d="M231.8 143.889c-12.779 0-23.139-10.531-23.139-23.523 0-12.992 10.36-23.523 23.139-23.523 12.78 0 23.139 10.531 23.139 23.523 0 12.992-10.359 23.523-23.139 23.523z" fill="#202B37"/><path d="M229.315 143.363c-12.779 0-23.139-10.531-23.139-23.523 0-12.992 10.36-23.523 23.139-23.523 12.78 0 23.139 10.531 23.139 23.523 0 12.992-10.359 23.523-23.139 23.523z" fill="#11161E"/><path d="M349.694 120.737c-8.135-1.018-20.281-2.104-43.123-15.685-20.086-11.952-34.591-17.005-64.465-17.143-19.678-.095-29.45-5.717-38.704-3.38-3.461.862-3.936 3.544-3.181 6.536-4.716-6.898-3.876-19.832.509-22.678 6.939-4.45 7.371 6.424 27.525-1.871 22.902-9.425 39.476-41.192 62.191-36.906 21.774 4.104 27.084 42.821 45.057 60.472 16.43 16.125 40.825 11.374 32.462 29.154-2.325 4.959-6.455 8.623-10.976 11.089 1.696-3.552 1.068-8.562-7.295-9.588z" fill="#18222D"/><path d="M337.81 132.688c-14.759-9.89-34.013-31.543-79.673-39.286-40.867-6.898-48.747 7.674-53.683 2.871a36.369 36.369 0 01-4.241-5.225c-.755-2.992-.28-5.665 3.18-6.536 9.254-2.337 19.026 3.285 38.705 3.38 29.848.138 44.353 5.174 64.464 17.142 22.843 13.581 34.989 14.659 43.123 15.685 8.364 1.044 8.992 6.036 7.321 9.589-7.329 3.967-15.743 4.717-19.196 2.38z" fill="#141B22"/><path fill-rule="evenodd" clip-rule="evenodd" d="M285.458 36.595c7.778.819 13.343 3.544 19.984 18.427 8.949 20.04 21.859 57.083-13.105 38.492-8.304-4.423-15.021-7.234-40.892-9.743-25.056-2.424-8.482-19.264 4.495-30.026 12.978-10.76 21.392-18.004 29.518-17.15z" fill="#202B37"/><path fill-rule="evenodd" clip-rule="evenodd" d="M285.026 67.783c2.689.76 1.06-4.613 2.884-4.415 1.823.199 8.312-.733 7.913-7.76-.398-7.028-4.936-8.088-10.441-8.847-5.505-.76-11.341-.983-13.419 5.027-2.078 6.01 1.06 7.562 3.164 8.425 2.104.862 1.408 1.948.713 3.087-.696 1.138.509 3.544 2.095 1.647 1.586-1.898 2.917-2.122 2.239-.173-.679 1.949 1.332 3.811 2.146 1.035.814-2.777 1.849-1.923 1.917-.19.068 1.733-.314 1.854.789 2.164z" fill="#C8D9E8"/><path fill-rule="evenodd" clip-rule="evenodd" d="M287.062 53.866a1.858 1.858 0 011.435.194 1.937 1.937 0 01.928 1.918 1.926 1.926 0 01-.725 1.274 1.89 1.89 0 01-.663.33c-2.468 1.07-4.148-2.854-.975-3.716zm-6.871-1.621c2.324.509 1.764 4.018-.916 3.613-2.68-.405-2.324-4.329.916-3.613z" fill="#18222D"/><path fill-rule="evenodd" clip-rule="evenodd" d="M270.445 73.544c1.696.379 17.49-2.742 20.128-3.553 2.638-.81 3.902-3.992 5.564-2.07 1.663 1.923-2.544 2.872-.364 3.682 1.849.673.593 2.527-.704 2.01-2.401-.949-1.739-1.104-10.06.44-8.321 1.543-12.401 2.078-13.886 3.155-1.484 1.078-4.631 1.458-3.35-.517 1.408-2.182-1.383-1.225-1.145-2.777.237-1.552 2.137-.758 3.817-.37z" fill="#C8D9E8"/><path fill-rule="evenodd" clip-rule="evenodd" d="M285.866 76.674c-1.697-.345-14.471-9.65-16.464-11.46-1.994-1.811-1.697-5.174-4.046-4.122-2.35 1.052.984 3.604-1.383 3.45-1.985-.165-1.696 1.991-.305 2.069 2.604.155 2.078-.259 8.847 4.544 6.768 4.803 10.178 6.967 11.027 8.528.848 1.56 3.486 3.2 3.257.931-.255-2.518 1.815-.517 2.324-1.992.509-1.474-1.569-1.595-3.257-1.948z" fill="#C8D9E8"/><path d="M215.311 93.04s16.6-.078 22.902 4.398c6.302 4.475 9.016 11.365 6.726 14.719-2.29 3.354-9.958-.75-17.6-1.138a122.814 122.814 0 00-13.266 0l1.238-17.98z" fill="#1F4060"/><path d="M234.438 107.992c-6.684-2.19-13.682-3.527-20.111-.353l.984-14.6s16.599-.077 22.902 4.399c4.444 3.138 7.082 7.467 7.473 10.925-1.646 3.164-8.567.517-11.248-.371z" fill="#2C5777"/><path d="M221.978 82.986s19.975 2.052 29.9 9.882c9.678 7.631 8.21 13.667 4.885 15.59-3.325 1.923-8.109.793-15.022-3.544-6.913-4.338-20.959-2.346-20.959-2.346l1.196-19.582z" fill="#2C5777"/><path d="M243.82 92.825a72.69 72.69 0 003.995.163 4.67 4.67 0 012.714.863 18.069 18.069 0 013.851 3.587c.543.69 1.815 2.328 1.645 3.285a1.278 1.278 0 01-.296.689 1.247 1.247 0 01-.628.398c-3.503-.104-6.286-2.242-9.042-4.234a98.06 98.06 0 01-3.062-2.88 1.113 1.113 0 01.207-1.707 1.08 1.08 0 01.616-.165z" fill="#346F93"/><path d="M237.551 98.895c4.691 1.259 8.338 3.699 12.579 5.889 2.782 1.44 7.922 2.639 9.076.095a4.87 4.87 0 01-.8 2.087 4.775 4.775 0 01-1.643 1.492c-3.325 1.931-8.109.793-15.022-3.544-6.913-4.338-20.959-2.346-20.959-2.346l.271-4.389a42.052 42.052 0 0116.498.716z" fill="#1F4060"/><path d="M221.927 76.294s10.755-3.768 20.476-1.026c9.721 2.742 14.623 7.174 13.868 12.219-.755 5.044-8.397 4.45-14.792 3.449-7.219-1.19-13.92 1.975-13.92 1.975l-5.632-16.617z" fill="#2C5777"/><path d="M241.657 80.21c-2.418-.578-5.387-.277-7.567-1.656-2.4-1.535-2.4-3.001-1.416-4.217 3.271-.217 6.556.1 9.729.94 7.634 2.164 12.299 5.372 13.571 9.097-1.993 2.018-3.681-1.638-14.317-4.165z" fill="#346F93"/><path d="M230.638 86.09c5.335-1.035 10.272-1.889 15.624-.181 3.351 1.069 6.693 2.457 10.026 1.31v.268c-.763 5.044-8.397 4.45-14.793 3.449-7.218-1.19-13.919 1.975-13.919 1.975l-2.596-7.64a7.444 7.444 0 005.658.819z" fill="#1F4060"/><path d="M209.255 98.119s1.255 13.797 5.708 18.289c4.453 4.493 3.842 7.838 2.154 9.149-1.976 1.535-11.332 1.871-19-5.915-7.667-7.787-5.852-13.4-5.852-13.4l16.99-8.123z" fill="#2C5777"/><path d="M192.265 106.242l16.964-8.123s.848 13.383 6.251 18.867c-4.783-1.363-10.475-1.932-12.884.526-1.442 1.457-2.044 3.354-1.196 4.932a24.334 24.334 0 01-3.308-2.802c-7.634-7.795-5.827-13.4-5.827-13.4z" fill="#1F4060"/><path d="M217.66 113.916l-27.363-1.949a4.599 4.599 0 01-2.568-1.01 4.732 4.732 0 01-1.555-2.31l-3.672-12.072 10.662-22.074a2.65 2.65 0 01.95-1.078 2.591 2.591 0 011.365-.414l30.706-.448c.465-.008.922.13 1.307.395.386.266.682.645.847 1.088l6.048 15.926a4.521 4.521 0 01-.568 4.26l-13.292 18.22a3.486 3.486 0 01-1.257 1.089 3.417 3.417 0 01-1.61.377z" fill="#346F93"/><path d="M200.773 87.297a118.83 118.83 0 01-3.885-12.27 1.645 1.645 0 01.282-1.386 1.598 1.598 0 011.244-.632l27.771-.405a2.24 2.24 0 011.308.395c.385.266.681.645.847 1.088l4.809 12.658c.11.288.147.598.11.904a1.882 1.882 0 01-.325.849c-.176.251-.41.454-.682.59a1.808 1.808 0 01-.876.192c-6.786-.258-20.917-.094-27.643.078a3.025 3.025 0 01-1.808-.544 3.1 3.1 0 01-1.152-1.517z" fill="#468CAF"/><path d="M200.849 94.868c.391-.7.955-1.282 1.637-1.69a4.473 4.473 0 012.248-.638l28.355-.276c.204.009.401.074.571.189a1.151 1.151 0 01.278 1.63l-13.504 18.514c-.31.424-.717.767-1.185.998a3.202 3.202 0 01-1.504.33l-26.625-1.889a.84.84 0 01-.693-.478.879.879 0 01.048-.85l10.374-15.84z" fill="#2C5777"/><path d="M194.597 75.5l4.242 14.418a3.813 3.813 0 01-.314 2.958l-9.085 16.573a1.827 1.827 0 01-.749.737 1.783 1.783 0 01-1.985-.223 1.84 1.84 0 01-.574-.884l-3.673-12.46 10.272-21.265a.99.99 0 01.986-.616.975.975 0 01.562.236 1 1 0 01.318.527z" fill="#1F4060"/><path d="M186.578 103.761c-2.994-.876-4.085-6.305-2.436-12.127 1.648-5.821 5.412-9.83 8.405-8.954 2.994.876 4.084 6.306 2.436 12.127-1.648 5.821-5.412 9.83-8.405 8.954zm-30.099 88.46c0-.44.059-.862.11-1.371.051-.509.136-.966.229-1.475.093-.508.212-1.017.348-1.543a31.42 31.42 0 01.729-2.441 41.13 41.13 0 01.976-2.586l.381-.863c.39-.862.848-1.724 1.281-2.664.314-.595.636-1.199.976-1.802.169-.302.347-.604.525-.863a55.766 55.766 0 018.788-11.477c2.341-2.25 4.173-3.526 5.59-3.397a6.974 6.974 0 00-.255 1.492 5.768 5.768 0 00-.526 1.215 10.58 10.58 0 00-.288 1.001 3.923 3.923 0 00-.407.293c-.263.233-.526.491-.789.75a35.248 35.248 0 00-2.231 2.423 54.503 54.503 0 00-1.501 1.88 60.558 60.558 0 00-5.039 7.761 49.357 49.357 0 00-3.715 8.51 32.384 32.384 0 00-.67 2.346 24.943 24.943 0 00-.585 3.337c-.043.388-.068.759-.085 1.121a9.675 9.675 0 00.704 4.492 3.562 3.562 0 01-2.341-.293c-1.569-.845-2.333-3.009-2.205-5.846zm-17.092-11.926c.085-.44.195-.862.322-1.345s.289-.923.467-1.405c.178-.483.381-.975.602-1.475.339-.75.721-1.518 1.154-2.285.432-.768.916-1.552 1.433-2.337l.534-.785a48.009 48.009 0 011.773-2.371c.413-.529.846-1.055 1.298-1.578l.687-.785a63.304 63.304 0 0110.713-9.605 19.098 19.098 0 014.088-2.251c1.12-.397 1.985-.414 2.545 0a2.124 2.124 0 01.713 1.569c-1.317.372-2.558.98-3.665 1.794-.288.19-.585.397-.848.621a27.777 27.777 0 00-2.545 2.035c-.576.5-1.17 1.026-1.781 1.595a65.902 65.902 0 00-6.285 6.769 46.748 46.748 0 00-5.089 7.761c-.391.75-.738 1.491-1.035 2.216a21.796 21.796 0 00-1.103 3.207c-.093.38-.178.742-.246 1.104a9.583 9.583 0 00.102 4.648 3.944 3.944 0 01-2.367-.759c-1.577-1.121-2.027-3.527-1.467-6.338zm-15.158-17.194c.204-.414.424-.862.679-1.25.254-.388.526-.862.848-1.242.322-.379.636-.862.993-1.241a23.246 23.246 0 011.764-1.828 28.258 28.258 0 012.078-1.785l.755-.578a39.922 39.922 0 012.426-1.673c.559-.362 1.145-.716 1.696-1.061l.899-.517a83.184 83.184 0 0113.105-5.786 27.578 27.578 0 014.352-1.181c1.085-.164 1.925-.078 2.247.388a1.882 1.882 0 01.085 1.483 13.515 13.515 0 00-3.766 1.009l-.984.388c-.916.379-1.917.862-2.986 1.328a77.96 77.96 0 00-2.145 1.06 75.865 75.865 0 00-7.897 4.665 42.563 42.563 0 00-7.1 5.941 30.408 30.408 0 00-1.569 1.837 19.9 19.9 0 00-1.858 2.846c-.184.336-.351.681-.5 1.034a9.35 9.35 0 00-.908 4.786 4.484 4.484 0 01-2.282-1.612 5.16 5.16 0 01-.967-3.113 9.719 9.719 0 011.035-3.898zm-8.355-24.316c.375-.309.766-.596 1.171-.863.415-.267.848-.517 1.314-.758.467-.242.942-.458 1.442-.664a21.1 21.1 0 012.392-.811 24.108 24.108 0 012.638-.595l.925-.155c.933-.138 1.9-.242 2.892-.311a77.263 77.263 0 012.028-.103h1.034c4.779.022 9.551.367 14.284 1.035 1.85.241 3.3.483 4.352.724 1.102.25 1.696.509 1.781.914a.727.727 0 01-.144.466c-.118.213-.27.405-.45.569a12.727 12.727 0 00-1.603-.216 41.174 41.174 0 00-2.163-.121h-6.633c-3.064.035-6.125.23-9.169.587a37.882 37.882 0 00-8.915 2.087 22.3 22.3 0 00-2.205.974 17.686 17.686 0 00-2.884 1.837c-.314.25-.619.508-.899.767a11.718 11.718 0 00-1.764 2.095 7.138 7.138 0 00-.942 2.216 6.052 6.052 0 01-.984-1.276 5.123 5.123 0 01-.517-1.5c-.45-2.475.585-4.975 3.019-6.898zm3.588-24.947c.943-.174 1.9-.258 2.859-.25.509 0 1.035 0 1.569.061.834.065 1.664.177 2.485.336.849.155 1.697.354 2.63.604l.899.258c.916.276 1.841.595 2.782.949.619.241 1.256.491 1.883.759l.95.414a74.524 74.524 0 016.964 3.612 75.583 75.583 0 015.513 3.553 25.154 25.154 0 013.521 2.889c.322.338.606.711.848 1.112a1.087 1.087 0 01.212.862c-.085.354-.458.613-1.069.863a16.012 16.012 0 00-3.121-2.294l-.908-.552c-.848-.5-1.832-1.034-2.858-1.595a79.92 79.92 0 00-2.087-1.095 70.966 70.966 0 00-8.406-3.648 42.203 42.203 0 00-8.923-2.216 27.23 27.23 0 00-2.426-.189 18.012 18.012 0 00-3.393.232c-.379.069-.752.147-1.119.233a9.17 9.17 0 00-4.318 2.32 5.437 5.437 0 01-.085-2.966 5.1 5.1 0 01.696-1.535c.156-.237.332-.459.526-.664.213-.2.439-.385.678-.552a9.15 9.15 0 013.698-1.501zm12.8-20.996c.462.087.917.202 1.366.345.466.155.941.336 1.416.534s.959.44 1.442.699c.751.404 1.478.85 2.18 1.336.721.5 1.45 1.052 2.171 1.647l.721.621a42.07 42.07 0 012.13 2.018c.466.483.941.974 1.399 1.491l.696.777a97.792 97.792 0 018.482 11.641 37.785 37.785 0 012.264 3.949c.45.983.628 1.724.348 2.078-.28.353-.661.302-1.247.293a18.873 18.873 0 00-2.069-3.277l-.637-.862c-.602-.785-1.297-1.655-2.035-2.587l-1.527-1.819a82.385 82.385 0 00-6.336-6.7 39.904 39.904 0 00-7.363-5.588 24.456 24.456 0 00-2.171-1.104 17.79 17.79 0 00-3.206-1.086 14.346 14.346 0 00-1.129-.216 8.855 8.855 0 00-4.928.526 5.053 5.053 0 011.077-2.82c1.426-1.845 4.064-2.457 6.956-1.896zm21.01-13.65c.367.294.718.608 1.052.94a18.018 18.018 0 011.993 2.362c.498.695.957 1.417 1.374 2.165.441.767.849 1.586 1.256 2.448l.381.863c.382.862.738 1.81 1.078 2.759.229.638.441 1.293.644 1.957l.306 1a84.015 84.015 0 012.697 14.263c.171 1.52.239 3.049.204 4.579-.043 1.164-.28 1.836-.704 2.061-.297.163-.721 0-1.264-.294a17.294 17.294 0 00-.399-3.889c-.059-.327-.119-.681-.187-1.034a76.066 76.066 0 00-.661-3.208c-.17-.742-.365-1.526-.568-2.337a81.581 81.581 0 00-2.774-8.881 41.719 41.719 0 00-4.165-8.296 27.547 27.547 0 00-1.442-1.966 19.756 19.756 0 00-2.392-2.457c-.305-.259-.611-.5-.916-.716a8.927 8.927 0 00-4.597-1.724 5.393 5.393 0 012.188-2.044 5.097 5.097 0 013.393-.336 8.274 8.274 0 013.503 1.785zm22.8-4.062c.237.402.452.816.645 1.242.195.44.39.862.568 1.38.178.517.339.991.492 1.517.229.785.424 1.613.594 2.484.17.87.314 1.724.424 2.707l.102.957c.085.957.144 1.949.178 2.966v3.105a66.289 66.289 0 01-1.934 14.409c-.967 3.699-2.027 6.036-3.283 6.113a1.656 1.656 0 01-.764-.184 1.7 1.7 0 01-.601-.514 14.127 14.127 0 001.315-3.794 48.783 48.783 0 00.78-4.312c.102-.758.195-1.569.288-2.397a71.94 71.94 0 00.34-9.295 46.255 46.255 0 00-1.162-9.253 24.4 24.4 0 00-.671-2.345 21.244 21.244 0 00-1.314-3.139 21.397 21.397 0 00-.569-1 8.854 8.854 0 00-3.35-3.355 4.494 4.494 0 012.477-1.086 4.568 4.568 0 012.943.862 9.437 9.437 0 012.502 2.932z" fill="#121A26"/><path d="M160.406 192.73c.119-1.125.315-2.24.585-3.337.187-.759.407-1.544.67-2.346.969-2.95 2.213-5.8 3.715-8.511a60.547 60.547 0 015.039-7.76 54.503 54.503 0 011.501-1.88c.763-.862 1.51-1.725 2.231-2.423.263-.259.526-.517.789-.75.263-.233.559-.492.848-.707-.509 2.474-9.763 36.561-9.763 36.561-.848-.388-1.926-.776-2.74-1.173l-.619-.302a3.585 3.585 0 01-1.62-1.724 9.681 9.681 0 01-.704-4.493c0-.397.025-.767.068-1.155z" fill="#2C5777"/><path d="M143.068 182.744c.068-.362.153-.724.246-1.104a22.903 22.903 0 011.103-3.207c.305-.725.653-1.466 1.035-2.208a46.49 46.49 0 015.089-7.76 64.829 64.829 0 016.294-6.769 54.753 54.753 0 011.772-1.596 51.522 51.522 0 012.545-2.035c.297-.224.594-.431.848-.621a11.418 11.418 0 013.656-1.793 2.255 2.255 0 011.697.215l.39.276a91.963 91.963 0 008.609 5.278c-.027.084-.05.171-.068.258-1.408 0-3.316 1.216-5.589 3.398a55.74 55.74 0 00-8.788 11.477c-.178.302-.356.603-.526.862a79.032 79.032 0 00-.975 1.802c-.467.863-.848 1.794-1.281 2.665l-.382.862a35.836 35.836 0 00-.975 2.587 35.055 35.055 0 00-.73 2.44 24.359 24.359 0 00-.348 1.544c-.093.5-.169.991-.229 1.474-.059.483-.093.931-.11 1.371-.102 2.837.637 5.002 2.206 5.829a135.241 135.241 0 01-13.487-8.209l-.594-.414a3.818 3.818 0 01-1.433-2.043 9.634 9.634 0 01.025-4.579z" fill="#2C5777"/><path d="M146.3 150.615a71.49 71.49 0 015.131-2.388l.985-.388a13.496 13.496 0 013.766-1.009 1.74 1.74 0 011.484.422l.229.276a53.581 53.581 0 007.15 6.554c-.602-.44-1.467-.423-2.544 0a19.121 19.121 0 00-4.089 2.25 63.31 63.31 0 00-10.713 9.606l-.687.785a78.038 78.038 0 00-1.297 1.578 47.385 47.385 0 00-1.773 2.371l-.535.785c-.517.784-1 1.561-1.433 2.337-.433.776-.848 1.534-1.154 2.285a22.406 22.406 0 00-1.068 2.88c-.136.457-.238.862-.323 1.345-.551 2.811-.102 5.174 1.417 6.329a92.745 92.745 0 01-12.724-11.744l-.5-.569a4.8 4.8 0 01-1.086-2.587 9.35 9.35 0 01.908-4.786c.15-.353.317-.699.5-1.035a19.834 19.834 0 011.858-2.845 29.804 29.804 0 011.569-1.837 42.563 42.563 0 017.1-5.941 75.684 75.684 0 017.829-4.674z" fill="#2C5777"/><path d="M141.134 137.853h6.633c.848 0 1.553.069 2.163.121a12.52 12.52 0 011.603.215c.628.138 1.001.328 1.069.621l.051.216a23.358 23.358 0 003.478 6.251c-.323-.465-1.162-.551-2.248-.388a27.57 27.57 0 00-4.351 1.182 83.103 83.103 0 00-13.105 5.786l-.899.517c-.594.345-1.18.699-1.697 1.061-.848.543-1.696 1.095-2.426 1.673l-.755.577a28.966 28.966 0 00-2.078 1.785 23.6 23.6 0 00-1.764 1.828c-.356.414-.687.863-.993 1.242-.305.379-.585.862-.848 1.242-.263.379-.475.862-.678 1.25a9.702 9.702 0 00-1.01 3.898 5.16 5.16 0 00.967 3.113 64.385 64.385 0 01-9.491-17.634l-.229-.759a6.06 6.06 0 01-.051-3.234l-.06-.069a7.162 7.162 0 01.942-2.216 11.76 11.76 0 011.764-2.095c.28-.259.586-.518.899-.768a17.79 17.79 0 012.884-1.836c.718-.364 1.454-.69 2.206-.975a37.884 37.884 0 018.914-2.086 86.939 86.939 0 019.11-.518z" fill="#2C5777"/><path d="M111.837 129.713c0-.44 0-.862.085-1.319l.169-1.268.382-2.586.144-.863a5.02 5.02 0 01.45-1.457c.252-.449.563-.861.924-1.225a9.182 9.182 0 014.318-2.319c.362-.086.735-.164 1.119-.233a18.108 18.108 0 013.393-.233c.781 0 1.595.087 2.426.19a42.227 42.227 0 018.924 2.216 70.787 70.787 0 018.405 3.648c.73.37 1.425.732 2.087 1.095 1.026.56 2.002 1.095 2.858 1.595l.908.552a15.984 15.984 0 013.122 2.293c.182.187.334.403.449.639a.875.875 0 01.153.526v.293c-.043.267-.085.543-.136.81l-.076.406v.379c0 .504-.026 1.008-.077 1.509.066.474.103.952.111 1.431 0 .483.195.932.237 1.415-.059-.406-.678-.664-1.781-.914-1.103-.251-2.545-.483-4.352-.725a105.847 105.847 0 00-14.283-1.035h-1.035c-.687 0-1.358.061-2.028.104-.992.069-1.959.172-2.892.31l-.925.156a23.81 23.81 0 00-2.637.595c-.813.222-1.612.492-2.392.81-.501.207-.984.431-1.442.664-.458.233-.9.491-1.315.759-.405.266-.796.554-1.171.862-2.434 1.923-3.469 4.424-3.019 6.898-.314-1.724-.687-3.518-.849-5.294a125.211 125.211 0 01-.356-5.346c-.085-1.785.009-3.579.102-5.338z" fill="#2C5777"/><path d="M149.379 111.769l1.527 1.819a73.777 73.777 0 012.035 2.587l.637.862a18.578 18.578 0 012.069 3.269c.255.594.314 1.034.111 1.327l-.179.25c-.288.535-.576 1.087-.899 1.613-.322.526-.534 1.19-.848 1.776-.314.587-.441 1.268-.687 1.897l-.373.94-.212.863a1.09 1.09 0 00-.212-.863 6.422 6.422 0 00-.848-1.112 25.154 25.154 0 00-3.521-2.889 73.58 73.58 0 00-5.513-3.552 74.294 74.294 0 00-6.964-3.613l-.95-.414a63.381 63.381 0 00-1.883-.759 43.807 43.807 0 00-2.782-.949l-.899-.258a29.184 29.184 0 00-2.63-.604 22.106 22.106 0 00-2.485-.336c-.534 0-1.06-.061-1.569-.061a15.068 15.068 0 00-2.859.25 9.15 9.15 0 00-3.656 1.458 6.166 6.166 0 00-.678.552c-.194.205-.37.427-.526.664-.315.468-.55.987-.696 1.534l.654-2.388.805-2.242c.552-1.492 1.078-2.984 1.697-4.45.619-1.465 1.332-2.914 2.036-4.311.704-1.397 1.577-2.871 2.408-4.311l.493-.75a5.443 5.443 0 012.264-1.94 8.73 8.73 0 014.911-.518c.374.052.747.12 1.137.207 1.1.263 2.173.63 3.206 1.095.713.319 1.442.69 2.172 1.104a40.187 40.187 0 017.362 5.579 82.493 82.493 0 016.345 6.674z" fill="#2C5777"/><path d="M160.474 103.836c.203.81.398 1.595.568 2.337.263 1.155.483 2.233.662 3.207.067.354.127.708.186 1.035.28 1.277.413 2.582.399 3.889 0 .63-.136 1.078-.433 1.242l-.237.138a17.804 17.804 0 00-4.7 4.311c.28-.371.102-1.095-.347-2.078a37.896 37.896 0 00-2.265-3.949 97.873 97.873 0 00-8.482-11.641l-.696-.776c-.458-.518-.933-1.009-1.399-1.492a42.135 42.135 0 00-2.129-2.018l-.721-.62a32.826 32.826 0 00-2.172-1.648 22.672 22.672 0 00-2.18-1.336 18.23 18.23 0 00-1.442-.699 17.9 17.9 0 00-1.416-.534 11.688 11.688 0 00-1.366-.345c-2.892-.586-5.53.052-6.93 1.931a58.224 58.224 0 0115.167-13.796l.72-.431a5.209 5.209 0 012.952-.742 8.93 8.93 0 014.598 1.725c.305.215.61.457.916.715.866.748 1.666 1.57 2.392 2.458.492.612.975 1.268 1.442 1.966a41.717 41.717 0 014.164 8.295 81.546 81.546 0 012.749 8.856z" fill="#2C5777"/><path d="M174.885 100.809a94.638 94.638 0 01-.289 2.397 48.147 48.147 0 01-.78 4.312 14.046 14.046 0 01-1.315 3.794h-.042c-.365.595-.73.992-1.171 1.043h-.322a27.414 27.414 0 00-7.413 2.234c.424-.225.661-.863.704-2.061a34.001 34.001 0 00-.204-4.579 84.01 84.01 0 00-2.697-14.262l-.306-1a43.171 43.171 0 00-.644-1.958 47.88 47.88 0 00-1.078-2.76l-.381-.861a35.545 35.545 0 00-1.256-2.45 22.703 22.703 0 00-1.374-2.164 18.036 18.036 0 00-1.993-2.363 13.232 13.232 0 00-1.052-.94 8.276 8.276 0 00-3.528-1.81 5.097 5.097 0 00-3.393.336 66.902 66.902 0 0118.304-5.656l.67-.095a4.325 4.325 0 012.749.508l.059-.051a8.855 8.855 0 013.35 3.354c.196.319.382.655.569 1a21.26 21.26 0 011.314 3.139c.246.742.475 1.518.671 2.345a46.255 46.255 0 011.162 9.253 71.933 71.933 0 01-.314 9.295z" fill="#2C5777"/><path d="M178.897 85.383l-.102-.957c-.11-.94-.254-1.846-.424-2.708a26.679 26.679 0 00-1.086-4.001c-.169-.483-.373-.94-.568-1.38-.192-.425-.408-.84-.645-1.241a9.43 9.43 0 00-2.493-2.906 4.57 4.57 0 00-2.944-.863 87.48 87.48 0 0117.295.354l.756.095c2.069.258 6.302 3.785 4.894 20.807-1.052 12.701-8.287 19.997-9.874 19.686l-.432-.052a48.015 48.015 0 00-9.407-.215c1.255-.087 2.316-2.415 3.283-6.114a66.348 66.348 0 001.934-14.409v-3.104c-.043-1.009-.102-2-.187-2.992z" fill="#2C5777"/><path d="M153.23 165.404a16.158 16.158 0 008.558 5.096 9.07 9.07 0 004.547-.302 62.812 62.812 0 00-4.301 6.381c-.178.302-.356.603-.526.862a79.032 79.032 0 00-.975 1.802c-.467.863-.848 1.794-1.281 2.665l-.382.862a43.615 43.615 0 00-.916 2.389 8.02 8.02 0 00-.907-2.104c-2.401-3.984-6.353-6.778-9.772-10.02a53.112 53.112 0 013.3-4.605 112.956 112.956 0 012.655-3.026zm3.316 26.041c0 .276-.059.551-.068.81-.102 2.837.637 5.001 2.206 5.829a135.068 135.068 0 01-6.718-3.82 8.573 8.573 0 004.58-2.819zm-18.143-36.165a71.612 71.612 0 017.066-4.216 32.927 32.927 0 001.085 3.544 34.655 34.655 0 004.318 7.967 66.738 66.738 0 00-3.223 3.355l-.688.784a78.038 78.038 0 00-1.297 1.578c-.45.561-.849 1.13-1.281 1.725-.187-.242-.373-.474-.551-.724a44.108 44.108 0 01-6.472-13.237c.331-.284.687-.534 1.043-.776zm-2.85-17.177c1.959-.146 3.842-.215 5.581-.25h3.436a43.325 43.325 0 00.271 10.063 77.62 77.62 0 00-8.482 4.027 50.633 50.633 0 01-.806-13.84zm9.848-6.277a55.575 55.575 0 00-.569 3.587c-2.544-.31-5.572-.647-8.906-.802a61.745 61.745 0 012.545-10.934c.127-.379.271-.767.407-1.147a72.551 72.551 0 013.622 1.725c.729.371 1.425.733 2.086 1.095.662.362 1.502.862 2.189 1.216a38.219 38.219 0 00-1.374 5.26zm1.102-23.282a91.122 91.122 0 012.876 3.225l1.527 1.819c.67.863 1.289 1.604 1.849 2.329a34.98 34.98 0 00-4.928 8.071 82.244 82.244 0 00-5.344-3.449 68.79 68.79 0 00-2.299-1.285 46.1 46.1 0 016.319-10.71zm7.863 5.527l-.076-.121c-1.416-2.224-3.274-5.035-5.539-7.984a37.445 37.445 0 019.551-7.235l.611-.302a94.013 94.013 0 012.129 7.744c.17.741.297 1.362.424 2a37.709 37.709 0 00-7.1 5.898zm20.315-11.503a44.476 44.476 0 00-10.772 4.156 84.31 84.31 0 00-1.697-9.821 84.72 84.72 0 0112.783-3.94l.272-.061c.026 2.64-.093 5.28-.357 7.907a48.93 48.93 0 00-.229 1.759zm3.223-.103a68.134 68.134 0 001.111-9.382c4.844 0 9.713.25 14.514-.069a34.33 34.33 0 01-2.367 9.77c-4.411-.63-8.805-.423-13.258-.319z" fill="#1F4060"/><path d="M161.212 158.091c.297-.224.593-.431.848-.621a11.408 11.408 0 013.656-1.793 2.248 2.248 0 011.696.215l.39.276a91.887 91.887 0 008.61 5.277 2.146 2.146 0 00-.068.259c-1.408 0-3.317 1.216-5.59 3.398-.399.388-.848.81-1.23 1.25a52.227 52.227 0 01-9.551-7.373c.458-.302.857-.612 1.239-.888zm-4.657 36.027c.22 1.888.933 3.302 2.129 3.932a135.43 135.43 0 01-13.487-8.209l-.594-.414a3.825 3.825 0 01-1.433-2.044 8.888 8.888 0 01-.221-3.777 65.2 65.2 0 0013.606 10.512zm-29.179-27.18c.15-.353.317-.698.501-1.034a19.838 19.838 0 011.857-2.846l.111-.129a55.999 55.999 0 009.661 16.849c0 .172-.093.353-.127.517-.552 2.811-.102 5.174 1.416 6.33a92.808 92.808 0 01-12.723-11.745l-.501-.569a4.795 4.795 0 01-1.085-2.587 9.355 9.355 0 01.89-4.786zm25.04-19.099a13.496 13.496 0 013.766-1.009 1.74 1.74 0 011.484.422l.229.276a53.581 53.581 0 007.15 6.554c-.602-.44-1.467-.423-2.544 0a19.121 19.121 0 00-4.089 2.25l-.492.362a33.026 33.026 0 01-5.666-8.761l.162-.094zm-2.138-9.787c.422.033.841.094 1.255.181.628.138 1.001.327 1.069.621l.051.215a23.379 23.379 0 003.478 6.252c-.323-.466-1.162-.552-2.248-.388-.86.146-1.71.348-2.545.603a22.152 22.152 0 01-1.06-7.484zm-32.096 5.156a18.057 18.057 0 012.697-1.724c.717-.365 1.454-.69 2.205-.975a31.703 31.703 0 013.732-1.147c-.059.863-.118 1.725-.144 2.535a56.247 56.247 0 001.637 15.841 22.396 22.396 0 00-1.543 1.612c-.467.543-.688.862-.993 1.242-.305.379-.585.862-.848 1.242-.263.379-.475.862-.679 1.25a9.717 9.717 0 00-1.009 3.897v.397a75.03 75.03 0 01-5.055-24.17zm33.928-11.96c-.042.267-.084.543-.135.811l-.077.405v.379c0 .504-.025 1.008-.076 1.509.066.475.103.953.11 1.432 0 .483.195.931.238 1.414-.051-.397-.662-.655-1.697-.862a23.857 23.857 0 011.544-5.872.874.874 0 01.153.525l-.06.259zm-30.875-12.632h1.544c.78 0 1.594.086 2.426.181 1.977.259 3.931.677 5.844 1.25a51.94 51.94 0 00-1.281 4.199 8.371 8.371 0 00-.212 1.165 61.27 61.27 0 00-2.265 9.761l-1.535.189-.924.156c-.917.163-1.799.362-2.639.595-.811.226-1.609.496-2.392.81-.5.207-.983.431-1.441.664l-.238.138a74.886 74.886 0 013.113-19.108zm4.496-11.236a62.8 62.8 0 015.801-9.356c.672.211 1.332.459 1.977.742.712.319 1.442.69 2.171 1.103a34.514 34.514 0 014.827 3.389 53.963 53.963 0 00-7.931 12.857 44.472 44.472 0 00-2.672-.914l-.899-.259a29.172 29.172 0 00-2.63-.603 27.552 27.552 0 00-2.485-.337h-1.06a66.584 66.584 0 012.901-6.622zm27.626-14.995a46.157 46.157 0 00-10.001 7.76 66.767 66.767 0 00-1.798-1.724l-.721-.621a32.815 32.815 0 00-2.171-1.647 22.777 22.777 0 00-2.18-1.328 18.535 18.535 0 00-1.442-.699l-.212-.086a44.868 44.868 0 0115.208-11.08 18.803 18.803 0 012.053 2.138c.492.604.975 1.26 1.442 1.958a34.36 34.36 0 012.299 4.044c-.832.388-1.654.819-2.477 1.285zm6.387-2.984c-.144-.345-.28-.698-.432-1.043l-.382-.862c-.399-.863-.848-1.673-1.255-2.45a22.913 22.913 0 00-1.375-2.164c-.313-.44-.636-.862-.975-1.259-.144-.172-.297-.319-.441-.483a125.101 125.101 0 0117.193-3.94c.511 1 .944 2.037 1.298 3.104.246.742.475 1.518.67 2.345.272 1.104.475 2.277.653 3.501a54.961 54.961 0 00-14.954 3.251zm11.545 22.92h-.323c-.975.164-1.891.372-2.782.596a22.666 22.666 0 014.037-1.338 1.466 1.466 0 01-.932.742zm7.608-26.438v-.086l-.102-.957a36.49 36.49 0 00-.424-2.708 26.037 26.037 0 00-1.086-4.001c-.169-.492-.373-.94-.568-1.38l-.136-.25a46.689 46.689 0 0116.057.38 31.77 31.77 0 011.213 9.571c-4.97-.481-9.963-.671-14.954-.57z" fill="#346F93"/><path d="M160.406 192.729c.119-1.124.315-2.239.585-3.337.187-.758.407-1.543.67-2.345a49.29 49.29 0 013.715-8.511 60.547 60.547 0 015.039-7.76 54.503 54.503 0 011.501-1.88c.764-.863 1.51-1.725 2.231-2.423.263-.259.526-.518.789-.75a4.81 4.81 0 01.424-.371c-.518 2.474-9.331 36.216-9.331 36.216-.848-.388-1.925-.776-2.739-1.173l-.62-.302a3.586 3.586 0 01-1.62-1.724 9.692 9.692 0 01-.704-4.493 8.644 8.644 0 01.06-1.147zm-33.581-99.258a4.832 4.832 0 00-1.493 1.302 58.22 58.22 0 0115.166-13.796l.721-.431a5.219 5.219 0 012.112-.716 70.89 70.89 0 00-16.506 13.641zm24.904-17.979a68.923 68.923 0 00-3.758 1.777 4.379 4.379 0 00-1.595.448 61.964 61.964 0 016.218-2.587l-.865.362z" fill="#1F4060"/><path d="M79.52 212.45a8.267 8.267 0 012.284-2.279 8.079 8.079 0 019.115.089s43.2 32.388 65.373 51.246c-12.359-25.869-33.615-79.227-33.615-79.227a8.464 8.464 0 01.283-6.378 8.35 8.35 0 011.897-2.622 8.184 8.184 0 012.74-1.684 8.091 8.091 0 013.165-.491 8.097 8.097 0 013.108.779 8.204 8.204 0 012.579 1.928 8.367 8.367 0 011.657 2.785s17.813 53.35 25.625 80.892c8.388-28.197 26.871-78.986 26.871-78.986a8.354 8.354 0 011.774-2.71 8.208 8.208 0 012.659-1.814 8.09 8.09 0 016.28-.012 8.196 8.196 0 012.666 1.803 8.373 8.373 0 011.784 2.703 8.466 8.466 0 01.012 6.385s-21.206 49.219-33.759 75.493c25.489-14.546 69.554-37.621 69.554-37.621a8.078 8.078 0 016.266-.394 8.249 8.249 0 014.705 4.226 8.467 8.467 0 01.387 6.371 8.295 8.295 0 01-4.157 4.783s-45.804 20.695-73.371 31.301l72.429 16.962a8.134 8.134 0 012.955 1.285 8.278 8.278 0 012.242 2.34 8.42 8.42 0 011.185 3.036 8.491 8.491 0 01-.053 3.267 8.396 8.396 0 01-1.283 2.994 8.255 8.255 0 01-2.317 2.264 8.08 8.08 0 01-6.206 1.111s-49.714-16.53-77.519-25.541l-.093.078c-.263.172-1.281-.19-2.909-.984-.314.406-.552.621-.705.621a8.207 8.207 0 01-3.129-.629c-.255-.112-.357-.561-.348-1.311-2.63.707-4.241.863-4.487.38a8.338 8.338 0 01-.747-2.536c-3.537-1.431-5.564-2.586-5.42-3.225.113-.52.274-1.028.484-1.517-24.904-15.142-67.858-43.572-67.858-43.572a8.35 8.35 0 01-3.41-5.352 8.45 8.45 0 011.307-6.237z" fill="#912C0C"/><path d="M230.273 228.696c-.15 3.07.749 6.098 2.545 8.571.22 2.587 1.111 4.854 2.96 6.269-10.026 4.432-24.462 10.752-38.373 16.581a42.217 42.217 0 00-4.411-11.408c13.538-7.407 27.745-15.012 37.279-20.013zm-46.058-32.353a11.867 11.867 0 004.012 7.062 9.27 9.27 0 004.094 2.064 9.18 9.18 0 004.567-.159 2886.198 2886.198 0 01-14.649 32.966 25.39 25.39 0 00-10.9-4.631c4.368-13.098 9.161-26.826 12.876-37.302zm-50.316 7.933c4.767 1.276 9.169-1.337 11.027-5.855.068-.173.127-.345.186-.518a2666.78 2666.78 0 0111.307 35.354h-.051a25.318 25.318 0 00-10.95 4.001c-5.022-11.649-10.179-24.049-14.293-34.112.878.486 1.809.866 2.774 1.13zm-24.929 26.377a13.043 13.043 0 000-6.709c8.032 6.149 17.761 13.668 27.024 21.006-2.468 3.087-3.893 7.166-4.826 11.21-10.433-6.623-21.426-13.745-30.4-19.6 3.706.008 7.074-1.535 8.202-5.907zm40.528 36.958c-4.114-2.501-8.712-5.364-13.572-8.399a58.612 58.612 0 014.877-8.709c.246-.371.492-.724.747-1.078 5.369 4.312 10.424 8.451 14.699 12.072-2.502-5.173-5.36-11.563-8.329-18.358a19.397 19.397 0 015.03-2.207c1.8-.495 3.635-.847 5.488-1.052 1.976 6.424 3.783 12.46 5.25 17.599 1.536-5.174 3.393-11.046 5.429-17.246a21.044 21.044 0 0110.136 4.674 906.1 906.1 0 01-7.227 15.521c4.632-2.639 9.874-5.562 15.353-8.623 2.502 2.759 3.512 6.967 3.927 10.874-5.623 2.319-11.027 4.501-15.878 6.372 4.996.862 10.297 2.725 15.878 3.725a26.92 26.92 0 01-3.393 10.874c-7.693-2.242-14.767-4.855-21.01-6.899l-.093.078c-.263.172-1.281-.19-2.91-.983-.314.405-.551.621-.704.621a8.217 8.217 0 01-3.13-.63c-.254-.112-.356-.56-.347-1.311-2.63.708-4.241.863-4.487.38a8.34 8.34 0 01-.747-2.535c-3.537-1.432-5.564-2.587-5.42-3.225.095-.525.24-1.039.433-1.535zm77.798 16.254c-4.156 4.941-2.714 9.434.518 12.934-9.059-2.785-20.934-6.984-32.453-10.718a37.571 37.571 0 003.003-11.632c11.289 2.466 22.901 5.372 31.952 7.441-1.018.578-2.206 1.001-3.02 1.975z" fill="#6F1D03"/><path d="M149.498 267.611c-2.799-1.725-5.836-3.579-9-5.553a19.45 19.45 0 016.404-8.347 856.486 856.486 0 019.39 7.76c-1.51-3.147-3.147-6.7-4.86-10.511a25.68 25.68 0 019.72-2.311c.933 3.139 1.807 6.096 2.545 8.804.78-2.587 1.696-5.458 2.587-8.425a18.872 18.872 0 018.864 4.51 622.927 622.927 0 01-3.198 6.769 1303.01 1303.01 0 016.234-3.518 23.877 23.877 0 014.377 9.347c-2.502 1-4.919 1.958-7.21 2.837l7.711 1.311a17.207 17.207 0 01-2.468 9.399 4.086 4.086 0 00-.493 1.138 597.232 597.232 0 01-13.316-4.13l-.094.077c-.263.173-1.281-.189-2.909-.983-.314.406-.552.621-.704.621a8.208 8.208 0 01-3.13-.629c-.255-.112-.356-.561-.348-1.311-2.629.707-4.241.862-4.487.379a8.351 8.351 0 01-.747-2.535c-3.537-1.431-5.564-2.587-5.42-3.225a8.3 8.3 0 01.552-1.474z" fill="#6F1D03"/><path d="M163.137 209.354c15.313.046 29.986 6.25 40.814 17.258 10.828 11.007 16.93 25.923 16.975 41.49-.051 15.563-6.157 30.472-16.984 41.474-10.827 11.002-25.496 17.203-40.805 17.248-15.313-.045-29.986-6.249-40.814-17.257-10.827-11.007-16.93-25.924-16.975-41.491.052-15.562 6.157-30.472 16.984-41.474 10.828-11.002 25.497-17.202 40.805-17.248zm-40.663 58.748c.031 10.954 4.325 21.45 11.944 29.196 7.619 7.745 17.944 12.111 28.719 12.143 10.774-.032 21.098-4.398 28.716-12.144 7.618-7.746 11.91-18.242 11.939-29.195-.038-10.947-4.334-21.434-11.951-29.172-7.617-7.739-17.936-12.1-28.704-12.131-10.774.029-21.099 4.393-28.718 12.137-7.62 7.744-11.914 18.239-11.945 29.192v-.026z" fill="#B34512"/><path d="M208.474 290.772a2.964 2.964 0 01-1.584-1.631 3.01 3.01 0 01.032-2.292 48.417 48.417 0 003.758-18.747c-.047-12.792-5.067-25.046-13.965-34.092-8.897-9.045-20.952-14.148-33.535-14.196a47.136 47.136 0 00-25.826 7.78c-7.694 5.062-13.791 12.27-17.561 20.762a2.921 2.921 0 01-1.691 1.6 2.838 2.838 0 01-2.304-.169h-.059a2.934 2.934 0 01-1.39-1.644 2.997 2.997 0 01.092-2.167c4.224-9.543 11.064-17.646 19.7-23.341a52.941 52.941 0 0128.996-8.771c14.156.044 27.719 5.782 37.724 15.962 10.006 10.18 15.64 23.972 15.671 38.363a54.668 54.668 0 01-4.241 21.143 2.932 2.932 0 01-1.575 1.559 2.865 2.865 0 01-2.199-.007l-.043-.112z" fill="#DD6D14"/><path d="M163.137 243.743h.009c13.233 0 23.962 10.906 23.962 24.359v.009c0 13.453-10.729 24.36-23.962 24.36h-.009c-13.234 0-23.962-10.907-23.962-24.36v-.009c0-13.453 10.728-24.359 23.962-24.359z" fill="#B34512"/><path d="M177.285 268.102a14.538 14.538 0 00-4.153-10.151 14.065 14.065 0 00-9.986-4.223 14.027 14.027 0 00-8.044 2.58 14.386 14.386 0 00-5.18 6.767 2.466 2.466 0 01-.568.888 2.383 2.383 0 01-2.91.363h-.051a2.445 2.445 0 01-1.044-1.274 2.483 2.483 0 01-.007-1.658 19.34 19.34 0 016.977-9.111 18.85 18.85 0 0110.835-3.461c5.034.013 9.857 2.051 13.417 5.669 3.56 3.617 5.567 8.52 5.583 13.637a19.426 19.426 0 01-2.833 10.106 2.4 2.4 0 01-1.257.995 2.362 2.362 0 01-1.593-.029h-.042a2.397 2.397 0 01-.893-.576 2.443 2.443 0 01-.681-1.978 2.45 2.45 0 01.344-1.016 14.386 14.386 0 002.086-7.528z" fill="#DD6D14"/><path d="M198.16 186.236c-2.225 0-4.029-1.833-4.029-4.095 0-2.263 1.804-4.096 4.029-4.096 2.225 0 4.029 1.833 4.029 4.096 0 2.262-1.804 4.095-4.029 4.095zm46.626 48.289c-2.225 0-4.029-1.834-4.029-4.096s1.804-4.096 4.029-4.096c2.226 0 4.029 1.834 4.029 4.096s-1.803 4.096-4.029 4.096zm-113.992-50.919c-2.225 0-4.029-1.833-4.029-4.096 0-2.262 1.804-4.095 4.029-4.095 2.226 0 4.029 1.833 4.029 4.095 0 2.263-1.803 4.096-4.029 4.096zM85.89 221.357c-2.226 0-4.03-1.833-4.03-4.095 0-2.262 1.804-4.096 4.03-4.096 2.225 0 4.029 1.834 4.029 4.096s-1.804 4.095-4.03 4.095z" fill="#B34512"/><path fill-rule="evenodd" clip-rule="evenodd" d="M257.874 211.122c-2.29 1.509-6.031 1.871-12.545 2.846-7.015 1.052-11.765 11.891-5.089 22.419 6.675 10.529 16.048 10.667 22.554 9.296 6.658-1.397 7.897-2.406 10.781 1.086a19.43 19.43 0 012.544 4.225c.713 1.449-.848 3.519-2.213 4.665-2.028 1.725-4.242 2.501-5.59 1.173-.602-.612-1.366-1.949-1.977-2.587-2.044-2.078-5.581 1.768-17.447-.095a26.661 26.661 0 01-14.286-7.296 27.406 27.406 0 01-7.666-14.261c-1.434-8.088.305-20.186 10.696-23.584 7.634-2.509 12.129 0 17.812-.862 5.141-.776 4.47 1.63 2.426 2.975z" fill="#6B7C99"/><path fill-rule="evenodd" clip-rule="evenodd" d="M241.224 210.174c.848 1.138-3.605 1.078-7.117 6.544-2.994 4.674-2.366 13.711 0 19.083 2.121 4.803-1.815 5.07-3.503-.276-2.12-6.691-2.714-14.547 1.646-20.617 2.833-3.933 8.211-5.795 8.974-4.734zm23.75 37.371c3.393-.862 5.021-1.655 6.786.656.755.965 1.696 2.138 1.806 3.078.06.278.031.569-.082.829a1.329 1.329 0 01-.547.621 1.302 1.302 0 01-1.55-.165c-1.62-1.647-.849-3.148-4.767-2.346-8.364 1.725-14.047.863-13.869-.862.178-1.725 5.285-.026 12.223-1.811z" fill="#98ACCA"/><path d="M28.067 184.632c10.255 10.132 27.78 28.87 48.79 45.504 45.803 36.293 164.316 80.684 233.42 99.422a2.89 2.89 0 002.816-.759c5.437-5.45 27.856-27.921 35.676-35.871a4.711 4.711 0 012.28-1.29 4.654 4.654 0 012.606.134c19.509 6.769 63.082 15.599 63.523 15.694a4.74 4.74 0 012.881 1.861 4.885 4.885 0 01-.623 6.446 4.706 4.706 0 01-3.183 1.256h-.279c0 .103 0 .207-.06.31l-4.343 18.22c0 .121-.076.224-.11.337-10.569 48.555-32.453 71.302-32.453 71.302a128.161 128.161 0 00-37.033 1.725c-19.424 3.949-30.654 33.353-64.77 13.167-34.115-20.186-56.126-7.467-92.829 1.725-36.702 9.192-57-22.42-75.567-25.869-30.655-35.992-49.51-114.84-52.106-131.456-3.597-23.058-.797-33.63-.797-33.63s-24.777-30.18-32.59-42.088c-4.563-6.976-2.035-12.848 4.751-6.14zm374.657 147.012l3.945-16.521a1034.066 1034.066 0 01-23.886-5.372l-4.691 14.297a4049.4 4049.4 0 0024.632 7.596zm-33.708-10.442l4.496-13.719c-7.295-1.845-14.369-3.777-20.094-5.631a1195.477 1195.477 0 01-10.824 10.813c7.041 2.38 16.625 5.459 26.422 8.537z" fill="#B34512"/><path opacity=".5" d="M28.067 184.632c5.369 5.304 12.723 12.935 21.544 21.454 0 1.673.068 3.355.136 5.028a14.028 14.028 0 00-8.143-1.182 14.28 14.28 0 00-3.393.862c-5.937-7.536-11.773-15.262-14.912-20.065-4.546-6.933-2.018-12.805 4.768-6.097z" fill="#DD6D14"/><path d="M65.024 258.427l.458-.12a30.069 30.069 0 009.593 8.157c3.85 2.173 7.948 3.82 11.875 5.864 5.827 3.052 11.561 6.329 17.338 9.485 46.287 25.282 93.711 46.96 143.679 63.628 24.912 8.313 50.113 15.806 75.441 22.713 12.952 3.527 25.93 6.95 38.865 10.546 10.179 2.828 20.306 6.338 30.756 7.916-.938 1.724-1.86 3.34-2.765 4.846 0 0-23.224-4.631-34.684-7.649-51.291-13.512-130.353-39.881-174.961-58.058-37.966-15.469-76.425-31.956-112.567-51.453-1.17-5.993-1.9-9.864-3.028-15.875zm-36.957-73.794c10.255 10.132 27.78 28.869 48.79 45.503 45.803 36.294 164.316 80.684 233.42 99.422a2.89 2.89 0 002.816-.759c5.437-5.45 27.856-27.921 35.676-35.871a4.711 4.711 0 012.28-1.29 4.663 4.663 0 012.606.134c19.509 6.769 63.082 15.599 63.523 15.694a4.74 4.74 0 012.881 1.861 4.885 4.885 0 01-.623 6.446 4.706 4.706 0 01-3.183 1.256h-.279c0 .103 0 .207-.06.31l-2.731 11.451-.848-.12a65.658 65.658 0 01-8.55-1.57l2.858-11.96a1029.992 1029.992 0 01-23.886-5.372l-3.46 10.546a314.115 314.115 0 01-9.136-2.673l3.325-10.141c-7.294-1.845-14.368-3.776-20.094-5.63-4.572 4.622-8.38 8.407-10.823 10.813l.594.198c-11.765 3.656-20.095 17.306-29.399 26.076h-1.027c-3.52 0-6.879-1.337-10.221-2.527-3.961-1.414-7.973-2.535-12.019-3.656-7.812-2.164-15.709-4.027-23.496-6.26-27.949-8.037-54.489-20.462-81.123-32.06-15.031-6.545-30.103-13.012-45.363-18.97a8.883 8.883 0 00-3.104-1.389c-.416-.086-.849-.198-1.23-.293a596.336 596.336 0 00-16.116-5.924 973.875 973.875 0 00-10.349-5.113c-18.66-9.727-36.677-20.756-54.964-31.215-4.928-6.036-24.65-30.275-31.469-40.709-4.53-7.045-2.002-12.917 4.784-6.208z" fill="#DD6D14"/><path opacity=".5" d="M54.964 240.914c5.09 2.475 10.39 3.605 15.87 1.259 4.47-1.923 6.183-1.224 7.498-5.562 1.468 1.104-.068 2.329 1.519 3.45.17.362-.178 1.241 0 1.595 5.208 19.738 14.7 37.941 27.312 61.085 15.268 28.05 50.537 57.946 76.959 68.931 35.947 14.944 55.388 13.659 79.079 17.246 36.1 5.407 75.33 2.587 101.634-17.444 15.887-12.072 27.49-23.843 34.004-40.968l3.894 1.19 2.163-9.054a265.715 265.715 0 008.423-12.132 12.64 12.64 0 001.594-3.449l2.274.474a4.743 4.743 0 012.881 1.861 4.89 4.89 0 01-.623 6.446 4.71 4.71 0 01-3.183 1.256h-.28c0 .103 0 .207-.059.31l-4.343 18.22c0 .121-.077.225-.11.337-10.569 48.555-32.453 71.303-32.453 71.303a128.16 128.16 0 00-37.033 1.724c-19.425 3.949-30.655 33.354-64.77 13.167-34.116-20.186-56.127-7.467-92.829 1.725-36.702 9.192-57-22.42-75.568-25.869-30.654-35.992-49.51-114.84-52.106-131.456a129.368 129.368 0 01-1.747-25.645z" fill="#912C0C"/><path d="M21.018 184.227a466.984 466.984 0 0048.62 51.41 4.116 4.116 0 00-.254 1.664c.39 8.899.568 24.558.568 24.558 47.822 27.326 145.512 78.892 324.418 122.248a401.088 401.088 0 01-2.986 5.389C199.195 342.415 72.013 271.422 69.731 270.224c0 0 5.192 30.775 5.404 31.904 0 0 117.003 70.225 288.088 105.709-5.581 0-10.068-.811-17.363.396-30.655-1.052-188.007-51.384-267.765-98.206-3.902-2.294 10.255 35.242 14.835 38.631 43.912 32.491 157.573 65.396 166.429 65.396-24.904-7.545-45.066 2.294-74.983 9.804-36.702 9.218-57-22.419-75.567-25.869-30.655-35.992-49.51-114.84-52.106-131.456-3.597-23.058-.797-33.629-.797-33.629s-24.777-30.18-32.59-42.089c-1.636-2.543-2.357-4.898-2.298-6.588zm98.589 213.737c2.926 3.345 4.588 1.474 6.472 5.484 1.942 6.234 1.619-5.726 4.944 0a256.848 256.848 0 013.241 6.251c1.806 3.613 6.031 2.096 7.091-.862 3.266 3.837 7.303 7.088 12.358 7.761a3.338 3.338 0 001.561-.25 3.391 3.391 0 001.281-.94 30.042 30.042 0 0010.382 2.914c5.225 2.734 10.874 4.82 16.574 4.915 3.656.069 8.304-1.466 11.027-4.121a3.785 3.785 0 001.798-1.177c.475-.56.781-1.247.882-1.979a15.51 15.51 0 001.018-.639c2.265-1.578 3.334-3.509 3.486-5.475 1.756.345 3.538.655 5.327.862 5.09.699 7.066-4.139 2.146-5.7-31.91-10.123-77.739-25.635-112.278-46.046-2.613-1.569 10.814 25.395 22.69 39.002z" fill="#912C0C"/><path d="M54.565 221.357c11.027 13.202 43.743 36.07 137.496 74.494a1037.543 1037.543 0 00118.751 39.924c.83.219 1.702.217 2.531-.007a4.972 4.972 0 002.201-1.269l5.768-5.717c7.55-7.976 25.676-27.171 28.212-29.758a5.91 5.91 0 012.84-1.615 5.846 5.846 0 013.25.149 227.526 227.526 0 0027.092 7.528c12.724 2.587 25.235 6.786 38.17 7.881a4.84 4.84 0 01-1.607 2.903 4.695 4.695 0 01-3.075 1.15h-.28c0 .104 0 .207-.059.31-.06.104-4.606 19.186-4.674 19.514-18.992-3.803-53.438-15.737-68.375-21.109a4.427 4.427 0 00-2.54-.143 4.481 4.481 0 00-2.21 1.281l-10.178 10.805a1.805 1.805 0 00-.452 1.659 1.8 1.8 0 00.404.787c.197.224.447.394.726.494 18.703 6.821 51.792 17.16 77.824 24.265-.746 2.234-.848 2.699-1.586 4.777-19.95-4.311-61.827-18.608-82.345-25.868l-3.868 3.837a9.301 9.301 0 01-6.514 2.682 8.898 8.898 0 01-2.324-.302 1042.798 1042.798 0 01-119.319-40.105c-94.432-38.7-123.62-60.171-124.807-61.068l-11.052-17.479zm348.151 110.287l3.944-16.521a1035.246 1035.246 0 01-23.886-5.372l-4.69 14.297a4135.893 4135.893 0 0024.64 7.596h-.008zm-33.708-10.442l4.495-13.719c-7.294-1.845-14.369-3.777-20.094-5.631a1198.03 1198.03 0 01-10.823 10.813c7.048 2.38 16.633 5.459 26.43 8.537h-.008z" fill="#912C0C"/><path d="M73.404 248.675c3.885-.759 11.12-10.71 11.12-10.71.696-1.811-5.734-5.76-6.43-3.949l-4.792 5.07c-3.138 3.32-7.549 2.225-11.951-.319-6.082-3.509-5.446-5.907-5.446-5.907-1.518-1.172-1.696 5.485-.848 7.192.848 1.707 5.988 6.657 10.577 8.114 3.419 1.095 3.885 1.276 7.77.509z" fill="#DD6D14"/><path d="M123.211 406.957a3.356 3.356 0 002.087-.716c1.518-1.172-.925-1.905-2.078-3.449-.467-.629-46.728-67.707-49.816-152.884-.068-1.932.713-1.087-1.204-1-1.917.086-6.659-2.673-6.549-.742 2.426 44.468 18.797 89.239 30.171 114.021 12.342 26.869 24.141 42.726 24.641 43.39.322.43.738.779 1.215 1.018.477.24 1.002.363 1.533.362z" fill="#DD6D14"/><path opacity=".6" d="M328.539 146.95c-.941-7.984 1.765-7.76 2.358-7.933 1.332-.327 2.503.949 2.715 1.423 1.832 3.294 2.917 8.778 2.917 15.366 0 3.104-.339 10.718-4.241 10.874-6.573.258-2.655-10.227-3.749-19.73z" fill="#346F93"/><path d="M208.313 121.134c0-.611.2-1.205.569-1.687a2.694 2.694 0 011.467-.978 4.86 4.86 0 013.571.561 3.397 3.397 0 011.364 1.186c.342.513.542 1.11.578 1.728 0 1.621-1.213 2.139-2.646 2.233a5.644 5.644 0 01-2.647-.405 3.093 3.093 0 01-1.52-.973 3.172 3.172 0 01-.736-1.665z" fill="#346F93"/><path opacity=".6" d="M280.946 199.706c1.052-4.45 4.165-12.642 9.916-12.512 5.751.129 6.183 8.036 6.158 12.253-.043 5.355-2.112 13.745-6.642 17.073a5.367 5.367 0 01-1.891 1.056 5.289 5.289 0 01-2.146.22 3.896 3.896 0 01-1.614-.244 3.965 3.965 0 01-1.381-.885c-4.427-3.967-3.605-11.822-2.4-16.961z" fill="#346F93"/></g><defs><clipPath id="clip0"><rect width="472" height="288" rx="16" fill="#fff"/></clipPath></defs></svg>