<svg width="472" height="262" fill="none" xmlns="http://www.w3.org/2000/svg"><g clip-path="url(#clip0)"><rect width="472" height="262" rx="16" fill="#F2EDFF"/><path d="M262 120a8 8 0 018-8h146a8 8 0 018 8v10a8 8 0 01-8 8H262v-18z" fill="#fff"/><path d="M272.188 129h1.261l-3.648-4.892 3.529-3.835h-1.262l-3.494 3.784h-.46v-3.784h-1.057V129h1.057v-4.006h1.074l3 4.006zm4.669.136c1.773 0 2.966-1.346 2.966-3.375 0-2.045-1.193-3.392-2.966-3.392-1.773 0-2.966 1.347-2.966 3.392 0 2.029 1.193 3.375 2.966 3.375zm0-.903c-1.347 0-1.96-1.159-1.96-2.472 0-1.312.613-2.488 1.96-2.488 1.346 0 1.96 1.176 1.96 2.488 0 1.313-.614 2.472-1.96 2.472zm8.081-.597l-2.25-5.181h-1.33V129h1.006v-5.101l2.164 5.101h.819l2.164-5.007V129h1.006v-6.545h-1.295l-2.284 5.181zm5.833 3.819c.908 0 1.547-.482 1.926-1.5l2.787-7.483-1.099-.017-1.807 5.215h-.068l-1.807-5.215h-1.091l2.421 6.579-.188.511c-.366.998-.818 1.091-1.551.904l-.256.886c.103.051.392.12.733.12zM304.127 129h.955v-6.545h-2.693c-1.411 0-2.267.737-2.267 1.943 0 .899.452 1.538 1.24 1.807L299.764 129h1.091l1.517-2.659h1.755V129zm0-3.597h-1.857c-.712 0-1.143-.379-1.143-1.005 0-.635.478-1.023 1.262-1.023h1.738v2.028zm8.921 3.733c1.329 0 2.301-.664 2.608-1.653l-.972-.273c-.256.682-.848 1.023-1.636 1.023-1.181 0-1.995-.763-2.042-2.165h4.752v-.426c0-2.437-1.449-3.273-2.813-3.273-1.772 0-2.949 1.398-2.949 3.409 0 2.012 1.16 3.358 3.052 3.358zm-2.042-3.937c.069-1.019.789-1.926 1.939-1.926 1.091 0 1.79.818 1.79 1.926h-3.729zm15.213 2.863h-.971v-5.607h-1.006v5.607h-2.471v-5.607h-1.006v5.607h-2.472v-5.607h-1.005V129h7.772v1.875h1.04l.119-2.813zm4.137 1.074c1.33 0 2.301-.664 2.608-1.653l-.971-.273c-.256.682-.848 1.023-1.637 1.023-1.18 0-1.994-.763-2.041-2.165h4.751v-.426c0-2.437-1.448-3.273-2.812-3.273-1.773 0-2.949 1.398-2.949 3.409 0 2.012 1.159 3.358 3.051 3.358zm-2.041-3.937c.068-1.019.788-1.926 1.939-1.926 1.091 0 1.79.818 1.79 1.926h-3.729zm10.662-2.744h-1.006V129h1.006v-2.795h3.136V129h1.006v-6.545h-1.006v2.812h-3.136v-2.812zm8.723 6.681c1.329 0 2.301-.664 2.608-1.653l-.972-.273c-.255.682-.848 1.023-1.636 1.023-1.18 0-1.994-.763-2.041-2.165h4.751v-.426c0-2.437-1.449-3.273-2.812-3.273-1.773 0-2.949 1.398-2.949 3.409 0 2.012 1.159 3.358 3.051 3.358zm-2.041-3.937c.068-1.019.788-1.926 1.939-1.926 1.091 0 1.789.818 1.789 1.926h-3.728zm12.315 3.937c1.773 0 2.966-1.346 2.966-3.375 0-2.045-1.193-3.392-2.966-3.392-1.773 0-2.966 1.347-2.966 3.392 0 2.029 1.193 3.375 2.966 3.375zm0-.903c-1.347 0-1.96-1.159-1.96-2.472 0-1.312.613-2.488 1.96-2.488s1.96 1.176 1.96 2.488c0 1.313-.613 2.472-1.96 2.472zm3.646-4.841h2.164V129h1.006v-5.608h2.148v-.937h-5.318v.937zm6.785 5.608h1.006v-5.608h3.136V129h1.006v-6.545h-5.148V129zm6.984 2.455h1.006v-3.461h.085c.222.358.648 1.142 1.909 1.142 1.637 0 2.779-1.312 2.779-3.392 0-2.062-1.142-3.375-2.796-3.375-1.278 0-1.67.784-1.892 1.125h-.119v-1.039h-.972v9zm.989-5.728c0-1.466.648-2.454 1.875-2.454 1.278 0 1.909 1.074 1.909 2.454 0 1.398-.648 2.506-1.909 2.506-1.21 0-1.875-1.023-1.875-2.506zm8.25 3.426c1.142 0 1.738-.613 1.943-1.039h.051V129h1.006v-4.312c0-2.08-1.585-2.319-2.421-2.319-.988 0-2.113.341-2.625 1.534l.955.341c.222-.477.746-.988 1.704-.988.925 0 1.381.49 1.381 1.329v.034c0 .486-.494.443-1.687.597-1.215.158-2.54.426-2.54 1.926 0 1.278.989 2.011 2.233 2.011zm.153-.903c-.801 0-1.38-.358-1.38-1.057 0-.767.698-1.005 1.483-1.108.426-.051 1.568-.17 1.738-.375v.921c0 .818-.648 1.619-1.841 1.619zm4.682.75h3.086c1.329 0 2.13-.75 2.13-1.756 0-1.027-.779-1.581-1.5-1.687.738-.154 1.262-.567 1.262-1.364 0-1.044-.895-1.738-2.301-1.738h-2.677V129zm.955-.92v-2.012h2.131c.69 0 1.108.414 1.108 1.091 0 .571-.418.921-1.108.921h-2.131zm0-2.881v-1.824h1.722c.805 0 1.295.337 1.295.886 0 .584-.49.938-1.295.938h-1.722zm6.789 2.318v-5.062h-1.005V129h1.176l3.136-5.062V129h1.006v-6.545h-1.159l-3.154 5.062zm5.575 1.483h.341c1.449 0 1.867-1.125 1.96-3.273l.103-2.335h2.403V129h1.006v-6.545h-4.364l-.119 2.897c-.085 2.199-.307 2.71-1.091 2.71h-.239V129zm8.391.068a.77.77 0 00.767-.767.77.77 0 00-.767-.767.77.77 0 00-.767.767.77.77 0 00.767.767zm3.305 0a.77.77 0 00.767-.767.77.77 0 00-.767-.767.77.77 0 00-.767.767.77.77 0 00.767.767zm3.304 0a.77.77 0 00.767-.767.77.77 0 00-.767-.767.77.77 0 00-.767.767.77.77 0 00.767.767z" fill="#95A2B0"/><rect x="16" y="204" width="440" height="42" rx="8" fill="#fff"/><path d="M26.724 225.526c0-1.104.686-1.74 1.651-1.74.945 0 1.501.601 1.501 1.63V230h1.8v-4.862c0-1.845-1.044-2.874-2.63-2.874-1.173 0-1.919.532-2.272 1.397h-.09v-3.843h-1.76V230h1.8v-4.474zm10.6-3.162h-1.506v-1.83h-1.8v1.83h-1.084v1.392h1.084v4.245c-.01 1.437 1.034 2.143 2.386 2.103a3.608 3.608 0 001.06-.179l-.304-1.407c-.1.025-.303.07-.527.07-.453 0-.816-.159-.816-.885v-3.947h1.507v-1.392zm5.318 0h-1.506v-1.83h-1.8v1.83h-1.084v1.392h1.084v4.245c-.01 1.437 1.034 2.143 2.386 2.103a3.607 3.607 0 001.06-.179l-.304-1.407c-.1.025-.303.07-.527.07-.452 0-.815-.159-.815-.885v-3.947h1.506v-1.392zm1.505 10.5h1.8v-4.067h.075c.283.557.875 1.337 2.187 1.337 1.8 0 3.147-1.427 3.147-3.942 0-2.546-1.387-3.928-3.152-3.928-1.347 0-1.909.811-2.182 1.362h-.105v-1.262h-1.77v10.5zm1.765-6.682c0-1.482.637-2.441 1.795-2.441 1.198 0 1.815 1.019 1.815 2.441 0 1.432-.627 2.476-1.815 2.476-1.148 0-1.795-.995-1.795-2.476zm13.02-1.8c-.248-1.293-1.282-2.118-3.072-2.118-1.839 0-3.092.905-3.087 2.317-.005 1.114.681 1.849 2.148 2.153l1.302.273c.701.154 1.03.438 1.03.87 0 .522-.567.915-1.422.915-.826 0-1.363-.358-1.517-1.044l-1.755.169c.224 1.402 1.402 2.232 3.277 2.232 1.909 0 3.256-.989 3.26-2.436-.004-1.089-.705-1.755-2.147-2.068l-1.302-.279c-.776-.174-1.084-.442-1.08-.884-.004-.518.568-.875 1.318-.875.83 0 1.268.452 1.407.954l1.64-.179zm2.758 5.727c.586 0 1.088-.487 1.093-1.093a1.105 1.105 0 00-1.093-1.084c-.607 0-1.1.487-1.094 1.084a1.087 1.087 0 001.094 1.093zm0-5.453c.586 0 1.088-.488 1.093-1.094a1.105 1.105 0 00-1.093-1.084c-.607 0-1.1.487-1.094 1.084a1.088 1.088 0 001.094 1.094zm7.108-5.315h-1.576l-3.281 12.19h1.575l3.282-12.19zm5.305 0h-1.576l-3.282 12.19h1.576l3.282-12.19zm4.961 3.023h-1.506v-1.83h-1.8v1.83h-1.084v1.392h1.084v4.245c-.01 1.437 1.034 2.143 2.386 2.103a3.607 3.607 0 001.06-.179l-.304-1.407c-.1.025-.303.07-.527.07-.452 0-.815-.159-.815-.885v-3.947h1.506v-1.392zm4.754 7.785c2.237 0 3.66-1.576 3.66-3.937 0-2.367-1.423-3.948-3.66-3.948s-3.659 1.581-3.659 3.948c0 2.361 1.422 3.937 3.66 3.937zm.01-1.442c-1.238 0-1.844-1.103-1.844-2.5s.606-2.516 1.844-2.516c1.218 0 1.825 1.119 1.825 2.516s-.607 2.5-1.825 2.5zm5.177 4.157h1.8v-4.067h.074c.283.557.875 1.337 2.188 1.337 1.8 0 3.147-1.427 3.147-3.942 0-2.546-1.388-3.928-3.152-3.928-1.348 0-1.91.811-2.183 1.362h-.104v-1.262h-1.77v10.5zm1.765-6.682c0-1.482.636-2.441 1.794-2.441 1.199 0 1.815 1.019 1.815 2.441 0 1.432-.626 2.476-1.815 2.476-1.148 0-1.794-.995-1.794-2.476zm13.546-3.818h-1.914l-1.76 5.672h-.08l-1.754-5.672h-1.92l2.72 7.636h1.989l2.719-7.636zm1.245 7.636h1.8v-7.636h-1.8V230zm.905-8.72c.572 0 1.039-.438 1.039-.975 0-.542-.467-.979-1.039-.979-.576 0-1.044.437-1.044.979 0 .537.468.975 1.044.975zm8.781 3.102c-.248-1.293-1.282-2.118-3.072-2.118-1.84 0-3.092.905-3.087 2.317-.005 1.114.681 1.849 2.147 2.153l1.303.273c.701.154 1.029.438 1.029.87 0 .522-.567.915-1.422.915-.825 0-1.362-.358-1.516-1.044l-1.755.169c.223 1.402 1.402 2.232 3.276 2.232 1.909 0 3.256-.989 3.261-2.436-.005-1.089-.706-1.755-2.147-2.068l-1.303-.279c-.775-.174-1.084-.442-1.079-.884-.005-.518.567-.875 1.318-.875.83 0 1.268.452 1.407.954l1.64-.179zm4.979 5.767c2.238 0 3.659-1.576 3.659-3.937 0-2.367-1.421-3.948-3.659-3.948-2.237 0-3.659 1.581-3.659 3.948 0 2.361 1.422 3.937 3.659 3.937zm.01-1.442c-1.238 0-1.844-1.103-1.844-2.5s.606-2.516 1.844-2.516c1.218 0 1.825 1.119 1.825 2.516s-.607 2.5-1.825 2.5zm5.177 1.293h1.8v-4.489c0-.97.731-1.656 1.72-1.656.303 0 .681.055.835.105v-1.656a4.291 4.291 0 00-.646-.05c-.875 0-1.606.497-1.884 1.382h-.08v-1.272h-1.745V230zm5.784.109c.587 0 1.089-.487 1.094-1.093a1.105 1.105 0 00-1.094-1.084c-.606 0-1.098.487-1.093 1.084a1.087 1.087 0 001.093 1.093zm6.283.04c1.919 0 3.142-1.138 3.272-2.759h-1.721c-.154.82-.745 1.293-1.536 1.293-1.123 0-1.849-.94-1.849-2.501 0-1.541.741-2.466 1.849-2.466.865 0 1.397.557 1.536 1.293h1.721c-.125-1.656-1.417-2.745-3.282-2.745-2.237 0-3.649 1.616-3.649 3.948 0 2.311 1.377 3.937 3.659 3.937zm8.08 0c2.238 0 3.659-1.576 3.659-3.937 0-2.367-1.421-3.948-3.659-3.948-2.237 0-3.659 1.581-3.659 3.948 0 2.361 1.422 3.937 3.659 3.937zm.01-1.442c-1.238 0-1.844-1.103-1.844-2.5s.606-2.516 1.844-2.516c1.218 0 1.825 1.119 1.825 2.516s-.607 2.5-1.825 2.5zm5.177 1.293h1.8v-4.643c0-.94.626-1.576 1.402-1.576.76 0 1.282.512 1.282 1.297V230h1.765v-4.763c0-.86.512-1.456 1.382-1.456.726 0 1.303.427 1.303 1.372V230h1.805v-5.126c0-1.705-.985-2.61-2.387-2.61-1.108 0-1.954.547-2.292 1.397h-.079c-.294-.865-1.034-1.397-2.063-1.397-1.025 0-1.79.527-2.108 1.397h-.09v-1.297h-1.72V230zm16.721-10.659h-1.576l-3.282 12.19h1.576l3.282-12.19zm2.868 7.666h1.656v-.129c.01-1.054.353-1.536 1.163-2.034.915-.546 1.487-1.292 1.487-2.431 0-1.68-1.308-2.734-3.207-2.734-1.74 0-3.152.964-3.202 2.854h1.77c.045-.935.721-1.382 1.422-1.382.761 0 1.372.507 1.372 1.287 0 .696-.462 1.174-1.064 1.551-.88.547-1.387 1.099-1.397 2.889v.129zm.87 3.102c.587 0 1.089-.487 1.094-1.093a1.105 1.105 0 00-1.094-1.084c-.606 0-1.098.487-1.093 1.084a1.087 1.087 0 001.093 1.093zm5.025-.109h1.8v-7.636h-1.8V230zm.905-8.72c.572 0 1.039-.438 1.039-.975 0-.542-.467-.979-1.039-.979-.577 0-1.044.437-1.044.979 0 .537.467.975 1.044.975zm4.545 4.246c0-1.104.667-1.74 1.616-1.74.93 0 1.487.611 1.487 1.63V230h1.799v-4.862c.005-1.83-1.039-2.874-2.615-2.874-1.143 0-1.929.547-2.277 1.397h-.089v-1.297h-1.72V230h1.799v-4.474zm13.28-3.162h-1.914l-1.76 5.672h-.08l-1.755-5.672h-1.919l2.719 7.636h1.989l2.72-7.636zm1.162 5.956h6.617v-1.537h-6.617v1.537zm0-3.182h6.617v-1.536h-6.617v1.536zm12.457-5.459c-2.207-.015-3.674 1.501-3.674 3.49.005 1.919 1.372 3.306 3.157 3.306 1.099 0 2.053-.532 2.546-1.407h.069c-.005 2.178-.795 3.475-2.202 3.475-.88 0-1.472-.507-1.656-1.317h-1.814c.208 1.685 1.541 2.913 3.47 2.913 2.441 0 3.997-2.038 3.992-5.543-.005-3.709-1.934-4.907-3.888-4.917zm.005 1.491c1.089 0 1.889.905 1.889 1.944.005 1.054-.835 1.959-1.909 1.959-1.083 0-1.864-.855-1.869-1.944 0-1.093.81-1.959 1.889-1.959zm5.539 8.83h6.98v-1.541h-4.435v-.07l1.755-1.785c1.979-1.899 2.526-2.823 2.526-3.972 0-1.705-1.388-2.953-3.436-2.953-2.018 0-3.45 1.253-3.45 3.187h1.755c0-1.039.656-1.691 1.67-1.691.97 0 1.691.592 1.691 1.552 0 .85-.517 1.456-1.522 2.475l-3.534 3.466V230zm12.314.139c2.203 0 3.779-1.213 3.784-2.868-.005-1.273-.945-2.337-2.128-2.536v-.07c1.029-.228 1.745-1.153 1.75-2.257-.005-1.566-1.447-2.729-3.406-2.729-1.974 0-3.415 1.158-3.41 2.729-.005 1.104.701 2.029 1.75 2.257v.07a2.564 2.564 0 00-2.128 2.536c-.005 1.655 1.566 2.868 3.788 2.868zm0-1.422c-1.153 0-1.899-.636-1.889-1.576-.01-.974.79-1.665 1.889-1.665 1.084 0 1.879.696 1.889 1.665-.01.94-.75 1.576-1.889 1.576zm0-4.638c-.944 0-1.621-.612-1.611-1.497-.01-.875.647-1.461 1.611-1.461.95 0 1.601.586 1.611 1.461-.01.89-.681 1.497-1.611 1.497z" fill="#142333"/><path d="M379.08 223c-.324-1.79-1.756-2.847-3.512-2.847-2.233 0-3.852 1.722-3.852 4.483 0 2.762 1.619 4.483 3.852 4.483 1.756 0 3.188-1.057 3.512-2.846h-1.057c-.256 1.21-1.296 1.858-2.455 1.858-1.585 0-2.829-1.228-2.829-3.495 0-2.267 1.244-3.494 2.829-3.494 1.159 0 2.199.648 2.455 1.858h1.057zm1.571 6h1.006v-2.761h.903l2.148 2.761h1.295l-2.676-3.392 2.642-3.153h-1.295l-2.353 2.846h-.664v-2.846h-1.006V229zm8.835.136c1.773 0 2.966-1.346 2.966-3.375 0-2.045-1.193-3.392-2.966-3.392-1.773 0-2.966 1.347-2.966 3.392 0 2.029 1.193 3.375 2.966 3.375zm0-.903c-1.347 0-1.96-1.159-1.96-2.472 0-1.312.613-2.488 1.96-2.488 1.346 0 1.96 1.176 1.96 2.488 0 1.313-.614 2.472-1.96 2.472zm4.501.767h1.006v-5.608h3.136V229h1.006v-6.545h-5.148V229zm7.99-1.483v-5.062h-1.006V229h1.176l3.137-5.062V229h1.005v-6.545h-1.159l-3.153 5.062zm6.154 3.938h1.006v-3.461h.085c.222.358.648 1.142 1.909 1.142 1.637 0 2.779-1.312 2.779-3.392 0-2.062-1.142-3.375-2.796-3.375-1.278 0-1.67.784-1.892 1.125h-.119v-1.039h-.972v9zm.989-5.728c0-1.466.648-2.454 1.875-2.454 1.278 0 1.909 1.074 1.909 2.454 0 1.398-.648 2.506-1.909 2.506-1.21 0-1.875-1.023-1.875-2.506zm8.983 3.409c1.773 0 2.966-1.346 2.966-3.375 0-2.045-1.193-3.392-2.966-3.392-1.773 0-2.966 1.347-2.966 3.392 0 2.029 1.193 3.375 2.966 3.375zm0-.903c-1.347 0-1.96-1.159-1.96-2.472 0-1.312.613-2.488 1.96-2.488s1.96 1.176 1.96 2.488c0 1.313-.613 2.472-1.96 2.472zm4.501.767h3.085c1.33 0 2.131-.75 2.131-1.756 0-1.027-.78-1.581-1.5-1.687.737-.154 1.261-.567 1.261-1.364 0-1.044-.895-1.738-2.301-1.738h-2.676V229zm.955-.92v-2.012h2.13c.691 0 1.108.414 1.108 1.091 0 .571-.417.921-1.108.921h-2.13zm0-2.881v-1.824h1.721c.806 0 1.296.337 1.296.886 0 .584-.49.938-1.296.938h-1.721zm7.709 3.954c1.143 0 1.739-.613 1.944-1.039h.051V229h1.005v-4.312c0-2.08-1.585-2.319-2.42-2.319-.989 0-2.114.341-2.625 1.534l.955.341c.221-.477.745-.988 1.704-.988.925 0 1.381.49 1.381 1.329v.034c0 .486-.495.443-1.688.597-1.214.158-2.539.426-2.539 1.926 0 1.278.988 2.011 2.232 2.011zm.154-.903c-.801 0-1.381-.358-1.381-1.057 0-.767.699-1.005 1.483-1.108.426-.051 1.568-.17 1.739-.375v.921c0 .818-.648 1.619-1.841 1.619zm3.791-4.858h2.165V229h1.006v-5.608h2.148v-.937h-5.319v.937zm7.791 1.432v-2.369h-1.005V229h2.744c1.534 0 2.369-.938 2.369-2.114 0-1.193-.835-2.062-2.369-2.062h-1.739zm0 .937h1.739c.797 0 1.364.486 1.364 1.177 0 .66-.567 1.124-1.364 1.124h-1.739v-2.301z" fill="#4099F1"/><path fill-rule="evenodd" clip-rule="evenodd" d="M-68 44.667l26.917 17.222C-14.167 79.11 39.667 113.556 93.5 110.11c53.833-3.444 107.667-44.778 161.5-62s107.667-10.333 161.5-10.333 107.667-6.89 134.583-10.334L578 24v124H-68V44.667z" fill="#D8CCFB"/><path fill-rule="evenodd" clip-rule="evenodd" d="M-45.771 141.776L-36.5 125.5c54.971 8.979 120.927 22.671 195 7s145.687-59.385 241.62-50.193c78.175 7.491 151.44 46.848 189.651 66.876l38.228 20.46 1.566 37.151-37.3 1.571-186.501 7.859-223.802 9.431-186.501 7.859-37.3 1.572-3.932-93.31z" fill="#8F6FEC"/><path fill-rule="evenodd" clip-rule="evenodd" d="M0 202.633h28.792c28.791 0 86.375 0 143.958-10.227 57.583-10.228 115.167-30.684 172.75-38.355 57.583-7.67 115.167-2.557 172.75 0s115.167 2.557 143.958 2.557H691V264H0v-61.367z" fill="#7050CB"/><path d="M187.887 119.248c-37.304 0-67.562 30.22-67.574 66.868v82.928c.08 2.345 5.04 6.181 18.833 9.367 12.984 2.996 30.282 4.653 48.711 4.659 18.428.007 35.721-1.639 48.71-4.628 13.904-3.198 18.84-7.072 18.84-9.417v-82.866c0-36.648-30.221-66.911-67.526-66.911h.006z" fill="#121A26"/><path d="M187.869 171.525c18.416 0 35.721 1.663 48.71 4.659 13.898 3.21 18.834 7.084 18.834 9.429 0 2.345-4.911 6.212-18.84 9.417-12.995 2.989-30.294 4.634-48.716 4.628-18.422-.006-35.721-1.664-48.711-4.665-13.904-3.211-18.833-7.084-18.833-9.423 0-2.339 4.911-6.219 18.84-9.417 12.989-2.989 30.288-4.635 48.716-4.628zm0-1.965c-38.391 0-69.514 7.152-69.52 16.01-.007 8.858 31.117 16.034 69.508 16.046 38.391.013 69.514-7.151 69.52-16.003.006-8.852-31.117-16.041-69.508-16.053z" fill="#468CAF"/><path d="M187.875 152.034c18.416 0 35.721 1.664 48.71 4.659 13.898 3.211 18.834 7.084 18.834 9.429 0 2.345-4.911 6.213-18.84 9.417-12.989 2.99-30.294 4.635-48.716 4.629-18.422-.006-35.721-1.664-48.711-4.66-13.904-3.21-18.833-7.09-18.833-9.428 0-2.339 4.911-6.213 18.84-9.417 12.989-2.99 30.288-4.635 48.716-4.629zm0-1.964c-38.391 0-69.514 7.158-69.52 16.01-.007 8.852 31.117 16.034 69.508 16.052 38.391.019 69.514-7.158 69.52-16.01.006-8.852-31.117-16.04-69.508-16.052z" fill="#2A6D96"/><path d="M187.887 99.29a69.513 69.513 0 00-69.532 69.491v12.891c0 8.852 31.117 16.04 69.508 16.052 38.391.013 69.514-7.151 69.52-16.003V168.83a69.517 69.517 0 00-20.345-49.164 69.508 69.508 0 00-49.151-20.375z" fill="#2C5777"/><path d="M187.728 106.891c10.035 0 18.17-1.702 18.17-3.8 0-2.099-8.135-3.8-18.17-3.8-10.036 0-18.171 1.701-18.171 3.8 0 2.098 8.135 3.8 18.171 3.8z" fill="#121A26"/><path d="M202.08 99.26c-2.971.817-8.214 1.357-14.187 1.357-5.973 0-11.221-.547-14.192-1.37-1.566-.41-2.548-1.184-2.548-1.706 0 0-1.596 3.997-1.596 4.383 0 2.333 8.208 4.23 18.33 4.23 10.123 0 18.33-1.885 18.33-4.217 0-.614-1.307-4.23-1.657-4.537a3.579 3.579 0 01-2.48 1.86z" fill="#2C5777"/><path d="M182.534 100.457c-2.265-.135-4.297-.344-6.034-.614-.27 1.744-.559 3.493-.859 5.23 2.251.448 4.529.747 6.82.897.018-.528.049-4.199.073-5.513zm7.741.129c-.773 0-1.553.031-2.351.031h-.485c-.055 1.485-.141 5.168-.165 5.524h.644c.952 0 1.891 0 2.806-.043-.283-1.817-.387-3.67-.449-5.512zm10.516-1.019c-.755.154-1.602.3-2.523.424.485 1.718.853 3.462 1.185 5.224.97-.179 1.931-.407 2.879-.682-.528-1.651-1.05-3.278-1.541-4.966z" fill="#346F93"/><path d="M187.894 94.791c-9.257 0-16.765 1.295-16.765 2.904 0 .57.945 1.105 2.572 1.553 2.971.822 8.214 1.369 14.193 1.369 5.979 0 11.227-.516 14.186-1.357 1.375-.393 2.578-.982 2.578-1.553 0-1.608-7.507-2.916-16.764-2.916z" fill="#4D9DBC"/><path d="M187.894 95.884c-3.119 0-5.648.558-5.648 1.228 0 .239.319.466.872.663a16.35 16.35 0 004.776.583 15.702 15.702 0 004.775-.584c.461-.165.866-.417.866-.662 0-.67-2.523-1.228-5.641-1.228zm69.489 70.103l-.073-.257c0 .264 0 .528.03.785.027-.174.041-.351.043-.528zm-20.528-2.621l-.092-.73a19.396 19.396 0 00-21.35-16.869 382.479 382.479 0 01-27.55 1.976 383.477 383.477 0 01-27.557-1.976 19.403 19.403 0 00-21.35 16.875l-.092.73a16.454 16.454 0 003.35 12.163 16.464 16.464 0 0010.978 6.217 289.431 289.431 0 0034.671 2.019 289.331 289.331 0 0034.665-2.019 16.456 16.456 0 0013.867-11.968 16.43 16.43 0 00.46-6.418z" fill="#121A26"/><path d="M222.528 178.062a288.094 288.094 0 01-34.665 2.02 288.193 288.193 0 01-34.671-2.02c-7.711-.939-14.347-6.887-14.347-14.475a16.45 16.45 0 0014.347 18.159 289.639 289.639 0 0034.671 2.019 289.331 289.331 0 0034.665-2.019 16.447 16.447 0 0014.352-18.159c0 8.042-6.636 13.536-14.352 14.475z" fill="#468CAF"/><path d="M187.857 201.616c-38.391 0-69.508-7.194-69.508-16.046v58.551c0 5.015 9.987 9.496 25.622 12.437h.111a10.016 10.016 0 0010.391-4.669 10.01 10.01 0 001.346-3.778v-.08a32.445 32.445 0 0164.186.945v.043a8.924 8.924 0 003.496 6.11 8.94 8.94 0 006.835 1.68c.51-.086.976-.166 1.388-.245 15.635-2.935 25.629-7.404 25.629-12.419v-58.557c.018 8.877-31.105 16.041-69.496 16.028z" fill="#2C5777"/><path d="M128.275 242.138c-2.701-6.716-3.272-14.076-4.531-21.154-.478-2.713-1.031-5.421-1.718-8.091a66.088 66.088 0 00-1.326-4.549c-.203-.614-.418-1.227-.614-1.841l-.258-.651a56.543 56.543 0 00-.682-1.467 32.26 32.26 0 00-.755-1.387v41.129c0 4.094 6.661 7.833 17.618 10.669a42.081 42.081 0 01-7.734-12.658zm128.482-40.294c-.049.11-.117.233-.184.362-.46 1.227-.933 2.4-1.375 3.609a65.944 65.944 0 00-3.112 11.854c-.111.663-.203 1.326-.307 1.995 0 .086 0 .16-.037.215-.115.917-.238 1.831-.368 2.744a186.75 186.75 0 01-.541 3.683 84.844 84.844 0 01-3.763 15.691 55.085 55.085 0 01-6.175 12.492c10.264-2.787 16.458-6.397 16.458-10.344v-43.584c-.166.46-.399.865-.596 1.283z" fill="#1F4060"/><path opacity=".57" d="M235.241 201.463a4.296 4.296 0 014.96 4.297v37.642a7.802 7.802 0 01-7.784 7.778 7.805 7.805 0 01-7.777-7.778v-34.99a6.137 6.137 0 015.248-6.102l5.353-.847z" fill="#468CAF"/><path d="M140.484 201.463a4.29 4.29 0 00-3.476.998 4.302 4.302 0 00-1.484 3.299v37.642a7.803 7.803 0 007.784 7.778 7.802 7.802 0 007.784-7.778v-34.99a6.178 6.178 0 00-5.261-6.108l-5.347-.841z" fill="#468CAF"/><path d="M187.894 273.678c11.059 0 20.024-8.965 20.024-20.024 0-11.059-8.965-20.024-20.024-20.024-11.06 0-20.025 8.965-20.025 20.024 0 11.059 8.965 20.024 20.025 20.024z" fill="#2C5777"/><path d="M195.186 267.804a1.24 1.24 0 01-.599-.171 1.24 1.24 0 01-.438-.443 1.201 1.201 0 01.089-1.327c.096-.125.216-.229.353-.306a13.574 13.574 0 006.519-9.104 1.227 1.227 0 012.351.467 15.957 15.957 0 01-7.673 10.705 1.188 1.188 0 01-.602.179z" fill="#2A6D96"/><path d="M170.822 254.722a1.084 1.084 0 01-1.087-1.087 18.178 18.178 0 0118.159-18.158 1.09 1.09 0 011.086 1.087 1.085 1.085 0 01-1.086 1.086 16.007 16.007 0 00-15.961 15.961 1.085 1.085 0 01-1.111 1.111z" fill="#468CAF"/><path d="M187.894 265.213c6.384 0 11.559-5.175 11.559-11.559 0-6.384-5.175-11.559-11.559-11.559-6.384 0-11.56 5.175-11.56 11.559 0 6.384 5.176 11.559 11.56 11.559z" fill="#121A26"/><path d="M187.894 263.605c5.495 0 9.95-4.455 9.95-9.951s-4.455-9.951-9.95-9.951c-5.496 0-9.951 4.455-9.951 9.951s4.455 9.951 9.951 9.951z" fill="#4FC997"/><path d="M187.292 75c-4.708 0-4.297 21.485-4.297 21.485s.798.89 4.862.89 5.027-.847 5.027-.847S191.73 75 187.292 75z" fill="#2C5777"/><path d="M179.772 256.109a.62.62 0 01.393-.448.615.615 0 01.755.368 6.717 6.717 0 003.806 4.034.614.614 0 01-.448 1.105 7.934 7.934 0 01-4.481-4.752.604.604 0 01-.025-.307z" fill="#3DAD7D"/><path d="M188.434 245.514a.545.545 0 01.614-.424 9.01 9.01 0 017.108 10.559.537.537 0 01-.623.379.539.539 0 01-.433-.588 7.934 7.934 0 00-6.261-9.294.54.54 0 01-.405-.632z" fill="#71E2B1"/><path d="M159.5 176c3.038 0 5.5-3.134 5.5-7s-2.462-7-5.5-7-5.5 3.134-5.5 7 2.462 7 5.5 7zm51 0c3.038 0 5.5-3.134 5.5-7s-2.462-7-5.5-7-5.5 3.134-5.5 7 2.462 7 5.5 7z" fill="#43E0BB"/><path d="M259.839 216.797c0 9.294-2.069 16.832-4.623 16.832-2.553 0-5.352-4.088-5.352-16.101 0-9.294 2.799-17.563 5.352-17.563 2.554 0 4.623 7.538 4.623 16.832zm-144.615 0c0 9.294 2.069 16.832 4.622 16.832 2.554 0 5.353-4.088 5.353-16.101 0-9.294-2.799-17.563-5.353-17.563-2.553 0-4.622 7.538-4.622 16.832z" fill="#121A26"/><path d="M186.592 94.03c-.822 0-1.418-.694-1.492-1.903a68.78 68.78 0 01.756-11.62 1.024 1.024 0 01.896-1.08 1.018 1.018 0 01.89 1.06s.835 9.209.448 11.664c-.147 1.24-.651 1.879-1.498 1.879zm.43-16.268a.872.872 0 100-1.744.872.872 0 000 1.744zm-16.39 34.696c-9.485-1.952-15.476 2.806-18.981 5.783-5.709 4.849-5.034 10.687 6.611 13.695 14.61 3.776 35.604 2.959 42.572 2.1 13.18-1.609 8.987-8.594 7.415-12.1-1.675-3.732-3.843-8.876-13.253-8.367-8.404.461-20.018-.208-24.364-1.111z" fill="#468CAF"/><path opacity=".5" d="M213.768 112.691c4.377-1.804 24.07 13.186 15.469 18.521-4.162 2.584-7.237-2.916-10.908-7.747-4.475-5.893-7.133-9.706-4.561-10.774z" fill="#468CAF"/><path d="M308.868 247.969c-.319-.061-.65-.104-.988-.141a9.719 9.719 0 00-1.049-.049c-.356 0-.731 0-1.112.037-.584.04-1.166.112-1.743.215-.614.11-1.228.245-1.842.417l-.613.184c-.631.189-1.269.41-1.916.663-.429.172-.859.35-1.295.541l-.651.3a32.413 32.413 0 00-8.269 5.525 11.415 11.415 0 00-2.123 2.597 2.489 2.489 0 00-.363 2.111c.183.474.53.866.976 1.105a8.09 8.09 0 011.842-2.387l.552-.516a22.6 22.6 0 011.799-1.437c.43-.313.89-.614 1.369-.939a34.372 34.372 0 015.641-2.946 25.635 25.635 0 016.108-1.719 18.38 18.38 0 011.676-.154 14.256 14.256 0 012.382.099c.276.036.547.079.804.135a6.599 6.599 0 013.162 1.51 4.086 4.086 0 00-.129-2.143c-.651-1.559-2.13-2.633-4.218-3.008z" fill="#121A26"/><path d="M314.504 255.532l-.178-.614a4.042 4.042 0 00-1.173-1.804 6.602 6.602 0 00-3.161-1.511 10.688 10.688 0 00-.804-.135 14.367 14.367 0 00-2.382-.098c-.54 0-1.099.074-1.676.154a25.589 25.589 0 00-6.108 1.719 34.295 34.295 0 00-5.641 2.946c-.479.307-.94.614-1.369.939a22.6 22.6 0 00-1.799 1.437l-.552.515a8.091 8.091 0 00-1.842 2.388c-.212.444-.258.95-.129 1.425l.105.392a44.715 44.715 0 011.608 8.441c-.154-1.228 1.301-2.548 3.591-3.855a33.496 33.496 0 019.398-3.333c3.757-.749 7.287-.719 9.982.135 2.695.853 4.469 2.517 4.696 4.579a72.795 72.795 0 00-2.566-13.72z" fill="#2C5776"/><path d="M299.747 232.138a9.256 9.256 0 00-.983.092c-.337.049-.675.11-1.031.196-.356.086-.706.184-1.068.301-.546.178-1.099.387-1.658.614-.558.227-1.123.522-1.694.835l-.565.325c-.571.332-1.141.694-1.706 1.087-.381.264-.755.54-1.136.828l-.559.442a31.65 31.65 0 00-6.752 7.324c-1.461 2.283-1.995 4.113-1.289 5.218.303.406.737.696 1.228.822a7.669 7.669 0 011.16-2.781c.129-.208.27-.417.417-.614.399-.613.878-1.227 1.406-1.841.344-.409.712-.819 1.105-1.228a34.029 34.029 0 014.77-4.186 26.064 26.064 0 015.525-3.119 18.04 18.04 0 011.596-.552 13.073 13.073 0 012.326-.473c.27 0 .54-.049.804-.061a6.818 6.818 0 013.432.681 3.863 3.863 0 00-.645-2.007c-.859-1.375-2.602-2.002-4.683-1.903z" fill="#121A26"/><path d="M306.965 238.043l-.325-.54a4.1 4.1 0 00-1.535-1.449 6.825 6.825 0 00-3.431-.681c-.264 0-.534.031-.804.061-.789.087-1.567.245-2.327.473a18.71 18.71 0 00-1.596.552 26.176 26.176 0 00-5.525 3.119 34.142 34.142 0 00-4.769 4.186c-.41.41-.778.819-1.105 1.228a17.464 17.464 0 00-1.406 1.842c-.148.221-.289.43-.418.614a7.679 7.679 0 00-1.16 2.781 2.087 2.087 0 00.221 1.448l.215.356a50.37 50.37 0 013.91 8.337 2.495 2.495 0 01.363-2.112 11.437 11.437 0 012.124-2.597 32.39 32.39 0 018.268-5.525l.651-.3c.436-.191.866-.369 1.295-.541a28.16 28.16 0 011.916-.662l.613-.185a19.673 19.673 0 011.842-.417 16.232 16.232 0 011.743-.215c.381-.031.749-.043 1.111-.037.363.006.713 0 1.05.049.338.049.669.08.989.142 2.087.386 3.554 1.46 4.155 3.001a78.2 78.2 0 00-6.065-12.928z" fill="#2C5776"/><path d="M287.156 218.829c-.307.092-.614.197-.939.326-.326.129-.614.27-.958.429-.344.16-.645.338-.97.534a16.91 16.91 0 00-1.455.995c-.491.374-.976.779-1.455 1.228l-.472.448c-.473.454-.946.945-1.4 1.467-.307.344-.614.7-.902 1.074l-.442.559a32.51 32.51 0 00-4.813 8.71 11.349 11.349 0 00-.706 3.285 2.505 2.505 0 00.651 2.05c.376.329.857.514 1.356.522a7.852 7.852 0 01.498-2.965c.079-.227.165-.467.257-.712a21.55 21.55 0 01.94-2.1c.239-.478.503-.97.792-1.467a34.756 34.756 0 013.683-5.193 25.875 25.875 0 014.659-4.297 18.79 18.79 0 011.418-.903 14.09 14.09 0 012.161-1.006c.258-.093.522-.172.773-.246a6.678 6.678 0 013.487-.117 3.956 3.956 0 00-1.086-1.841c-1.24-1.105-3.039-1.375-5.077-.78z" fill="#121A26"/><path d="M295.584 222.936l-.405-.43v-.03a3.794 3.794 0 00-1.841-1.05 6.678 6.678 0 00-3.487.116c-.252.074-.516.154-.774.246-.747.274-1.47.611-2.16 1.007-.471.27-.944.571-1.418.902a25.847 25.847 0 00-4.66 4.297 34.713 34.713 0 00-3.683 5.194 27.5 27.5 0 00-.792 1.467 21.42 21.42 0 00-1.197 2.811 7.851 7.851 0 00-.497 2.965c.024.502.219.981.552 1.357l.264.282a54.18 54.18 0 015.845 7.311c-.706-1.105-.172-2.934 1.289-5.217a31.63 31.63 0 016.752-7.324l.559-.442c.38-.288.755-.565 1.135-.829a24.957 24.957 0 011.707-1.086l.565-.326c.571-.313 1.135-.613 1.694-.834.559-.221 1.111-.455 1.657-.614.363-.117.719-.215 1.069-.301a10.768 10.768 0 012.013-.289c2.081-.098 3.824.528 4.708 1.897a81.565 81.565 0 00-8.895-11.08z" fill="#2C5776"/><path d="M271.097 208.86a9.78 9.78 0 00-.835.565c-.276.208-.546.435-.816.675-.27.239-.528.503-.786.792-.406.437-.785.899-1.136 1.381a18.797 18.797 0 00-1.037 1.578c-.105.19-.215.38-.325.571-.32.577-.614 1.184-.903 1.841a27.879 27.879 0 00-.792 1.965 36.465 36.465 0 00-2.105 9.711 12.427 12.427 0 00.135 3.302 2.285 2.285 0 001.056 1.732c.426.198.911.235 1.362.104a8.074 8.074 0 01-.208-2.941c0-.239.037-.491.067-.748.078-.7.201-1.455.368-2.266.107-.519.23-1.06.369-1.62a36.38 36.38 0 012.099-5.992 24.659 24.659 0 013.291-5.445c.354-.428.731-.838 1.129-1.227a12.585 12.585 0 011.842-1.535c.223-.158.455-.303.693-.436a6.686 6.686 0 013.42-.988 4.191 4.191 0 00-1.609-1.529 4.538 4.538 0 00-2.523-.435 6.821 6.821 0 00-2.756.945z" fill="#121A26"/><path d="M280.661 210.757l-.466-.289-.092-.061a3.984 3.984 0 00-2.124-.577 6.686 6.686 0 00-3.42.988c-.239.133-.47.278-.693.436-.662.452-1.278.966-1.842 1.535-.398.389-.775.799-1.129 1.227a24.636 24.636 0 00-3.291 5.445 36.413 36.413 0 00-2.099 5.992c-.139.56-.262 1.101-.369 1.62a29.487 29.487 0 00-.368 2.265c-.031.258-.055.51-.067.75a8.07 8.07 0 00.208 2.94c.133.458.419.857.811 1.129h.055l.282.178a47.48 47.48 0 017.232 5.525 2.495 2.495 0 01-.651-2.05c.071-1.124.309-2.231.706-3.284a32.54 32.54 0 014.812-8.711l.442-.559c.295-.374.614-.73.903-1.074.454-.522.927-1.013 1.399-1.467l.473-.448c.479-.442.964-.847 1.455-1.228a17.13 17.13 0 011.455-.994c.325-.197.614-.375.97-.535.356-.159.614-.306.958-.429.343-.123.613-.234.939-.326 2.038-.613 3.836-.337 5.058.762a74.495 74.495 0 00-11.547-8.76z" fill="#2C5776"/><path d="M261.779 202.991l-.725-.129a4.92 4.92 0 00-2.922.344c-.957.418-5.138 2.456-5.739 13.217-.694 12.467 3.001 13.658 3.413 13.714l.313.049a30.83 30.83 0 017.434 2.756 2.293 2.293 0 01-1.056-1.731 12.435 12.435 0 01-.135-3.303 36.474 36.474 0 012.357-10.38c.172-.442.35-.872.54-1.296.283-.613.584-1.227.903-1.841.11-.19.221-.381.325-.571.331-.559.675-1.087 1.038-1.578.351-.482.73-.943 1.135-1.381.258-.288.522-.546.786-.792a10.57 10.57 0 011.651-1.24 6.834 6.834 0 012.75-.994 4.53 4.53 0 012.523.436 58.187 58.187 0 00-14.591-5.28z" fill="#2C5776"/><path d="M294.093 261.186a42.012 42.012 0 00-1.326-4.604c-.258.178-.516.356-.755.534-.624.448-1.224.927-1.799 1.437l-.553.515a8.088 8.088 0 00-1.841 2.388 2.054 2.054 0 00-.129 1.424l.104.393a44.717 44.717 0 011.609 8.441c-.154-1.228 1.301-2.548 3.591-3.855.583-.32 1.227-.614 1.921-.952a48.827 48.827 0 00-.822-5.721zm-3.85-10.405a57.306 57.306 0 00-4.07-6.532c-.227.246-.442.498-.65.737a17.464 17.464 0 00-1.406 1.842c-.147.221-.289.429-.418.613a7.711 7.711 0 00-1.16 2.781 2.089 2.089 0 00.221 1.449l.215.356a50.398 50.398 0 013.91 8.336 2.49 2.49 0 01.363-2.111 11.393 11.393 0 012.124-2.597 26.822 26.822 0 012.289-1.928 41.254 41.254 0 00-1.418-2.946zm-5.899-8.95a61.413 61.413 0 00-7.599-7.925c-.142.258-.277.516-.4.767a21.785 21.785 0 00-1.197 2.812 7.851 7.851 0 00-.497 2.965c.024.502.219.98.553 1.356l.264.283a54.11 54.11 0 015.844 7.311c-.706-1.105-.172-2.934 1.289-5.218a27.005 27.005 0 011.743-2.351zm-9.969-9.767c-2.91-2.025-6.139-3.487-9.208-5.119a29.33 29.33 0 00-.399 2.412c-.031.258-.055.51-.067.749a8.068 8.068 0 00.208 2.94c.133.458.419.857.811 1.13h.055l.282.178a47.352 47.352 0 017.232 5.525 2.499 2.499 0 01-.651-2.051 11.35 11.35 0 01.706-3.284c.301-.844.645-1.671 1.031-2.48zm-11.878-.853a12.435 12.435 0 01-.135-3.303 30.7 30.7 0 01.264-2.375 31.385 31.385 0 01-3.015-2.002c-3.161-2.381-6.022-4.714-6.899-10.331a37.504 37.504 0 00-.32 3.223c-.693 12.468 3.002 13.658 3.414 13.714l.313.049a30.846 30.846 0 017.434 2.756 2.293 2.293 0 01-1.056-1.731z" fill="#1F4060"/><path d="M66.157 247.969c.32-.061.651-.104.989-.141a9.738 9.738 0 011.05-.049c.355 0 .73 0 1.11.037.587.04 1.171.112 1.75.215.614.11 1.228.245 1.842.417l.614.184c.63.189 1.268.41 1.915.663.43.172.865.35 1.295.541l.65.3a32.391 32.391 0 018.27 5.525 11.403 11.403 0 012.124 2.597 2.49 2.49 0 01.362 2.111 2.127 2.127 0 01-.958 1.069 8.068 8.068 0 00-1.841-2.388 11.349 11.349 0 00-.553-.516 23.393 23.393 0 00-1.792-1.436c-.436-.313-.89-.614-1.376-.94a34.159 34.159 0 00-5.641-2.946 25.63 25.63 0 00-6.108-1.719 18.015 18.015 0 00-1.676-.153 14.255 14.255 0 00-2.382.098c-.276.037-.546.08-.804.135a6.619 6.619 0 00-3.161 1.51 4.013 4.013 0 01.135-2.142c.62-1.523 2.1-2.597 4.186-2.972z" fill="#121A26"/><path d="M60.528 255.532l.172-.614c.22-.696.626-1.32 1.173-1.804a6.63 6.63 0 013.161-1.511c.258-.055.528-.098.804-.135.79-.099 1.587-.131 2.382-.098.54 0 1.099.074 1.676.154 2.1.317 4.151.895 6.108 1.719a34.087 34.087 0 015.641 2.946c.485.307.94.614 1.375.939.663.485 1.265.964 1.793 1.437.196.172.38.344.552.515a8.092 8.092 0 011.842 2.388c.212.444.258.95.129 1.425l-.105.392a44.7 44.7 0 00-1.608 8.441c.154-1.228-1.301-2.548-3.591-3.855a33.52 33.52 0 00-9.392-3.333c-3.763-.749-7.293-.719-9.988.135-2.694.853-4.469 2.517-4.696 4.579a72.293 72.293 0 012.572-13.72z" fill="#2C5776"/><path d="M75.28 232.138c.328.013.656.044.982.092.337.049.675.11 1.031.196.356.086.706.184 1.074.301.54.178 1.093.387 1.652.614.558.227 1.13.522 1.694.835l.57.325c.566.332 1.136.694 1.701 1.087.38.264.761.54 1.136.828l.559.442a31.644 31.644 0 016.752 7.324c1.461 2.283 1.995 4.113 1.29 5.218a2.222 2.222 0 01-1.229.822 7.676 7.676 0 00-1.16-2.781 8.592 8.592 0 00-.417-.614 17.567 17.567 0 00-1.406-1.841 32.277 32.277 0 00-1.099-1.228 34.75 34.75 0 00-4.77-4.186 26.295 26.295 0 00-5.524-3.119 18.086 18.086 0 00-1.596-.552 13.018 13.018 0 00-2.32-.473c-.277 0-.547-.049-.811-.061a6.74 6.74 0 00-3.425.681 3.81 3.81 0 01.613-2.007c.878-1.375 2.621-2.002 4.703-1.903z" fill="#121A26"/><path d="M68.06 238.043l.326-.54c.377-.61.908-1.11 1.54-1.449a6.76 6.76 0 013.426-.681c.264 0 .534.031.81.061a12.99 12.99 0 012.32.473c.522.153 1.057.338 1.597.552 1.96.813 3.816 1.86 5.525 3.119a34.75 34.75 0 014.77 4.186c.386.418.754.829 1.098 1.228a17.475 17.475 0 011.406 1.842c.147.221.288.429.417.614a7.671 7.671 0 011.16 2.78 2.087 2.087 0 01-.22 1.449l-.215.356a50.412 50.412 0 00-3.91 8.337 2.492 2.492 0 00-.363-2.112 11.45 11.45 0 00-2.124-2.597 32.39 32.39 0 00-8.269-5.525l-.644-.325a27.694 27.694 0 00-3.21-1.203l-.615-.184a19.994 19.994 0 00-1.841-.418 16.861 16.861 0 00-1.75-.215 11.3 11.3 0 00-1.11-.036c-.363.006-.713 0-1.05.049-.338.049-.67.079-.989.141-2.087.387-3.554 1.461-4.15 3.002a78.214 78.214 0 016.065-12.904z" fill="#2C5776"/><path d="M87.87 218.829c.307.092.614.197.94.326.325.129.613.27.957.429.344.16.644.338.97.534.485.295.97.614 1.46.995.492.38.97.779 1.45 1.228l.472.448c.479.454.945.945 1.4 1.467.307.344.614.7.902 1.074l.442.559a32.525 32.525 0 014.813 8.71c.4 1.053.638 2.161.706 3.285a2.455 2.455 0 01-.651 2.05 2.087 2.087 0 01-1.357.522 7.855 7.855 0 00-.497-2.965 21.544 21.544 0 00-1.197-2.812 27.1 27.1 0 00-.792-1.467 34.764 34.764 0 00-3.683-5.193 25.857 25.857 0 00-4.66-4.297 18.81 18.81 0 00-1.417-.903 13.772 13.772 0 00-2.161-1.006 12.111 12.111 0 00-.773-.246 6.667 6.667 0 00-3.487-.117 3.959 3.959 0 011.086-1.841c1.24-1.105 3.045-1.375 5.077-.78z" fill="#121A26"/><path d="M79.442 222.936l.405-.43v-.031a3.803 3.803 0 011.841-1.049 6.666 6.666 0 013.487.116c.258.074.516.154.774.246.748.273 1.47.61 2.16 1.007.471.27.944.571 1.418.902a25.857 25.857 0 014.66 4.297 34.764 34.764 0 013.683 5.193c.288.498.552.989.792 1.468a21.42 21.42 0 011.197 2.811c.355.947.524 1.954.497 2.965a2.204 2.204 0 01-.552 1.357l-.264.282a54.142 54.142 0 00-5.845 7.311c.707-1.105.173-2.934-1.288-5.218a31.64 31.64 0 00-6.753-7.323l-.559-.442a27.703 27.703 0 00-2.836-1.915l-.57-.326c-.565-.313-1.136-.614-1.695-.835-.558-.221-1.111-.454-1.651-.613a16.654 16.654 0 00-1.075-.301 11.12 11.12 0 00-1.03-.197 9.505 9.505 0 00-.983-.092c-2.081-.098-3.824.528-4.708 1.897a81.603 81.603 0 018.895-11.08z" fill="#2C5776"/><path d="M103.929 208.86c.287.174.566.362.835.565.276.208.546.435.816.675.27.239.528.503.792.792.402.439.779.9 1.129 1.381.363.491.706 1.019 1.038 1.578.104.19.215.38.325.571.319.577.614 1.184.903 1.841.19.424.368.853.54 1.295l.258.67a36.669 36.669 0 012.099 9.711 12.427 12.427 0 01-.135 3.302 2.306 2.306 0 01-1.05 1.732 1.966 1.966 0 01-1.369.104c.25-.959.32-1.956.209-2.941 0-.239-.037-.491-.067-.748a28.54 28.54 0 00-.363-2.266 36.926 36.926 0 00-2.467-7.612 24.883 24.883 0 00-3.297-5.445c-.353-.43-.73-.84-1.129-1.227a12.238 12.238 0 00-1.842-1.535 7.55 7.55 0 00-.694-.436 6.681 6.681 0 00-3.419-.988 4.186 4.186 0 011.609-1.529 4.541 4.541 0 012.523-.435 6.806 6.806 0 012.756.945z" fill="#121A26"/><path d="M94.365 210.757l.466-.289.092-.061a3.983 3.983 0 012.124-.577 6.682 6.682 0 013.419.988c.239.133.471.278.694.436.663.45 1.279.964 1.842 1.535.399.387.776.797 1.129 1.227a24.883 24.883 0 013.297 5.445 36.926 36.926 0 012.468 7.612c.159.811.282 1.566.362 2.265.03.258.055.51.067.75a8.048 8.048 0 01-.209 2.94 2.083 2.083 0 01-.81 1.129h-.055l-.282.178a47.431 47.431 0 00-7.232 5.525 2.46 2.46 0 00.651-2.05 11.135 11.135 0 00-.706-3.284 32.53 32.53 0 00-4.813-8.711l-.442-.559c-.294-.374-.614-.73-.902-1.074a21.199 21.199 0 00-1.4-1.467l-.472-.448a23.794 23.794 0 00-1.45-1.228c-.484-.381-.975-.7-1.46-.994-.325-.197-.614-.375-.97-.535-.356-.159-.614-.306-.958-.429-.343-.123-.614-.234-.939-.326-2.032-.613-3.837-.337-5.058.762a74.494 74.494 0 0111.547-8.76z" fill="#2C5776"/><path d="M113.247 202.991l.724-.129a4.919 4.919 0 012.922.344c.958.418 5.145 2.456 5.74 13.217.694 12.467-3.002 13.658-3.413 13.714l-.313.049a30.687 30.687 0 00-7.428 2.756 2.31 2.31 0 001.05-1.731c.191-1.09.237-2.201.135-3.303a36.64 36.64 0 00-2.1-9.711l-.257-.669c-.172-.442-.35-.872-.54-1.296a43.967 43.967 0 00-.903-1.841c-.11-.19-.221-.381-.325-.571a19.054 19.054 0 00-1.038-1.578 16.22 16.22 0 00-1.129-1.381 14.08 14.08 0 00-.792-.792c-.264-.245-.54-.466-.817-.675a10.003 10.003 0 00-.834-.565 6.799 6.799 0 00-2.75-.994 4.533 4.533 0 00-2.523.436 58.183 58.183 0 0114.591-5.28z" fill="#2C5776"/><path d="M80.933 261.186c.357-1.558.8-3.095 1.326-4.604l.761.534c.663.485 1.265.964 1.793 1.437.196.171.38.343.552.515a8.093 8.093 0 011.842 2.388c.212.444.258.949.129 1.424l-.105.393a44.7 44.7 0 00-1.608 8.441c.154-1.228-1.301-2.548-3.591-3.855-.583-.32-1.228-.614-1.921-.952.16-1.921.435-3.832.822-5.721zm3.849-10.405a57.419 57.419 0 014.07-6.532c.227.246.448.498.65.737a17.472 17.472 0 011.406 1.842c.148.221.29.429.418.613a7.683 7.683 0 011.16 2.781 2.087 2.087 0 01-.22 1.449l-.216.356a50.44 50.44 0 00-3.91 8.336 2.487 2.487 0 00-.362-2.111 11.404 11.404 0 00-2.124-2.597 26.817 26.817 0 00-2.29-1.928c.43-.982.896-1.97 1.418-2.946zm5.899-8.95a61.398 61.398 0 017.6-7.925c.141.258.276.516.399.767a21.544 21.544 0 011.197 2.812c.355.947.524 1.954.497 2.965-.024.502-.219.98-.552 1.356l-.264.283a54.08 54.08 0 00-5.844 7.311c.706-1.105.172-2.934-1.29-5.218a27.071 27.071 0 00-1.743-2.351zm9.97-9.767c2.909-2.025 6.138-3.487 9.208-5.119l.036.147c.16.81.283 1.565.362 2.265.031.258.056.51.068.749a8.069 8.069 0 01-.209 2.94 2.09 2.09 0 01-.81 1.13h-.055l-.283.178a47.344 47.344 0 00-7.231 5.525 2.46 2.46 0 00.651-2.051 11.142 11.142 0 00-.706-3.284 26.44 26.44 0 00-1.031-2.48zm11.878-.853c.191-1.09.237-2.201.135-3.303a28.006 28.006 0 00-.264-2.375 31.966 31.966 0 003.02-2.002c3.156-2.381 6.016-4.714 6.894-10.331.141.982.252 2.044.319 3.223.694 12.468-3.002 13.658-3.413 13.714l-.313.049a30.73 30.73 0 00-7.428 2.756 2.31 2.31 0 001.05-1.731z" fill="#1F4060"/></g><defs><clipPath id="clip0"><rect width="472" height="262" rx="16" fill="#fff"/></clipPath></defs></svg>