<svg width="386" height="446" viewBox="0 0 386 446" fill="none" xmlns="http://www.w3.org/2000/svg">
<path d="M402.279 397.622C394.444 400.727 386.31 403.017 378.005 404.456C371.471 405.432 366.912 405.376 366.024 403.501C365.558 402.614 366.024 401.438 367.133 399.907C367.844 399.02 368.615 398.182 369.441 397.4C370.384 396.546 371.493 395.614 372.769 394.626C379.253 389.529 386.139 384.966 393.36 380.981C401.813 376.321 410.078 373.093 416.868 372.106C418.442 371.859 420.033 371.729 421.627 371.717C422.928 371.687 424.23 371.791 425.51 372.028C427.729 372.483 429.459 373.459 430.225 374.868C431.634 377.653 429.37 381.757 424.212 385.84C419.053 389.922 411.365 394.105 402.279 397.622Z" fill="#1F4060"/>
<path d="M400.093 393.017C394.464 395.403 388.655 397.34 382.72 398.808C378.061 399.918 374.954 400.029 374.377 398.997C373.801 397.965 375.908 395.857 379.669 393.117C384.604 389.65 389.796 386.564 395.201 383.887C400.612 381.051 406.329 378.84 412.241 377.297C416.923 376.188 420.273 376.332 421.116 377.83C421.959 379.327 419.929 381.779 416.135 384.486C411.116 387.909 405.737 390.77 400.093 393.017Z" fill="#121A26"/>
<path d="M382.62 424.336C383.352 424.336 384.106 424.336 384.905 424.336C385.704 424.336 386.536 424.269 387.401 424.203C388.267 424.136 389.176 424.058 390.097 423.947C391.495 423.803 392.948 423.615 394.468 423.382C395.988 423.149 397.552 422.882 399.161 422.572L400.792 422.239C402.434 421.906 404.12 421.518 405.839 421.13C406.978 420.856 408.132 420.556 409.301 420.231L411.054 419.732C420.461 417.036 428.615 413.563 434.14 409.991C439.665 406.419 442.627 402.769 441.518 400.007C441.027 398.944 440.144 398.114 439.055 397.688C437.903 399.791 436.291 401.608 434.34 403.002C433.863 403.368 433.375 403.734 432.853 404.111C431.3 405.194 429.689 406.19 428.027 407.096C426.918 407.728 425.62 408.36 424.322 408.982C419.455 411.258 414.432 413.182 409.29 414.739C404.128 416.334 398.875 417.612 393.558 418.567C392.127 418.822 390.74 419.044 389.409 419.221C387.368 419.499 385.427 419.709 383.674 419.82L381.788 419.909C379.407 420.069 377.015 419.837 374.71 419.221C374.42 419.582 374.221 420.007 374.131 420.461C374.04 420.915 374.06 421.384 374.188 421.828C374.876 423.459 377.916 424.291 382.62 424.336Z" fill="#121A26"/>
<path d="M379.647 437.693C379.827 438.139 380.102 438.541 380.453 438.87C380.803 439.2 381.221 439.449 381.677 439.602C381.221 439.449 380.803 439.2 380.453 438.87C380.102 438.541 379.827 438.139 379.647 437.693Z" fill="#2C5777"/>
<path d="M439.332 394.394L438.966 393.528L437.724 390.633L436.448 387.66C435.982 386.55 435.405 385.441 434.873 384.232C434.34 383.022 433.763 381.902 433.264 380.815L431.744 377.786L430.235 374.824C431.644 377.609 429.381 381.713 424.222 385.796C419.064 389.878 411.364 394.105 402.278 397.622C394.443 400.727 386.309 403.018 378.005 404.456C371.471 405.432 366.911 405.377 366.023 403.502C366.023 403.502 366.434 404.29 367.033 405.477L368.065 407.518L369.174 409.97C369.562 410.813 369.962 411.634 370.284 412.444L371.227 414.662C371.792 415.971 372.158 416.881 372.158 416.881L372.436 417.525C372.662 417.949 372.977 418.32 373.36 418.611C373.743 418.902 374.185 419.107 374.655 419.211C376.96 419.827 379.351 420.059 381.733 419.899L383.618 419.81C385.371 419.699 387.313 419.488 389.354 419.211C390.685 419.033 392.072 418.811 393.503 418.556C398.82 417.601 404.073 416.323 409.234 414.729C414.376 413.172 419.4 411.248 424.267 408.971C425.565 408.35 426.807 407.717 427.972 407.085C429.634 406.18 431.245 405.183 432.798 404.101C433.319 403.735 433.808 403.369 434.285 402.992C436.236 401.597 437.848 399.781 438.999 397.677C439.282 397.184 439.458 396.637 439.516 396.071C439.573 395.505 439.51 394.934 439.332 394.394Z" fill="#2C5777"/>
<path d="M389.133 445.492C389.854 445.559 390.608 445.603 391.351 445.636C392.095 445.67 392.982 445.692 393.848 445.703C394.713 445.714 395.623 445.703 396.555 445.703C397.952 445.703 399.428 445.592 400.992 445.481C402.556 445.37 404.109 445.215 405.751 445.026L407.404 444.826C409.068 444.616 410.733 444.36 412.53 444.072L416.058 443.44L417.855 443.074C427.473 441.088 435.927 438.248 441.773 435.13C444.235 433.91 446.483 432.299 448.43 430.36C449.872 428.785 450.449 427.242 450.061 425.922C449.675 424.841 448.878 423.955 447.842 423.459C446.478 425.453 444.69 427.12 442.606 428.341C442.106 428.663 441.574 428.984 441.019 429.306C439.371 430.254 437.675 431.117 435.938 431.891C434.718 432.423 433.431 433 432.088 433.477C427.027 435.365 421.836 436.889 416.557 438.037C411.275 439.228 405.925 440.095 400.537 440.633C399.073 440.766 397.675 440.877 396.322 440.955C394.247 441.077 392.305 441.121 390.542 441.088L388.656 441.01C386.262 440.976 383.891 440.537 381.644 439.712C381.325 440.054 381.091 440.466 380.962 440.915C380.833 441.365 380.812 441.838 380.901 442.297C381.456 443.983 384.473 445.048 389.133 445.492Z" fill="#121A26"/>
<path d="M388.689 440.91L390.575 440.988C392.339 440.988 394.28 440.988 396.355 440.855C397.708 440.777 399.106 440.666 400.571 440.533C405.958 439.995 411.308 439.128 416.59 437.937C421.87 436.789 427.06 435.266 432.122 433.377C433.464 432.856 434.751 432.268 435.971 431.791C437.708 431.017 439.404 430.155 441.052 429.206C441.607 428.884 442.162 428.563 442.639 428.241C444.724 427.021 446.512 425.354 447.875 423.36C446.505 425.338 444.723 426.996 442.65 428.219C442.14 428.54 441.618 428.873 441.064 429.195C439.414 430.144 437.714 431.003 435.971 431.769C434.762 432.312 433.475 432.878 432.122 433.355C427.058 435.241 421.868 436.769 416.59 437.926C411.304 439.109 405.95 439.973 400.56 440.511C399.106 440.655 397.697 440.766 396.355 440.844C394.269 440.955 392.339 440.999 390.564 440.966C389.92 440.966 389.288 440.966 388.678 440.899C386.292 440.864 383.929 440.425 381.689 439.601C383.932 440.429 386.299 440.871 388.689 440.91Z" fill="#121A26"/>
<path d="M432.099 433.355C433.453 432.834 434.74 432.312 435.949 431.769C437.691 431.003 439.391 430.144 441.041 429.195C441.596 428.873 442.15 428.54 442.627 428.219C444.7 426.996 446.483 425.338 447.853 423.359C448.165 422.9 448.379 422.381 448.482 421.835C448.585 421.289 448.575 420.728 448.452 420.187L448.33 419.754L448.186 419.321L447.22 416.293C446.621 414.473 445.889 412.044 445.002 409.636C444.114 407.229 443.282 404.799 442.639 402.98C442.328 402.081 442.006 401.327 441.806 400.761L441.485 399.929C442.594 402.669 439.621 406.33 434.107 409.914C428.594 413.497 420.428 416.958 411.021 419.654L409.268 420.153C408.107 420.471 406.953 420.771 405.807 421.052C404.087 421.473 402.401 421.862 400.759 422.161L399.128 422.494C397.519 422.805 395.944 423.071 394.435 423.304C392.926 423.537 391.462 423.725 390.064 423.87C389.143 423.981 388.234 424.058 387.368 424.125C386.503 424.191 385.671 424.236 384.872 424.258C384.073 424.28 383.319 424.258 382.587 424.258C377.883 424.258 374.821 423.382 374.156 421.695C374.156 421.695 374.533 422.605 375.043 424.025L376.907 429.239C377.572 431.136 378.149 433.078 378.626 434.52L379.403 436.916L379.514 437.26L379.614 437.615C379.795 438.062 380.072 438.464 380.424 438.794C380.777 439.123 381.197 439.372 381.655 439.523C383.895 440.347 386.258 440.786 388.644 440.821C389.254 440.821 389.887 440.877 390.53 440.888C392.305 440.888 394.236 440.888 396.321 440.766C397.664 440.688 399.072 440.577 400.526 440.433C405.917 439.895 411.27 439.031 416.557 437.848C421.836 436.717 427.03 435.215 432.099 433.355Z" fill="#2C5777"/>
<path d="M437.635 458.284C439.033 457.873 440.365 457.441 441.618 456.986C443.427 456.34 445.201 455.6 446.932 454.767C447.52 454.49 448.042 454.201 448.607 453.913C450.794 452.864 452.725 451.349 454.265 449.475C454.619 449.043 454.877 448.541 455.024 448.002C455.171 447.463 455.204 446.899 455.12 446.347L454.942 445.526L454.276 442.442C454.077 441.51 453.833 440.434 453.589 439.269L452.679 435.663C452.058 433.2 451.458 430.738 450.97 428.896C450.482 427.054 450.094 425.845 450.094 425.845C450.482 427.221 449.905 428.763 448.463 430.283C446.516 432.222 444.269 433.833 441.807 435.053C435.96 438.171 427.507 441.011 417.888 442.996L416.091 443.363L412.563 443.995C410.81 444.283 409.102 444.539 407.438 444.749L405.785 444.949C404.143 445.138 402.556 445.282 401.025 445.404C399.494 445.526 398.03 445.592 396.588 445.626C395.656 445.626 394.757 445.626 393.881 445.626C393.004 445.626 392.183 445.626 391.385 445.559C390.586 445.493 389.832 445.482 389.166 445.415C384.506 444.971 381.489 443.906 380.968 442.087C380.968 442.087 381.245 443.074 381.666 444.538L383.042 449.975C383.286 450.962 383.53 451.949 383.774 452.881C384.018 453.813 384.163 454.69 384.318 455.433L384.85 457.929L384.995 458.595C385.153 459.062 385.41 459.489 385.749 459.847C386.088 460.205 386.501 460.486 386.958 460.669C389.119 461.651 391.429 462.266 393.792 462.489C394.391 462.57 395.012 462.636 395.656 462.688C397.409 462.855 399.339 462.966 401.414 462.999C402.767 462.999 404.176 462.999 405.629 462.999C411.056 462.862 416.469 462.392 421.838 461.59C427.174 460.859 432.453 459.754 437.635 458.284Z" fill="#2C5777"/>
<path d="M439.332 394.394L438.966 393.528L437.724 390.633L436.448 387.66C435.982 386.55 435.405 385.441 434.873 384.232C434.34 383.022 433.763 381.902 433.264 380.815L431.744 377.786L430.235 374.824C431.644 377.609 429.381 381.713 424.222 385.796C419.064 389.878 411.364 394.105 402.278 397.622C394.443 400.727 386.309 403.018 378.005 404.456C371.471 405.432 366.911 405.377 366.023 403.502C366.023 403.502 366.434 404.29 367.033 405.477L368.065 407.518L369.174 409.97C369.562 410.813 369.962 411.634 370.284 412.444L371.227 414.662C371.792 415.971 372.158 416.881 372.158 416.881L372.436 417.525C372.662 417.949 372.977 418.32 373.36 418.611C373.743 418.902 374.185 419.107 374.655 419.211C376.96 419.827 379.351 420.059 381.733 419.899L383.618 419.81C385.371 419.699 387.313 419.488 389.354 419.211C390.685 419.033 392.072 418.811 393.503 418.556C398.82 417.601 404.073 416.323 409.234 414.729C414.376 413.172 419.4 411.248 424.267 408.971C425.565 408.35 426.807 407.717 427.972 407.085C429.634 406.18 431.245 405.183 432.798 404.101C433.319 403.735 433.808 403.369 434.285 402.992C436.236 401.597 437.848 399.781 438.999 397.677C439.282 397.184 439.458 396.637 439.516 396.071C439.573 395.505 439.51 394.934 439.332 394.394Z" fill="#1F4060"/>
<path d="M406.439 422.628C406.223 422.115 406.085 421.573 406.028 421.019H405.84C404.12 421.441 402.434 421.829 400.792 422.128L399.161 422.461C397.552 422.772 395.977 423.038 394.468 423.271C392.96 423.504 391.495 423.693 390.097 423.837C389.176 423.948 388.267 424.026 387.401 424.092C386.536 424.159 385.704 424.203 384.905 424.225H384.55L384.683 424.403C387.864 429.587 390.45 435.114 392.394 440.877C393.658 440.877 394.956 440.877 396.354 440.755C397.752 440.633 399.106 440.567 400.559 440.422C404.12 440.078 407.97 439.535 411.986 438.78C410.527 433.27 408.673 427.872 406.439 422.628Z" fill="#1F4060"/>
<path d="M260.031 407.141C250.435 404.922 241.948 401.938 236.057 398.809C230.166 395.681 226.838 392.408 227.515 389.823C228.824 384.631 245.531 384.509 264.38 390.333C283.229 396.158 297.662 403.491 296.663 407.607C296.131 409.648 291.804 410.613 285.159 410.535C276.688 410.274 268.268 409.136 260.031 407.141Z" fill="#1F4060"/>
<path d="M261.119 402.536C247.162 399.142 236.346 394.172 237.089 391.365C237.444 389.989 240.584 389.479 245.387 389.823C251.528 390.402 257.599 391.572 263.515 393.317C269.462 394.933 275.277 396.998 280.91 399.497C285.237 401.505 287.788 403.302 287.489 404.467C286.879 406.785 275.108 405.975 261.119 402.536Z" fill="#121A26"/>
<path d="M228.126 419.909C228.758 420.264 229.424 420.63 230.145 421.019C230.866 421.407 231.61 421.718 232.364 422.073C233.118 422.428 233.995 422.76 234.86 423.104C236.169 423.604 237.556 424.103 239.009 424.58C240.463 425.057 241.993 425.523 243.58 425.967L245.189 426.399C246.819 426.832 248.517 427.231 250.236 427.62C251.39 427.878 252.566 428.123 253.764 428.352L255.561 428.685C263.883 430.288 272.35 431.005 280.822 430.826C287.479 430.548 291.772 429.35 292.194 427.176C292.229 426.71 292.158 426.243 291.987 425.809C291.816 425.375 291.549 424.985 291.206 424.669C289.036 425.54 286.732 426.032 284.395 426.122C283.795 426.122 283.174 426.211 282.531 426.244C280.789 426.322 278.859 426.322 276.795 426.244C275.453 426.244 274.055 426.133 272.591 426.022C267.176 425.592 261.79 424.851 256.46 423.803C251.124 422.797 245.858 421.448 240.696 419.765C239.32 419.31 237.989 418.833 236.735 418.356C234.805 417.602 233.03 416.836 231.454 416.049C230.866 415.76 230.345 415.461 229.79 415.172C227.626 414.086 225.702 412.577 224.132 410.735C223.66 410.952 223.242 411.27 222.906 411.667C222.571 412.064 222.327 412.529 222.191 413.031C221.825 415.161 224.043 417.58 228.126 419.909Z" fill="#121A26"/>
<path d="M287.535 445.337C287.965 445.157 288.35 444.881 288.659 444.532C288.968 444.182 289.194 443.767 289.321 443.318C289.198 443.772 288.972 444.191 288.66 444.543C288.348 444.896 287.959 445.171 287.523 445.348L287.535 445.337Z" fill="#2C5777"/>
<path d="M218.895 431.836C218.853 432.348 218.922 432.864 219.096 433.348C219.27 433.832 219.546 434.274 219.905 434.642C219.545 434.274 219.269 433.833 219.095 433.349C218.921 432.864 218.853 432.349 218.895 431.836Z" fill="#2C5777"/>
<path d="M285.16 410.535C276.689 410.273 268.269 409.136 260.032 407.14C250.436 404.921 241.949 401.937 236.058 398.809C230.167 395.68 226.839 392.407 227.516 389.823C227.516 389.823 227.239 390.932 226.828 392.552C226.418 394.171 225.874 396.357 225.386 398.509C224.376 402.825 223.467 407.129 223.467 407.129L223.3 407.928C223.23 408.443 223.272 408.968 223.424 409.466C223.575 409.963 223.832 410.423 224.177 410.812C225.747 412.655 227.671 414.164 229.835 415.25C230.356 415.538 230.944 415.838 231.499 416.126C233.074 416.914 234.827 417.679 236.779 418.434C238.033 418.911 239.364 419.388 240.74 419.843C245.903 421.526 251.168 422.874 256.504 423.881C261.834 424.929 267.22 425.67 272.635 426.1C274.099 426.211 275.497 426.277 276.84 426.322C278.903 426.388 280.833 426.388 282.575 426.322C283.219 426.322 283.84 426.255 284.439 426.199C286.776 426.11 289.08 425.618 291.251 424.746C291.695 424.597 292.098 424.346 292.428 424.012C292.757 423.679 293.004 423.273 293.148 422.827L293.303 422.15C293.303 422.15 294.069 418.467 294.923 414.861C295.322 413.031 295.788 411.267 296.11 409.925L296.664 407.706C296.132 409.647 291.805 410.612 285.16 410.535Z" fill="#2C5777"/>
<path d="M224.243 443.584C224.886 443.906 225.574 444.238 226.306 444.56C227.038 444.882 227.815 445.192 228.625 445.503C229.435 445.814 230.278 446.124 231.165 446.424C232.485 446.868 233.894 447.3 235.37 447.711C236.845 448.121 238.387 448.51 239.996 448.82L241.616 449.186C243.269 449.541 244.944 449.863 246.708 450.174C247.869 450.373 249.056 450.562 250.269 450.739L252.088 450.995C260.481 452.208 268.977 452.535 277.438 451.971C284.094 451.394 288.233 449.974 288.61 447.789C288.627 447.32 288.536 446.854 288.344 446.427C288.151 446 287.863 445.623 287.5 445.326C285.358 446.301 283.066 446.905 280.722 447.112C280.123 447.178 279.502 447.256 278.858 447.311C277.116 447.467 275.186 447.567 273.123 447.6C271.78 447.6 270.382 447.6 268.929 447.6C263.503 447.445 258.092 446.975 252.721 446.191C247.341 445.422 242.016 444.311 236.779 442.863C235.37 442.474 234.027 442.064 232.741 441.631C230.766 440.98 228.976 440.296 227.371 439.579C226.772 439.313 226.262 439.058 225.663 438.78C223.46 437.811 221.472 436.411 219.816 434.664C219.361 434.907 218.963 435.243 218.648 435.65C218.332 436.057 218.107 436.527 217.986 437.027C217.675 439.146 220.005 441.365 224.243 443.584Z" fill="#121A26"/>
<path d="M225.697 438.78C226.24 439.058 226.806 439.313 227.405 439.579C229.017 440.319 230.807 441.003 232.774 441.631C234.061 442.064 235.404 442.475 236.813 442.863C242.05 444.311 247.375 445.422 252.755 446.191C258.126 446.975 263.537 447.445 268.963 447.6C270.416 447.6 271.814 447.6 273.156 447.6C275.22 447.6 277.15 447.467 278.892 447.312C279.535 447.312 280.157 447.179 280.756 447.112C283.1 446.905 285.392 446.301 287.534 445.326C285.397 446.302 283.108 446.903 280.767 447.101C280.179 447.178 279.558 447.245 278.914 447.3C277.161 447.467 275.231 447.556 273.168 447.589C271.836 447.589 270.427 447.589 268.974 447.589C263.548 447.43 258.136 446.956 252.766 446.169C247.385 445.405 242.06 444.294 236.824 442.841C235.418 442.441 234.076 442.031 232.797 441.609C230.97 441.012 229.174 440.324 227.416 439.546C226.817 439.291 226.307 439.024 225.719 438.758C223.52 437.791 221.536 436.396 219.883 434.653C221.528 436.401 223.504 437.804 225.697 438.78Z" fill="#121A26"/>
<path d="M268.963 447.567C270.416 447.567 271.825 447.567 273.157 447.567C275.22 447.567 277.15 447.445 278.903 447.279C279.547 447.279 280.168 447.157 280.756 447.079C283.097 446.881 285.386 446.28 287.523 445.304C287.959 445.127 288.348 444.852 288.66 444.5C288.972 444.147 289.198 443.728 289.32 443.274L289.431 442.586L289.82 440.157C290.086 438.703 290.43 436.828 290.774 434.831C291.118 432.834 291.484 430.971 291.772 429.528L292.238 427.121C291.817 429.34 287.501 430.449 280.867 430.771C272.395 430.951 263.927 430.233 255.606 428.63L253.809 428.297C252.611 428.06 251.435 427.816 250.281 427.565C248.55 427.177 246.864 426.777 245.233 426.344L243.624 425.912C242.038 425.468 240.518 425.002 239.054 424.525C237.589 424.048 236.214 423.549 234.905 423.05C234.039 422.709 233.207 422.366 232.408 422.018C231.61 421.663 230.855 421.319 230.19 420.964C229.524 420.609 228.803 420.243 228.171 419.855C224.088 417.525 221.869 415.106 222.28 413.054L221.725 415.85C221.403 417.536 220.948 419.766 220.616 422.007L219.506 428.175C219.229 429.861 219.051 430.982 219.051 430.982L218.918 431.781C218.875 432.299 218.945 432.82 219.124 433.308C219.302 433.797 219.584 434.241 219.95 434.61C221.603 436.352 223.587 437.747 225.785 438.714C226.318 438.981 226.895 439.247 227.483 439.502C229.24 440.28 231.036 440.968 232.863 441.565C234.135 441.987 235.478 442.398 236.89 442.797C242.127 444.25 247.452 445.361 252.832 446.125C258.177 446.917 263.563 447.398 268.963 447.567Z" fill="#2C5777"/>
<path d="M266.289 469.355C267.768 469.355 269.166 469.299 270.482 469.188C272.546 469.066 274.454 468.878 276.185 468.645L278.026 468.356C280.347 468.043 282.598 467.337 284.683 466.271C285.117 466.076 285.5 465.783 285.802 465.415C286.104 465.048 286.317 464.615 286.424 464.152L286.502 463.497L286.79 461.045C286.946 459.57 287.212 457.617 287.489 455.654C287.767 453.69 288.033 451.738 288.233 450.273C288.432 448.809 288.61 447.832 288.61 447.832C288.233 450.051 284.05 451.438 277.438 452.015C268.978 452.579 260.481 452.252 252.089 451.039L250.269 450.783C249.064 450.606 247.877 450.417 246.708 450.218C244.966 449.907 243.269 449.585 241.616 449.23L239.996 448.864C238.391 448.502 236.849 448.132 235.37 447.755C233.894 447.344 232.486 446.912 231.165 446.468C230.278 446.168 229.435 445.858 228.625 445.547C227.815 445.236 227.038 444.926 226.306 444.604C225.574 444.282 224.886 443.95 224.243 443.628C220.038 441.487 217.675 439.19 218.019 437.116C218.019 437.116 217.853 438.225 217.586 439.945L216.732 446.157C216.41 448.376 216.1 450.684 215.922 452.381L215.589 455.221L215.501 455.964C215.483 456.489 215.578 457.012 215.781 457.497C215.984 457.981 216.29 458.416 216.677 458.771C218.401 460.438 220.442 461.743 222.678 462.61C223.233 462.854 223.788 463.087 224.42 463.331C226.073 463.963 227.904 464.573 229.912 465.139C231.199 465.505 232.563 465.849 233.983 466.182C239.285 467.381 244.658 468.237 250.069 468.745C255.459 469.266 260.875 469.469 266.289 469.355Z" fill="#2C5777"/>
<path d="M238.953 443.418C240.102 437.486 241.67 431.643 243.646 425.934C242.06 425.49 240.54 425.024 239.075 424.547C237.611 424.07 236.235 423.571 234.926 423.071C234.061 422.731 233.229 422.387 232.43 422.04C231.631 421.685 230.877 421.341 230.211 420.986L230.078 420.919C229.058 423.426 228.159 425.956 227.338 428.508C226.45 431.758 225.63 435.031 224.886 438.303L225.774 438.769C226.306 439.036 226.883 439.302 227.471 439.557C229.229 440.335 231.025 441.024 232.852 441.621C234.124 442.042 235.466 442.453 236.879 442.852C237.511 443.041 238.232 443.24 238.953 443.418Z" fill="#3276A0"/>
<path d="M238.066 448.366C237.149 448.144 236.25 447.911 235.37 447.667C233.895 447.257 232.486 446.824 231.166 446.38C230.278 446.081 229.435 445.77 228.625 445.459C227.815 445.149 227.039 444.838 226.307 444.516C225.574 444.194 224.887 443.862 224.243 443.54L223.733 443.274C223.052 446.58 222.435 449.908 221.88 453.258C221.488 456.083 221.163 458.912 220.904 461.745C221.447 462.034 222.013 462.3 222.646 462.577C223.278 462.855 223.755 463.054 224.387 463.298C226.04 463.931 227.871 464.541 229.879 465.107C231.166 465.473 232.53 465.817 233.95 466.149L235.781 466.549C236.347 460.469 237.068 454.39 238.066 448.366Z" fill="#3276A0"/>
<path d="M285.16 410.535C276.689 410.273 268.269 409.136 260.032 407.14C250.436 404.921 241.949 401.937 236.058 398.809C230.167 395.68 226.839 392.407 227.516 389.823C227.516 389.823 227.239 390.932 226.828 392.552C226.418 394.171 225.874 396.357 225.386 398.509C224.376 402.825 223.467 407.129 223.467 407.129L223.3 407.928C223.23 408.443 223.272 408.968 223.424 409.466C223.575 409.963 223.832 410.423 224.177 410.812C225.747 412.655 227.671 414.164 229.835 415.25C230.356 415.538 230.944 415.838 231.499 416.126C233.074 416.914 234.827 417.679 236.779 418.434C238.033 418.911 239.364 419.388 240.74 419.843C245.903 421.526 251.168 422.874 256.504 423.881C261.834 424.929 267.22 425.67 272.635 426.1C274.099 426.211 275.497 426.277 276.84 426.322C278.903 426.388 280.833 426.388 282.575 426.322C283.219 426.322 283.84 426.255 284.439 426.199C285.548 426.111 286.658 425.978 287.556 425.811C288.351 425.345 289.265 425.121 290.186 425.168C290.564 425.05 290.934 424.909 291.295 424.746C291.739 424.597 292.142 424.346 292.472 424.012C292.801 423.679 293.048 423.273 293.192 422.827L293.347 422.15C293.347 422.15 294.113 418.467 294.967 414.861C295.367 413.031 295.832 411.267 296.154 409.925L296.709 407.706C296.132 409.647 291.805 410.612 285.16 410.535Z" fill="#1F4060"/>
<path d="M280.756 447.101C281.311 447.035 281.865 446.946 282.331 446.857C282.941 443.917 283.618 440.988 284.373 438.093C284.373 437.993 284.373 437.882 284.428 437.771C284.783 435.308 285.153 432.845 285.537 430.382C283.989 430.6 282.43 430.737 280.867 430.793C276.334 430.937 271.797 430.771 267.288 430.294C267.055 433.2 266.744 436.085 266.378 438.98C266.178 441.798 265.945 444.605 265.701 447.423C266.811 447.489 267.92 447.534 268.963 447.567C270.416 447.567 271.825 447.567 273.157 447.567C275.22 447.567 277.15 447.445 278.903 447.278C279.547 447.245 280.168 447.179 280.756 447.101Z" fill="#1F4060"/>
<path d="M443.981 329.405C442.051 329.028 440.098 329.05 441.574 328.096C441.705 327.929 441.853 327.776 442.018 327.641C441.716 327.513 441.455 327.306 441.26 327.043C441.065 326.78 440.943 326.469 440.908 326.144C438.845 325.034 436.548 323.437 436.582 321.085C436.596 320.46 436.85 319.864 437.293 319.422C437.735 318.98 438.331 318.725 438.956 318.711C440.758 318.615 442.559 318.926 444.225 319.62C444.225 319.487 444.225 319.365 444.225 319.243C443.879 318.95 443.622 318.566 443.482 318.134C443.281 317.458 443.133 316.769 443.038 316.07L442.927 315.993C441.241 314.55 441.152 312.143 441.818 309.503C441.545 308.961 441.467 308.342 441.596 307.75C441.663 307.473 441.774 307.195 441.862 306.907C441.816 306.64 441.828 306.366 441.897 306.103C441.966 305.841 442.09 305.597 442.262 305.387L442.528 305.065C442.528 304.943 442.628 304.832 442.683 304.71C442.445 304.737 442.205 304.698 441.987 304.597C441.77 304.495 441.586 304.336 441.453 304.136C441.321 303.936 441.247 303.704 441.239 303.464C441.231 303.225 441.289 302.988 441.407 302.78C441.529 302.536 441.685 302.314 441.818 302.07C441.806 301.805 441.872 301.543 442.007 301.315C442.484 300.472 443.016 299.673 443.571 298.886C443.555 298.645 443.589 298.403 443.671 298.176C443.754 297.949 443.882 297.741 444.048 297.566C444.477 297.127 444.881 296.664 445.257 296.179C445.346 296.068 445.446 295.968 445.557 295.879C447.668 293.251 448.742 289.939 448.574 286.571C446.355 248.852 443.648 206.384 441.751 178.783C441.396 178.783 440.642 176.397 440.487 176.076C439.877 176.941 439.377 176.775 438.756 177.585C438.312 178.161 437.281 177.584 437.525 176.874C437.891 175.931 438.235 174.989 438.634 174.035C438.293 174.459 437.922 174.86 437.525 175.233C437.525 175.233 437.957 172.736 437.979 172.692C439.654 170.253 440.59 167.384 440.675 164.427C440.453 161.332 440.376 159.213 440.198 156.839C435.96 100.26 401.569 39.243 310.044 43.6806C253.021 46.4208 194.856 80.812 197.263 175.111C197.263 176.619 197.341 178.161 197.385 179.703C197.629 182.044 200.036 184.319 201.223 185.506C201.3 185.594 201.349 185.702 201.366 185.817C201.383 185.932 201.366 186.05 201.318 186.156C201.271 186.262 201.193 186.352 201.096 186.416C200.999 186.479 200.885 186.514 200.769 186.515C200.738 186.638 200.675 186.751 200.585 186.841C200.495 186.931 200.383 186.995 200.26 187.025C200.136 187.056 200.007 187.053 199.886 187.016C199.764 186.979 199.655 186.909 199.57 186.815C199.504 186.748 199.46 186.682 199.404 186.615C199.349 186.548 199.404 186.704 199.404 186.748C199.125 187.212 198.785 187.637 198.395 188.013C198.282 188.131 198.14 188.219 197.984 188.268C197.892 188.343 197.792 188.406 197.684 188.457C198.794 225.422 200.78 268.721 202.832 305.542C202.939 307.216 203.653 308.794 204.84 309.98C206.297 311.469 207.841 312.87 209.466 314.173C209.807 314.209 210.134 314.329 210.417 314.523C210.699 314.717 210.929 314.978 211.086 315.283C211.859 316.628 212.456 318.067 212.861 319.565C213.012 320.052 212.977 320.578 212.761 321.04C213.016 322.305 213.249 323.57 213.582 324.79L213.649 325.079C214.333 326.599 214.739 328.23 214.847 329.893C215.252 331.761 215.522 333.656 215.657 335.562C215.692 335.798 215.692 336.037 215.657 336.272C216.223 339.978 216.034 343.927 214.78 346.079C214.603 346.371 214.354 346.612 214.057 346.779C213.759 346.947 213.424 347.035 213.083 347.035C212.742 347.035 212.406 346.947 212.109 346.779C211.812 346.612 211.563 346.371 211.386 346.079C210.975 345.89 210.628 345.586 210.387 345.203C210.309 345.081 210.243 344.959 210.176 344.837H209.988C208.453 345.808 207.283 347.259 206.659 348.964C205.994 350.767 205.736 352.696 205.905 354.611C207.103 371.429 208.19 383.233 208.956 386.927C211.729 400.24 235.581 421.541 333.208 415.772C426.952 410.225 452.468 386.373 452.468 365.849C452.468 361.345 452.036 350.85 451.359 336.816C450.693 332.09 446.322 329.86 443.981 329.405Z" fill="#2C5777"/>
<path d="M346.11 395.07C343.68 372.405 333.907 375.035 329.835 374.824C298.705 373.271 265.734 372.605 234.971 367.28C230.034 367.69 229.224 375.645 230.677 388.358C231.687 397.322 237.544 404.999 244.168 405.765C263.66 410.513 293.225 412.31 332.342 410.424C337.889 410.18 347.397 407.151 346.11 395.07Z" fill="#346F93"/>
<path d="M364.515 200.393C364.293 200.393 354.841 196.954 350.87 197.642C348.285 198.085 345.7 198.562 343.104 199.039C340.464 198.924 337.82 198.954 335.183 199.128C325.331 199.905 315.502 200.959 305.617 201.236C296.31 201.491 227.682 197.908 222.779 198.407C221.215 198.562 216.777 198.962 217.52 205.363L217.432 205.541C217.445 205.484 217.477 205.434 217.52 205.396C218.63 208.392 221.714 208.791 223.067 209.08C228.06 210.122 235.371 210.244 241.406 216.912C261.264 238.867 257.004 271.55 244.734 283.176C243.672 284.164 242.693 285.236 241.805 286.382C239.997 288.779 237.933 291.53 238.632 296.522C240.463 309.713 257.847 313.529 270.45 312.73C293.514 312.83 293.514 297.132 301.513 282.854C312.829 262.686 323.157 255.042 340.963 249.328C347.719 247.171 354.742 245.965 361.831 245.745C368.92 245.579 373.479 238.856 374.111 228.361C375.321 209.778 369.774 200.049 364.515 200.393Z" fill="#346F93"/>
<path d="M443.98 329.405C442.05 329.028 440.097 329.05 441.573 328.096C441.703 327.928 441.852 327.776 442.016 327.641C441.715 327.513 441.453 327.306 441.258 327.043C441.063 326.78 440.942 326.469 440.907 326.143C439.563 325.49 438.369 324.564 437.401 323.425C430.179 326.332 422.835 328.839 415.502 330.991C395.755 336.805 375.497 341.131 355.328 345.125C335.747 349.019 316.056 352.713 296.164 354.533C276.583 356.319 256.226 356.84 236.778 353.579C229.944 352.469 221.136 350.55 214.513 346.39C214.308 346.626 214.051 346.81 213.761 346.928C213.472 347.046 213.159 347.094 212.848 347.068C212.536 347.042 212.236 346.943 211.97 346.779C211.704 346.615 211.48 346.39 211.318 346.124C210.907 345.935 210.56 345.63 210.319 345.247C210.242 345.125 210.175 345.003 210.108 344.881H209.92C208.386 345.852 207.216 347.303 206.592 349.008C205.926 350.811 205.668 352.74 205.837 354.655C205.837 355.209 208.7 364.784 245.032 370.774C284.532 377.28 324.766 378.028 364.481 372.993C433.097 364.118 450.37 342.207 451.313 338.136C451.313 337.703 451.313 337.282 451.313 336.849C450.692 332.09 446.321 329.86 443.98 329.405Z" fill="#468CAF"/>
<path d="M355.351 152.279C355.451 134.595 356.35 116.922 355.917 99.2273C356.394 98.8833 355.828 98.1179 356.394 97.5632C361.464 92.4821 356.394 77.8492 330.468 72.6018C316.889 69.8505 298.606 72.1137 284.982 74.4656C258.834 78.9587 227.028 93.5028 221.114 138.811C217.786 164.327 232.852 178.638 256.171 182.443C290.751 188.09 343.092 183.098 356.405 176.974C366.068 172.536 364.171 164.604 364.171 164.604C364.226 159.201 358.746 155.84 355.351 152.279Z" fill="#346F93"/>
<path d="M249.681 248.142C251.312 267.068 244.222 284.941 230.355 285.917C218.584 286.738 207.291 272.171 204.983 253.312C202.676 234.452 208.544 215.326 222.023 213.473C235.503 211.621 247.817 226.52 249.681 248.142Z" fill="#121A26"/>
<path d="M117.231 225.199C109.21 227.008 101.633 227.207 95.8196 225.377C90.0064 223.546 86.1679 219.83 85.8905 215.392C85.6132 210.955 87.3549 200.87 114.602 200.504C141.848 200.138 145.265 207.638 145.265 211.598C145.399 213.65 142.337 215.792 137.278 218.254C130.866 221.288 124.145 223.616 117.231 225.199Z" fill="#3276A0"/>
<path d="M108.843 262.686C109.584 262.688 110.325 262.651 111.062 262.575C111.83 262.486 112.593 262.357 113.347 262.187C114.143 262.003 114.928 261.777 115.699 261.51C116.911 261.099 118.093 260.606 119.238 260.035C120.444 259.437 121.615 258.771 122.744 258.038L123.853 257.25C124.963 256.451 126.161 255.564 127.292 254.621C128.047 253.989 128.801 253.323 129.511 252.646L130.621 251.537C135.621 246.538 140.28 241.208 144.566 235.584C147.972 231.146 150.113 228.495 149.414 227.274C149.186 227.029 148.91 226.836 148.602 226.706C148.294 226.576 147.962 226.512 147.628 226.52C147.192 227.208 146.702 227.861 146.163 228.472C145.542 229.194 144.799 229.981 143.944 230.88L142.835 231.989C141.792 233.032 140.616 234.142 139.418 235.317L136.855 237.725C133.543 240.828 130.05 243.733 126.394 246.423C122.746 249.148 118.736 251.352 114.479 252.968C113.337 253.381 112.17 253.722 110.984 253.989C109.29 254.389 107.556 254.597 105.815 254.61C105.216 254.61 104.616 254.61 104.028 254.532C102.609 254.411 101.211 254.109 99.8682 253.634C98.6371 253.181 97.4813 252.545 96.4402 251.748C96.4401 253.554 96.9145 255.329 97.8158 256.895C98.3385 257.791 98.9804 258.612 99.724 259.336C100.507 260.049 101.38 260.657 102.32 261.144C103.281 261.643 104.303 262.016 105.36 262.254C106.502 262.525 107.67 262.67 108.843 262.686Z" fill="#121A26"/>
<path d="M156.358 235.495C156.259 234.619 156.125 233.986 155.726 233.753C156.125 233.986 156.247 234.619 156.358 235.495Z" fill="#2C5777"/>
<path d="M125.019 284.719C126.584 285.686 128.382 286.211 130.222 286.239C128.382 286.213 126.583 285.688 125.019 284.719Z" fill="#2C5777"/>
<path d="M148.094 224.545C148.019 224.394 147.952 224.238 147.894 224.079L147.728 223.636C147.628 223.336 147.439 222.959 147.295 222.415C146.851 221.072 146.48 219.705 146.186 218.322C145.853 216.713 145.609 214.994 145.454 213.729C145.454 213.074 145.343 212.531 145.309 212.153V211.543C145.442 213.596 142.381 215.737 137.322 218.2C130.913 221.252 124.191 223.599 117.275 225.2C109.254 227.008 101.677 227.208 95.8636 225.377C90.0504 223.547 86.2119 219.83 85.9346 215.393C85.9346 215.393 85.9345 215.87 86.0122 216.691L86.3339 220.141C86.6446 222.992 87.1993 226.797 88.0091 230.669C88.7829 234.278 89.757 237.841 90.9268 241.342C91.3817 242.795 91.8698 244.015 92.1915 244.869L92.7019 246.212L92.9903 246.933L93.3009 247.654C93.9947 249.287 95.1039 250.71 96.5182 251.781C97.5593 252.579 98.715 253.215 99.9462 253.667C101.289 254.143 102.687 254.445 104.106 254.566C104.694 254.621 105.294 254.643 105.893 254.643C107.634 254.631 109.368 254.422 111.062 254.022C112.248 253.756 113.415 253.415 114.557 253.001C118.814 251.385 122.824 249.182 126.472 246.456C130.128 243.766 133.621 240.862 136.933 237.758L139.496 235.351C140.739 234.164 141.87 233.054 142.913 232.023L144.022 230.913C144.888 230.015 145.631 229.227 146.241 228.506C146.78 227.894 147.27 227.242 147.706 226.553C147.922 226.272 148.07 225.944 148.137 225.595C148.204 225.247 148.19 224.887 148.094 224.545Z" fill="#2C5777"/>
<path d="M146.208 287.581C146.787 287.154 147.339 286.69 147.861 286.194C148.413 285.662 148.935 285.099 149.425 284.508C149.945 283.898 150.434 283.261 150.889 282.6C151.615 281.561 152.278 280.479 152.875 279.36C153.514 278.174 154.091 276.956 154.606 275.711C154.772 275.289 154.95 274.856 155.116 274.413C155.626 273.103 156.081 271.728 156.492 270.308C156.773 269.369 157.028 268.403 157.257 267.412L157.601 265.915C159.054 258.982 159.797 251.919 159.82 244.836C159.88 242.576 159.78 240.315 159.52 238.069C159.454 237.658 159.376 237.292 159.298 236.959C159.235 236.65 159.15 236.346 159.043 236.05C158.989 235.838 158.889 235.642 158.748 235.475C158.608 235.308 158.432 235.174 158.233 235.085C157.734 234.896 157.191 235.018 156.381 235.528C156.407 237.439 156.285 239.35 156.015 241.242C156.015 241.741 155.893 242.251 155.826 242.784C155.637 244.226 155.393 245.835 155.105 247.554C154.905 248.664 154.706 249.773 154.484 251.027C153.674 255.483 152.562 259.879 151.155 264.184C149.778 268.539 147.835 272.694 145.375 276.543C144.702 277.553 143.961 278.517 143.157 279.427C142.05 280.745 140.804 281.939 139.44 282.988C138.952 283.365 138.464 283.698 137.965 284.02C135.66 285.527 132.952 286.3 130.199 286.239C131.286 287.683 132.721 288.828 134.37 289.567C136.249 290.348 138.31 290.583 140.317 290.244C142.454 289.805 144.466 288.895 146.208 287.581Z" fill="#121A26"/>
<path d="M138.021 283.986C138.52 283.665 139.008 283.332 139.496 282.955C140.86 281.906 142.106 280.712 143.213 279.394C144.017 278.483 144.758 277.52 145.431 276.509C147.891 272.661 149.834 268.505 151.211 264.15C152.618 259.845 153.73 255.449 154.539 250.993C154.761 249.795 154.961 248.63 155.161 247.521C155.449 245.801 155.693 244.192 155.882 242.75C155.948 242.218 156.015 241.707 156.07 241.208C156.341 239.316 156.463 237.406 156.437 235.495C156.447 237.402 156.321 239.308 156.059 241.197C156.059 241.696 155.937 242.207 155.871 242.739C155.682 244.192 155.438 245.79 155.139 247.51L154.528 250.993C153.714 255.445 152.602 259.837 151.2 264.139C149.823 268.494 147.88 272.649 145.42 276.498C144.746 277.508 144.005 278.472 143.201 279.382C142.091 280.701 140.841 281.895 139.474 282.944C138.986 283.31 138.498 283.654 137.998 283.975C135.695 285.486 132.986 286.26 130.233 286.194C132.992 286.264 135.708 285.494 138.021 283.986Z" fill="#121A26"/>
<path d="M154.451 250.993L155.061 247.51C155.36 245.79 155.604 244.182 155.793 242.739C155.86 242.207 155.926 241.697 155.982 241.197C156.243 239.308 156.369 237.403 156.359 235.495C156.248 234.619 156.126 233.986 155.727 233.753L155.36 233.554C155.36 233.554 154.917 233.232 154.251 232.788C153.907 232.566 153.619 232.222 153.208 231.945C152.798 231.668 152.487 231.246 152.099 230.836C151.71 230.425 151.367 230.092 151.089 229.649C150.934 229.438 150.779 229.249 150.623 229.072L150.246 228.484L149.902 228.007L149.669 227.585L149.458 227.219C150.102 228.439 148.016 231.091 144.61 235.528C140.345 241.17 135.704 246.518 130.721 251.537L129.611 252.646C128.868 253.323 128.114 253.989 127.393 254.621C126.283 255.564 125.107 256.452 123.953 257.25L122.844 258.038C121.715 258.771 120.544 259.438 119.338 260.035C118.194 260.607 117.011 261.1 115.799 261.51C115.028 261.777 114.243 262.003 113.448 262.187C112.693 262.357 111.93 262.486 111.162 262.575C110.425 262.651 109.684 262.688 108.943 262.686C107.782 262.678 106.625 262.545 105.493 262.287C104.436 262.049 103.415 261.677 102.453 261.178C101.513 260.69 100.641 260.082 99.8574 259.369C99.1138 258.646 98.4719 257.825 97.9492 256.929L98.748 258.282L99.6799 259.835L101 261.81L102.586 264.129L104.528 266.647C105.848 268.4 107.479 270.142 109.065 271.894C110.652 273.647 112.394 275.223 114.113 276.731C115.833 278.24 117.441 279.527 118.85 280.548C120.259 281.568 121.491 282.423 122.345 283.011C122.766 283.31 123.11 283.521 123.343 283.654L123.698 283.876L125.118 284.73C126.688 285.707 128.495 286.236 130.344 286.261C133.097 286.327 135.806 285.553 138.109 284.042C138.609 283.72 139.097 283.377 139.585 283.011C140.952 281.962 142.202 280.768 143.312 279.449C144.116 278.539 144.857 277.575 145.531 276.565C147.991 272.716 149.934 268.561 151.311 264.206C152.652 259.877 153.701 255.463 154.451 250.993Z" fill="#2C5777"/>
<path d="M187.998 289.689C188.305 289.04 188.571 288.373 188.797 287.692C189.019 286.993 189.219 286.261 189.396 285.473C189.574 284.686 189.707 283.931 189.818 283.122C189.987 281.874 190.087 280.619 190.117 279.361C190.117 278.052 190.117 276.709 190.017 275.322C190.017 274.868 189.929 274.402 189.895 273.936C189.751 272.527 189.54 271.085 189.285 269.631C189.108 268.655 188.908 267.679 188.686 266.691C188.564 266.192 188.453 265.704 188.331 265.194C187.384 261.444 186.19 257.76 184.759 254.166C183.589 251.138 182.255 248.175 180.765 245.291C179.754 243.241 178.55 241.29 177.171 239.467C176.061 238.069 175.107 237.403 174.209 237.437C173.865 237.474 173.541 237.613 173.277 237.836C172.937 238.091 172.644 238.402 172.411 238.757C173.55 240.362 174.492 242.098 175.218 243.927C175.407 244.404 175.618 244.892 175.817 245.391C176.372 246.756 176.927 248.253 177.515 249.906C177.881 251.016 178.258 252.125 178.624 253.235C179.991 257.561 181.044 261.98 181.775 266.458C182.551 270.948 182.745 275.52 182.352 280.06C182.231 281.255 182.05 282.444 181.808 283.621C181.463 285.305 180.954 286.951 180.288 288.535C180.044 289.079 179.789 289.645 179.523 290.111C178.333 292.475 176.483 294.444 174.198 295.78C174.966 296.144 175.774 296.419 176.605 296.601C177.424 296.753 178.26 296.794 179.09 296.723C182.928 296.534 186.112 293.816 187.998 289.689Z" fill="#121A26"/>
<path d="M172.412 238.845C172.201 238.528 171.929 238.258 171.61 238.05C171.292 237.842 170.934 237.701 170.559 237.636C170.939 237.704 171.3 237.849 171.621 238.063C171.942 238.277 172.215 238.554 172.423 238.879L172.412 238.845Z" fill="#2C5777"/>
<path d="M169.228 297.144H169.339C171.038 297.184 172.716 296.754 174.187 295.901H174.131C172.643 296.76 170.945 297.19 169.228 297.144Z" fill="#2C5777"/>
<path d="M178.613 253.344C178.258 252.235 177.881 251.059 177.504 250.016C176.938 248.363 176.394 246.865 175.806 245.501C175.606 245.002 175.396 244.514 175.207 244.036C174.481 242.207 173.539 240.472 172.4 238.867C172.192 238.542 171.919 238.264 171.598 238.051C171.278 237.837 170.916 237.692 170.537 237.624H170.015C169.838 237.637 169.66 237.637 169.483 237.624L168.085 237.524L166.121 237.28C165.4 237.114 164.635 237.058 163.902 236.837C163.17 236.615 162.305 236.482 161.684 236.26C161.062 236.038 160.408 235.849 159.875 235.694C158.943 235.283 158.311 235.062 158.311 235.062C158.51 235.151 158.686 235.285 158.826 235.452C158.966 235.619 159.067 235.815 159.121 236.027C159.228 236.323 159.313 236.627 159.376 236.936C159.454 237.269 159.531 237.635 159.598 238.046C159.858 240.292 159.958 242.553 159.897 244.813C159.875 251.896 159.132 258.959 157.679 265.892L157.335 267.389C157.098 268.373 156.843 269.338 156.569 270.285C156.159 271.705 155.704 273.08 155.194 274.39C155.027 274.833 154.85 275.266 154.683 275.688C154.169 276.933 153.591 278.151 152.953 279.337C152.356 280.456 151.693 281.537 150.967 282.577C150.512 283.238 150.023 283.874 149.502 284.485C149.013 285.076 148.49 285.639 147.938 286.171C147.416 286.667 146.864 287.13 146.285 287.558C144.562 288.873 142.569 289.789 140.45 290.243C138.443 290.582 136.382 290.348 134.503 289.566C134.503 289.566 136.567 290.431 139.684 291.641C141.226 292.151 143.012 292.75 144.987 293.349C146.962 293.948 148.948 294.381 151 294.88C153.052 295.379 155.171 295.701 157.124 296.056C159.077 296.411 160.974 296.566 162.56 296.733L166.432 297.01C167.364 297.077 167.896 297.077 167.896 297.077H169.305C171.025 297.116 172.722 296.679 174.209 295.812H174.264C176.55 294.476 178.399 292.507 179.589 290.143C179.856 289.644 180.111 289.111 180.355 288.568C181.021 286.983 181.53 285.337 181.875 283.653C182.117 282.476 182.298 281.287 182.418 280.092C182.811 275.552 182.617 270.981 181.841 266.491C181.082 262.037 180.003 257.643 178.613 253.344Z" fill="#2C5777"/>
<path d="M223.333 277.175C223.333 276.509 223.333 275.833 223.333 275.123C223.333 274.413 223.333 273.691 223.211 272.904C223.089 272.116 223.022 271.384 222.9 270.596C222.7 269.42 222.445 268.189 222.135 266.935C221.824 265.682 221.458 264.395 221.025 263.075C220.881 262.642 220.726 262.198 220.57 261.754C220.104 260.423 219.583 259.081 219.006 257.716C218.618 256.806 218.207 255.897 217.775 254.976C217.553 254.521 217.32 254.066 217.098 253.6C213.993 247.153 209.793 241.293 204.684 236.283C200.468 232.355 196.663 230.503 194.222 231.601C193.302 232.061 192.591 232.854 192.236 233.82C194.185 234.666 195.961 235.866 197.473 237.359C197.861 237.703 198.249 238.069 198.649 238.468C199.758 239.578 200.867 240.754 201.977 242.107C202.698 242.995 203.43 243.926 204.196 244.914C206.871 248.586 209.203 252.497 211.163 256.596C213.161 260.68 214.712 264.969 215.789 269.387C216.066 270.596 216.299 271.772 216.466 272.904C216.711 274.56 216.826 276.233 216.809 277.907C216.809 278.484 216.787 279.05 216.743 279.604C216.622 282.028 215.856 284.376 214.524 286.405C215.929 286.643 217.373 286.474 218.684 285.917C221.48 284.63 223.066 281.435 223.333 277.175Z" fill="#121A26"/>
<path d="M192.271 233.82C191.366 233.425 190.348 233.373 189.408 233.676H189.286C190.26 233.378 191.309 233.445 192.237 233.864L192.271 233.82Z" fill="#2C5777"/>
<path d="M210.919 289.145L211.118 289.068C212.469 288.532 213.628 287.605 214.447 286.405H214.336C213.502 287.645 212.31 288.601 210.919 289.145Z" fill="#2C5777"/>
<path d="M204.152 244.913C203.431 243.926 202.698 242.994 201.933 242.107C200.824 240.753 199.714 239.533 198.605 238.468C198.205 238.068 197.817 237.702 197.429 237.358C195.917 235.866 194.141 234.666 192.192 233.82V233.908C191.264 233.489 190.215 233.422 189.242 233.72L188.642 233.964L187.955 234.219L186.157 234.862C184.704 235.339 182.829 235.972 180.999 236.393C179.427 236.785 177.834 237.089 176.228 237.303C174.964 237.492 174.165 237.525 174.165 237.525C175.063 237.525 176.04 238.157 177.127 239.555C178.506 241.378 179.71 243.329 180.721 245.379C182.212 248.264 183.545 251.226 184.715 254.254C186.146 257.848 187.34 261.532 188.287 265.282C188.409 265.792 188.52 266.28 188.642 266.78C188.864 267.767 189.064 268.743 189.242 269.72C189.497 271.173 189.707 272.615 189.852 274.024C189.852 274.49 189.929 274.956 189.974 275.411C190.074 276.797 190.107 278.14 190.074 279.449C190.043 280.707 189.943 281.963 189.774 283.21C189.663 284.02 189.519 284.796 189.352 285.562C189.186 286.327 188.975 287.048 188.753 287.781C188.528 288.462 188.261 289.128 187.955 289.777C186.069 293.893 182.885 296.622 179.079 296.922C179.079 296.922 181.198 296.789 184.271 296.356C187.975 295.851 191.649 295.148 195.277 294.248C199.182 293.316 202.832 292.129 205.527 291.22L208.722 290.11L209.91 289.666L210.919 289.267C212.322 288.721 213.522 287.757 214.358 286.505H214.469C215.801 284.476 216.567 282.128 216.688 279.704C216.732 279.149 216.754 278.584 216.754 278.007C216.771 276.332 216.656 274.659 216.411 273.003C216.244 271.894 216.011 270.696 215.734 269.486C214.657 265.068 213.106 260.78 211.108 256.695C209.157 252.562 206.828 248.618 204.152 244.913Z" fill="#2C5777"/>
<path d="M240.95 245.28C239.286 231.323 232.829 225.444 229.945 223.291C225.452 219.963 220.149 219.408 216.632 220.928L215.312 221.483L214.202 222.016L212.882 222.615L211.296 223.369C208.988 224.478 206.17 225.876 203.652 227.13C201.134 228.383 198.771 229.548 197.073 230.358L194.3 231.634C196.74 230.525 200.546 232.388 204.761 236.316C209.871 241.326 214.071 247.186 217.176 253.633C217.397 254.099 217.63 254.554 217.852 255.009C218.285 255.93 218.695 256.839 219.084 257.749C219.661 259.114 220.193 260.456 220.648 261.787C220.803 262.231 220.959 262.675 221.103 263.107C221.535 264.417 221.902 265.715 222.212 266.968C222.523 268.222 222.778 269.453 222.978 270.629C223.1 271.417 223.211 272.194 223.288 272.937C223.366 273.68 223.399 274.423 223.41 275.156C223.421 275.888 223.41 276.542 223.41 277.208C223.155 281.468 221.569 284.663 218.718 285.95L222.534 284.186C224.753 283.077 227.626 281.723 230.3 280.403C232.973 279.083 243.868 269.808 240.95 245.28Z" fill="#2C5777"/>
<path d="M170.881 257.428C169.803 257.449 168.767 257.85 167.955 258.561C167.143 259.271 166.608 260.245 166.444 261.311C166.374 261.905 166.428 262.508 166.601 263.08C166.775 263.653 167.065 264.184 167.453 264.639C168.208 265.506 169.138 266.202 170.182 266.68C171.405 267.264 172.761 267.509 174.11 267.39C174.698 267.39 175.219 267.302 175.74 267.279C177.76 267.146 179.801 266.947 181.842 266.714C181.313 263.347 180.59 260.013 179.679 256.729C176.757 257.143 173.825 257.376 170.881 257.428Z" fill="#1F4060"/>
<path d="M188.465 265.804C195.275 264.657 201.916 262.667 208.234 259.88C209.432 259.347 210.631 258.77 211.829 258.16C211.596 257.639 211.374 257.117 211.119 256.596C209.843 253.948 208.413 251.377 206.836 248.897C200.021 252.133 192.823 254.493 185.414 255.919C186.557 258.966 187.531 262.073 188.332 265.227L188.465 265.804Z" fill="#1F4060"/>
<path d="M227.017 239.278C226.421 238.876 225.715 238.671 224.996 238.691C224.278 238.71 223.584 238.955 223.012 239.389C219.704 241.777 216.255 243.963 212.683 245.935C214.325 248.427 215.807 251.021 217.121 253.701C217.321 254.111 217.509 254.51 217.709 254.91C220.209 253.36 222.61 251.655 224.898 249.807C226.537 248.544 227.793 246.85 228.525 244.914C229.235 242.784 229.102 240.798 227.017 239.278Z" fill="#1F4060"/>
<path d="M127.926 245.356C131.254 242.816 134.294 240.176 136.945 237.746L139.508 235.339L140.018 234.851L139.674 234.262C137.048 229.744 134.981 224.924 133.517 219.907C128.792 221.919 123.913 223.552 118.928 224.788C120.005 232.044 123.721 239.233 127.926 245.356Z" fill="#1F4060"/>
<path d="M144.056 254.732C146.441 252.735 146.585 249.651 146.141 247.121C145.587 244.004 143.49 241.364 142.114 238.723C138.892 242.849 135.44 246.79 131.775 250.527C135.081 254.233 141.437 256.917 144.056 254.732Z" fill="#1F4060"/>
<path d="M174.753 279.949C168.907 281.391 148.128 285.019 149.37 294.526L150.923 294.903C152.964 295.414 155.095 295.724 157.047 296.079C159 296.434 160.897 296.59 162.483 296.756L166.355 297.033C167.287 297.1 167.819 297.1 167.819 297.1H169.228C170.948 297.14 172.646 296.702 174.132 295.835H174.187C176.473 294.5 178.322 292.531 179.512 290.166C179.779 289.667 180.034 289.135 180.278 288.591C180.944 287.006 181.453 285.36 181.798 283.676C182.04 282.499 182.221 281.311 182.341 280.115C182.397 279.583 182.419 279.006 182.452 278.495C181.698 278.595 176.561 279.494 174.753 279.949Z" fill="#1F4060"/>
<path d="M215.745 269.409C215.745 269.232 215.634 269.043 215.589 268.854C210.919 271.839 197.229 276.066 190.073 277.519C190.073 278.162 190.073 278.795 190.073 279.416C190.043 280.674 189.943 281.93 189.774 283.177C189.663 283.987 189.519 284.763 189.352 285.529C189.186 286.294 188.975 287.015 188.753 287.748C188.527 288.429 188.26 289.095 187.954 289.744C186.068 293.86 182.884 296.589 179.079 296.889C179.079 296.889 181.198 296.756 184.271 296.323C187.975 295.818 191.648 295.115 195.276 294.215C199.181 293.283 202.831 292.096 205.527 291.187L208.722 290.077L209.909 289.633L210.919 289.234C212.321 288.688 213.522 287.724 214.358 286.472H214.469C215.801 284.443 216.567 282.095 216.688 279.671C216.732 279.116 216.754 278.551 216.754 277.974C216.771 276.299 216.656 274.626 216.41 272.97C216.255 271.772 216.022 270.596 215.745 269.409Z" fill="#1F4060"/>
<path d="M240.95 245.28C240.574 241.868 239.781 238.514 238.587 235.295C238.587 241.419 241.439 255.475 221.947 265.881L222.224 266.924C222.535 268.178 222.79 269.409 222.989 270.585C223.111 271.373 223.222 272.15 223.3 272.893C223.378 273.636 223.411 274.379 223.422 275.112C223.433 275.844 223.422 276.498 223.422 277.164C223.167 281.424 221.58 284.619 218.729 285.906L222.546 284.142C224.764 283.033 227.638 281.679 230.311 280.359C232.985 279.039 243.868 269.809 240.95 245.28Z" fill="#1F4060"/>
<path d="M155.981 241.197C156.243 239.308 156.369 237.402 156.359 235.495C156.248 234.619 156.126 233.986 155.726 233.753L155.36 233.554C155.36 233.554 154.916 233.232 154.251 232.788C153.907 232.566 153.618 232.222 153.208 231.945C152.797 231.668 146.607 238.734 155.427 245.701C155.582 244.67 155.737 243.66 155.859 242.739C155.859 242.207 155.926 241.674 155.981 241.197Z" fill="#3276A0"/>
<path d="M177.515 249.994C176.949 248.341 176.405 246.844 175.817 245.479C175.618 244.98 175.407 244.492 175.218 244.015C174.492 242.186 173.55 240.45 172.412 238.845C172.203 238.521 171.93 238.243 171.61 238.029C171.289 237.815 170.927 237.67 170.548 237.602H170.026C169.849 237.615 169.671 237.615 169.494 237.602L168.096 237.503L166.132 237.259C165.411 237.092 164.646 237.037 163.914 236.815C163.181 236.593 162.316 236.46 161.695 236.238C161.074 236.016 160.419 235.827 159.886 235.672C158.955 235.262 158.322 235.04 158.322 235.04C158.521 235.13 158.697 235.263 158.837 235.43C158.977 235.597 159.078 235.794 159.132 236.005C159.239 236.302 159.324 236.606 159.387 236.915C159.465 237.247 159.543 237.614 159.609 238.024C159.869 240.27 159.969 242.531 159.909 244.791C159.909 245.812 159.909 246.933 159.831 248.12C165.637 250.09 171.754 250.985 177.881 250.76C177.681 250.549 177.604 250.238 177.515 249.994Z" fill="#3276A0"/>
<path d="M177.172 239.555C178.551 241.378 179.755 243.329 180.766 245.379C181.521 246.81 182.286 248.419 183.063 250.161C184.893 249.895 186.713 249.551 188.488 249.151C193.699 247.979 198.807 246.391 203.764 244.403C203.165 243.604 202.566 242.839 201.978 242.107C200.869 240.753 199.759 239.533 198.65 238.468C198.25 238.068 197.862 237.702 197.474 237.358C195.962 235.866 194.186 234.666 192.237 233.82V233.908C191.309 233.489 190.26 233.422 189.286 233.72L188.687 233.964L188 234.219L186.202 234.862C184.749 235.339 182.874 235.972 181.044 236.393C179.472 236.785 177.879 237.089 176.273 237.303C175.009 237.492 174.21 237.525 174.21 237.525C175.108 237.492 176.085 238.157 177.172 239.555Z" fill="#3276A0"/>
<path d="M204.718 236.316C206.513 238.013 208.174 239.845 209.688 241.797C213.239 240.117 216.684 238.224 220.005 236.128C224.596 233.159 228.868 229.724 232.752 225.877C231.881 224.953 230.931 224.106 229.912 223.347C225.419 220.019 220.116 219.464 216.599 220.984L215.279 221.539L214.17 222.071L212.85 222.671L211.263 223.425C208.956 224.534 206.138 225.932 203.62 227.186C201.101 228.439 198.738 229.604 197.041 230.414L194.267 231.69C196.708 230.581 200.502 232.389 204.718 236.316Z" fill="#3276A0"/>
<path d="M101.3 240.564C100.667 240.871 100.109 241.31 99.6614 241.852C99.2142 242.394 98.889 243.026 98.7079 243.705C98.5269 244.384 98.4942 245.094 98.6121 245.787C98.7301 246.48 98.9959 247.139 99.3914 247.72C100.689 250.046 102.103 252.304 103.629 254.487C104.366 254.572 105.107 254.612 105.848 254.609C107.589 254.597 109.323 254.388 111.018 253.988C112.203 253.721 113.37 253.381 114.512 252.967C116.734 252.16 118.88 251.157 120.925 249.972C119.719 248.53 118.61 247.05 117.597 245.534C114.679 241.529 106.148 238.478 101.3 240.564Z" fill="#3276A0"/>
<path d="M130.145 277.851C131.557 278.257 133.06 278.218 134.449 277.739C135.839 277.261 137.047 276.367 137.91 275.177C142.991 268.909 138.11 264.328 138.11 264.328C133.898 261.777 129.942 258.827 126.295 255.519C125.529 256.129 124.753 256.717 123.976 257.25L122.867 258.037C121.738 258.77 120.567 259.437 119.361 260.034C118.216 260.606 117.034 261.099 115.822 261.51C115.051 261.776 114.265 262.002 113.47 262.187C112.716 262.356 111.953 262.486 111.185 262.575C110.885 262.575 110.575 262.63 110.264 262.641C115.954 268.832 122.682 273.979 130.145 277.851Z" fill="#3276A0"/>
<path d="M441.396 176.22C441.229 175.333 440.795 174.518 440.153 173.883C439.511 173.249 438.69 172.826 437.801 172.67C439.698 173.779 438.323 178.905 438.323 178.905C438.323 178.905 436.592 184.707 404.519 191.241C381.899 195.856 351.912 199.229 320.083 200.749C310.099 201.226 300.214 201.503 290.629 201.592C265.335 201.791 242.237 200.571 225.585 198.142C202.033 194.714 200.302 190.309 200.291 190.309C200.445 189.959 200.672 189.645 200.957 189.388C200.147 189.233 199.67 186.449 198.827 185.994C198.486 186.227 198.202 186.534 197.995 186.891C197.788 187.247 197.663 187.646 197.628 188.057C197.628 189.167 197.628 188.057 197.706 190.653C197.95 199.806 237.267 205.364 290.651 204.92C300.136 204.842 310.043 204.565 320.239 204.077C387.812 200.86 442.172 189.522 441.651 178.76C441.642 177.908 441.556 177.058 441.396 176.22Z" fill="#468CAF"/>
<path d="M437.802 172.67C437.185 173.921 436.242 174.982 435.073 175.743C432.399 177.651 424.234 181.867 400.77 186.382C378.682 190.631 349.982 193.771 319.951 195.202C309.966 195.679 300.137 195.956 290.585 196.034C266.633 196.233 245.266 195.191 228.814 193.016C212.362 190.842 205.894 188.19 203.486 186.804C202.425 186.253 201.434 185.574 200.535 184.784C199.936 184.894 199.396 185.217 199.016 185.695C198.637 186.172 198.443 186.771 198.472 187.381C198.916 196.511 237.234 202.024 290.629 201.592C300.115 201.514 310.022 201.237 320.217 200.749C387.779 197.52 440.365 186.826 440.387 176.053C440.387 174.223 439.022 172.67 437.802 172.67Z" fill="#121A26"/>
<path d="M304.674 33.2968C280.733 35.4268 273.843 41.3288 274.032 47.2974C274.265 54.8634 274.132 50.6256 274.132 50.6256C274.132 50.6256 279.934 54.2422 307.702 52.4117C334.217 50.6589 340.019 45.8663 340.019 45.8663C340.019 45.8663 340.174 45.2561 339.353 41.2623C338.532 37.2684 329.835 31.0447 304.674 33.2968Z" fill="#2C5777"/>
<path d="M339.354 41.2064C338.999 39.4868 337.135 37.379 333.219 35.6594C334.173 41.7722 325.675 44.2461 316.057 46.1099C307.071 47.8406 289.431 48.1845 274.055 46.3984C274.038 46.6866 274.038 46.9755 274.055 47.2637C274.055 48.8058 274.133 49.8486 274.155 50.5919C274.155 50.5919 279.957 54.2085 307.725 52.378C334.24 50.6252 340.042 45.8326 340.042 45.8326C340.042 45.8326 340.175 45.2002 339.354 41.2064Z" fill="#1F4060"/>
<path d="M305.561 41.3169C305.406 39.3644 301.823 38.6765 295.3 38.6876C289.242 38.6876 282.286 39.8858 282.076 42.6814C281.92 44.756 289.42 44.7893 296.032 44.2013C300.37 43.813 305.739 43.6133 305.561 41.3169Z" fill="#468CAF"/>
<path d="M325.208 39.4536C325.291 39.3606 325.365 39.2604 325.43 39.1542C325.707 38.7668 325.844 38.2972 325.82 37.8218C325.796 37.3465 325.612 36.8933 325.297 36.536C324.975 36.2482 324.587 36.0433 324.167 35.9389C323.748 35.8345 323.309 35.8338 322.89 35.9369C321.359 36.1477 318.885 37.2238 319.295 39.0321C319.301 39.4483 319.468 39.8459 319.761 40.1415L319.994 40.2968C320.219 40.4997 320.482 40.6561 320.767 40.757C321.053 40.8579 321.356 40.9014 321.658 40.8848C322.747 40.9606 323.825 40.6328 324.687 39.964C324.784 39.8962 324.877 39.8221 324.964 39.7421L325.053 39.6534L325.208 39.4536Z" fill="#468CAF"/>
<path d="M306.537 36.7794C309.527 36.4151 312.408 35.4368 315.002 33.9061C314.148 30.5779 310.331 15.5234 307.347 5.37247C305.217 -1.84969 297.063 -0.618265 296.664 6.61499L294.445 34.9933C298.006 36.9015 303.209 37.1899 306.537 36.7794Z" fill="#2C5777"/>
<path d="M306.538 36.7795C309.527 36.4151 312.409 35.4368 315.002 33.9061C314.148 30.5779 310.332 15.5234 307.347 5.37248C307.123 4.29488 306.618 3.2956 305.883 2.47556C305.149 1.65551 304.211 1.0437 303.165 0.701904C304.796 2.70991 305.328 6.95894 305.972 11.6406C306.649 16.5219 307.913 23.9548 305.683 26.6285C305.086 27.4413 304.322 28.1173 303.443 28.6113C302.563 29.1053 301.588 29.406 300.583 29.4932C299.578 29.5803 298.567 29.452 297.615 29.1167C296.664 28.7815 295.795 28.2472 295.066 27.5493L294.501 34.9933C298.006 36.9015 303.209 37.1899 306.538 36.7795Z" fill="#1F4060"/>
<path d="M302.632 14.6032C302.821 19.1406 301.878 20.4275 300.669 20.4719C299.459 20.5163 298.45 19.296 298.228 14.7585C298.006 10.2211 298.783 4.08612 300.003 4.04175C301.223 3.99737 302.455 10.0658 302.632 14.6032Z" fill="#468CAF"/>
<path d="M249.606 165.839C281.23 174.203 355.366 170.276 384.759 157.885C407.03 148.511 406.072 119.137 382.591 105.259C355.744 89.407 276.465 91.6589 248.333 111.826C225.205 128.388 228.18 160.148 249.606 165.839Z" fill="#121A26"/>
<path d="M388.911 110.364C396.882 120.065 396.743 132.549 394.296 139.654C388.583 156.329 360.951 160.145 320.846 163.423C285.243 166.327 249.501 165.876 235.552 155.185C236.898 157.714 238.834 159.971 241.235 161.812C243.637 163.652 246.452 165.036 249.501 165.876C281.144 174.169 355.326 170.276 384.737 157.99C404.852 149.619 406.013 125.202 388.911 110.364Z" fill="#273C56"/>
<path d="M264.555 139.733C263.842 134.848 268.944 128.789 275.655 127.753C282.691 126.726 289.109 131.136 289.913 136.412" stroke="#43E0BB" stroke-width="5" stroke-linecap="round" stroke-linejoin="round"/>
<path d="M363.122 131.861C362.772 126.102 357.398 121.425 350.61 121.139C343.514 120.808 338.123 125.194 337.558 131.296" stroke="#43E0BB" stroke-width="5" stroke-linecap="round" stroke-linejoin="round"/>
<path d="M373.002 75.0097C373.967 77.7721 376.907 79.4473 379.381 80.7009C381.855 81.9545 384.928 83.5631 387.657 82.3539C388.259 82.0823 388.799 81.6927 389.247 81.2081C389.695 80.7235 390.041 80.1539 390.265 79.533C390.488 78.9122 390.585 78.2527 390.549 77.5938C390.512 76.935 390.344 76.2901 390.054 75.6975C388.944 73.279 386.548 71.5927 384.351 70.2503C382.715 69.2239 380.853 68.611 378.926 68.4642C377.585 68.3498 376.242 68.6728 375.099 69.385C374.128 69.9099 373.38 70.7693 372.995 71.8036C372.609 72.838 372.612 73.9772 373.002 75.0097Z" fill="#346F93"/>
<path d="M445.334 296.035C443.393 298.253 439.987 300.86 435.205 303.49C433.749 304.295 432.136 304.776 430.477 304.899C428.818 305.021 427.152 304.783 425.593 304.2C424.035 303.617 422.622 302.703 421.45 301.521C420.279 300.34 419.378 298.918 418.808 297.355C409.112 270.075 382.198 252.291 353.354 256.163C328.404 259.491 309.111 278.14 302.987 301.803C301.037 309.042 296.62 315.373 290.498 319.701C284.377 324.03 276.937 326.085 269.462 325.511C235.98 323.026 214.225 317.324 206.858 312.121C206.858 312.121 207.901 333.809 208.412 341.231C208.412 341.653 208.877 347.999 208.988 348.354C209.676 358.815 247.762 372.483 330.268 370.641C398.418 369.11 447.808 346.39 447.12 334.253C447.12 334.087 445.334 296.035 445.334 296.035Z" fill="#121A26"/>
<path d="M400.703 277.375C405.556 283.339 409.706 289.842 413.073 296.756C415.735 302.303 418.476 306.352 425.276 305.997C426.552 305.919 429.514 305.165 430.734 304.887C428.209 305.016 425.706 304.357 423.572 303.002C421.438 301.646 419.777 299.661 418.819 297.321C409.334 270.629 383.319 253.045 355.24 255.93C376.918 255.963 390.785 265.315 400.703 277.375Z" fill="#273C56"/>
<path d="M391.203 312.394C391.345 292.444 376.71 276.167 358.513 276.037C340.316 275.907 325.449 291.973 325.306 311.922C325.164 331.871 339.799 348.149 357.996 348.279C376.193 348.409 391.06 332.343 391.203 312.394Z" fill="#273C56"/>
<path d="M368.112 347.685C386.042 344.575 397.813 326.119 394.403 306.463C390.994 286.807 373.695 273.394 355.766 276.504C337.836 279.614 326.065 298.069 329.475 317.725C332.884 337.381 350.183 350.795 368.112 347.685Z" fill="#2C5777"/>
<path d="M365.751 334.076C376.823 332.156 384.091 320.757 381.986 308.617C379.88 296.477 369.197 288.192 358.126 290.112C347.054 292.033 339.786 303.431 341.892 315.571C343.997 327.711 354.68 335.996 365.751 334.076Z" fill="#121A26"/>
<path d="M365.052 330.043C374.095 328.474 380.032 319.167 378.313 309.255C376.594 299.342 367.869 292.578 358.826 294.146C349.782 295.715 343.845 305.022 345.565 314.935C347.284 324.847 356.009 331.612 365.052 330.043Z" fill="#43E0BB"/>
<path d="M361.564 301.947C360.873 301.319 360.05 300.855 359.154 300.59C358.259 300.324 357.315 300.265 356.394 300.416C354.637 300.809 353.107 301.881 352.138 303.399C351.169 304.917 350.841 306.756 351.224 308.515C351.396 309.56 351.791 310.556 352.382 311.435C352.974 312.314 353.748 313.055 354.652 313.607C355.717 309.003 357.692 304.654 361.564 301.947Z" fill="#43E0BB"/>
<path d="M374.588 310.978C373.69 313.947 372.399 316.782 370.75 319.409C370.416 320.002 370.046 320.572 369.64 321.118C371.412 320.826 372.997 319.847 374.051 318.392C375.104 316.938 375.54 315.127 375.265 313.352C375.174 312.528 374.945 311.726 374.588 310.978Z" fill="#43E0BB"/>
<path d="M340.995 290.132C340.587 290.137 340.192 289.991 339.885 289.722C339.721 289.577 339.587 289.401 339.491 289.204C339.395 289.008 339.339 288.794 339.325 288.576C339.312 288.357 339.342 288.138 339.413 287.931C339.484 287.724 339.596 287.533 339.741 287.37C340.151 286.904 349.936 276.043 364.569 278.018C365.011 278.075 365.411 278.305 365.683 278.658C365.954 279.011 366.074 279.457 366.017 279.898C365.96 280.339 365.729 280.74 365.377 281.011C365.024 281.283 364.578 281.403 364.137 281.346C351.212 279.615 342.326 289.511 342.237 289.611C342.077 289.778 341.884 289.911 341.67 290.001C341.456 290.091 341.226 290.135 340.995 290.132Z" fill="#468CAF"/>
<path d="M377.029 334.031C376.754 334.029 376.485 333.96 376.243 333.831C376.002 333.701 375.795 333.515 375.642 333.288C375.396 332.921 375.306 332.472 375.392 332.04C375.477 331.607 375.731 331.226 376.097 330.98C383.252 326.187 383.862 317.867 383.862 317.778C383.889 317.337 384.09 316.924 384.421 316.631C384.751 316.337 385.185 316.187 385.626 316.214C386.068 316.24 386.48 316.441 386.774 316.772C387.067 317.103 387.217 317.537 387.191 317.978C386.889 321.114 385.91 324.148 384.322 326.87C382.735 329.591 380.575 331.936 377.994 333.742C377.71 333.937 377.373 334.038 377.029 334.031Z" fill="#346F93"/>
<path d="M135.007 207.437C135.007 217.853 124.899 221.304 114.483 221.304C104.067 221.304 95.6233 212.86 95.6233 202.444C95.6233 192.028 104.067 183.585 114.483 183.585C124.899 183.585 135.007 197.021 135.007 207.437Z" fill="#121A26"/>
<path d="M122.896 188.107C124.48 188.148 126.047 188.448 127.534 188.996C128.936 189.517 130.238 190.276 131.381 191.24C131.499 191.173 131.627 191.111 131.749 191.034C131.039 189.555 126.516 181.364 113.644 182.117C113.935 183.124 114.093 184.165 114.114 185.214C115.699 185.05 117.301 185.223 118.814 185.721C120.328 186.22 121.719 187.033 122.896 188.107Z" fill="#3276A0"/>
<path d="M110.55 210.6C121.538 205.973 128.37 197.291 125.809 191.21C123.248 185.128 112.263 183.949 101.275 188.577C90.2864 193.205 83.4546 201.886 86.0157 207.968C88.5768 214.049 99.561 215.228 110.55 210.6Z" fill="#121A26"/>
<path d="M125.19 211.131L134.821 202.798C136.836 201.057 138.411 198.865 139.419 196.401C140.427 193.937 140.839 191.27 140.622 188.616L136.529 163.203C135.16 154.705 131.886 149.11 124.088 148.022L96.472 144.106C90.3093 143.235 84.0339 143.621 78.0248 145.242C72.0156 146.864 66.3975 149.686 61.5098 153.54L59.942 154.772C54.0802 159.357 54.3847 167.767 57.1261 174.719L67.4224 206.726C69.7478 212.743 74.0243 213.668 80.4225 214.238L113.557 215.739C117.296 216.09 122.416 213.584 125.19 211.131Z" fill="#2C658C"/>
<path d="M103.077 175.662C91.8829 173.735 72.7358 171.176 61.7184 169.42C61.0241 169.306 60.3122 169.373 59.6514 169.614C58.9906 169.855 58.4031 170.263 57.9457 170.797C57.4882 171.332 57.1761 171.975 57.0397 172.665C56.9032 173.356 56.9469 174.069 57.1665 174.738L67.7095 205.449C68.4096 207.226 69.6043 208.764 71.1521 209.882C72.6999 211.001 74.5358 211.651 76.4423 211.758L109.717 213.584C110.715 213.638 111.713 213.464 112.634 213.075C113.555 212.686 114.375 212.094 115.033 211.341C115.691 210.589 116.169 209.696 116.431 208.731C116.693 207.767 116.733 206.755 116.546 205.773C115.16 198.348 113.271 190.844 111.921 184.246C111.483 182.091 110.404 180.118 108.826 178.587C107.248 177.055 105.245 176.036 103.077 175.662Z" fill="#294E6D"/>
<path d="M58.8599 179.963L59.0339 180.218C61.6921 184.784 64.7119 193.967 69.8961 194.87C73.083 195.416 76.1 196.693 78.7105 198.601C81.479 200.53 84.7308 204.027 88.0036 202.928C90.769 202.019 92.3508 199.515 94.5733 197.525C100.911 191.938 108.471 191.536 114.286 195.919L111.91 184.216C111.467 182.068 110.388 180.103 108.812 178.577C107.237 177.051 105.238 176.035 103.077 175.662C91.8824 173.735 72.7352 171.176 61.7178 169.42C61.0236 169.306 60.3117 169.373 59.6508 169.614C58.99 169.855 58.4026 170.263 57.9451 170.797C57.4876 171.332 57.1756 171.975 57.0391 172.665C56.9026 173.355 56.9463 174.069 57.166 174.737L58.8599 179.963Z" fill="#1F4060"/>
<path d="M124.327 148.087L86.9598 144.661C84.8547 144.362 82.7107 144.493 80.6577 145.046C78.6047 145.6 76.6854 146.564 75.0161 147.881L58.942 155.661C58.1805 156.264 57.6151 157.08 57.3171 158.005C57.0191 158.93 57.002 159.923 57.2679 160.857C57.5339 161.792 58.0709 162.626 58.8111 163.256C59.5514 163.886 60.4616 164.281 61.4268 164.394C74.1462 165.902 90.0491 169.009 100.006 171.084C106.141 172.364 113.993 171.967 118.784 167.93C122.003 165.148 124.838 161.952 127.216 158.424C129.919 153.481 129.378 148.803 124.327 148.087Z" fill="#3276A0"/>
<path d="M125.739 199.627C120.607 199.572 116.497 194.108 116.559 187.407C116.622 180.707 120.85 175.321 125.967 175.356C131.083 175.391 136.195 182.007 136.132 188.707C136.171 190.108 135.933 191.502 135.431 192.81C134.929 194.118 134.173 195.314 133.207 196.329C132.241 197.344 131.084 198.157 129.803 198.723C128.521 199.289 127.14 199.597 125.739 199.627Z" fill="#121A26"/>
<path d="M102.397 164.421C100.238 161.209 102.371 155.812 107.227 152.542C112.084 149.273 122.972 147.836 125.126 151.057C127.281 154.279 122.209 160.356 117.333 163.666C112.458 166.976 104.606 167.656 102.397 164.421Z" fill="#121A26"/>
<path d="M96.1671 161.403C101.044 158.082 103.283 152.873 101.169 149.769C99.0549 146.665 93.3877 146.841 88.511 150.162C83.6343 153.483 81.3947 158.692 83.509 161.796C85.6232 164.901 91.2904 164.725 96.1671 161.403Z" fill="#121A26"/>
<path d="M78.6568 158.07C82.5344 154.612 83.8928 149.807 81.6906 147.338C79.4885 144.868 74.5597 145.67 70.682 149.128C66.8043 152.586 65.4462 157.392 67.6483 159.861C69.8505 162.33 74.7791 161.529 78.6568 158.07Z" fill="#121A26"/>
<path d="M80.4761 165.065C83.3801 167.561 91.0475 157.803 90.7258 151.24C90.404 144.676 90.0888 143.814 82.0016 140.956C72.8357 137.758 53.4737 135.858 46.1979 139.722C38.922 143.587 41.2812 152.248 51.681 153.65C63.3102 155.23 74.1224 159.591 80.4761 165.065Z" fill="#3276A0"/>
<path d="M90.6863 151.221C90.3097 144.644 90.0493 143.795 81.9621 140.937C75.1085 138.837 67.9955 137.704 60.8286 137.57C61.1224 138.3 61.268 139.082 61.257 139.869C61.2459 140.656 61.0785 141.432 60.7643 142.154C60.4502 142.876 59.9956 143.528 59.4271 144.072C58.8585 144.617 58.1874 145.042 57.4528 145.325C55.3575 146.246 53.0233 146.403 50.949 147.383C48.3437 148.602 47.9428 150.118 47.0351 152.34C48.4991 152.993 50.0512 153.428 51.6416 153.631C63.3251 155.2 74.1373 159.561 80.491 165.035C83.3808 167.562 91.0529 157.794 90.6863 151.221Z" fill="#2C658C"/>
<path opacity="0.6" d="M90.6866 151.221C90.31 144.643 90.0496 143.795 81.9625 140.937C75.5192 138.963 68.8414 137.857 62.1057 137.648C63.3979 140.436 63.598 143.687 61.5324 146.071C59.6511 148.248 56.726 148.873 54.0317 149.374C51.0951 149.92 49.687 150.222 48.6458 152.957C49.6171 153.273 50.6149 153.5 51.6271 153.636C63.3106 155.205 74.1228 159.566 80.4765 165.04C83.3811 167.561 91.0532 157.794 90.6866 151.221Z" fill="#1F4060"/>
<path d="M86.4822 160.744C82.4722 158.164 78.1744 156.061 73.6761 154.479C70.549 153.46 64.8499 151.393 61.4354 152.35C59.3679 152.928 60.153 154.197 61.0096 155.574C68.6207 157.961 74.0322 160.53 78.7204 164.624C80.9627 166.548 85.1338 165.213 86.8182 160.916C86.7014 160.869 86.5889 160.811 86.4822 160.744Z" fill="#2C5777"/>
<path d="M50.1553 144.713C51.9611 144.282 53.1539 142.797 52.8195 141.396C52.4852 139.996 50.7502 139.21 48.9445 139.641C47.1387 140.072 45.946 141.557 46.2803 142.958C46.6147 144.358 48.3496 145.144 50.1553 144.713Z" fill="#4FA0BF"/>
<path d="M94.5528 165.473C96.7998 169.586 108.267 161.006 110.106 153.074C111.945 145.141 111.952 144.015 104.302 137.495C95.6467 130.118 75.7256 120.241 66.6699 121.983C57.6141 123.724 57.1809 134.904 67.758 140.639C79.6399 147.092 89.7164 156.52 94.5528 165.473Z" fill="#3276A0"/>
<path d="M110.107 153.074C111.936 145.137 111.953 144.015 104.302 137.496C98.2852 132.721 91.6359 128.803 84.5439 125.853C84.4944 126.462 84.37 127.063 84.1734 127.642C82.1191 133.519 75.5084 133.475 70.4064 132.71C68.3137 132.257 66.1839 131.998 64.0438 131.936C61.8971 132.034 61.8894 133.369 61.5774 135.112C63.1355 137.449 65.2625 139.351 67.7584 140.639C79.6403 147.092 89.6967 156.51 94.5532 165.473C96.8002 169.586 108.263 161.017 110.107 153.074Z" fill="#2C658C"/>
<path opacity="0.6" d="M110.107 153.074C111.936 145.137 111.953 144.015 104.302 137.496C98.4938 132.877 92.0865 129.066 85.2552 126.166C85.1052 127.966 84.4455 129.687 83.3533 131.125C82.2611 132.564 80.7816 133.662 79.088 134.291C77.6764 134.829 76.2005 135.181 74.6977 135.338C73.8316 135.454 69.1461 135.157 68.6932 135.827C67.2188 138 75.2338 142.433 76.5829 143.626C77.0154 143.996 77.3146 144.497 77.4343 145.053C77.5541 145.609 77.4879 146.189 77.2458 146.704C84.8585 152.346 91.048 159.019 94.5533 165.473C96.8004 169.586 108.263 161.017 110.107 153.074Z" fill="#1F4060"/>
<path d="M102.397 162.713C99.0622 158.134 95.2128 153.953 90.9245 150.252C87.9275 147.822 82.5819 143.122 78.6277 142.914C76.2332 142.784 76.6213 144.553 77.089 146.568C84.3579 152.39 89.2124 157.582 92.841 164.242C94.5629 167.418 99.4275 167.493 102.697 163.04C102.63 162.947 102.489 162.83 102.397 162.713Z" fill="#2C5777"/>
<path d="M69.239 130.084C71.2832 130.452 73.1981 129.318 73.5161 127.551C73.8341 125.784 72.4347 124.054 70.3905 123.686C68.3463 123.318 66.4313 124.452 66.1133 126.219C65.7953 127.985 67.1948 129.716 69.239 130.084Z" fill="#4FA0BF"/>
<path d="M100.713 165.046C100.753 169.719 114.912 167.551 120.261 161.408C125.609 155.266 126.11 154.263 122.472 144.933C118.297 134.354 105.371 116.29 96.5567 113.541C87.7423 110.792 82.108 120.484 88.748 130.527C96.2063 141.769 100.634 154.79 100.713 165.046Z" fill="#3276A0"/>
<path d="M99.5836 130.184C92.6015 121.869 85.267 125.288 88.762 130.497C96.2747 141.729 99.7068 152.889 99.7854 163.12C99.8309 167.808 107.849 169.7 113.198 163.557C113.567 163.193 108.386 140.664 99.5836 130.184Z" fill="#2C658C"/>
<path d="M108.94 166.263C108.155 160.653 106.725 155.152 104.677 149.87C103.181 146.322 100.664 139.649 97.2727 137.609C95.218 136.375 94.7677 138.151 94.1922 140.113C97.8791 148.668 99.7256 155.538 99.7851 163.119C99.8238 166.736 104.085 169.091 109.068 166.693C109.018 166.552 108.975 166.409 108.94 166.263Z" fill="#2C5777"/>
<path d="M98.0518 121.817C99.1633 120.407 98.7421 118.222 97.111 116.936C95.4799 115.65 93.2565 115.751 92.1451 117.16C91.0336 118.57 91.4549 120.755 93.086 122.041C94.7171 123.327 96.9403 123.227 98.0518 121.817Z" fill="#4FA0BF"/>
<rect x="-1.10436" y="1.81119" width="83.5328" height="136.784" rx="9.5" transform="matrix(-0.971848 0.23561 0.23561 0.971848 82.4169 66.3)" fill="#26A0DF" stroke="black" stroke-width="3"/>
<path d="M136.318 175.101C133.116 168.913 124.39 156.848 107.152 158.13C89.9141 159.413 84.6842 169.469 91.3592 176.593C96.0312 181.6 108.4 173.166 117.482 192.757C120.86 200.048 132.061 198.882 135.937 191.316C138.419 186.452 138.359 179.103 136.318 175.101Z" fill="#3276A0"/>
<path d="M135.937 191.316C136.625 189.918 137.119 188.434 137.406 186.904C137.091 187.202 136.76 187.484 136.416 187.748C126.195 195.642 117.276 180.648 115.873 172.146C115.425 169.515 115.514 166.821 116.134 164.226C116.43 162.443 117.11 160.747 118.127 159.253C114.57 158.203 110.848 157.822 107.152 158.131C89.9142 159.413 84.6843 169.469 91.3593 176.594C96.0313 181.6 108.4 173.166 117.482 192.757C120.86 200.048 132.062 198.883 135.937 191.316Z" fill="#2C658C"/>
<path d="M125.11 195.778C120.364 192.013 119.933 185.397 115.749 181.249C110.548 176.065 105.252 177.492 98.8138 178.119C97.1831 178.282 95.5398 178.276 93.9105 178.1C99.6121 179.8 109.778 176.056 117.552 192.815C119.451 196.91 123.822 198.335 127.973 197.457C126.94 197.044 125.975 196.478 125.11 195.778Z" fill="#2C5777"/>
<path d="M132.017 174.642C131.536 172.216 130.212 170.038 128.279 168.495C127.694 168.042 127 167.749 126.267 167.647C125.534 167.544 124.786 167.635 124.099 167.91C123.491 168.16 122.965 168.575 122.579 169.108C122.194 169.641 121.965 170.271 121.917 170.927C121.579 172.321 121.707 173.787 122.28 175.103C123.192 177.268 124.804 179.433 127.287 179.74C127.964 179.838 128.654 179.77 129.299 179.542C129.943 179.314 130.523 178.933 130.989 178.431C131.454 177.93 131.79 177.323 131.969 176.663C132.148 176.003 132.165 175.31 132.017 174.642Z" fill="#468CAF"/>
<path d="M106.358 167.615C106.627 167.205 106.802 166.741 106.871 166.256C106.941 165.771 106.902 165.276 106.757 164.808C106.7 164.266 106.509 163.746 106.203 163.294C105.897 162.843 105.485 162.473 105.003 162.218C103.433 161.387 100.892 161.617 98.7262 162.505C98.4587 162.578 98.1953 162.666 97.9376 162.769C96.7532 163.211 95.743 164.023 95.0567 165.085C94.6906 165.741 94.5754 166.508 94.7327 167.242C94.89 167.977 95.3093 168.629 95.912 169.077C97.6681 171.25 101.298 170.407 103.519 169.583C104.644 169.232 105.635 168.545 106.358 167.615Z" fill="#3276A0"/>
<rect x="28.8752" y="126.815" width="48.8134" height="48.8134" rx="13" transform="rotate(-15.1628 28.8752 126.815)" fill="#26A0DF"/>
<path d="M67.4698 131.793L68.5666 151.933C68.6239 153.36 67.9154 153.911 66.6083 153.586L59.189 150.731L56.976 154.395C56.7343 154.813 56.5326 155.162 55.8951 155.335L54.6426 148.95L63.3239 135.539C63.7034 134.963 63.0291 134.882 62.4826 135.505L50.7039 148.223L44.0829 147.979C42.6433 147.927 42.3732 147.025 43.8305 145.95L65.2362 130.335C66.2305 129.623 67.3757 130.017 67.4701 131.794L67.4698 131.793Z" fill="white"/>
</svg>
