<svg width="442" height="358" viewBox="0 0 442 358" fill="none" xmlns="http://www.w3.org/2000/svg">
<path d="M442 217.662C442 204.407 431.255 193.662 418 193.662H332.384C315.263 193.662 301.384 207.541 301.384 224.662V262.902C301.384 267.32 304.966 270.902 309.384 270.902H434C438.418 270.902 442 267.32 442 262.902V217.662Z" fill="#CB2919"/>
<path d="M442 224.662C442 207.541 428.121 193.662 411 193.662H332.384C315.263 193.662 301.384 207.541 301.384 224.662V228.321H442V224.662Z" fill="#F55949"/>
<path d="M365.75 224.662C365.75 207.541 351.871 193.662 334.75 193.662H332.384C315.263 193.662 301.384 207.541 301.384 224.662V270.902H365.75V224.662Z" fill="#FBD2CE"/>
<path d="M361.79 225.845C361.79 210.258 349.154 197.623 333.567 197.623C317.981 197.623 305.345 210.258 305.345 225.845V266.941H361.79V225.845Z" fill="#636363"/>
<path d="M301.384 317.141C301.384 334.262 315.263 348.141 332.384 348.141L334.751 348.141C351.872 348.141 365.751 334.262 365.751 317.141L365.751 270.902L301.384 270.902L301.384 317.141Z" fill="#FBD2CE"/>
<path d="M333.567 197.623C361.79 197.623 361.79 225.725 361.79 225.725V266.941H338.657L305.345 225.725C305.345 225.725 305.345 197.623 333.567 197.623Z" fill="#3A3A3A"/>
<rect width="11.883" height="143.587" transform="matrix(-1 0 0 1 389.517 270.902)" fill="#AD650E"/>
<path d="M396.448 161.973H393.546C389.68 161.973 386.546 165.107 386.546 168.973V243.174C386.546 245.909 388.762 248.125 391.497 248.125C394.231 248.125 396.448 245.909 396.448 243.174V161.973Z" fill="#636363"/>
<path d="M435.068 174.847L396.448 161.983L396.448 187.711L435.068 174.847Z" fill="#F55949"/>
<path d="M80.5389 300.227C96.383 315.418 106.791 330.727 113.514 345.432C114.574 347.73 112.732 349.027 111.841 349.482C111.623 349.69 110.97 350.7 111.108 350.879C111.019 351.294 111.385 351.75 111.811 351.532C111.855 351.573 111.906 351.605 111.962 351.625C112.018 351.646 112.078 351.655 112.138 351.651C112.203 351.755 112.291 351.843 112.395 351.908C112.45 352.011 112.528 352.1 112.622 352.169C112.717 352.238 112.825 352.284 112.94 352.304C113.121 352.425 113.338 352.477 113.554 352.453C114.485 352.21 115.292 351.632 115.822 350.829C118.331 357.118 120.319 363.603 121.763 370.218C121.851 370.841 121.74 371.475 121.444 372.031C121.149 372.586 120.685 373.033 120.119 373.308C118.713 374.199 119.604 374.11 118.614 375.447C118.515 375.575 118.683 375.754 118.822 375.714C119.599 375.496 120.319 375.11 120.931 374.585C121.028 374.724 121.173 374.823 121.337 374.862V374.862C121.365 374.9 121.399 374.934 121.436 374.961C121.456 375.035 121.494 375.103 121.547 375.159C121.599 375.214 121.664 375.256 121.737 375.281C121.809 375.305 121.887 375.312 121.962 375.299C122.037 375.287 122.109 375.256 122.169 375.209C122.349 375.097 122.507 374.952 122.635 374.783C123.942 382.188 124.605 389.693 124.615 397.212C124.549 397.625 124.391 398.017 124.153 398.36C123.914 398.702 123.602 398.987 123.239 399.193C122.993 399.359 122.758 399.541 122.535 399.738V399.797L122.456 399.856C122.311 399.999 122.155 400.131 121.991 400.253C121.869 400.355 121.79 400.499 121.77 400.657C121.75 400.815 121.79 400.974 121.882 401.104C121.877 401.163 121.877 401.223 121.882 401.282C121.901 401.411 121.946 401.535 122.013 401.647C122.081 401.758 122.169 401.855 122.274 401.933C122.379 402.01 122.498 402.066 122.624 402.097C122.751 402.128 122.882 402.134 123.011 402.114C123.622 401.97 124.179 401.654 124.615 401.203C124.467 407.036 123.991 412.452 123.387 417.374C123.07 419.81 119.357 421.048 118.198 421.137C117.606 421.128 117.033 421.352 116.604 421.761C116.426 421.834 116.267 421.945 116.135 422.084C116.003 422.224 115.902 422.39 115.838 422.571C115.775 422.752 115.75 422.945 115.766 423.136C115.782 423.328 115.838 423.514 115.931 423.682C116.545 424.831 118.109 424.732 119.189 424.534C120.501 424.123 121.701 423.415 122.694 422.464C122.239 425.504 121.704 428.772 121.268 431.307C120.723 434.515 119.971 438.922 119.931 440.318H58.1789C58.3455 434.352 59.008 428.41 60.1594 422.553C60.3971 422.741 60.6052 423.088 60.8231 423.197C61.3185 423.424 61.8573 423.542 62.4025 423.542C62.9477 423.542 63.4865 423.424 63.9819 423.197C65.4194 423.216 66.8389 422.876 68.1112 422.206C68.1236 422.2 68.134 422.19 68.1412 422.177C68.1484 422.165 68.1521 422.151 68.1521 422.137C68.1521 422.123 68.1484 422.109 68.1412 422.097C68.134 422.085 68.1236 422.075 68.1112 422.068C66.3485 421.642 65.5168 421.89 63.7443 421.266C61.9717 420.642 60.7733 419.285 60.8625 418.424C61.5755 414.176 62.2489 409.828 62.645 405.303C62.9615 405.485 63.2927 405.641 63.6352 405.768L63.8332 405.857C63.8667 405.975 63.9247 406.084 64.0032 406.178C64.0817 406.272 64.179 406.348 64.2889 406.402C64.5552 406.546 64.8546 406.617 65.1571 406.608C65.4596 406.6 65.7544 406.511 66.012 406.353C66.1799 406.292 66.3369 406.205 66.4774 406.095C66.6174 405.954 66.7076 405.772 66.7344 405.575C66.7612 405.379 66.7231 405.179 66.6258 405.006C66.5257 404.834 66.3677 404.704 66.1802 404.639C65.7809 404.35 65.3255 404.148 64.8433 404.045C63.0906 403.619 62.8628 402.392 62.8628 402.065C63.2066 396.398 62.8742 390.71 61.8725 385.121C62.1102 385.201 62.3875 385.498 62.6152 385.518C62.7258 385.53 62.8379 385.519 62.9438 385.485C63.0497 385.451 63.1469 385.394 63.2293 385.32H63.3976C63.5583 385.304 63.7083 385.231 63.8207 385.115C63.9331 384.999 64.0007 384.847 64.0116 384.686C64.0451 384.663 64.0737 384.634 64.0958 384.6C64.1179 384.566 64.133 384.528 64.1403 384.488C65.2196 384.643 66.3198 384.427 67.2597 383.874C67.3785 383.804 66.6456 383.398 66.6456 383.537C66.6456 383.676 65.7743 383.072 65.0019 382.775C64.081 382.428 61.0408 381.982 60.7438 380.289C59.6644 376.378 57.1392 370.387 55.7925 366.931C56.2084 366.871 56.8719 367.921 56.8521 367.455C56.8407 367.279 56.8039 367.106 56.7431 366.94C56.7898 366.804 56.783 366.654 56.7242 366.522C56.6655 366.39 56.559 366.285 56.4262 366.227C57.1551 366.218 57.8764 366.077 58.5553 365.812C58.579 365.812 58.6015 365.802 58.6182 365.785C58.6349 365.769 58.6443 365.746 58.6443 365.722C58.6443 365.699 58.6349 365.676 58.6182 365.659C58.6015 365.643 58.579 365.633 58.5553 365.633C57.0898 365.089 57.2679 364.722 55.6934 364.643C55.142 364.571 54.6139 364.376 54.1478 364.072C53.6817 363.769 53.2895 363.365 52.9999 362.89C48.7136 356.238 43.6287 350.135 37.8589 344.719L80.5389 300.227Z" fill="#2C5777"/>
<path d="M80.5391 300.227C96.3831 315.418 106.791 330.727 113.515 345.432C114.574 347.729 112.732 349.027 111.841 349.482C111.623 349.69 110.97 350.7 111.108 350.879C111.019 351.294 111.386 351.75 111.811 351.532C111.855 351.573 111.906 351.605 111.962 351.625C112.018 351.646 112.078 351.655 112.138 351.651C112.203 351.755 112.291 351.843 112.395 351.908C112.45 352.011 112.528 352.1 112.622 352.169C112.717 352.238 112.825 352.284 112.94 352.304C113.121 352.425 113.338 352.477 113.554 352.453C114.406 352.324 115.237 350.908 115.822 350.116C116.753 352.453 117.594 355.473 118.357 357.771C117.618 359.701 116.511 361.47 115.099 362.979C111.217 366.871 104.949 366.287 100.839 367.495C92.0161 370.089 86.5203 379.19 85.7875 388.241C85.1339 396.43 87.7679 404.659 87.6391 412.898C87.6472 419.243 86.8589 425.564 85.2924 431.713C84.5794 434.377 84.0148 437.526 82.985 440.358H64.0515C70.229 428.372 73.4221 415.073 73.3597 401.589C73.2805 394.242 72.6568 382.22 67.5372 376.655C65.9924 374.674 60.0904 373.308 58.298 373.308C57.0206 370.198 55.8225 367.554 55.6442 366.762C56.2186 366.604 56.8027 368 56.7829 367.535C56.7714 367.359 56.7347 367.185 56.6739 367.02C56.7205 366.883 56.714 366.733 56.6553 366.601C56.5965 366.469 56.4901 366.364 56.3572 366.307C57.0861 366.297 57.8072 366.156 58.4861 365.891C58.5098 365.891 58.5325 365.881 58.5492 365.865C58.5659 365.848 58.5753 365.825 58.5753 365.802C58.5753 365.778 58.5659 365.755 58.5492 365.739C58.5325 365.722 58.5098 365.713 58.4861 365.713C57.0205 365.168 57.1989 364.801 55.6244 364.722C55.073 364.65 54.5449 364.455 54.0788 364.151C53.6127 363.848 53.2205 363.444 52.9309 362.969C48.6446 356.317 43.5597 350.215 37.7899 344.798L80.5391 300.227Z" fill="#1F4060"/>
<path d="M58.4266 368.565C68.2004 367.911 90.8279 365.416 111.316 354.325C121.08 349.037 112.306 349.215 112.306 349.215C91.7191 362.484 67.6659 364.633 57.6148 364.633C56.8325 364.633 56.169 364.703 55.6343 364.722C55.6244 364.772 54.733 368.812 58.4266 368.565Z" fill="#121A26"/>
<path d="M108.346 184.258C113.352 181.786 119.135 181.401 124.425 183.189C129.714 184.977 134.078 188.792 136.558 193.794C139.508 198.752 143.06 203.326 147.134 207.41C147.134 207.47 146.5 208.292 146.51 208.321C146.678 209.213 147.5 208.193 147.342 209.223C147.243 209.797 147.243 210.302 147.906 210.045C148.358 209.868 148.849 209.818 149.327 209.9C149.806 209.982 150.252 210.193 150.619 210.51C153.74 213.197 157.049 215.655 160.522 217.868C160.522 217.868 160.522 218.333 160.522 218.373C161.116 218.887 160.759 218.491 160.908 219.284C160.997 219.759 160.759 220.432 161.126 220.274C161.732 220.013 162.388 219.887 163.048 219.904C163.708 219.921 164.356 220.081 164.948 220.373C168.756 222.17 172.653 223.773 176.623 225.176C176.98 225.364 176.316 225.908 176.623 226.077C177.109 226.344 176.812 225.849 177.247 226.186L177.673 226.819C177.772 227.126 177.921 227.334 178.307 227.196L178.475 227.136C179.653 226.759 180.916 226.731 182.11 227.057L183.694 227.453C185.724 227.948 189.883 228.394 191.834 228.661C192.467 228.919 191.071 228.879 191.725 229.038C192.19 229.147 192.715 229.325 193.131 229.473C193.269 229.551 193.42 229.604 193.576 229.632C193.794 229.79 193.943 230.038 194.22 229.978C194.938 229.382 195.853 229.078 196.785 229.127C201.322 229.23 205.858 228.899 210.332 228.136C210.51 228.136 211.916 229.622 212.085 229.374C212.711 228.42 213.578 227.648 214.6 227.136C217.689 226.245 224.819 224.274 224.819 224.274C224.819 224.274 237.94 220.165 244.743 240.435C252.824 264.469 235.831 270.143 235.831 270.143C233.071 271.304 230.244 272.296 227.364 273.114C225.558 273.643 223.621 273.506 221.908 272.728L221.779 272.658C221.779 272.658 221.71 272.807 221.68 272.837C221.304 273.216 220.954 273.62 220.63 274.045C220.224 274.47 221.403 274.045 220.878 274.322C220.878 274.322 220.69 274.807 220.67 274.807C213.006 276.377 205.211 277.219 197.389 277.322V277.322C196.586 277.323 195.792 277.157 195.056 276.837C194.32 276.517 193.658 276.048 193.111 275.461L193.052 275.401C192.062 276.392 192.636 277.065 191.309 277.174C185.065 276.707 178.863 275.787 172.752 274.421C171.395 274.094 170.078 273.738 168.791 273.371C168.032 273.159 167.329 272.783 166.732 272.27C166.135 271.757 165.658 271.119 165.334 270.4C164.755 270.886 164.132 271.317 163.473 271.688C162.961 271.628 162.459 271.505 161.978 271.321C154.829 268.903 147.926 265.813 141.36 262.092C140.802 261.802 140.31 261.398 139.917 260.907C139.523 260.416 139.236 259.848 139.073 259.24C139.073 259.24 139.073 259.24 139.073 259.24C138.083 259.24 137.588 259.607 136.667 259.24C135.903 258.921 135.194 258.483 134.567 257.943C109.158 241.109 98.3242 219.799 97.7102 218.541C92.5609 208.084 97.9281 189.418 108.346 184.258Z" fill="#2C5777"/>
<path d="M188.813 241.475C174.692 241.475 166.681 237.633 160.225 233.227C155.056 229.701 151.61 226.067 150.471 223.116C148.213 217.175 149.659 214.204 154.778 213.837C156.61 215.224 158.581 216.61 160.562 217.858C160.562 217.858 160.562 218.323 160.562 218.363C161.156 218.878 160.799 218.482 160.948 219.274C161.037 219.749 160.799 220.423 161.165 220.264C161.772 220.003 162.428 219.877 163.088 219.894C163.748 219.911 164.396 220.071 164.988 220.363C168.793 222.159 172.687 223.761 176.653 225.166C177.02 225.354 176.356 225.899 176.653 226.067C177.138 226.334 176.841 225.839 177.277 226.176L177.703 226.81C177.802 227.117 177.95 227.325 178.337 227.186L178.505 227.127C179.683 226.749 180.946 226.722 182.139 227.047L183.723 227.444C185.753 227.939 189.912 228.384 191.863 228.652C192.497 228.909 191.101 228.869 191.754 229.028C192.22 229.137 192.745 229.315 193.161 229.464C193.299 229.541 193.45 229.595 193.606 229.622C193.824 229.78 193.973 230.028 194.25 229.969C194.968 229.373 195.883 229.069 196.815 229.117C199.072 229.176 201.578 229.117 203.945 228.939C205.064 231.791 202.42 242.347 188.813 241.475Z" fill="#468AAD"/>
<path d="M231.523 228.315C230.671 227.34 229.668 226.507 228.552 225.849C227.495 225.236 226.339 224.81 225.136 224.592L225.077 224.255C226.384 223.928 233.93 222.522 240.158 231.068C239.501 231.738 238.67 232.212 237.759 232.438C236.848 232.663 235.892 232.632 234.998 232.346C234.104 232.061 233.307 231.533 232.695 230.821C232.083 230.11 231.681 229.242 231.533 228.315H231.523Z" fill="#468AAD"/>
<path d="M108.346 184.258C113.352 181.786 119.135 181.401 124.425 183.189C129.714 184.977 134.078 188.792 136.558 193.794C139.468 198.718 142.977 203.261 147.005 207.321C141.846 213.55 138.222 224.611 148.243 237.207C154.482 245.04 167.107 252.061 176.267 254.735C182.317 256.487 187.784 256.072 193.676 256.072C217.194 256.072 211.758 248.031 213.342 236.871C213.685 233.929 214.575 231.078 215.966 228.463C217.343 224.502 218.729 224.393 224.502 227.305C224.943 227.554 225.29 227.94 225.49 228.405C225.69 228.87 225.733 229.388 225.611 229.879C224.621 232.791 222.344 234.949 221.264 237.98C220.383 240.475 219.7 242.515 220.274 245.189L220.878 245.486C221.104 245.357 221.358 245.284 221.618 245.271C221.878 245.258 222.138 245.307 222.376 245.413C222.614 245.519 222.824 245.679 222.988 245.881C223.153 246.083 223.268 246.321 223.324 246.575L223.67 247.238C224.567 248.435 225.207 249.804 225.552 251.259C225.819 252.081 226.017 252.923 226.265 253.744C233.143 251.309 239.715 248.086 245.852 244.139C246.601 246.979 246.974 249.906 246.961 252.843C245.955 254.206 245.237 255.759 244.852 257.408C244.743 257.577 244.664 257.715 244.614 257.804C243.872 258.527 243.188 259.329 242.386 260.003C242.386 259.914 240.039 261.488 239.703 261.696C239.366 261.904 238.762 262.221 238.287 262.478C238.782 263.399 239.217 264.35 239.703 265.142C239.831 265.356 239.912 265.595 239.94 265.843C239.968 266.091 239.942 266.342 239.864 266.579C239.786 266.815 239.658 267.033 239.488 267.216C239.318 267.398 239.111 267.542 238.881 267.638C238.376 270.232 231.949 271.718 231.949 271.718C231.743 271.603 231.548 271.47 231.365 271.321C229.941 270.186 228.258 269.419 226.467 269.089C224.676 268.759 222.831 268.876 221.096 269.43H220.967C205.767 274.124 188.219 273.46 172.841 269.569C170.86 269.034 168.81 268.46 166.82 267.865C152.131 263.368 138.377 256.253 126.219 246.862C114.455 237.633 104.127 225.403 95.9872 212.629C94.5217 202.162 99.6908 188.507 108.346 184.258Z" fill="#1F4060"/>
<path d="M143.767 207.826C144.47 207.539 146.737 206.925 147.322 207.608C147.78 208.334 147.985 209.19 147.906 210.044C138.994 213.5 116.01 224.749 118.198 247.921L114.564 248.268C112.257 223.779 133.379 212.143 143.767 207.826Z" fill="#121A26"/>
<path d="M139.113 259.201C138.331 259.457 137.488 259.457 136.706 259.201V259.201C135.944 258.914 135.597 256.963 135.597 256.151C135.706 239.208 143.361 229.83 148.302 224.849C151.238 221.788 154.748 219.335 158.631 217.63C159.012 217.459 159.437 217.413 159.847 217.498C160.256 217.583 160.627 217.796 160.908 218.105L161.037 218.284C161.286 218.913 161.351 219.6 161.225 220.264C157.345 221.945 153.836 224.374 150.897 227.414C146.144 232.167 138.637 242.436 139.113 259.201Z" fill="#121A26"/>
<path d="M165.374 270.401C165.374 270.401 164.552 271.718 163.631 271.668C163.105 271.549 162.62 271.292 162.227 270.923C161.834 270.554 161.546 270.086 161.393 269.569C158.766 257.513 160.677 244.912 166.761 234.177C168.538 230.995 170.888 228.168 173.693 225.839C174.136 225.482 174.661 225.24 175.221 225.135C175.781 225.029 176.358 225.064 176.901 225.235C177.06 225.292 177.212 225.365 177.356 225.453C177.633 225.651 177.862 225.908 178.025 226.207C178.188 226.505 178.281 226.837 178.297 227.176C178.297 227.176 178.297 227.176 178.297 227.176C175.406 228.592 172.356 231.722 169.88 236.009C166.904 241.164 164.975 246.855 164.201 252.756C163.428 258.658 163.827 264.654 165.374 270.401V270.401Z" fill="#121A26"/>
<path d="M183.436 247.585C184.099 241.485 185.823 235.316 189.091 230.751C189.804 229.761 191.12 228.493 192.319 228.661C192.432 228.671 192.545 228.691 192.655 228.721C193.335 228.941 193.962 229.298 194.497 229.771C190.922 232.355 188.001 239.366 187.061 247.961C186.07 256.755 187.249 268.48 193.111 275.391C193.111 275.391 192.804 277.174 191.645 277.174C191.066 277.087 190.515 276.862 190.041 276.517C189.567 276.172 189.183 275.718 188.922 275.193C183.664 267.37 182.475 256.309 183.436 247.585Z" fill="#121A26"/>
<path d="M204.964 242.465C205.251 238.446 206.108 234.489 207.509 230.711C208.163 229.057 210.371 227.503 211.47 228.384C211.74 228.67 211.953 229.007 212.094 229.374C210.708 231.741 209.014 236.425 208.559 242.772C208.103 249.12 208.638 263.884 221.798 272.638C221.798 272.638 221.888 274.074 221.085 274.619C220.283 275.163 218.283 274.312 217.273 273.52C204.717 263.667 204.489 249.05 204.964 242.465Z" fill="#121A26"/>
<path d="M-92.6266 288.622C-92.6266 288.453 -92.5473 288.285 -92.5076 288.117L-85.0807 252.141L-84.8728 251.15C-79.1393 226.137 -28.6362 215.373 28.3529 227.127C85.0251 238.772 126.982 268.262 123.041 293.405L122.645 295.385L115.446 330.42C115.393 330.75 115.333 331.08 115.267 331.41C110.059 356.761 59.2983 367.753 1.89331 355.959C-55.5117 344.165 -97.8353 313.972 -92.6266 288.622Z" fill="#2C5777"/>
<path d="M-14.1392 258.121L-11.614 258.428C-10.4257 258.577 -9.22735 258.696 -8.02914 258.824C-7.89051 258.824 -4.62263 259.191 -4.52361 259.171C1.68528 259.993 7.89419 261.152 14.0635 262.191C26.8708 264.436 39.579 267.119 52.1882 270.242C64.606 273.292 76.8719 276.873 88.986 280.986C95.0133 283.059 101.001 285.258 106.949 287.581C109.768 288.697 112.577 289.846 115.376 291.027C116.555 291.523 116.495 291.493 115.198 290.958L116.871 291.681C118.535 292.424 120.209 293.157 121.823 293.909C122.1 294.038 122.367 294.137 122.635 294.246L116.693 323.102C116.693 323.429 116.594 323.755 116.525 324.092C111.316 349.452 60.5558 360.434 3.14094 348.64C1.4179 348.284 -0.305321 347.918 -1.99865 347.531C-6.40546 346.537 -10.5665 344.664 -14.2332 342.025C-17.8999 339.387 -20.9971 336.035 -23.3394 332.173C-25.6817 328.31 -27.2212 324.014 -27.8659 319.543C-28.5106 315.071 -28.2472 310.516 -27.0915 306.149L-27.0026 305.832C-22.695 289.958 -18.1101 274.094 -14.1392 258.121Z" fill="#346F93"/>
<path d="M9.4885 318.904C-47.5402 307.179 -89.6656 277.392 -85.1203 252.141L-84.9124 251.15C-79.1393 226.137 -28.6362 215.373 28.3529 227.127C85.0251 238.772 126.982 268.262 123.041 293.405L122.645 295.385C116.347 319.983 66.1607 330.549 9.4885 318.904Z" fill="#468AAD"/>
<path d="M-79.6046 253.22L-79.4264 252.358C-77.6935 245.011 -70.6527 238.841 -59.0668 234.464C-47.7779 230.216 -32.9935 227.968 -16.3176 227.968C-1.67565 228.037 12.922 229.583 27.2536 232.583C53.9013 238.059 78.0438 247.714 95.2346 259.765C110.841 270.658 119 282.541 117.555 292.335V292.424L117.228 294.018V294.097C115.317 301.277 108.197 307.337 96.6407 311.625C85.3815 315.814 70.7158 318.022 54.2281 318.022C39.5855 317.954 24.9875 316.405 10.6569 313.397C-16.1691 307.892 -40.4204 298.157 -57.6706 286.007C-73.3166 274.956 -81.3178 263.003 -79.6046 253.22Z" fill="#121A26"/>
<path d="M-79.6045 253.219L-79.4263 252.358L-71.5043 213.817L-71.3261 212.946C-69.5931 205.598 -62.5524 199.429 -50.9664 195.062C-39.6775 190.804 -24.8929 188.556 -8.217 188.556C6.42552 188.624 21.0236 190.173 35.3542 193.18C62.0019 198.656 86.1442 208.302 103.335 220.353C118.941 231.295 127.101 243.129 125.655 252.932V253.012L125.328 254.606L117.595 292.305V292.394L117.268 293.988V294.067C115.357 301.247 108.237 307.307 96.6805 311.595C85.4213 315.784 70.7556 317.992 54.2679 317.992C39.6253 317.924 25.0273 316.375 10.6967 313.367C-16.1293 307.862 -40.3806 298.127 -57.6308 285.977C-73.3164 274.956 -81.3176 263.003 -79.6045 253.219Z" fill="#121A26"/>
<path d="M60.5948 297.881C48.0321 294.646 41.0509 279.586 45.0018 264.242C48.9527 248.899 62.3396 239.083 74.9023 242.318C87.465 245.553 94.4462 260.614 90.4953 275.957C86.5444 291.3 73.1575 301.116 60.5948 297.881Z" fill="#1F4060"/>
<path d="M63.3362 299.485C50.7735 296.25 43.7923 281.189 47.7432 265.846C51.694 250.503 65.0809 240.687 77.6436 243.922C90.2063 247.157 97.1876 262.217 93.2367 277.561C89.2858 292.904 75.8989 302.72 63.3362 299.485Z" fill="#346F93"/>
<path d="M90.8974 267.044C90.7138 267.073 90.5261 267.066 90.3454 267.022C90.1648 266.978 89.9947 266.898 89.8452 266.787C89.6958 266.677 89.5702 266.537 89.4753 266.377C89.3805 266.217 89.3186 266.04 89.2933 265.856C88.9994 263.456 88.3312 261.117 87.3128 258.924C85.0055 253.973 81.1435 250.537 76.42 249.328C75.1913 249.009 73.9265 248.849 72.657 248.853C69.207 248.905 65.8502 249.981 63.0119 251.943C62.7237 252.133 62.3743 252.209 62.033 252.154C61.6918 252.099 61.3836 251.917 61.17 251.646V251.646C61.0588 251.495 60.9792 251.323 60.9359 251.14C60.8926 250.958 60.8866 250.769 60.918 250.584C60.9495 250.399 61.0178 250.222 61.1189 250.065C61.2201 249.907 61.3519 249.771 61.5067 249.665C63.7528 248.088 66.3087 247.008 69.0047 246.496C71.7007 245.983 74.4751 246.051 77.1429 246.694C82.6883 248.12 87.2136 252.081 89.8774 257.835C91.0022 260.278 91.7437 262.88 92.0757 265.549C92.1271 265.911 92.0346 266.278 91.818 266.573C91.6014 266.867 91.278 267.065 90.9172 267.123L90.8974 267.044Z" fill="#468AAD"/>
<path d="M55.6546 281.085C55.9196 281.021 56.1989 281.055 56.441 281.18C56.6831 281.306 56.8715 281.515 56.9715 281.769C58.6846 286.126 61.9228 289.433 66.2304 290.542C67.7401 290.928 69.309 291.026 70.8548 290.83C71.0227 290.805 71.194 290.819 71.3558 290.87C71.5176 290.921 71.6658 291.007 71.7895 291.124C71.9132 291.24 72.0091 291.382 72.0702 291.54C72.1312 291.699 72.1559 291.869 72.1422 292.038V292.038C72.111 292.289 71.9967 292.524 71.8173 292.703C71.6379 292.882 71.4037 292.997 71.152 293.028C70.5379 293.107 69.9192 293.147 69.3001 293.147C68.0809 293.147 66.8668 292.994 65.6857 292.691C60.6652 291.394 56.8627 287.542 54.8822 282.511C54.8239 282.363 54.7978 282.204 54.806 282.045C54.8142 281.886 54.8562 281.73 54.9293 281.589C55.0024 281.447 55.105 281.323 55.2301 281.224C55.3551 281.125 55.4999 281.054 55.6546 281.016V281.085Z" fill="#468AAD"/>
<path d="M67.2949 288.798C59.7622 287.072 55.3643 278.215 57.4716 269.013C59.579 259.812 67.3937 253.752 74.9264 255.477C82.4591 257.202 86.8571 266.06 84.7497 275.261C82.6423 284.462 74.8276 290.523 67.2949 288.798Z" fill="#121A26"/>
<path d="M67.5061 285.946C61.14 284.306 57.6022 276.675 59.6043 268.9C61.6063 261.125 68.39 256.151 74.7561 257.79C81.1222 259.43 84.66 267.061 82.6579 274.836C80.6559 282.611 73.8722 287.585 67.5061 285.946Z" fill="#43E0BB"/>
<path d="M79.7373 274.788C79.662 275.041 79.5022 275.261 79.2845 275.411C79.0668 275.561 78.8043 275.632 78.5406 275.613C78.2769 275.593 78.0279 275.484 77.8349 275.303C77.6419 275.122 77.5165 274.881 77.4795 274.619C77.2419 272.807 77.1331 270.658 76.9252 269.807C76.6521 268.619 76.0378 267.538 75.1581 266.695C74.2785 265.853 73.1717 265.285 71.9739 265.063C70.2905 264.647 68.508 264.677 68.508 263.42C68.508 262.162 72.3799 261.607 74.4495 262.132C78.8958 263.271 81.3811 268.599 79.975 274.015C79.8958 274.293 79.8166 274.54 79.7373 274.788Z" fill="#BCF8EA"/>
<path d="M67.5873 278.431C68.8647 279.62 70.3006 279.867 70.8155 280.412C71.5978 281.194 70.8155 281.858 69.8252 281.957C67.0327 282.244 64.0818 278.926 63.6163 276.015C63.4084 274.46 64.1513 273.5 65.0524 274.035C65.9535 274.569 65.9434 276.896 67.5873 278.431Z" fill="#BCF8EA"/>
<path d="M-76.9408 212.352L-76.723 211.283L-61.3146 136.4L-60.7203 133.518C-60.7203 133.3 -60.6214 133.082 -60.562 132.864C-60.3312 132.111 -60.0601 131.371 -59.7499 130.646C-50.1345 108.296 -1.89937 99.0968 52.2972 110.277C106.712 121.457 147.56 149.095 147.233 173.544C147.224 174.539 147.145 175.531 146.995 176.515L147.054 176.564L131.21 253.616L130.814 255.596C129.339 261.36 125.467 266.351 119.684 270.45L119.575 270.52C118.329 271.339 116.895 271.825 115.409 271.934C113.922 272.043 112.433 271.77 111.081 271.141C109.73 270.512 108.562 269.548 107.688 268.34C106.814 267.133 106.263 265.722 106.088 264.241C106.088 263.776 105.979 263.32 105.91 262.865C103.553 246.09 92.848 232.533 78.0041 230.117C44.8009 224.73 32.0266 261.894 29.9471 266.479C26.402 274.292 16.4105 279.521 -2.61231 274.065C-34.4787 264.925 -59.3538 249.546 -70.6724 233.91C-75.8712 226.641 -78.1489 219.323 -76.9408 212.352Z" fill="#2C5777"/>
<path d="M52.2967 110.277C108.969 121.922 150.926 151.422 146.985 176.564L146.589 178.545C140.291 203.202 90.1442 213.768 33.4323 202.123C-23.4973 190.428 -65.5928 160.71 -61.1961 135.498L-60.9389 134.231C-55.0172 109.286 -4.63296 98.5322 52.2967 110.277Z" fill="#468AAD"/>
<path d="M-57.6015 136.023L-57.4233 135.151V135.033C-55.532 127.041 -48.0654 120.377 -35.8457 115.762C-24.3389 111.425 -9.31668 109.137 7.59685 109.137C22.362 109.207 37.0823 110.766 51.5343 113.792C78.4395 119.327 102.839 129.091 120.248 141.291C136.478 152.669 144.915 165.225 143.38 175.752V175.821V175.92L143.044 177.544V177.613V177.713C140.944 185.565 133.409 192.091 121.258 196.616C109.781 200.875 94.8778 203.132 78.1623 203.132C63.3969 203.059 48.6764 201.496 34.2247 198.468C7.14122 192.903 -17.3675 183.06 -34.796 170.741C-51.1549 159.254 -59.4434 146.589 -57.6015 136.023Z" fill="#121A26"/>
<path d="M7.4779 206.401C10.8943 188.16 14.4097 169.94 18.6282 151.858C22.2327 136.36 26.9563 121.16 30.8579 105.751C35.9412 106.451 41.0937 107.339 46.3156 108.415C100.73 119.595 141.568 147.233 141.251 171.673C141.237 172.667 141.158 173.659 141.014 174.643C141.014 174.643 141.014 174.643 141.014 174.693L125.17 251.745L124.773 253.725C123.318 259.389 119.545 264.321 113.881 268.401L114.772 268.589C116.317 268.906 116.455 271.46 114.841 271.787C113.076 271.979 111.29 271.815 109.589 271.305C107.888 270.795 106.307 269.949 104.939 268.816C102.867 266.937 101.604 264.329 101.413 261.538C99.0567 244.763 86.8468 230.197 71.9336 228.276C40.3643 224.196 27.9267 260.954 25.8472 265.509C22.4803 272.936 11.5083 277.224 -5.84096 272.956C-0.622322 250.893 3.31884 228.563 7.4779 206.401Z" fill="#1F4060"/>
<path d="M-76.9408 212.352L-76.723 211.283L-61.3146 136.4L-60.7203 133.518C-60.7203 133.3 -60.6214 133.082 -60.562 132.864C-60.3312 132.111 -60.0601 131.371 -59.7499 130.646C-50.1345 108.296 -1.89937 99.0968 52.2972 110.277C106.712 121.457 147.56 149.095 147.233 173.544C147.224 174.539 147.145 175.531 146.995 176.515L147.054 176.564L131.21 253.616L130.814 255.596C129.339 261.36 125.467 266.351 119.684 270.45L119.575 270.52C118.329 271.339 116.895 271.825 115.409 271.934C113.922 272.043 112.433 271.77 111.081 271.141C109.73 270.512 108.562 269.548 107.688 268.34C106.814 267.133 106.263 265.722 106.088 264.241C106.088 263.776 105.979 263.32 105.91 262.865C103.553 246.09 92.8579 232.474 78.0041 230.117C44.9594 224.889 32.0266 261.894 29.9471 266.479C26.402 274.292 16.4105 279.521 -2.61231 274.065C-34.4787 264.925 -59.3538 249.546 -70.6724 233.91C-75.8712 226.641 -78.1489 219.323 -76.9408 212.352Z" fill="#2C5777"/>
<path d="M-16.258 224.403C-14.1092 213.56 -11.9801 203.043 -6.52376 197.577C3.8739 187.18 22.6887 192.438 24.6692 191.497C24.7187 191.497 5.08205 181.496 5.39893 181.357C6.01289 181.109 7.0724 180.664 7.31996 180.575C15.4004 177.386 23.5602 174.247 32.1259 172.653C32.3635 172.603 36.0867 172.078 35.4232 172.128L36.7701 171.969C39.117 171.722 41.4737 171.514 43.8206 171.326C48.247 170.979 52.6637 170.722 57.0802 170.335C66.5272 169.504 75.8949 168.474 85.4112 168.216C94.9906 167.938 104.578 168.196 114.129 168.989C123.038 169.632 131.883 170.983 140.578 173.029C142.765 173.51 145.017 173.627 147.243 173.375V173.465C147.234 174.459 147.154 175.452 147.005 176.435L147.064 176.485L131.22 253.537L130.824 255.517C129.349 261.28 125.477 266.271 119.694 270.371L119.585 270.44C118.339 271.259 116.905 271.746 115.419 271.855C113.932 271.963 112.442 271.69 111.091 271.061C109.74 270.432 108.571 269.468 107.697 268.261C106.824 267.053 106.273 265.642 106.098 264.162C106.098 263.696 105.989 263.241 105.919 262.785C103.563 246.011 92.8678 232.395 78.014 230.038C44.9693 224.809 32.0365 261.815 29.957 266.4C26.4119 274.213 16.5392 279.006 -2.60239 273.985C-29.0124 267.063 -19.001 238.267 -16.258 224.403Z" fill="#346F93"/>
<path d="M52.2967 110.277C108.969 121.922 150.926 151.422 146.985 176.564L146.589 178.545C140.291 203.202 90.1442 213.768 33.4323 202.123C-23.4973 190.428 -65.5928 160.71 -61.1961 135.498L-60.9389 134.231C-55.0172 109.286 -4.63296 98.5322 52.2967 110.277Z" fill="#468AAD"/>
<path d="M-57.6015 136.023L-57.4233 135.151V135.033C-55.532 127.041 -48.0654 120.377 -35.8457 115.762C-24.3389 111.425 -9.31668 109.137 7.59685 109.137C22.362 109.207 37.0823 110.766 51.5343 113.792C78.4395 119.327 102.839 129.091 120.248 141.291C136.478 152.669 144.915 165.225 143.38 175.752V175.821V175.92L143.044 177.544V177.613V177.713C140.944 185.565 133.409 192.091 121.258 196.616C109.781 200.875 94.8778 203.132 78.1623 203.132C63.3969 203.059 48.6764 201.496 34.2247 198.468C7.14122 192.903 -17.3675 183.06 -34.796 170.741C-51.1549 159.254 -59.4434 146.589 -57.6015 136.023Z" fill="#121A26"/>
<path d="M-59.4631 127.269L-59.2058 126.011L-55.5615 108.296C-52.8724 94.8089 -47.4623 82.0117 -39.6619 70.6855C-31.8614 59.3594 -21.8343 49.742 -10.1926 42.4208C1.44904 35.0996 14.4608 30.2281 28.0482 28.1039C41.6355 25.9796 55.5133 26.6472 68.834 30.0658V30.0658C103.859 38.8197 131.279 64.487 144.331 96.3237C144.668 97.1103 144.875 97.9464 144.945 98.7993C145.242 103.345 142.192 106.721 139.697 108.524C141.867 116.722 143.227 125.113 143.757 133.577C143.757 133.577 152.907 140.162 151.867 151.402C151.52 154.224 151.065 157.046 150.48 159.878L148.718 168.424L148.322 170.405C142.024 195.062 91.8772 205.628 35.1654 193.982C-21.7643 182.198 -63.84 152.491 -59.4631 127.269Z" fill="#2C5777"/>
<path d="M15.1231 76.6973C23.2333 67.1711 37.4632 56.8923 48.2371 58.7836C57.6643 60.4077 69.3098 62.002 80.7968 58.8728C87.2829 57.1101 84.0942 42.0385 86.8768 36.4138C115.446 48.1681 135.518 74.8158 144.312 96.3044C144.65 97.0941 144.857 97.9336 144.926 98.7899C145.223 103.325 142.173 106.712 139.677 108.504C141.848 116.702 143.208 125.094 143.737 133.558C143.737 133.558 152.887 140.143 151.847 151.382C151.501 154.204 148.689 165.721 148.689 165.721C142.401 190.388 92.1352 201.281 35.5422 189.299C1.54685 182.1 -8.90045 164.117 -8.90045 140.034C-8.88065 129.428 -1.89935 96.6608 15.1231 76.6973Z" fill="#346F93"/>
<path d="M51.0594 147.659C51.0594 162.136 59.0606 177.366 91.8875 177.366C125.774 177.366 151.6 165.364 151.956 148.956C152.313 132.547 132.468 123.378 99.6512 122.665C66.8342 121.952 51.0792 131.24 51.0594 147.659Z" fill="#468AAD"/>
<path d="M54.0005 134.805L54.1096 134.577C57.0156 128.747 61.5862 123.91 67.243 120.679C72.8998 117.447 79.3882 115.967 85.8867 116.426C105.513 117.733 122.091 116.238 132.597 112.257C137.271 110.485 140.747 108.217 142.757 105.494L147.807 145.589C147.47 149.141 146.27 152.557 144.311 155.539C142.352 158.522 139.694 160.98 136.568 162.701C122.774 170.227 102.276 174.178 77.6479 170.959C56.5258 168.206 45.5439 152.194 53.8818 135.132L54.0005 134.805Z" fill="#121A26"/>
<path d="M223.677 247.822C220.88 238.452 222.819 229.6 228.007 228.052C233.195 226.503 239.668 232.844 242.465 242.214C245.262 251.584 243.323 260.435 238.135 261.984C232.947 263.533 226.474 257.192 223.677 247.822Z" fill="#121A26"/>
<path d="M58.3433 57.8022C40.8309 54.2042 27.7648 45.7852 29.1593 38.9977C30.5538 32.2102 45.8808 29.6246 63.3933 33.2226C80.9057 36.8205 93.9721 45.2396 92.5776 52.0271C91.1831 58.8146 75.8558 61.4002 58.3433 57.8022Z" fill="#121A26"/>
<path d="M31.0169 37.9882C29.7296 44.2664 42.0781 52.1092 58.5955 55.5057C75.113 58.9023 89.5606 56.5653 90.8479 50.2871C91.1549 48.8116 91.4322 42.3651 90.3528 40.8104C86.8374 35.7007 75.915 35.3739 63.2695 32.7794C50.624 30.185 40.2362 26.4022 34.9977 29.7096C33.3836 30.7098 31.314 36.5028 31.0169 37.9882Z" fill="#1F4060"/>
<path d="M62.6853 47.2673C62.2595 50.1787 61.8337 53.09 61.4376 56.0112C60.4968 55.8528 59.5562 55.6746 58.5957 55.4864C57.4272 55.2388 56.2785 54.9715 55.1397 54.6942C55.9616 51.971 56.6448 49.1785 57.2984 46.386C59.0808 46.7524 60.883 47.0495 62.6853 47.2673Z" fill="#2C5777"/>
<path d="M43.9601 41.3652C46.4489 42.8682 49.1084 44.0683 51.8821 44.94C50.9809 47.6038 50.1094 50.2775 49.2875 52.9512C46.2682 51.9391 43.34 50.6736 40.5338 49.1684C41.3062 47.3959 42.0289 45.6035 42.8112 43.9399L43.9601 41.3652Z" fill="#2C5777"/>
<path d="M76.9251 48.4258L76.9844 47.7326C81.7178 47.386 87.5703 45.7521 88.7091 40.5631C88.7664 40.295 88.8093 40.0239 88.8377 39.7511C88.929 39.6421 89.0117 39.5262 89.0852 39.4045C89.5662 39.8096 89.9923 40.2757 90.3528 40.7909C91.4322 42.3555 91.1549 48.7921 90.8479 50.2676C90.0755 54.0405 84.5501 56.3775 76.6776 56.9221C76.737 55.1892 76.7567 53.476 76.826 51.852C76.8656 50.7033 76.8855 49.5645 76.9251 48.4258Z" fill="#2C5777"/>
<path d="M60.0145 48.6094C44.3181 45.3845 32.5867 37.9367 33.8117 31.9742C35.0367 26.0117 48.7542 23.7925 64.4506 27.0173C80.147 30.2422 91.8784 37.69 90.6534 43.6525C89.4284 49.6149 75.7109 51.8342 60.0145 48.6094Z" fill="#1F4060"/>
<path d="M33.8193 31.9183C33.8689 31.6818 33.9385 31.4499 34.0272 31.2251C39.9687 32.3045 63.4674 38.9194 68.1414 35.81C68.4561 35.5856 68.6983 35.274 68.8381 34.9136C68.978 34.5533 69.0094 34.1599 68.9283 33.7819C68.8472 33.404 68.6572 33.058 68.3819 32.7867C68.1066 32.5153 67.7579 32.3305 67.3789 32.255C67.2469 32.186 67.1074 32.1329 66.963 32.0965C66.7667 31.9363 66.5416 31.8153 66.2996 31.74C60.4274 29.7595 54.4958 27.3631 48.4751 25.541C53.8374 25.3688 59.2007 25.8476 64.4477 26.967C80.1433 30.1853 91.8777 37.632 90.6498 43.5934C89.4219 49.5547 75.707 51.7828 60.0114 48.5446C44.3159 45.3065 32.5914 37.8796 33.8193 31.9183Z" fill="#346F93"/>
<path d="M33.839 31.8486C33.9281 34.1559 37.7406 37.3247 43.2761 40.2856C46.6231 42.068 54.4856 44.9596 64.9427 46.6529C87.7185 50.3367 90.5803 41.5234 90.1446 40.345C90.6813 41.3374 90.863 42.4833 90.6596 43.593C89.4416 49.5346 75.7167 51.7824 60.0212 48.5443C44.3257 45.3062 32.5912 37.8694 33.8191 31.908C33.8224 31.8873 33.8291 31.8672 33.839 31.8486V31.8486Z" fill="#468AAD"/>
<path d="M63.5173 38.2779C57.978 37.1398 53.8381 34.5105 54.2707 32.4052C54.7032 30.2998 59.5444 29.5157 65.0837 30.6538C70.623 31.7918 74.7626 34.4211 74.3301 36.5264C73.8975 38.6318 69.0566 39.416 63.5173 38.2779Z" fill="#121A26"/>
<path d="M57.0508 32.0469C57.0756 31.9363 57.1155 31.8296 57.1695 31.73L65.864 4.0029C67.6662 -1.77028 76.2616 0.041882 75.5487 6.07253L72.1323 34.8493C72.1425 34.9547 72.1425 35.0608 72.1323 35.1662C71.8056 36.7506 68.1714 37.3348 64.0123 36.4832C59.8532 35.6316 56.724 33.6016 57.0508 32.0469Z" fill="#2C5777"/>
<path d="M72.3204 33.1858C69.9735 34.5424 66.3096 34.4137 64.7549 33.1858C62.3585 31.3538 62.9131 28.4127 63.7647 24.0556C65.151 16.7773 68.3693 0.923309 68.3693 0.923309C71.5084 -0.611584 76.1032 1.53727 75.5684 5.99341L72.3204 33.1858Z" fill="#346F93"/>
<path d="M88.363 154.673C84.0444 154.123 81.2497 148.128 82.1207 141.281C82.9917 134.434 87.1987 129.329 91.5172 129.879C95.8357 130.428 98.6305 136.424 97.7594 143.27C96.8884 150.117 92.6815 155.222 88.363 154.673Z" fill="#43E0BB"/>
<path d="M133.988 147.279C130.815 146.875 128.948 140.998 129.819 134.151C130.69 127.304 133.969 122.081 137.143 122.485C140.316 122.889 142.183 128.766 141.312 135.613C140.441 142.46 137.162 147.683 133.988 147.279Z" fill="#43E0BB"/>
<path d="M71.6076 7.40969C70.5247 7.40969 69.6469 6.53185 69.6469 5.44898C69.6469 4.36612 70.5247 3.48828 71.6076 3.48828C72.6904 3.48828 73.5682 4.36612 73.5682 5.44898C73.5682 6.53185 72.6904 7.40969 71.6076 7.40969Z" fill="#468AAD"/>
<path d="M67.7557 28.6105C68.273 28.6965 68.8032 28.5738 69.2302 28.2693C69.6571 27.9649 69.9458 27.5035 70.0331 26.9865L72.0136 12.6377C72.1918 11.5583 71.8355 10.469 70.9344 10.3502C70.2016 10.2413 69.4092 10.5086 69.0626 11.9841L66.0919 26.3329C66.0497 26.5919 66.0594 26.8567 66.1204 27.1119C66.1814 27.3672 66.2925 27.6077 66.4473 27.8197C66.6021 28.0316 66.7976 28.2106 67.0222 28.3464C67.2468 28.4821 67.4961 28.5719 67.7557 28.6105V28.6105Z" fill="#468AAD"/>
<path d="M0.226234 54.0316C-1.17891 51.2857 1.17877 47.2702 5.49235 45.0628C9.80592 42.8554 14.4419 43.2921 15.8471 46.038C17.2522 48.7839 14.8944 52.7992 10.5808 55.0066C6.26725 57.2139 1.63137 56.7775 0.226234 54.0316Z" fill="#346F93"/>
<path d="M103.01 85.3066C98.6387 80.0579 97.8032 73.5472 101.144 70.7647C104.485 67.9822 110.737 69.9814 115.109 75.2302C119.48 80.4789 120.316 86.9896 116.975 89.7721C113.634 92.5546 107.382 90.5554 103.01 85.3066Z" fill="#468AAD"/>
<path d="M127.021 197.667C128.518 197.15 129.953 196.469 131.299 195.637C132.254 195.004 133.176 194.323 134.062 193.597C135.544 192.753 136.935 191.758 138.211 190.626C138.211 190.775 138.211 190.914 138.211 191.052L126.833 246.298C126.577 247.545 125.837 248.638 124.774 249.338C123.712 250.038 122.415 250.288 121.169 250.032C119.923 249.776 118.83 249.035 118.129 247.973C117.429 246.911 117.18 245.614 117.436 244.368L127.021 197.667Z" fill="#468AAD"/>
<path d="M102.275 315.457C104.28 314.419 106.155 313.145 107.86 311.664L108.117 311.456C109.999 310.149 111.89 308.901 113.702 307.495L109.286 329.003C109.03 330.25 108.289 331.343 107.227 332.043C106.164 332.743 104.868 332.993 103.622 332.737C102.375 332.481 101.282 331.74 100.582 330.678C99.8815 329.615 99.6322 328.319 99.8883 327.072L102.275 315.457Z" fill="#468AAD"/>
<path d="M68.9335 206.331C75.1106 206.65 81.304 206.319 87.4115 205.341C90.5704 205.152 93.7294 204.885 96.8784 204.479L95.0464 214.797C94.3974 218.331 92.3791 221.466 89.4302 223.519C86.4814 225.572 82.841 226.377 79.3014 225.76V225.76C75.7557 225.122 72.6063 223.107 70.5412 220.155C68.4761 217.203 67.6633 213.554 68.28 210.005L68.9335 206.331Z" fill="#468AAD"/>
<path d="M48.8815 322.003C54.6745 321.785 60.4972 321.478 66.2902 321.013C68.3221 320.925 70.3481 320.733 72.3604 320.438L75.5886 320.072C76.0243 320.072 76.4502 319.943 76.876 319.874L74.1627 335.213C73.9368 337.045 73.34 338.812 72.409 340.406C71.478 342 70.2323 343.388 68.7475 344.485C67.2627 345.581 65.57 346.364 63.7728 346.786C61.9755 347.207 60.1114 347.258 58.2937 346.936C56.4761 346.614 54.7431 345.924 53.2006 344.91C51.658 343.896 50.3381 342.579 49.3213 341.038C48.3044 339.498 47.6117 337.766 47.2859 335.949C46.96 334.132 47.0077 332.268 47.4258 330.469L48.8815 322.003Z" fill="#468AAD"/>
<path d="M21.0156 119.744C22.5428 119.743 24.028 119.243 25.2452 118.321C26.4625 117.398 27.3452 116.104 27.7593 114.634C31.2853 102.787 38.6099 92.4277 48.6042 85.1541C50.1708 84.1508 51.2748 82.5664 51.6731 80.7492C52.0715 78.932 51.7316 77.0311 50.7283 75.4645C49.7251 73.8979 48.1406 72.794 46.3234 72.3956C44.5063 71.9973 42.6054 72.3371 41.0388 73.3404C28.112 82.4267 18.6618 95.6414 14.2424 110.812C13.9508 111.854 13.9041 112.95 14.1063 114.014C14.3085 115.078 14.754 116.08 15.408 116.943C16.0619 117.806 16.9065 118.506 17.8759 118.989C18.8453 119.471 19.9133 119.723 20.996 119.724L21.0156 119.744Z" fill="#468AAD"/>
<path d="M215.709 238.851L215.956 228.414C216.01 226.232 216.575 224.093 217.607 222.17C218.639 220.247 220.109 218.593 221.898 217.343L240.118 206.688C246.208 203.133 251.457 202.291 256.25 206.688L273.084 222.116C276.848 225.563 279.874 229.737 281.978 234.388C284.082 239.038 285.22 244.067 285.324 249.17V250.804C285.452 256.933 279.986 261.092 274.163 262.984L248.635 273.134C243.683 274.768 240.802 272.569 237.108 268.816L218.887 248.625C216.719 246.446 215.639 241.901 215.709 238.851Z" fill="#2C5777"/>
<path d="M249.724 234.385C256.784 240.465 268.38 251.22 275.243 257.319C275.674 257.701 276.001 258.186 276.191 258.73C276.382 259.273 276.429 259.857 276.33 260.424C276.231 260.991 275.988 261.523 275.624 261.97C275.26 262.416 274.788 262.762 274.252 262.974L249.318 272.312C247.83 272.795 246.235 272.841 244.722 272.445C243.208 272.048 241.841 271.225 240.782 270.074L222.284 249.952C221.726 249.348 221.314 248.624 221.078 247.837C220.843 247.049 220.79 246.218 220.925 245.407C221.06 244.596 221.378 243.826 221.856 243.157C222.333 242.488 222.957 241.936 223.68 241.545C229.146 238.574 234.84 235.831 239.722 233.256C241.309 232.415 243.113 232.072 244.898 232.274C246.682 232.475 248.365 233.211 249.724 234.385Z" fill="#1C4A66"/>
<path d="M270.044 264.628C269.962 264.623 269.879 264.623 269.797 264.628C265.519 265.321 262.657 264.826 259.379 262.023C257.379 260.294 255.007 259.05 252.447 258.389C249.754 257.627 247.942 257.25 246.902 254.587C246.04 252.368 246.01 249.942 244.862 247.793C242.475 243.317 236.871 239.208 231.087 237.822L239.742 233.237C241.33 232.393 243.136 232.049 244.923 232.251C246.71 232.452 248.394 233.189 249.754 234.366C256.814 240.446 268.41 251.2 275.272 257.3C275.704 257.681 276.031 258.167 276.221 258.71C276.412 259.254 276.459 259.837 276.36 260.404C276.261 260.971 276.018 261.504 275.654 261.95C275.29 262.397 274.818 262.742 274.282 262.954L270.044 264.628Z" fill="#1F4060"/>
<path d="M256.111 206.549L277.758 228.424C279.042 229.604 280.076 231.032 280.795 232.621C281.515 234.211 281.907 235.929 281.946 237.673L285.393 251.883C285.403 252.679 285.178 253.46 284.746 254.128C284.313 254.796 283.694 255.322 282.964 255.64C282.234 255.957 281.427 256.052 280.643 255.912C279.86 255.772 279.135 255.404 278.56 254.854C270.984 247.585 260.735 239.139 254.19 233.89C250.229 230.682 246.347 225.503 246.406 220.363C246.485 216.866 247.035 213.395 248.04 210.045C249.783 205.836 253.031 203.737 256.111 206.549Z" fill="#468AAD"/>
<path d="M222.719 232.514C225.433 235.742 231.037 235.485 235.246 231.959C239.455 228.434 240.663 222.948 237.959 219.72C235.256 216.492 228.413 216.749 224.205 220.235C223.3 220.942 222.543 221.822 221.978 222.823C221.414 223.823 221.052 224.925 220.914 226.066C220.776 227.207 220.864 228.363 221.174 229.47C221.484 230.576 222.009 231.611 222.719 232.514V232.514Z" fill="#121A26"/>
<path d="M257.2 228.958C260.399 228.661 262.647 224.522 262.152 219.709C261.657 214.897 256.953 207.302 253.744 207.589C250.536 207.876 249.387 214.283 249.783 219.095C250.18 223.908 254.002 229.246 257.2 228.958Z" fill="#121A26"/>
<path d="M262.249 231.169C261.81 226.349 263.945 222.214 267.017 221.935C270.089 221.655 272.935 225.336 273.373 230.157C273.812 234.977 271.677 239.111 268.605 239.39C265.534 239.67 262.688 235.989 262.249 231.169Z" fill="#121A26"/>
<path d="M278.183 248.562C275.467 248.454 273.402 244.916 273.571 240.659C273.74 236.402 276.078 233.038 278.794 233.146C281.51 233.253 283.575 236.792 283.407 241.049C283.238 245.306 280.899 248.669 278.183 248.562Z" fill="#121A26"/>
<path d="M273.896 239.822C273.896 239.753 273.896 239.703 273.896 239.634C274.155 238.673 274.486 237.733 274.886 236.822C274.589 237.832 274.262 238.832 273.896 239.822Z" fill="#2C5777"/>
<path d="M274.738 255.171C276.374 255.203 277.942 255.831 279.147 256.938C280.353 258.045 281.112 259.554 281.283 261.181C281.328 261.726 281.285 262.275 281.155 262.805C274.698 265.212 267.954 263.578 266.301 260.676C266.009 260.154 265.77 259.603 265.588 259.033C268.202 256.735 271.203 254.982 274.738 255.171Z" fill="#2C5777"/>
<path d="M262.29 234.792C262.36 233.237 261.647 231.336 262.29 227.632C263.281 221.899 266.667 220.938 266.667 220.938C266.667 220.938 267.123 220.938 267.875 220.938C267.917 226.112 265.909 231.093 262.29 234.792V234.792Z" fill="#1F4060"/>
<path d="M262.231 243.545C268.173 242.684 271.836 245.407 271.143 251.091L270.43 251.487C260.28 256.587 254.378 253.002 253.517 249.566C253.444 249.276 253.394 248.982 253.368 248.684C255.151 245.724 258.597 244.06 262.231 243.545Z" fill="#2C5777"/>
<path d="M290.604 212.113C288.936 211.75 287.839 210.291 288.152 208.853C288.465 207.416 290.07 206.545 291.738 206.908C293.405 207.271 294.503 208.731 294.19 210.168C293.876 211.606 292.271 212.477 290.604 212.113Z" fill="#468AAD"/>
<path d="M277.56 233.399C277.56 233.399 282.996 231.141 287.749 238.082C291.71 243.925 290.888 256.343 285.848 260.215C278.382 265.968 268.35 264.304 266.34 260.68C262.666 254.035 270.568 252.709 272.153 248.51C273.737 244.311 273.143 242.727 273.935 239.598C275.371 234.26 277.56 233.399 277.56 233.399Z" fill="#468AAD"/>
<path d="M272.153 248.506C273.737 244.317 273.143 242.723 273.935 239.594C275.381 234.217 277.56 233.355 277.56 233.355C277.56 233.355 281.372 231.791 285.412 235.336C285.313 235.435 285.224 235.514 285.135 235.613C282.541 238.475 281.174 243.456 280.689 247.268C280.357 249.274 280.414 251.325 280.857 253.309C281.679 256.28 283.828 258.805 286.71 259.359C286.449 259.651 286.161 259.917 285.848 260.152C278.382 265.905 268.35 264.241 266.34 260.617C262.666 254.032 270.569 252.705 272.153 248.506Z" fill="#2C5777"/>
<path d="M276.896 250.229C274.134 253.784 268.192 256.754 265.508 258.557C264.419 253.685 270.757 252.219 272.153 248.506C273.737 244.317 273.143 242.723 273.935 239.593C275.381 234.216 277.56 233.355 277.56 233.355C279.212 232.833 280.997 232.921 282.59 233.602C282.877 238.851 279.857 246.436 276.896 250.229Z" fill="#1C4A66"/>
<path d="M283.878 247.763C283.957 246.456 284.174 244.307 285.472 243.624C285.953 243.344 286.524 243.259 287.066 243.388C287.608 243.517 288.08 243.85 288.383 244.317C288.959 245.553 289.145 246.934 288.918 248.278C288.857 248.732 288.754 249.18 288.611 249.615C288.505 250.275 288.205 250.889 287.749 251.378C287.716 251.425 287.686 251.475 287.66 251.526C287.344 251.856 286.928 252.071 286.476 252.139C286.025 252.207 285.564 252.124 285.165 251.903C284.784 251.654 284.474 251.311 284.265 250.906C284.057 250.502 283.957 250.05 283.976 249.595C283.871 248.991 283.838 248.376 283.878 247.763V247.763Z" fill="#61B4DF"/>
<path d="M266.667 220.938C266.667 220.938 278.55 220.185 280.956 229.286C282.041 233.634 281.584 238.224 279.662 242.272C277.741 246.321 274.474 249.578 270.42 251.487C260.27 256.587 254.368 253.002 253.506 249.566C252.1 244.011 258.616 239.753 261.092 237.277C263.567 234.801 263.488 233.514 264.478 227.78C265.469 222.047 266.667 220.938 266.667 220.938Z" fill="#468AAD"/>
<path d="M261.092 237.277C263.568 234.801 263.488 233.514 264.479 227.78C265.469 222.047 266.667 220.937 266.667 220.937C268.492 220.875 270.317 221.058 272.094 221.482C271.297 223.605 270.694 225.796 270.291 228.028C268.994 234.197 268.44 243.872 276.094 246.278L276.896 246.486C275.095 248.57 272.892 250.271 270.42 251.487C260.27 256.587 254.368 253.002 253.506 249.566C252.1 244.01 258.616 239.752 261.092 237.277Z" fill="#2C5777"/>
<path d="M261.092 237.277C263.568 234.801 261.3 233.365 262.29 227.632C263.28 221.898 266.667 220.937 266.667 220.937C268.492 220.875 270.317 221.058 272.094 221.482C269.677 223.284 269.242 235.108 265.073 239.742C261.112 242.971 251.209 245.813 253.734 250.229C253.635 250.017 253.559 249.794 253.507 249.566C252.1 244.01 258.616 239.752 261.092 237.277Z" fill="#1C4A66"/>
<path d="M273.559 233.959C273.471 232.538 273.896 231.133 274.757 229.998C275.083 229.684 275.482 229.455 275.918 229.332C276.354 229.209 276.814 229.196 277.256 229.294C277.699 229.392 278.11 229.598 278.453 229.894C278.796 230.19 279.061 230.566 279.223 230.989C279.708 232.403 279.81 233.919 279.521 235.385C279.428 236.44 279.037 237.447 278.392 238.287C278.109 238.596 277.76 238.836 277.37 238.989C276.98 239.141 276.56 239.202 276.143 239.167C275.725 239.131 275.322 239.001 274.963 238.784C274.605 238.568 274.3 238.273 274.074 237.92C273.341 236.831 273.45 235.257 273.559 233.959Z" fill="#61B4DF"/>
<path d="M259.408 229.701C256.437 232.118 250.417 222.017 251.486 215.432C252.556 208.847 252.922 207.985 260.775 205.44C269.687 202.568 287.839 201.35 294.156 205.5C300.474 209.649 297.295 218.264 287.472 219.294C276.48 220.452 265.934 224.433 259.408 229.701Z" fill="#468AAD"/>
<path d="M282.055 212.273C290.968 212.362 292.621 218.789 287.502 219.294C276.47 220.383 267.618 224.047 261.092 229.305C258.121 231.722 252.734 227.642 253.833 221.047C253.903 220.631 270.836 212.164 282.055 212.273Z" fill="#2C5777"/>
<path d="M254.338 225.146C258.3 222.726 262.526 220.768 266.934 219.313C269.965 218.402 275.5 216.521 278.56 217.61C280.412 218.264 279.55 219.472 278.56 220.858C271.222 222.987 265.914 225.403 261.072 229.305C258.775 231.167 255.061 229.701 253.982 225.344C254.111 225.245 254.229 225.215 254.338 225.146Z" fill="#1F4060"/>
<path d="M333.072 219.975C333.072 214.12 328.326 209.373 322.471 209.373H248.609C242.754 209.373 238.008 214.12 238.008 219.975V260.168C238.008 266.023 242.754 270.769 248.609 270.769H322.471C328.326 270.769 333.072 266.023 333.072 260.168V219.975Z" fill="white"/>
<path fill-rule="evenodd" clip-rule="evenodd" d="M248.609 215.156H322.471C325.132 215.156 327.29 217.313 327.29 219.975V260.168C327.29 262.829 325.132 264.986 322.471 264.986H248.609C245.948 264.986 243.79 262.829 243.79 260.168V219.975C243.79 217.313 245.948 215.156 248.609 215.156ZM322.471 209.373C328.326 209.373 333.072 214.12 333.072 219.975V260.168C333.072 266.023 328.326 270.769 322.471 270.769H248.609C242.754 270.769 238.008 266.023 238.008 260.168V219.975C238.008 214.12 242.754 209.373 248.609 209.373H322.471Z" fill="#F55949"/>
<path fill-rule="evenodd" clip-rule="evenodd" d="M329.98 226.76C329.363 225.287 327.669 224.593 326.197 225.209L285.871 242.09L245.546 225.209C244.073 224.593 242.379 225.287 241.763 226.76C241.146 228.233 241.84 229.927 243.313 230.543L284.755 247.891C285.469 248.19 286.274 248.19 286.988 247.891L328.429 230.543C329.902 229.927 330.597 228.233 329.98 226.76Z" fill="#F55949"/>
<path opacity="0.4" d="M252.862 247.604C258.407 247.208 259.793 240.838 259.793 237.702C259.397 229.78 245.105 228.79 238.008 229.285V241.062C240.649 243.207 247.316 248 252.862 247.604Z" fill="#898989"/>
<path d="M232.79 213.045C238.326 211.827 250.615 211.065 258.735 222.671C266.855 234.276 263.26 242.802 255.279 242.297C249.664 241.941 248.565 229.711 231.424 234.177C225.047 235.831 219.947 228.127 222.72 221.74C224.472 217.63 229.156 213.837 232.79 213.045Z" fill="#468AAD"/>
<path d="M222.69 221.74C223.196 220.576 223.862 219.49 224.671 218.512C224.671 218.858 224.671 219.215 224.671 219.571C224.997 230.167 239.148 227.988 245.248 224.443C247.152 223.363 248.813 221.904 250.13 220.156C251.106 219.041 251.826 217.726 252.239 216.303C254.76 218.009 256.943 220.168 258.676 222.671C266.845 234.247 263.201 242.803 255.22 242.298C249.605 241.941 248.506 229.711 231.365 234.178C225.017 235.831 219.917 228.117 222.69 221.74Z" fill="#2C5777"/>
<path d="M225.512 230.92C230.374 231.96 234.781 228.791 239.594 229.276C245.585 229.87 247.417 233.93 250.486 238.367C251.238 239.489 252.104 240.531 253.071 241.476C249.021 238.743 246.139 230.355 231.434 234.178C227.849 235.109 224.67 233.079 223.066 229.989C223.831 230.419 224.655 230.733 225.512 230.92V230.92Z" fill="#1F4060"/>
<path d="M235.286 215.531C237.074 214.572 239.143 214.274 241.129 214.69C241.72 214.825 242.267 215.113 242.713 215.525C243.159 215.937 243.491 216.458 243.674 217.037C243.84 217.554 243.856 218.108 243.719 218.634C243.582 219.16 243.299 219.637 242.901 220.007C242.2 220.96 241.205 221.656 240.069 221.988C238.227 222.533 236.019 222.641 234.524 221.225C234.1 220.848 233.775 220.373 233.578 219.842C233.381 219.31 233.317 218.738 233.392 218.176C233.467 217.614 233.679 217.079 234.01 216.618C234.34 216.157 234.778 215.784 235.286 215.531Z" fill="#61B4DF"/>
<path d="M253.111 228.117C253.228 227.732 253.429 227.377 253.699 227.079C253.97 226.781 254.303 226.547 254.676 226.394C255.053 226.152 255.483 226.004 255.929 225.963C256.375 225.922 256.825 225.988 257.24 226.156C258.577 226.721 259.756 228.454 260.29 230.266C260.389 230.484 260.469 230.702 260.538 230.9C260.869 231.889 260.869 232.96 260.538 233.95C260.313 234.523 259.889 234.995 259.342 235.279C258.796 235.564 258.165 235.64 257.567 235.495V235.495C255.28 235.495 253.913 232.791 253.289 230.939C252.945 230.038 252.883 229.054 253.111 228.117V228.117Z" fill="#468AAD"/>
</svg>
