<svg width="472" height="472" viewBox="0 0 472 472" fill="none" xmlns="http://www.w3.org/2000/svg">
<path d="M-18.1545 -130.754C-21.1647 -136.867 -16.7109 -144.148 -9.89682 -144.148H1.93466C5.24231 -144.148 8.27061 -142.351 9.78236 -139.409C21.0757 -117.432 67.1067 -23.5477 66.832 46.1249C66.5175 125.875 5.28619 156.647 5.28619 236.398C5.28619 316.149 66.5175 346.921 66.832 426.671C67.1067 496.344 21.0758 590.228 9.78237 612.205C8.27062 615.147 5.24231 616.944 1.93466 616.944H-9.89682C-16.7109 616.944 -21.1647 609.664 -18.1545 603.55C-2.46687 571.692 34.7929 489.376 34.5457 426.671C34.2312 346.921 -27.0001 316.149 -27.0001 236.398C-27.0001 156.647 34.2312 125.875 34.5457 46.1249C34.7929 -16.58 -2.46687 -98.8958 -18.1545 -130.754Z" fill="#9CD7FF"/>
<path d="M169.512 -130.754C166.502 -136.867 170.956 -144.148 177.77 -144.148H189.601C192.909 -144.148 195.937 -142.351 197.449 -139.409C208.742 -117.432 254.773 -23.5477 254.499 46.1249C254.184 125.875 192.953 156.647 192.953 236.398C192.953 316.149 254.184 346.921 254.499 426.671C254.773 496.344 208.742 590.228 197.449 612.205C195.937 615.147 192.909 616.944 189.601 616.944H177.77C170.956 616.944 166.502 609.664 169.512 603.55C185.2 571.692 222.46 489.376 222.212 426.671C221.898 346.921 160.667 316.149 160.667 236.398C160.667 156.647 221.898 125.875 222.212 46.1249C222.46 -16.58 185.2 -98.8958 169.512 -130.754Z" fill="#9CD7FF"/>
<path d="M357.179 -130.754C354.169 -136.867 358.623 -144.148 365.437 -144.148H377.268C380.576 -144.148 383.604 -142.351 385.116 -139.409C396.409 -117.432 442.44 -23.5477 442.165 46.1249C441.851 125.875 380.62 156.647 380.62 236.398C380.62 316.149 441.851 346.921 442.165 426.671C442.44 496.344 396.409 590.228 385.116 612.205C383.604 615.147 380.576 616.944 377.268 616.944H365.437C358.623 616.944 354.169 609.664 357.179 603.55C372.867 571.692 410.126 489.376 409.879 426.671C409.565 346.921 348.333 316.149 348.333 236.398C348.333 156.647 409.565 125.875 409.879 46.1249C410.126 -16.58 372.867 -98.8958 357.179 -130.754Z" fill="#9CD7FF"/>
<path d="M75.6788 -130.754C72.6685 -136.867 77.1223 -144.148 83.9364 -144.148H95.7679C99.0756 -144.148 102.104 -142.351 103.616 -139.409C114.909 -117.432 160.94 -23.5477 160.665 46.1249C160.351 125.875 99.1194 156.647 99.1194 236.398C99.1194 316.149 160.351 346.921 160.665 426.671C160.94 496.344 114.909 590.228 103.616 612.205C102.104 615.147 99.0756 616.944 95.7679 616.944H83.9364C77.1223 616.944 72.6685 609.664 75.6788 603.55C91.3664 571.692 128.626 489.376 128.379 426.671C128.064 346.921 66.8331 316.149 66.8331 236.398C66.8331 156.647 128.064 125.875 128.379 46.1249C128.626 -16.58 91.3664 -98.8958 75.6788 -130.754Z" fill="#9CD7FF"/>
<path d="M263.345 -130.754C260.335 -136.867 264.789 -144.148 271.603 -144.148H283.435C286.742 -144.148 289.77 -142.351 291.282 -139.409C302.576 -117.432 348.607 -23.5477 348.332 46.1249C348.017 125.875 286.786 156.647 286.786 236.398C286.786 316.149 348.017 346.921 348.332 426.671C348.607 496.344 302.576 590.228 291.282 612.205C289.77 615.147 286.742 616.944 283.435 616.944H271.603C264.789 616.944 260.335 609.664 263.345 603.55C279.033 571.692 316.293 489.376 316.046 426.671C315.731 346.921 254.5 316.149 254.5 236.398C254.5 156.647 315.731 125.875 316.046 46.1249C316.293 -16.58 279.033 -98.8958 263.345 -130.754Z" fill="#9CD7FF"/>
<path d="M451.012 -130.754C448.002 -136.867 452.456 -144.148 459.27 -144.148H471.102C474.409 -144.148 477.437 -142.351 478.949 -139.409C490.243 -117.432 536.274 -23.5477 535.999 46.1249C535.684 125.875 474.453 156.647 474.453 236.398C474.453 316.149 535.684 346.921 535.999 426.671C536.274 496.344 490.243 590.228 478.949 612.205C477.437 615.147 474.409 616.944 471.102 616.944H459.27C452.456 616.944 448.002 609.664 451.012 603.55C466.7 571.692 503.96 489.376 503.713 426.671C503.398 346.921 442.167 316.149 442.167 236.398C442.167 156.647 503.398 125.875 503.713 46.1249C503.96 -16.58 466.7 -98.8958 451.012 -130.754Z" fill="#9CD7FF"/>
</svg>
