<svg width="46" height="46" fill="none" xmlns="http://www.w3.org/2000/svg"><path d="M6.162 30.188c-1.833 0-3.287 1.39-3.287 3.285 0 .759.147 1.438.61 1.926l6.837 7.134c.467.488 1.35.592 2.047.592 1.804 0 3.444-1.581 3.444-3.471v-6.348c-.002-1.895-1.799-3.118-3.6-3.118H6.162zm25.463-7.189a8.62 8.62 0 00-8.626-8.624 8.617 8.617 0 00-8.624 8.624 8.619 8.619 0 008.624 8.626 8.623 8.623 0 008.626-8.626zm-6.11-5.03c1.4 0 2.516 1.114 2.516 2.515A2.5 2.5 0 0125.514 23 2.5 2.5 0 0123 20.484a2.498 2.498 0 012.514-2.515z" fill="#142333"/><path d="M23.13 0C10.525 0 0 10.496 0 23.072v.682c0 2.218 2.167 4.045 4.392 4.045 2.227 0 4.392-1.824 4.392-4.045v-.682c0-8.061 5.92-14.617 14-14.617 8.078 0 14.591 6.333 14.591 14.393s-6.631 14.39-14.71 14.39h-.685c-2.224 0-3.524 2.163-3.524 4.382 0 2.22 1.83 4.38 4.056 4.38h.685C35.802 46 46 35.576 46 23 46 10.427 35.802 0 23.197 0h-.068z" fill="#142333"/></svg>