<svg width="472" height="323" fill="none" xmlns="http://www.w3.org/2000/svg"><path d="M304.935 107.701s19.953-44.35 25.573-52.604c5.619-8.254 12.343-4.06 11.869 4.032-.474 8.094-7.581 51.44-7.581 51.44l-29.861-2.868z" fill="#346E91"/><path d="M341.307 53.541c.007 3.137-6.534 31.897-9.541 36.604-3.007 4.706-8.372 2.885-19.258 1.008a92.564 92.564 0 00-7.553 16.452l29.86 2.868s7.107-43.346 7.581-51.44a10.463 10.463 0 00-1.089-5.492z" fill="#2C5776"/><path d="M357.138 127.34c-5.267 17.692-21.89 11.183-44.054 5.413-22.165-5.769-38.792-18.791-35.42-28.576 5.17-14.936 22.677-13.402 44.849-7.67 22.173 5.731 38.757 16.986 34.625 30.833z" fill="#346E91"/><path d="M356.895 123.396a8.201 8.201 0 01-4.886-5.48 26.124 26.124 0 01-.996-5.953c-.057-.61-.075-1.313-.131-2.023a41.604 41.604 0 00-4.598-3.545c1.662 11.561-12.797 4.03-26.092.629a164.717 164.717 0 00-41.356-5.787c-.254.568-1.041 2.287-1.264 2.901-3.373 9.786 13.255 22.807 35.419 28.577 22.165 5.77 38.788 12.278 44.055-5.414a14.75 14.75 0 00.624-3.689 5.123 5.123 0 01-.775-.216z" fill="#2C5776"/><path d="M277.594 104.522c-2.885 9.744 13.574 22.512 35.489 28.231 21.916 5.72 38.439 12.129 43.877-4.93-24.921-12.597-51.185-21.81-79.366-23.301z" fill="#273C56"/><path d="M315.431 99.931c-.388 1.92-5.902 1.926-12.711.732-6.81-1.194-10.632-2.145-10.284-4.072.349-1.927 4.828-3.14 11.638-1.947 6.81 1.194 11.682 3.376 11.357 5.287zm12.387-34.571c-2.114 5.726-3.99 13.836-1.948 14.607 2.041.772 5.543-6.192 7.68-11.932 2.137-5.74 3.885-10.94 1.824-11.616-2.061-.675-5.427 3.24-7.556 8.942z" fill="#5CA1BD"/><path d="M435.331 440.151c9.952-32.744-72.726-86.87-184.668-120.892-111.941-34.022-210.755-35.058-220.707-2.314-9.952 32.744 72.727 86.869 184.668 120.892 111.941 34.022 210.755 35.058 220.707 2.314z" fill="#1F4060"/><path d="M433.654 445.683c9.952-32.744-72.727-86.869-184.668-120.892-111.942-34.022-210.756-35.058-220.708-2.314-9.952 32.745 72.727 86.87 184.668 120.892 111.941 34.023 210.756 35.059 220.708 2.314z" fill="#121A26"/><path d="M431.426 453.03c9.952-32.745-72.727-86.87-184.668-120.892-111.941-34.023-210.756-35.059-220.708-2.315-9.952 32.745 72.727 86.87 184.668 120.893 111.942 34.022 210.756 35.058 220.708 2.314z" fill="#4B8CAB"/><path d="M250.665 319.294c108.194 32.872 189.03 84.533 185.35 117.525l17.702-58.046a211.354 211.354 0 00-301.513-246.845A211.35 211.35 0 0049.293 255.841l-17.224 56.664c17.395-28.108 112.086-25.623 218.596 6.789z" fill="#346F93"/><path opacity=".58" d="M351.541 338.046c22.232-7.039 41.601-35.029 42.336-70.652.628-31.331-8.519-71.925-47.299-107.511-17.022-15.618-44.421-35.046-97.794-39.083-38.661-2.906-86.256 12.239-111.018 28.156-20.907 13.439-40.922 33.448-52.736 53.495a97.579 97.579 0 00-13.414 44.511l-.054.268c-.565 12.01.683 23.546 6.67 34.162a23.18 23.18 0 0020.262 11.537c40.341-.071 94.455 8.709 152.04 26.219 2.261.675 4.475 1.382 6.708 2.092 44.202 14.55 75.098 22.88 94.299 16.806z" fill="#5CA1BD"/><path d="M134.309 208.857c24.857-30.937 49.2-46.558 124.541-29.641 36.303 8.162 69.376 37.084 87.634 50.734-14.318-23.081-50.097-47.896-93.796-57.71-75.338-16.936-119.317-3.778-143.644 29.982-14.406 20.023-17.562 54.38 17.958 60.087-7.099-14.514.447-44.889 7.307-53.452z" fill="#1F4060"/><path d="M106.526 234.111c-1.552 20.759 15.247 27.883 20.476 28.198 43.031 2.53 99.188 13.26 157.615 35.513 53.062 20.231 67.152-4.569 72.527-19.923 5.694-16.248 4.366-71.143-100.273-99.363-84.263-22.791-146.521 4.736-150.345 55.575z" fill="#121A26"/><path d="M414.072 222.634c-4.443 2.219-12.321-2.686-17.649-10.931-5.327-8.245-6.089-16.648-1.727-18.864 4.362-2.216 12.248 2.651 17.602 10.862 5.355 8.21 6.174 16.724 1.774 18.933z" fill="#5CA1BD"/><path d="M191.465 235.827a4.813 4.813 0 01-4.415-5.144 12.176 12.176 0 00-3.307-8.657 19.049 19.049 0 00-12.933-6.384c-9.252-.668-17.76 5.764-18.3 11.508a4.802 4.802 0 01-8.442 2.724 4.801 4.801 0 01-1.129-3.496c.953-11.652 14.511-21.341 28.486-20.319a28.681 28.681 0 0119.501 9.666 21.549 21.549 0 015.646 15.58 4.82 4.82 0 01-5.149 4.434l.042.088zm89.604 22.651a4.8 4.8 0 01-2.171-5.971c4.939-12.505 18.672-18.204 32.66-13.384 13.435 4.587 21.504 17.261 18.734 29.505a4.794 4.794 0 01-5.735 3.626 4.8 4.8 0 01-3.626-5.735c1.683-7.45-3.68-15.322-12.483-18.317-8.804-2.994-17.583.228-20.575 7.834a4.799 4.799 0 01-6.225 2.738l-.579-.296z" fill="#43E0BB"/><path d="M435.57 277.942c-3.7-7.797-16.031-4.193-14.116 3.244a7.398 7.398 0 00-1.251 4.221c.038 11.593.414 23.193 1.278 34.752.551 7.761.542 15.529 6.723 21.03 4.389 3.882 10.319 1.123 11.863-3.958a82.228 82.228 0 00-4.497-59.289z" fill="#468AAD"/></svg>