<svg width="50" height="36" viewBox="0 0 50 36" fill="none" xmlns="http://www.w3.org/2000/svg">
<path d="M16.017 1.09104H9.07955L0.4375 6.56263V13.1081L8.43182 8.09672H8.63636V36.0001H16.017V1.09104Z" fill="#16C460"/>
<path d="M24.3139 36.0001H49.2003V29.966H34.5412V29.7274L39.6378 24.7331C46.8139 18.1876 48.7401 14.9149 48.7401 10.9433C48.7401 4.89218 43.7969 0.61377 36.3139 0.61377C28.9844 0.61377 23.956 4.99445 23.973 11.8467H30.9787C30.9616 8.50581 33.0753 6.46036 36.2628 6.46036C39.331 6.46036 41.6151 8.36945 41.6151 11.4376C41.6151 14.216 39.9105 16.1251 36.7401 19.1763L24.3139 30.6819V36.0001Z" fill="#16C460"/>
</svg>
