<svg width="82" height="36" viewBox="0 0 82 36" fill="none" xmlns="http://www.w3.org/2000/svg">
<path d="M16.4936 0.0908203H9.55611L0.914062 5.56241V12.1079L8.90838 7.0965H9.11293V34.9999H16.4936V0.0908203Z" fill="#AD650E"/>
<path d="M37.5405 35.4772C45.3132 35.4772 50.5973 30.4147 50.5803 23.3579C50.5973 16.6761 45.9268 11.8692 39.6371 11.8692C36.5689 11.8692 33.9268 13.1476 32.6996 14.8692H32.495L33.3984 6.12491H48.6541V0.0908203H27.3132L25.6598 18.4999L32.2223 19.676C33.2962 18.2272 35.3757 17.3238 37.4382 17.3238C40.9496 17.3408 43.4723 19.8806 43.4723 23.5454C43.4723 27.1761 41.0007 29.6817 37.5405 29.6817C34.6087 29.6817 32.2393 27.8408 32.0689 25.1306H24.9098C25.0462 31.1647 30.3132 35.4772 37.5405 35.4772Z" fill="#AD650E"/>
<path d="M66.1598 29.6817H72.2621V20.6647H81.2791V14.5624H72.2621V5.54537H66.1598V14.5624H57.1428V20.6647H66.1598V29.6817Z" fill="#AD650E"/>
</svg>
