<svg width="77" height="35" viewBox="0 0 77 35" fill="none" xmlns="http://www.w3.org/2000/svg">
<path d="M8.05118 34.9999L10.6421 27.0397H23.2387L25.8296 34.9999H33.7387L21.7046 0.0908203H12.1932L0.14209 34.9999H8.05118ZM12.5171 21.2783L16.8125 8.06809H17.0853L21.3807 21.2783H12.5171Z" fill="#3966F1"/>
<path d="M37.9404 34.9999H45.3211V23.6817H51.5256C59.554 23.6817 64.2245 18.892 64.2245 11.9204C64.2245 4.98287 59.6393 0.0908203 51.7131 0.0908203H37.9404V34.9999ZM45.3211 17.767V6.12491H50.2983C54.5597 6.12491 56.6222 8.44309 56.6222 11.9204C56.6222 15.3806 54.5597 17.767 50.3324 17.767H45.3211Z" fill="#3966F1"/>
<path d="M76.3992 0.0908203H69.0185V34.9999H76.3992V0.0908203Z" fill="#3966F1"/>
</svg>
