<svg width="134" height="40" viewBox="0 0 134 40" fill="none" xmlns="http://www.w3.org/2000/svg">
<path fill-rule="evenodd" clip-rule="evenodd" d="M112 4C104.268 4 98 10.268 98 18C98 25.732 104.268 32 112 32C119.732 32 126 25.732 126 18C126 10.268 119.732 4 112 4ZM94 18C94 8.05887 102.059 0 112 0C121.941 0 130 8.05887 130 18C130 22.2899 128.499 26.2292 125.994 29.3217L133.447 36.774C134.184 37.512 134.184 38.7085 133.447 39.4465C132.708 40.1845 131.512 40.1845 130.774 39.4465L123.322 31.9943C120.229 34.4993 116.29 36 112 36C102.059 36 94 27.9411 94 18ZM21.7217 24.1306V2.09082H29.1024V24.7613C29.1024 32.3976 23.3069 37.4942 14.6308 37.4942C5.92054 37.4942 0.15918 32.3976 0.15918 24.7613V2.09082H7.53986V24.1306C7.53986 28.1192 10.3524 30.9999 14.6308 30.9999C18.9262 30.9999 21.7217 28.1192 21.7217 24.1306ZM42.5555 36.9999H35.1748V2.09082H48.9475C56.8737 2.09082 61.4589 6.55673 61.4589 13.4942C61.4589 18.267 59.26 21.7272 55.2884 23.4317L62.7032 36.9999H54.5555L47.9418 24.6249H42.5555V36.9999ZM42.5555 8.12491V18.6931H47.5668C51.7941 18.6931 53.8566 16.9545 53.8566 13.4942C53.8566 10.017 51.7941 8.12491 47.5328 8.12491H42.5555ZM66.6748 36.9999H89.0214V30.9147H74.0555V2.09082H66.6748V36.9999Z" fill="#00CED0"/>
</svg>
